%TF.GenerationSoftware,KiCad,Pcbnew,(6.0.2)*%
%TF.CreationDate,2022-04-15T20:49:01-04:00*%
%TF.ProjectId,firebeetle-shield,66697265-6265-4657-946c-652d73686965,rev?*%
%TF.SameCoordinates,Original*%
%TF.FileFunction,Soldermask,Top*%
%TF.FilePolarity,Negative*%
%FSLAX46Y46*%
G04 Gerber Fmt 4.6, Leading zero omitted, Abs format (unit mm)*
G04 Created by KiCad (PCBNEW (6.0.2)) date 2022-04-15 20:49:01*
%MOMM*%
%LPD*%
G01*
G04 APERTURE LIST*
G04 Aperture macros list*
%AMRoundRect*
0 Rectangle with rounded corners*
0 $1 Rounding radius*
0 $2 $3 $4 $5 $6 $7 $8 $9 X,Y pos of 4 corners*
0 Add a 4 corners polygon primitive as box body*
4,1,4,$2,$3,$4,$5,$6,$7,$8,$9,$2,$3,0*
0 Add four circle primitives for the rounded corners*
1,1,$1+$1,$2,$3*
1,1,$1+$1,$4,$5*
1,1,$1+$1,$6,$7*
1,1,$1+$1,$8,$9*
0 Add four rect primitives between the rounded corners*
20,1,$1+$1,$2,$3,$4,$5,0*
20,1,$1+$1,$4,$5,$6,$7,0*
20,1,$1+$1,$6,$7,$8,$9,0*
20,1,$1+$1,$8,$9,$2,$3,0*%
G04 Aperture macros list end*
%ADD10R,1.700000X1.700000*%
%ADD11O,1.700000X1.700000*%
%ADD12C,1.700000*%
%ADD13RoundRect,0.250000X-0.350000X-0.625000X0.350000X-0.625000X0.350000X0.625000X-0.350000X0.625000X0*%
%ADD14O,1.200000X1.750000*%
G04 APERTURE END LIST*
D10*
%TO.C,J1*%
X126455000Y-117790000D03*
D11*
X126455000Y-120330000D03*
X126455000Y-122870000D03*
X126455000Y-125410000D03*
X126455000Y-127950000D03*
X126455000Y-130490000D03*
X126455000Y-133030000D03*
X126455000Y-135570000D03*
X126455000Y-138110000D03*
X126455000Y-140650000D03*
X126455000Y-143190000D03*
X126455000Y-145730000D03*
X126455000Y-148270000D03*
X126455000Y-150810000D03*
%TD*%
D10*
%TO.C,J5*%
X103595000Y-107630000D03*
D11*
X103595000Y-110170000D03*
X103595000Y-112710000D03*
X103595000Y-115250000D03*
X103595000Y-117790000D03*
X103595000Y-120330000D03*
X103595000Y-122870000D03*
X103595000Y-125410000D03*
X103595000Y-127950000D03*
X103595000Y-130490000D03*
X103595000Y-133030000D03*
X103595000Y-135570000D03*
X103595000Y-138110000D03*
X103595000Y-140650000D03*
X103595000Y-143190000D03*
X103595000Y-145730000D03*
X103595000Y-148270000D03*
X103595000Y-150810000D03*
%TD*%
%TO.C,REF\u002A\u002A*%
X123890000Y-150800000D03*
X123831342Y-122860000D03*
X123849092Y-148268322D03*
X123831342Y-120320000D03*
X123849092Y-138135709D03*
X123849092Y-140684031D03*
X123849092Y-133020000D03*
X123849092Y-135560000D03*
X123890000Y-117780000D03*
X123831342Y-125471143D03*
X123849092Y-143180000D03*
X123849092Y-145720000D03*
X123890000Y-127940000D03*
X123849092Y-130480000D03*
X121309092Y-148268322D03*
X121309092Y-138135709D03*
X121350000Y-127940000D03*
X121309092Y-140684031D03*
X121291342Y-120320000D03*
X121309092Y-130480000D03*
X121291342Y-125471143D03*
X121309092Y-135560000D03*
X121309092Y-133020000D03*
X121350000Y-117780000D03*
X121291342Y-122860000D03*
D10*
X121350000Y-150800000D03*
D11*
X121309092Y-143180000D03*
X121309092Y-145720000D03*
X118769092Y-143180000D03*
X118810000Y-150800000D03*
X118810000Y-117780000D03*
X118769092Y-145720000D03*
X118751342Y-122860000D03*
X118810000Y-127940000D03*
X118769092Y-138135709D03*
X118751342Y-125471143D03*
X118769092Y-140684031D03*
X118769092Y-135560000D03*
X118751342Y-120320000D03*
X118769092Y-133020000D03*
X118769092Y-148268322D03*
X118769092Y-130480000D03*
X116211342Y-122860000D03*
X116229092Y-148268322D03*
X116229092Y-140684031D03*
X116211342Y-120320000D03*
X116229092Y-135560000D03*
X116229092Y-143180000D03*
X116229092Y-138135709D03*
X116229092Y-130480000D03*
X116270000Y-150800000D03*
X116270000Y-127940000D03*
X116270000Y-117780000D03*
X116211342Y-125471143D03*
X116229092Y-145720000D03*
X116229092Y-133020000D03*
X113689092Y-148268322D03*
X113689092Y-143180000D03*
X113689092Y-133020000D03*
X113689092Y-138135709D03*
X113689092Y-140684031D03*
X113730000Y-150800000D03*
X113671342Y-125471143D03*
X113689092Y-135560000D03*
X113689092Y-145720000D03*
X113689092Y-130480000D03*
X113730000Y-127940000D03*
X113671342Y-120320000D03*
X113671342Y-122860000D03*
X113730000Y-117780000D03*
X111190000Y-117780000D03*
X111149092Y-148268322D03*
X111149092Y-145720000D03*
X111149092Y-135560000D03*
X111149092Y-130480000D03*
X111190000Y-150800000D03*
X111190000Y-127940000D03*
X111131342Y-120320000D03*
X111149092Y-138135709D03*
X111131342Y-122860000D03*
X111131342Y-125471143D03*
X111149092Y-140684031D03*
X111149092Y-143180000D03*
X111149092Y-133020000D03*
X108591342Y-120320000D03*
X108650000Y-150800000D03*
X108609092Y-138135709D03*
X108650000Y-117780000D03*
X108609092Y-143180000D03*
X108591342Y-125471143D03*
X108609092Y-148268322D03*
X108609092Y-130480000D03*
X108609092Y-135560000D03*
X108591342Y-122860000D03*
X108609092Y-133020000D03*
X108650000Y-127940000D03*
X108609092Y-140684031D03*
X108609092Y-145720000D03*
D12*
X106069092Y-133020000D03*
X106069092Y-135560000D03*
X106069092Y-143180000D03*
X106110000Y-150800000D03*
X106110000Y-117780000D03*
X106069092Y-138135709D03*
X106069092Y-148268322D03*
X106069092Y-145720000D03*
X106069092Y-140684031D03*
X106069092Y-130480000D03*
X106051342Y-122860000D03*
X106110000Y-127940000D03*
X106051342Y-125471143D03*
X106051342Y-120320000D03*
%TD*%
D10*
%TO.C,J2*%
X121350000Y-160960000D03*
D11*
X118810000Y-160960000D03*
X116270000Y-160960000D03*
X113730000Y-160960000D03*
X111190000Y-160960000D03*
X108650000Y-160960000D03*
%TD*%
D13*
%TO.C,J3*%
X112000000Y-168000000D03*
D14*
X114000000Y-168000000D03*
X116000000Y-168000000D03*
X118000000Y-168000000D03*
%TD*%
D10*
%TO.C,J4*%
X121350000Y-112700000D03*
D11*
X118810000Y-112700000D03*
X116270000Y-112700000D03*
X113730000Y-112700000D03*
X111190000Y-112700000D03*
X108650000Y-112700000D03*
%TD*%
M02*
