%TF.GenerationSoftware,KiCad,Pcbnew,(6.0.4)*%
%TF.CreationDate,2022-04-21T22:00:58-04:00*%
%TF.ProjectId,firebeetle-shield,66697265-6265-4657-946c-652d73686965,rev?*%
%TF.SameCoordinates,Original*%
%TF.FileFunction,Legend,Bot*%
%TF.FilePolarity,Positive*%
%FSLAX46Y46*%
G04 Gerber Fmt 4.6, Leading zero omitted, Abs format (unit mm)*
G04 Created by KiCad (PCBNEW (6.0.4)) date 2022-04-21 22:00:58*
%MOMM*%
%LPD*%
G01*
G04 APERTURE LIST*
%ADD10C,0.150000*%
%ADD11C,0.120000*%
G04 APERTURE END LIST*
D10*
X120381142Y-115508761D02*
X120238285Y-115556380D01*
X120000190Y-115556380D01*
X119904952Y-115508761D01*
X119857333Y-115461142D01*
X119809714Y-115365904D01*
X119809714Y-115270666D01*
X119857333Y-115175428D01*
X119904952Y-115127809D01*
X120000190Y-115080190D01*
X120190666Y-115032571D01*
X120285904Y-114984952D01*
X120333523Y-114937333D01*
X120381142Y-114842095D01*
X120381142Y-114746857D01*
X120333523Y-114651619D01*
X120285904Y-114604000D01*
X120190666Y-114556380D01*
X119952571Y-114556380D01*
X119809714Y-114604000D01*
X118714476Y-115651619D02*
X118809714Y-115604000D01*
X118904952Y-115508761D01*
X119047809Y-115365904D01*
X119143047Y-115318285D01*
X119238285Y-115318285D01*
X119190666Y-115556380D02*
X119285904Y-115508761D01*
X119381142Y-115413523D01*
X119428761Y-115223047D01*
X119428761Y-114889714D01*
X119381142Y-114699238D01*
X119285904Y-114604000D01*
X119190666Y-114556380D01*
X119000190Y-114556380D01*
X118904952Y-114604000D01*
X118809714Y-114699238D01*
X118762095Y-114889714D01*
X118762095Y-115223047D01*
X118809714Y-115413523D01*
X118904952Y-115508761D01*
X119000190Y-115556380D01*
X119190666Y-115556380D01*
X118428761Y-114556380D02*
X118190666Y-115556380D01*
X118000190Y-114842095D01*
X117809714Y-115556380D01*
X117571619Y-114556380D01*
X116571619Y-114889714D02*
X116190666Y-114889714D01*
X116428761Y-114556380D02*
X116428761Y-115413523D01*
X116381142Y-115508761D01*
X116285904Y-115556380D01*
X116190666Y-115556380D01*
X115714476Y-115556380D02*
X115809714Y-115508761D01*
X115857333Y-115461142D01*
X115904952Y-115365904D01*
X115904952Y-115080190D01*
X115857333Y-114984952D01*
X115809714Y-114937333D01*
X115714476Y-114889714D01*
X115571619Y-114889714D01*
X115476380Y-114937333D01*
X115428761Y-114984952D01*
X115381142Y-115080190D01*
X115381142Y-115365904D01*
X115428761Y-115461142D01*
X115476380Y-115508761D01*
X115571619Y-115556380D01*
X115714476Y-115556380D01*
X114190666Y-115556380D02*
X114190666Y-114556380D01*
X113952571Y-114556380D01*
X113809714Y-114604000D01*
X113714476Y-114699238D01*
X113666857Y-114794476D01*
X113619238Y-114984952D01*
X113619238Y-115127809D01*
X113666857Y-115318285D01*
X113714476Y-115413523D01*
X113809714Y-115508761D01*
X113952571Y-115556380D01*
X114190666Y-115556380D01*
X113238285Y-114651619D02*
X113190666Y-114604000D01*
X113095428Y-114556380D01*
X112857333Y-114556380D01*
X112762095Y-114604000D01*
X112714476Y-114651619D01*
X112666857Y-114746857D01*
X112666857Y-114842095D01*
X112714476Y-114984952D01*
X113285904Y-115556380D01*
X112666857Y-115556380D01*
X123642857Y-169361380D02*
X123642857Y-168361380D01*
X123404761Y-168361380D01*
X123261904Y-168409000D01*
X123166666Y-168504238D01*
X123119047Y-168599476D01*
X123071428Y-168789952D01*
X123071428Y-168932809D01*
X123119047Y-169123285D01*
X123166666Y-169218523D01*
X123261904Y-169313761D01*
X123404761Y-169361380D01*
X123642857Y-169361380D01*
X122642857Y-169361380D02*
X122642857Y-168361380D01*
X121976190Y-168885190D02*
X121976190Y-169361380D01*
X122309523Y-168361380D02*
X121976190Y-168885190D01*
X121642857Y-168361380D01*
X121404761Y-168361380D02*
X120785714Y-168361380D01*
X121119047Y-168742333D01*
X120976190Y-168742333D01*
X120880952Y-168789952D01*
X120833333Y-168837571D01*
X120785714Y-168932809D01*
X120785714Y-169170904D01*
X120833333Y-169266142D01*
X120880952Y-169313761D01*
X120976190Y-169361380D01*
X121261904Y-169361380D01*
X121357142Y-169313761D01*
X121404761Y-169266142D01*
X120357142Y-169266142D02*
X120309523Y-169313761D01*
X120357142Y-169361380D01*
X120404761Y-169313761D01*
X120357142Y-169266142D01*
X120357142Y-169361380D01*
X120357142Y-168742333D02*
X120309523Y-168789952D01*
X120357142Y-168837571D01*
X120404761Y-168789952D01*
X120357142Y-168742333D01*
X120357142Y-168837571D01*
X129142857Y-170447571D02*
X129476190Y-170447571D01*
X129476190Y-170971380D02*
X129476190Y-169971380D01*
X129000000Y-169971380D01*
X128619047Y-170971380D02*
X128619047Y-170304714D01*
X128619047Y-169971380D02*
X128666666Y-170019000D01*
X128619047Y-170066619D01*
X128571428Y-170019000D01*
X128619047Y-169971380D01*
X128619047Y-170066619D01*
X128142857Y-170971380D02*
X128142857Y-170304714D01*
X128142857Y-170495190D02*
X128095238Y-170399952D01*
X128047619Y-170352333D01*
X127952380Y-170304714D01*
X127857142Y-170304714D01*
X127142857Y-170923761D02*
X127238095Y-170971380D01*
X127428571Y-170971380D01*
X127523809Y-170923761D01*
X127571428Y-170828523D01*
X127571428Y-170447571D01*
X127523809Y-170352333D01*
X127428571Y-170304714D01*
X127238095Y-170304714D01*
X127142857Y-170352333D01*
X127095238Y-170447571D01*
X127095238Y-170542809D01*
X127571428Y-170638047D01*
X126333333Y-170447571D02*
X126190476Y-170495190D01*
X126142857Y-170542809D01*
X126095238Y-170638047D01*
X126095238Y-170780904D01*
X126142857Y-170876142D01*
X126190476Y-170923761D01*
X126285714Y-170971380D01*
X126666666Y-170971380D01*
X126666666Y-169971380D01*
X126333333Y-169971380D01*
X126238095Y-170019000D01*
X126190476Y-170066619D01*
X126142857Y-170161857D01*
X126142857Y-170257095D01*
X126190476Y-170352333D01*
X126238095Y-170399952D01*
X126333333Y-170447571D01*
X126666666Y-170447571D01*
X125285714Y-170923761D02*
X125380952Y-170971380D01*
X125571428Y-170971380D01*
X125666666Y-170923761D01*
X125714285Y-170828523D01*
X125714285Y-170447571D01*
X125666666Y-170352333D01*
X125571428Y-170304714D01*
X125380952Y-170304714D01*
X125285714Y-170352333D01*
X125238095Y-170447571D01*
X125238095Y-170542809D01*
X125714285Y-170638047D01*
X124428571Y-170923761D02*
X124523809Y-170971380D01*
X124714285Y-170971380D01*
X124809523Y-170923761D01*
X124857142Y-170828523D01*
X124857142Y-170447571D01*
X124809523Y-170352333D01*
X124714285Y-170304714D01*
X124523809Y-170304714D01*
X124428571Y-170352333D01*
X124380952Y-170447571D01*
X124380952Y-170542809D01*
X124857142Y-170638047D01*
X124095238Y-170304714D02*
X123714285Y-170304714D01*
X123952380Y-169971380D02*
X123952380Y-170828523D01*
X123904761Y-170923761D01*
X123809523Y-170971380D01*
X123714285Y-170971380D01*
X123238095Y-170971380D02*
X123333333Y-170923761D01*
X123380952Y-170828523D01*
X123380952Y-169971380D01*
X122476190Y-170923761D02*
X122571428Y-170971380D01*
X122761904Y-170971380D01*
X122857142Y-170923761D01*
X122904761Y-170828523D01*
X122904761Y-170447571D01*
X122857142Y-170352333D01*
X122761904Y-170304714D01*
X122571428Y-170304714D01*
X122476190Y-170352333D01*
X122428571Y-170447571D01*
X122428571Y-170542809D01*
X122904761Y-170638047D01*
X121285714Y-170923761D02*
X121142857Y-170971380D01*
X120904761Y-170971380D01*
X120809523Y-170923761D01*
X120761904Y-170876142D01*
X120714285Y-170780904D01*
X120714285Y-170685666D01*
X120761904Y-170590428D01*
X120809523Y-170542809D01*
X120904761Y-170495190D01*
X121095238Y-170447571D01*
X121190476Y-170399952D01*
X121238095Y-170352333D01*
X121285714Y-170257095D01*
X121285714Y-170161857D01*
X121238095Y-170066619D01*
X121190476Y-170019000D01*
X121095238Y-169971380D01*
X120857142Y-169971380D01*
X120714285Y-170019000D01*
X120285714Y-170971380D02*
X120285714Y-169971380D01*
X119857142Y-170971380D02*
X119857142Y-170447571D01*
X119904761Y-170352333D01*
X120000000Y-170304714D01*
X120142857Y-170304714D01*
X120238095Y-170352333D01*
X120285714Y-170399952D01*
X119380952Y-170971380D02*
X119380952Y-170304714D01*
X119380952Y-169971380D02*
X119428571Y-170019000D01*
X119380952Y-170066619D01*
X119333333Y-170019000D01*
X119380952Y-169971380D01*
X119380952Y-170066619D01*
X118523809Y-170923761D02*
X118619047Y-170971380D01*
X118809523Y-170971380D01*
X118904761Y-170923761D01*
X118952380Y-170828523D01*
X118952380Y-170447571D01*
X118904761Y-170352333D01*
X118809523Y-170304714D01*
X118619047Y-170304714D01*
X118523809Y-170352333D01*
X118476190Y-170447571D01*
X118476190Y-170542809D01*
X118952380Y-170638047D01*
X117904761Y-170971380D02*
X118000000Y-170923761D01*
X118047619Y-170828523D01*
X118047619Y-169971380D01*
X117095238Y-170971380D02*
X117095238Y-169971380D01*
X117095238Y-170923761D02*
X117190476Y-170971380D01*
X117380952Y-170971380D01*
X117476190Y-170923761D01*
X117523809Y-170876142D01*
X117571428Y-170780904D01*
X117571428Y-170495190D01*
X117523809Y-170399952D01*
X117476190Y-170352333D01*
X117380952Y-170304714D01*
X117190476Y-170304714D01*
X117095238Y-170352333D01*
X116000000Y-169971380D02*
X115666666Y-170971380D01*
X115333333Y-169971380D01*
X114476190Y-170971380D02*
X115047619Y-170971380D01*
X114761904Y-170971380D02*
X114761904Y-169971380D01*
X114857142Y-170114238D01*
X114952380Y-170209476D01*
X115047619Y-170257095D01*
X127668095Y-104564380D02*
X127049047Y-104564380D01*
X127382380Y-104945333D01*
X127239523Y-104945333D01*
X127144285Y-104992952D01*
X127096666Y-105040571D01*
X127049047Y-105135809D01*
X127049047Y-105373904D01*
X127096666Y-105469142D01*
X127144285Y-105516761D01*
X127239523Y-105564380D01*
X127525238Y-105564380D01*
X127620476Y-105516761D01*
X127668095Y-105469142D01*
X126763333Y-104564380D02*
X126430000Y-105564380D01*
X126096666Y-104564380D01*
X125858571Y-104564380D02*
X125239523Y-104564380D01*
X125572857Y-104945333D01*
X125430000Y-104945333D01*
X125334761Y-104992952D01*
X125287142Y-105040571D01*
X125239523Y-105135809D01*
X125239523Y-105373904D01*
X125287142Y-105469142D01*
X125334761Y-105516761D01*
X125430000Y-105564380D01*
X125715714Y-105564380D01*
X125810952Y-105516761D01*
X125858571Y-105469142D01*
X127072857Y-106507714D02*
X126691904Y-106507714D01*
X126930000Y-106174380D02*
X126930000Y-107031523D01*
X126882380Y-107126761D01*
X126787142Y-107174380D01*
X126691904Y-107174380D01*
X126215714Y-107174380D02*
X126310952Y-107126761D01*
X126358571Y-107079142D01*
X126406190Y-106983904D01*
X126406190Y-106698190D01*
X126358571Y-106602952D01*
X126310952Y-106555333D01*
X126215714Y-106507714D01*
X126072857Y-106507714D01*
X125977619Y-106555333D01*
X125930000Y-106602952D01*
X125882380Y-106698190D01*
X125882380Y-106983904D01*
X125930000Y-107079142D01*
X125977619Y-107126761D01*
X126072857Y-107174380D01*
X126215714Y-107174380D01*
X127001428Y-108784380D02*
X127334761Y-108308190D01*
X127572857Y-108784380D02*
X127572857Y-107784380D01*
X127191904Y-107784380D01*
X127096666Y-107832000D01*
X127049047Y-107879619D01*
X127001428Y-107974857D01*
X127001428Y-108117714D01*
X127049047Y-108212952D01*
X127096666Y-108260571D01*
X127191904Y-108308190D01*
X127572857Y-108308190D01*
X126715714Y-107784380D02*
X126144285Y-107784380D01*
X126430000Y-108784380D02*
X126430000Y-107784380D01*
X125239523Y-108689142D02*
X125287142Y-108736761D01*
X125430000Y-108784380D01*
X125525238Y-108784380D01*
X125668095Y-108736761D01*
X125763333Y-108641523D01*
X125810952Y-108546285D01*
X125858571Y-108355809D01*
X125858571Y-108212952D01*
X125810952Y-108022476D01*
X125763333Y-107927238D01*
X125668095Y-107832000D01*
X125525238Y-107784380D01*
X125430000Y-107784380D01*
X125287142Y-107832000D01*
X125239523Y-107879619D01*
X109959523Y-117307380D02*
X109340476Y-117307380D01*
X109673809Y-117688333D01*
X109530952Y-117688333D01*
X109435714Y-117735952D01*
X109388095Y-117783571D01*
X109340476Y-117878809D01*
X109340476Y-118116904D01*
X109388095Y-118212142D01*
X109435714Y-118259761D01*
X109530952Y-118307380D01*
X109816666Y-118307380D01*
X109911904Y-118259761D01*
X109959523Y-118212142D01*
X108959523Y-117402619D02*
X108911904Y-117355000D01*
X108816666Y-117307380D01*
X108578571Y-117307380D01*
X108483333Y-117355000D01*
X108435714Y-117402619D01*
X108388095Y-117497857D01*
X108388095Y-117593095D01*
X108435714Y-117735952D01*
X109007142Y-118307380D01*
X108388095Y-118307380D01*
X107959523Y-118307380D02*
X107959523Y-117307380D01*
X107388095Y-118307380D02*
X107816666Y-117735952D01*
X107388095Y-117307380D02*
X107959523Y-117878809D01*
X108650000Y-119155476D02*
X108650000Y-119917380D01*
X108459523Y-119726904D02*
X108650000Y-119917380D01*
X108840476Y-119726904D01*
%TO.C,J5*%
X125882380Y-118326666D02*
X126596666Y-118326666D01*
X126739523Y-118279047D01*
X126834761Y-118183809D01*
X126882380Y-118040952D01*
X126882380Y-117945714D01*
X125882380Y-119279047D02*
X125882380Y-118802857D01*
X126358571Y-118755238D01*
X126310952Y-118802857D01*
X126263333Y-118898095D01*
X126263333Y-119136190D01*
X126310952Y-119231428D01*
X126358571Y-119279047D01*
X126453809Y-119326666D01*
X126691904Y-119326666D01*
X126787142Y-119279047D01*
X126834761Y-119231428D01*
X126882380Y-119136190D01*
X126882380Y-118898095D01*
X126834761Y-118802857D01*
X126787142Y-118755238D01*
%TO.C,J1*%
X102997380Y-118326666D02*
X103711666Y-118326666D01*
X103854523Y-118279047D01*
X103949761Y-118183809D01*
X103997380Y-118040952D01*
X103997380Y-117945714D01*
X103997380Y-119326666D02*
X103997380Y-118755238D01*
X103997380Y-119040952D02*
X102997380Y-119040952D01*
X103140238Y-118945714D01*
X103235476Y-118850476D01*
X103283095Y-118755238D01*
D11*
%TO.C,JP2*%
X110190000Y-114404000D02*
X110190000Y-115804000D01*
X111490000Y-113704000D02*
X110890000Y-113704000D01*
X110890000Y-116504000D02*
X111490000Y-116504000D01*
X112190000Y-115804000D02*
X112190000Y-114404000D01*
X110190000Y-115804000D02*
G75*
G03*
X110890000Y-116504000I700000J0D01*
G01*
X112190000Y-114404000D02*
G75*
G03*
X111490000Y-113704000I-699999J1D01*
G01*
X111490000Y-116504000D02*
G75*
G03*
X112190000Y-115804000I0J700000D01*
G01*
X110890000Y-113704000D02*
G75*
G03*
X110190000Y-114404000I-1J-699999D01*
G01*
%TO.C,J5*%
X127735000Y-163100000D02*
X127735000Y-119860000D01*
X125075000Y-119860000D02*
X127735000Y-119860000D01*
X125075000Y-164370000D02*
X125075000Y-165700000D01*
X125075000Y-165700000D02*
X126405000Y-165700000D01*
X125075000Y-163100000D02*
X125075000Y-119860000D01*
X125075000Y-163100000D02*
X127735000Y-163100000D01*
%TO.C,JP3*%
X126130000Y-112440000D02*
X126730000Y-112440000D01*
X125430000Y-110340000D02*
X125430000Y-111740000D01*
X127430000Y-111740000D02*
X127430000Y-110340000D01*
X126730000Y-109640000D02*
X126130000Y-109640000D01*
X127430000Y-110340000D02*
G75*
G03*
X126730000Y-109640000I-700000J0D01*
G01*
X125430000Y-111740000D02*
G75*
G03*
X126130000Y-112440000I699999J-1D01*
G01*
X126130000Y-109640000D02*
G75*
G03*
X125430000Y-110340000I0J-700000D01*
G01*
X126730000Y-112440000D02*
G75*
G03*
X127430000Y-111740000I1J699999D01*
G01*
%TO.C,J1*%
X102215000Y-152940000D02*
X102215000Y-119860000D01*
X104875000Y-152940000D02*
X104875000Y-119860000D01*
X102215000Y-155540000D02*
X103545000Y-155540000D01*
X102215000Y-154210000D02*
X102215000Y-155540000D01*
X102215000Y-119860000D02*
X104875000Y-119860000D01*
X102215000Y-152940000D02*
X104875000Y-152940000D01*
%TO.C,JP1*%
X107650000Y-114404000D02*
X107650000Y-115804000D01*
X108950000Y-113704000D02*
X108350000Y-113704000D01*
X108350000Y-116504000D02*
X108950000Y-116504000D01*
X109650000Y-115804000D02*
X109650000Y-114404000D01*
X108350000Y-113704000D02*
G75*
G03*
X107650000Y-114404000I-1J-699999D01*
G01*
X107650000Y-115804000D02*
G75*
G03*
X108350000Y-116504000I700000J0D01*
G01*
X108950000Y-116504000D02*
G75*
G03*
X109650000Y-115804000I0J700000D01*
G01*
X109650000Y-114404000D02*
G75*
G03*
X108950000Y-113704000I-699999J1D01*
G01*
%TD*%
M02*
