%TF.GenerationSoftware,KiCad,Pcbnew,(6.0.4)*%
%TF.CreationDate,2022-04-21T22:00:58-04:00*%
%TF.ProjectId,firebeetle-shield,66697265-6265-4657-946c-652d73686965,rev?*%
%TF.SameCoordinates,Original*%
%TF.FileFunction,Soldermask,Top*%
%TF.FilePolarity,Negative*%
%FSLAX46Y46*%
G04 Gerber Fmt 4.6, Leading zero omitted, Abs format (unit mm)*
G04 Created by KiCad (PCBNEW (6.0.4)) date 2022-04-21 22:00:58*
%MOMM*%
%LPD*%
G01*
G04 APERTURE LIST*
G04 Aperture macros list*
%AMRoundRect*
0 Rectangle with rounded corners*
0 $1 Rounding radius*
0 $2 $3 $4 $5 $6 $7 $8 $9 X,Y pos of 4 corners*
0 Add a 4 corners polygon primitive as box body*
4,1,4,$2,$3,$4,$5,$6,$7,$8,$9,$2,$3,0*
0 Add four circle primitives for the rounded corners*
1,1,$1+$1,$2,$3*
1,1,$1+$1,$4,$5*
1,1,$1+$1,$6,$7*
1,1,$1+$1,$8,$9*
0 Add four rect primitives between the rounded corners*
20,1,$1+$1,$2,$3,$4,$5,0*
20,1,$1+$1,$4,$5,$6,$7,0*
20,1,$1+$1,$6,$7,$8,$9,0*
20,1,$1+$1,$8,$9,$2,$3,0*%
G04 Aperture macros list end*
%ADD10C,1.700000*%
%ADD11O,1.700000X1.700000*%
%ADD12R,1.700000X1.700000*%
%ADD13RoundRect,0.250000X0.350000X0.625000X-0.350000X0.625000X-0.350000X-0.625000X0.350000X-0.625000X0*%
%ADD14O,1.200000X1.750000*%
G04 APERTURE END LIST*
D10*
%TO.C,REF\u002A\u002A*%
X123948658Y-151680000D03*
X123948658Y-146528857D03*
X123890000Y-144060000D03*
X123948658Y-149140000D03*
X123930908Y-141520000D03*
X123930908Y-131315969D03*
X123930908Y-126280000D03*
X123930908Y-123731678D03*
X123930908Y-133864291D03*
X123890000Y-154220000D03*
X123890000Y-121200000D03*
X123930908Y-128820000D03*
X123930908Y-136440000D03*
X123930908Y-138980000D03*
D11*
X121390908Y-126280000D03*
X121390908Y-131315969D03*
X121350000Y-144060000D03*
X121390908Y-138980000D03*
X121408658Y-149140000D03*
X121390908Y-136440000D03*
X121390908Y-141520000D03*
X121390908Y-123731678D03*
X121408658Y-146528857D03*
X121390908Y-128820000D03*
X121350000Y-154220000D03*
X121390908Y-133864291D03*
X121350000Y-121200000D03*
X121408658Y-151680000D03*
X118850908Y-138980000D03*
X118850908Y-128820000D03*
X118850908Y-131315969D03*
X118868658Y-146528857D03*
X118868658Y-149140000D03*
X118850908Y-133864291D03*
X118868658Y-151680000D03*
X118810000Y-144060000D03*
X118810000Y-121200000D03*
X118850908Y-141520000D03*
X118850908Y-136440000D03*
X118850908Y-126280000D03*
X118850908Y-123731678D03*
X118810000Y-154220000D03*
X116270000Y-154220000D03*
X116328658Y-149140000D03*
X116328658Y-151680000D03*
X116270000Y-144060000D03*
X116310908Y-141520000D03*
X116310908Y-126280000D03*
X116310908Y-136440000D03*
X116328658Y-146528857D03*
X116270000Y-121200000D03*
X116310908Y-131315969D03*
X116310908Y-133864291D03*
X116310908Y-138980000D03*
X116310908Y-128820000D03*
X116310908Y-123731678D03*
X113770908Y-138980000D03*
X113770908Y-126280000D03*
X113788658Y-146528857D03*
X113730000Y-154220000D03*
X113730000Y-144060000D03*
X113730000Y-121200000D03*
X113770908Y-141520000D03*
X113770908Y-133864291D03*
X113770908Y-128820000D03*
X113770908Y-136440000D03*
X113788658Y-151680000D03*
X113770908Y-131315969D03*
X113770908Y-123731678D03*
X113788658Y-149140000D03*
X111230908Y-141520000D03*
X111230908Y-123731678D03*
X111230908Y-138980000D03*
X111248658Y-151680000D03*
X111230908Y-136440000D03*
X111230908Y-131315969D03*
X111248658Y-146528857D03*
X111230908Y-133864291D03*
X111190000Y-144060000D03*
X111248658Y-149140000D03*
X111230908Y-126280000D03*
X111190000Y-154220000D03*
X111190000Y-121200000D03*
X111230908Y-128820000D03*
X108690908Y-126280000D03*
X108690908Y-128820000D03*
D12*
X108650000Y-121200000D03*
D11*
X108708658Y-149140000D03*
X108650000Y-154220000D03*
X108690908Y-138980000D03*
X108690908Y-136440000D03*
X108708658Y-146528857D03*
X108690908Y-141520000D03*
X108708658Y-151680000D03*
X108690908Y-131315969D03*
X108650000Y-144060000D03*
X108690908Y-133864291D03*
X108690908Y-123731678D03*
X106150908Y-141520000D03*
X106110000Y-144060000D03*
X106150908Y-126280000D03*
X106150908Y-128820000D03*
X106168658Y-146528857D03*
X106110000Y-154220000D03*
X106150908Y-136440000D03*
X106150908Y-138980000D03*
X106150908Y-131315969D03*
X106150908Y-133864291D03*
X106168658Y-151680000D03*
X106150908Y-123731678D03*
X106168658Y-149140000D03*
X106110000Y-121200000D03*
%TD*%
D12*
%TO.C,J2*%
X108650000Y-111040000D03*
D11*
X111190000Y-111040000D03*
X113730000Y-111040000D03*
X116270000Y-111040000D03*
X118810000Y-111040000D03*
X121350000Y-111040000D03*
%TD*%
D13*
%TO.C,J3*%
X118000000Y-104000000D03*
D14*
X116000000Y-104000000D03*
X114000000Y-104000000D03*
X112000000Y-104000000D03*
%TD*%
D12*
%TO.C,J4*%
X108650000Y-159300000D03*
D11*
X111190000Y-159300000D03*
X113730000Y-159300000D03*
X116270000Y-159300000D03*
X118810000Y-159300000D03*
X121350000Y-159300000D03*
%TD*%
D12*
%TO.C,J5*%
X126405000Y-164370000D03*
D11*
X126405000Y-161830000D03*
X126405000Y-159290000D03*
X126405000Y-156750000D03*
X126405000Y-154210000D03*
X126405000Y-151670000D03*
X126405000Y-149130000D03*
X126405000Y-146590000D03*
X126405000Y-144050000D03*
X126405000Y-141510000D03*
X126405000Y-138970000D03*
X126405000Y-136430000D03*
X126405000Y-133890000D03*
X126405000Y-131350000D03*
X126405000Y-128810000D03*
X126405000Y-126270000D03*
X126405000Y-123730000D03*
X126405000Y-121190000D03*
%TD*%
D12*
%TO.C,J1*%
X103545000Y-154210000D03*
D11*
X103545000Y-151670000D03*
X103545000Y-149130000D03*
X103545000Y-146590000D03*
X103545000Y-144050000D03*
X103545000Y-141510000D03*
X103545000Y-138970000D03*
X103545000Y-136430000D03*
X103545000Y-133890000D03*
X103545000Y-131350000D03*
X103545000Y-128810000D03*
X103545000Y-126270000D03*
X103545000Y-123730000D03*
X103545000Y-121190000D03*
%TD*%
M02*
