%TF.GenerationSoftware,KiCad,Pcbnew,(6.0.2)*%
%TF.CreationDate,2022-04-15T20:49:01-04:00*%
%TF.ProjectId,firebeetle-shield,66697265-6265-4657-946c-652d73686965,rev?*%
%TF.SameCoordinates,Original*%
%TF.FileFunction,Legend,Top*%
%TF.FilePolarity,Positive*%
%FSLAX46Y46*%
G04 Gerber Fmt 4.6, Leading zero omitted, Abs format (unit mm)*
G04 Created by KiCad (PCBNEW (6.0.2)) date 2022-04-15 20:49:01*
%MOMM*%
%LPD*%
G01*
G04 APERTURE LIST*
%ADD10C,0.150000*%
%ADD11C,0.200000*%
%ADD12C,0.120000*%
G04 APERTURE END LIST*
D10*
X102014095Y-110707619D02*
X101395047Y-110707619D01*
X101728380Y-110326666D01*
X101585523Y-110326666D01*
X101490285Y-110279047D01*
X101442666Y-110231428D01*
X101395047Y-110136190D01*
X101395047Y-109898095D01*
X101442666Y-109802857D01*
X101490285Y-109755238D01*
X101585523Y-109707619D01*
X101871238Y-109707619D01*
X101966476Y-109755238D01*
X102014095Y-109802857D01*
X101109333Y-110707619D02*
X100776000Y-109707619D01*
X100442666Y-110707619D01*
X100204571Y-110707619D02*
X99585523Y-110707619D01*
X99918857Y-110326666D01*
X99776000Y-110326666D01*
X99680761Y-110279047D01*
X99633142Y-110231428D01*
X99585523Y-110136190D01*
X99585523Y-109898095D01*
X99633142Y-109802857D01*
X99680761Y-109755238D01*
X99776000Y-109707619D01*
X100061714Y-109707619D01*
X100156952Y-109755238D01*
X100204571Y-109802857D01*
X102022095Y-137647619D02*
X102022095Y-138647619D01*
X101784000Y-138647619D01*
X101641142Y-138600000D01*
X101545904Y-138504761D01*
X101498285Y-138409523D01*
X101450666Y-138219047D01*
X101450666Y-138076190D01*
X101498285Y-137885714D01*
X101545904Y-137790476D01*
X101641142Y-137695238D01*
X101784000Y-137647619D01*
X102022095Y-137647619D01*
X100593523Y-138647619D02*
X100784000Y-138647619D01*
X100879238Y-138600000D01*
X100926857Y-138552380D01*
X101022095Y-138409523D01*
X101069714Y-138219047D01*
X101069714Y-137838095D01*
X101022095Y-137742857D01*
X100974476Y-137695238D01*
X100879238Y-137647619D01*
X100688761Y-137647619D01*
X100593523Y-137695238D01*
X100545904Y-137742857D01*
X100498285Y-137838095D01*
X100498285Y-138076190D01*
X100545904Y-138171428D01*
X100593523Y-138219047D01*
X100688761Y-138266666D01*
X100879238Y-138266666D01*
X100974476Y-138219047D01*
X101022095Y-138171428D01*
X101069714Y-138076190D01*
X102022095Y-135107619D02*
X102022095Y-136107619D01*
X101784000Y-136107619D01*
X101641142Y-136060000D01*
X101545904Y-135964761D01*
X101498285Y-135869523D01*
X101450666Y-135679047D01*
X101450666Y-135536190D01*
X101498285Y-135345714D01*
X101545904Y-135250476D01*
X101641142Y-135155238D01*
X101784000Y-135107619D01*
X102022095Y-135107619D01*
X101117333Y-136107619D02*
X100450666Y-136107619D01*
X100879238Y-135107619D01*
X102045904Y-148807619D02*
X101474476Y-148807619D01*
X101760190Y-147807619D02*
X101760190Y-148807619D01*
X101236380Y-148807619D02*
X100569714Y-147807619D01*
X100569714Y-148807619D02*
X101236380Y-147807619D01*
X102022095Y-145267619D02*
X102022095Y-146267619D01*
X101784000Y-146267619D01*
X101641142Y-146220000D01*
X101545904Y-146124761D01*
X101498285Y-146029523D01*
X101450666Y-145839047D01*
X101450666Y-145696190D01*
X101498285Y-145505714D01*
X101545904Y-145410476D01*
X101641142Y-145315238D01*
X101784000Y-145267619D01*
X102022095Y-145267619D01*
X101069714Y-146172380D02*
X101022095Y-146220000D01*
X100926857Y-146267619D01*
X100688761Y-146267619D01*
X100593523Y-146220000D01*
X100545904Y-146172380D01*
X100498285Y-146077142D01*
X100498285Y-145981904D01*
X100545904Y-145839047D01*
X101117333Y-145267619D01*
X100498285Y-145267619D01*
X102022095Y-142727619D02*
X102022095Y-143727619D01*
X101784000Y-143727619D01*
X101641142Y-143680000D01*
X101545904Y-143584761D01*
X101498285Y-143489523D01*
X101450666Y-143299047D01*
X101450666Y-143156190D01*
X101498285Y-142965714D01*
X101545904Y-142870476D01*
X101641142Y-142775238D01*
X101784000Y-142727619D01*
X102022095Y-142727619D01*
X101117333Y-143727619D02*
X100498285Y-143727619D01*
X100831619Y-143346666D01*
X100688761Y-143346666D01*
X100593523Y-143299047D01*
X100545904Y-143251428D01*
X100498285Y-143156190D01*
X100498285Y-142918095D01*
X100545904Y-142822857D01*
X100593523Y-142775238D01*
X100688761Y-142727619D01*
X100974476Y-142727619D01*
X101069714Y-142775238D01*
X101117333Y-142822857D01*
X102022095Y-132567619D02*
X102022095Y-133567619D01*
X101784000Y-133567619D01*
X101641142Y-133520000D01*
X101545904Y-133424761D01*
X101498285Y-133329523D01*
X101450666Y-133139047D01*
X101450666Y-132996190D01*
X101498285Y-132805714D01*
X101545904Y-132710476D01*
X101641142Y-132615238D01*
X101784000Y-132567619D01*
X102022095Y-132567619D01*
X100974476Y-132567619D02*
X100784000Y-132567619D01*
X100688761Y-132615238D01*
X100641142Y-132662857D01*
X100545904Y-132805714D01*
X100498285Y-132996190D01*
X100498285Y-133377142D01*
X100545904Y-133472380D01*
X100593523Y-133520000D01*
X100688761Y-133567619D01*
X100879238Y-133567619D01*
X100974476Y-133520000D01*
X101022095Y-133472380D01*
X101069714Y-133377142D01*
X101069714Y-133139047D01*
X101022095Y-133043809D01*
X100974476Y-132996190D01*
X100879238Y-132948571D01*
X100688761Y-132948571D01*
X100593523Y-132996190D01*
X100545904Y-133043809D01*
X100498285Y-133139047D01*
X101450666Y-150347619D02*
X101784000Y-150823809D01*
X102022095Y-150347619D02*
X102022095Y-151347619D01*
X101641142Y-151347619D01*
X101545904Y-151300000D01*
X101498285Y-151252380D01*
X101450666Y-151157142D01*
X101450666Y-151014285D01*
X101498285Y-150919047D01*
X101545904Y-150871428D01*
X101641142Y-150823809D01*
X102022095Y-150823809D01*
X101117333Y-151347619D02*
X100450666Y-150347619D01*
X100450666Y-151347619D02*
X101117333Y-150347619D01*
X101990285Y-130075238D02*
X101847428Y-130027619D01*
X101609333Y-130027619D01*
X101514095Y-130075238D01*
X101466476Y-130122857D01*
X101418857Y-130218095D01*
X101418857Y-130313333D01*
X101466476Y-130408571D01*
X101514095Y-130456190D01*
X101609333Y-130503809D01*
X101799809Y-130551428D01*
X101895047Y-130599047D01*
X101942666Y-130646666D01*
X101990285Y-130741904D01*
X101990285Y-130837142D01*
X101942666Y-130932380D01*
X101895047Y-130980000D01*
X101799809Y-131027619D01*
X101561714Y-131027619D01*
X101418857Y-130980000D01*
X100990285Y-130027619D02*
X100990285Y-131027619D01*
X100752190Y-131027619D01*
X100609333Y-130980000D01*
X100514095Y-130884761D01*
X100466476Y-130789523D01*
X100418857Y-130599047D01*
X100418857Y-130456190D01*
X100466476Y-130265714D01*
X100514095Y-130170476D01*
X100609333Y-130075238D01*
X100752190Y-130027619D01*
X100990285Y-130027619D01*
X100037904Y-130313333D02*
X99561714Y-130313333D01*
X100133142Y-130027619D02*
X99799809Y-131027619D01*
X99466476Y-130027619D01*
X102022095Y-140187619D02*
X102022095Y-141187619D01*
X101784000Y-141187619D01*
X101641142Y-141140000D01*
X101545904Y-141044761D01*
X101498285Y-140949523D01*
X101450666Y-140759047D01*
X101450666Y-140616190D01*
X101498285Y-140425714D01*
X101545904Y-140330476D01*
X101641142Y-140235238D01*
X101784000Y-140187619D01*
X102022095Y-140187619D01*
X100545904Y-141187619D02*
X101022095Y-141187619D01*
X101069714Y-140711428D01*
X101022095Y-140759047D01*
X100926857Y-140806666D01*
X100688761Y-140806666D01*
X100593523Y-140759047D01*
X100545904Y-140711428D01*
X100498285Y-140616190D01*
X100498285Y-140378095D01*
X100545904Y-140282857D01*
X100593523Y-140235238D01*
X100688761Y-140187619D01*
X100926857Y-140187619D01*
X101022095Y-140235238D01*
X101069714Y-140282857D01*
X101966476Y-127535238D02*
X101823619Y-127487619D01*
X101585523Y-127487619D01*
X101490285Y-127535238D01*
X101442666Y-127582857D01*
X101395047Y-127678095D01*
X101395047Y-127773333D01*
X101442666Y-127868571D01*
X101490285Y-127916190D01*
X101585523Y-127963809D01*
X101776000Y-128011428D01*
X101871238Y-128059047D01*
X101918857Y-128106666D01*
X101966476Y-128201904D01*
X101966476Y-128297142D01*
X101918857Y-128392380D01*
X101871238Y-128440000D01*
X101776000Y-128487619D01*
X101537904Y-128487619D01*
X101395047Y-128440000D01*
X100395047Y-127582857D02*
X100442666Y-127535238D01*
X100585523Y-127487619D01*
X100680761Y-127487619D01*
X100823619Y-127535238D01*
X100918857Y-127630476D01*
X100966476Y-127725714D01*
X101014095Y-127916190D01*
X101014095Y-128059047D01*
X100966476Y-128249523D01*
X100918857Y-128344761D01*
X100823619Y-128440000D01*
X100680761Y-128487619D01*
X100585523Y-128487619D01*
X100442666Y-128440000D01*
X100395047Y-128392380D01*
X99490285Y-127487619D02*
X99966476Y-127487619D01*
X99966476Y-128487619D01*
X101855428Y-124947619D02*
X101855428Y-125947619D01*
X101522095Y-125233333D01*
X101188761Y-125947619D01*
X101188761Y-124947619D01*
X100712571Y-124947619D02*
X100712571Y-125947619D01*
X102141142Y-122407619D02*
X102141142Y-123407619D01*
X101807809Y-122693333D01*
X101474476Y-123407619D01*
X101474476Y-122407619D01*
X100807809Y-123407619D02*
X100617333Y-123407619D01*
X100522095Y-123360000D01*
X100426857Y-123264761D01*
X100379238Y-123074285D01*
X100379238Y-122740952D01*
X100426857Y-122550476D01*
X100522095Y-122455238D01*
X100617333Y-122407619D01*
X100807809Y-122407619D01*
X100903047Y-122455238D01*
X100998285Y-122550476D01*
X101045904Y-122740952D01*
X101045904Y-123074285D01*
X100998285Y-123264761D01*
X100903047Y-123360000D01*
X100807809Y-123407619D01*
X102061714Y-119915238D02*
X101918857Y-119867619D01*
X101680761Y-119867619D01*
X101585523Y-119915238D01*
X101537904Y-119962857D01*
X101490285Y-120058095D01*
X101490285Y-120153333D01*
X101537904Y-120248571D01*
X101585523Y-120296190D01*
X101680761Y-120343809D01*
X101871238Y-120391428D01*
X101966476Y-120439047D01*
X102014095Y-120486666D01*
X102061714Y-120581904D01*
X102061714Y-120677142D01*
X102014095Y-120772380D01*
X101966476Y-120820000D01*
X101871238Y-120867619D01*
X101633142Y-120867619D01*
X101490285Y-120820000D01*
X100490285Y-119962857D02*
X100537904Y-119915238D01*
X100680761Y-119867619D01*
X100776000Y-119867619D01*
X100918857Y-119915238D01*
X101014095Y-120010476D01*
X101061714Y-120105714D01*
X101109333Y-120296190D01*
X101109333Y-120439047D01*
X101061714Y-120629523D01*
X101014095Y-120724761D01*
X100918857Y-120820000D01*
X100776000Y-120867619D01*
X100680761Y-120867619D01*
X100537904Y-120820000D01*
X100490285Y-120772380D01*
X100061714Y-119867619D02*
X100061714Y-120867619D01*
X99490285Y-119867619D02*
X99918857Y-120439047D01*
X99490285Y-120867619D02*
X100061714Y-120296190D01*
X102022095Y-117851428D02*
X101688761Y-117851428D01*
X101545904Y-117327619D02*
X102022095Y-117327619D01*
X102022095Y-118327619D01*
X101545904Y-118327619D01*
X101117333Y-117327619D02*
X101117333Y-118327619D01*
X100545904Y-117327619D01*
X100545904Y-118327619D01*
X101537904Y-115740000D02*
X101633142Y-115787619D01*
X101776000Y-115787619D01*
X101918857Y-115740000D01*
X102014095Y-115644761D01*
X102061714Y-115549523D01*
X102109333Y-115359047D01*
X102109333Y-115216190D01*
X102061714Y-115025714D01*
X102014095Y-114930476D01*
X101918857Y-114835238D01*
X101776000Y-114787619D01*
X101680761Y-114787619D01*
X101537904Y-114835238D01*
X101490285Y-114882857D01*
X101490285Y-115216190D01*
X101680761Y-115216190D01*
X101061714Y-114787619D02*
X101061714Y-115787619D01*
X100490285Y-114787619D01*
X100490285Y-115787619D01*
X100014095Y-114787619D02*
X100014095Y-115787619D01*
X99776000Y-115787619D01*
X99633142Y-115740000D01*
X99537904Y-115644761D01*
X99490285Y-115549523D01*
X99442666Y-115359047D01*
X99442666Y-115216190D01*
X99490285Y-115025714D01*
X99537904Y-114930476D01*
X99633142Y-114835238D01*
X99776000Y-114787619D01*
X100014095Y-114787619D01*
X101323619Y-107167619D02*
X101656952Y-107643809D01*
X101895047Y-107167619D02*
X101895047Y-108167619D01*
X101514095Y-108167619D01*
X101418857Y-108120000D01*
X101371238Y-108072380D01*
X101323619Y-107977142D01*
X101323619Y-107834285D01*
X101371238Y-107739047D01*
X101418857Y-107691428D01*
X101514095Y-107643809D01*
X101895047Y-107643809D01*
X100942666Y-107215238D02*
X100799809Y-107167619D01*
X100561714Y-107167619D01*
X100466476Y-107215238D01*
X100418857Y-107262857D01*
X100371238Y-107358095D01*
X100371238Y-107453333D01*
X100418857Y-107548571D01*
X100466476Y-107596190D01*
X100561714Y-107643809D01*
X100752190Y-107691428D01*
X100847428Y-107739047D01*
X100895047Y-107786666D01*
X100942666Y-107881904D01*
X100942666Y-107977142D01*
X100895047Y-108072380D01*
X100847428Y-108120000D01*
X100752190Y-108167619D01*
X100514095Y-108167619D01*
X100371238Y-108120000D01*
X100085523Y-108167619D02*
X99514095Y-108167619D01*
X99799809Y-107167619D02*
X99799809Y-108167619D01*
X130557333Y-118327619D02*
X130224000Y-117327619D01*
X129890666Y-118327619D01*
X128985904Y-117422857D02*
X129033523Y-117375238D01*
X129176380Y-117327619D01*
X129271619Y-117327619D01*
X129414476Y-117375238D01*
X129509714Y-117470476D01*
X129557333Y-117565714D01*
X129604952Y-117756190D01*
X129604952Y-117899047D01*
X129557333Y-118089523D01*
X129509714Y-118184761D01*
X129414476Y-118280000D01*
X129271619Y-118327619D01*
X129176380Y-118327619D01*
X129033523Y-118280000D01*
X128985904Y-118232380D01*
X127985904Y-117422857D02*
X128033523Y-117375238D01*
X128176380Y-117327619D01*
X128271619Y-117327619D01*
X128414476Y-117375238D01*
X128509714Y-117470476D01*
X128557333Y-117565714D01*
X128604952Y-117756190D01*
X128604952Y-117899047D01*
X128557333Y-118089523D01*
X128509714Y-118184761D01*
X128414476Y-118280000D01*
X128271619Y-118327619D01*
X128176380Y-118327619D01*
X128033523Y-118280000D01*
X127985904Y-118232380D01*
X130462095Y-120867619D02*
X129843047Y-120867619D01*
X130176380Y-120486666D01*
X130033523Y-120486666D01*
X129938285Y-120439047D01*
X129890666Y-120391428D01*
X129843047Y-120296190D01*
X129843047Y-120058095D01*
X129890666Y-119962857D01*
X129938285Y-119915238D01*
X130033523Y-119867619D01*
X130319238Y-119867619D01*
X130414476Y-119915238D01*
X130462095Y-119962857D01*
X129557333Y-120867619D02*
X129224000Y-119867619D01*
X128890666Y-120867619D01*
X128652571Y-120867619D02*
X128033523Y-120867619D01*
X128366857Y-120486666D01*
X128224000Y-120486666D01*
X128128761Y-120439047D01*
X128081142Y-120391428D01*
X128033523Y-120296190D01*
X128033523Y-120058095D01*
X128081142Y-119962857D01*
X128128761Y-119915238D01*
X128224000Y-119867619D01*
X128509714Y-119867619D01*
X128604952Y-119915238D01*
X128652571Y-119962857D01*
X129985904Y-123360000D02*
X130081142Y-123407619D01*
X130224000Y-123407619D01*
X130366857Y-123360000D01*
X130462095Y-123264761D01*
X130509714Y-123169523D01*
X130557333Y-122979047D01*
X130557333Y-122836190D01*
X130509714Y-122645714D01*
X130462095Y-122550476D01*
X130366857Y-122455238D01*
X130224000Y-122407619D01*
X130128761Y-122407619D01*
X129985904Y-122455238D01*
X129938285Y-122502857D01*
X129938285Y-122836190D01*
X130128761Y-122836190D01*
X129509714Y-122407619D02*
X129509714Y-123407619D01*
X128938285Y-122407619D01*
X128938285Y-123407619D01*
X128462095Y-122407619D02*
X128462095Y-123407619D01*
X128224000Y-123407619D01*
X128081142Y-123360000D01*
X127985904Y-123264761D01*
X127938285Y-123169523D01*
X127890666Y-122979047D01*
X127890666Y-122836190D01*
X127938285Y-122645714D01*
X127985904Y-122550476D01*
X128081142Y-122455238D01*
X128224000Y-122407619D01*
X128462095Y-122407619D01*
X130414476Y-124995238D02*
X130271619Y-124947619D01*
X130033523Y-124947619D01*
X129938285Y-124995238D01*
X129890666Y-125042857D01*
X129843047Y-125138095D01*
X129843047Y-125233333D01*
X129890666Y-125328571D01*
X129938285Y-125376190D01*
X130033523Y-125423809D01*
X130224000Y-125471428D01*
X130319238Y-125519047D01*
X130366857Y-125566666D01*
X130414476Y-125661904D01*
X130414476Y-125757142D01*
X130366857Y-125852380D01*
X130319238Y-125900000D01*
X130224000Y-125947619D01*
X129985904Y-125947619D01*
X129843047Y-125900000D01*
X128843047Y-125042857D02*
X128890666Y-124995238D01*
X129033523Y-124947619D01*
X129128761Y-124947619D01*
X129271619Y-124995238D01*
X129366857Y-125090476D01*
X129414476Y-125185714D01*
X129462095Y-125376190D01*
X129462095Y-125519047D01*
X129414476Y-125709523D01*
X129366857Y-125804761D01*
X129271619Y-125900000D01*
X129128761Y-125947619D01*
X129033523Y-125947619D01*
X128890666Y-125900000D01*
X128843047Y-125852380D01*
X127938285Y-124947619D02*
X128414476Y-124947619D01*
X128414476Y-125947619D01*
X130438285Y-127535238D02*
X130295428Y-127487619D01*
X130057333Y-127487619D01*
X129962095Y-127535238D01*
X129914476Y-127582857D01*
X129866857Y-127678095D01*
X129866857Y-127773333D01*
X129914476Y-127868571D01*
X129962095Y-127916190D01*
X130057333Y-127963809D01*
X130247809Y-128011428D01*
X130343047Y-128059047D01*
X130390666Y-128106666D01*
X130438285Y-128201904D01*
X130438285Y-128297142D01*
X130390666Y-128392380D01*
X130343047Y-128440000D01*
X130247809Y-128487619D01*
X130009714Y-128487619D01*
X129866857Y-128440000D01*
X129438285Y-127487619D02*
X129438285Y-128487619D01*
X129200190Y-128487619D01*
X129057333Y-128440000D01*
X128962095Y-128344761D01*
X128914476Y-128249523D01*
X128866857Y-128059047D01*
X128866857Y-127916190D01*
X128914476Y-127725714D01*
X128962095Y-127630476D01*
X129057333Y-127535238D01*
X129200190Y-127487619D01*
X129438285Y-127487619D01*
X128485904Y-127773333D02*
X128009714Y-127773333D01*
X128581142Y-127487619D02*
X128247809Y-128487619D01*
X127914476Y-127487619D01*
X129430285Y-130313333D02*
X128954095Y-130313333D01*
X129525523Y-130027619D02*
X129192190Y-131027619D01*
X128858857Y-130027619D01*
X128096952Y-130694285D02*
X128096952Y-130027619D01*
X128335047Y-131075238D02*
X128573142Y-130360952D01*
X127954095Y-130360952D01*
X129430285Y-132853333D02*
X128954095Y-132853333D01*
X129525523Y-132567619D02*
X129192190Y-133567619D01*
X128858857Y-132567619D01*
X128620761Y-133567619D02*
X128001714Y-133567619D01*
X128335047Y-133186666D01*
X128192190Y-133186666D01*
X128096952Y-133139047D01*
X128049333Y-133091428D01*
X128001714Y-132996190D01*
X128001714Y-132758095D01*
X128049333Y-132662857D01*
X128096952Y-132615238D01*
X128192190Y-132567619D01*
X128477904Y-132567619D01*
X128573142Y-132615238D01*
X128620761Y-132662857D01*
X129430285Y-135393333D02*
X128954095Y-135393333D01*
X129525523Y-135107619D02*
X129192190Y-136107619D01*
X128858857Y-135107619D01*
X128620761Y-136107619D02*
X128001714Y-136107619D01*
X128335047Y-135726666D01*
X128192190Y-135726666D01*
X128096952Y-135679047D01*
X128049333Y-135631428D01*
X128001714Y-135536190D01*
X128001714Y-135298095D01*
X128049333Y-135202857D01*
X128096952Y-135155238D01*
X128192190Y-135107619D01*
X128477904Y-135107619D01*
X128573142Y-135155238D01*
X128620761Y-135202857D01*
X129430285Y-137933333D02*
X128954095Y-137933333D01*
X129525523Y-137647619D02*
X129192190Y-138647619D01*
X128858857Y-137647619D01*
X128001714Y-137647619D02*
X128573142Y-137647619D01*
X128287428Y-137647619D02*
X128287428Y-138647619D01*
X128382666Y-138504761D01*
X128477904Y-138409523D01*
X128573142Y-138361904D01*
X129430285Y-140473333D02*
X128954095Y-140473333D01*
X129525523Y-140187619D02*
X129192190Y-141187619D01*
X128858857Y-140187619D01*
X128335047Y-141187619D02*
X128239809Y-141187619D01*
X128144571Y-141140000D01*
X128096952Y-141092380D01*
X128049333Y-140997142D01*
X128001714Y-140806666D01*
X128001714Y-140568571D01*
X128049333Y-140378095D01*
X128096952Y-140282857D01*
X128144571Y-140235238D01*
X128239809Y-140187619D01*
X128335047Y-140187619D01*
X128430285Y-140235238D01*
X128477904Y-140282857D01*
X128525523Y-140378095D01*
X128573142Y-140568571D01*
X128573142Y-140806666D01*
X128525523Y-140997142D01*
X128477904Y-141092380D01*
X128430285Y-141140000D01*
X128335047Y-141187619D01*
X130438285Y-142727619D02*
X130438285Y-143727619D01*
X130200190Y-143727619D01*
X130057333Y-143680000D01*
X129962095Y-143584761D01*
X129914476Y-143489523D01*
X129866857Y-143299047D01*
X129866857Y-143156190D01*
X129914476Y-142965714D01*
X129962095Y-142870476D01*
X130057333Y-142775238D01*
X130200190Y-142727619D01*
X130438285Y-142727619D01*
X128914476Y-142727619D02*
X129485904Y-142727619D01*
X129200190Y-142727619D02*
X129200190Y-143727619D01*
X129295428Y-143584761D01*
X129390666Y-143489523D01*
X129485904Y-143441904D01*
X128581142Y-143727619D02*
X127962095Y-143727619D01*
X128295428Y-143346666D01*
X128152571Y-143346666D01*
X128057333Y-143299047D01*
X128009714Y-143251428D01*
X127962095Y-143156190D01*
X127962095Y-142918095D01*
X128009714Y-142822857D01*
X128057333Y-142775238D01*
X128152571Y-142727619D01*
X128438285Y-142727619D01*
X128533523Y-142775238D01*
X128581142Y-142822857D01*
X130438285Y-145267619D02*
X130438285Y-146267619D01*
X130200190Y-146267619D01*
X130057333Y-146220000D01*
X129962095Y-146124761D01*
X129914476Y-146029523D01*
X129866857Y-145839047D01*
X129866857Y-145696190D01*
X129914476Y-145505714D01*
X129962095Y-145410476D01*
X130057333Y-145315238D01*
X130200190Y-145267619D01*
X130438285Y-145267619D01*
X128914476Y-145267619D02*
X129485904Y-145267619D01*
X129200190Y-145267619D02*
X129200190Y-146267619D01*
X129295428Y-146124761D01*
X129390666Y-146029523D01*
X129485904Y-145981904D01*
X128533523Y-146172380D02*
X128485904Y-146220000D01*
X128390666Y-146267619D01*
X128152571Y-146267619D01*
X128057333Y-146220000D01*
X128009714Y-146172380D01*
X127962095Y-146077142D01*
X127962095Y-145981904D01*
X128009714Y-145839047D01*
X128581142Y-145267619D01*
X127962095Y-145267619D01*
X130438285Y-147807619D02*
X130438285Y-148807619D01*
X130200190Y-148807619D01*
X130057333Y-148760000D01*
X129962095Y-148664761D01*
X129914476Y-148569523D01*
X129866857Y-148379047D01*
X129866857Y-148236190D01*
X129914476Y-148045714D01*
X129962095Y-147950476D01*
X130057333Y-147855238D01*
X130200190Y-147807619D01*
X130438285Y-147807619D01*
X128914476Y-147807619D02*
X129485904Y-147807619D01*
X129200190Y-147807619D02*
X129200190Y-148807619D01*
X129295428Y-148664761D01*
X129390666Y-148569523D01*
X129485904Y-148521904D01*
X127962095Y-147807619D02*
X128533523Y-147807619D01*
X128247809Y-147807619D02*
X128247809Y-148807619D01*
X128343047Y-148664761D01*
X128438285Y-148569523D01*
X128533523Y-148521904D01*
X130438285Y-150347619D02*
X130438285Y-151347619D01*
X130200190Y-151347619D01*
X130057333Y-151300000D01*
X129962095Y-151204761D01*
X129914476Y-151109523D01*
X129866857Y-150919047D01*
X129866857Y-150776190D01*
X129914476Y-150585714D01*
X129962095Y-150490476D01*
X130057333Y-150395238D01*
X130200190Y-150347619D01*
X130438285Y-150347619D01*
X128914476Y-150347619D02*
X129485904Y-150347619D01*
X129200190Y-150347619D02*
X129200190Y-151347619D01*
X129295428Y-151204761D01*
X129390666Y-151109523D01*
X129485904Y-151061904D01*
X128295428Y-151347619D02*
X128200190Y-151347619D01*
X128104952Y-151300000D01*
X128057333Y-151252380D01*
X128009714Y-151157142D01*
X127962095Y-150966666D01*
X127962095Y-150728571D01*
X128009714Y-150538095D01*
X128057333Y-150442857D01*
X128104952Y-150395238D01*
X128200190Y-150347619D01*
X128295428Y-150347619D01*
X128390666Y-150395238D01*
X128438285Y-150442857D01*
X128485904Y-150538095D01*
X128533523Y-150728571D01*
X128533523Y-150966666D01*
X128485904Y-151157142D01*
X128438285Y-151252380D01*
X128390666Y-151300000D01*
X128295428Y-151347619D01*
X120802380Y-110890095D02*
X120802380Y-110271047D01*
X121183333Y-110604380D01*
X121183333Y-110461523D01*
X121230952Y-110366285D01*
X121278571Y-110318666D01*
X121373809Y-110271047D01*
X121611904Y-110271047D01*
X121707142Y-110318666D01*
X121754761Y-110366285D01*
X121802380Y-110461523D01*
X121802380Y-110747238D01*
X121754761Y-110842476D01*
X121707142Y-110890095D01*
X120802380Y-109985333D02*
X121802380Y-109652000D01*
X120802380Y-109318666D01*
X120802380Y-109080571D02*
X120802380Y-108461523D01*
X121183333Y-108794857D01*
X121183333Y-108652000D01*
X121230952Y-108556761D01*
X121278571Y-108509142D01*
X121373809Y-108461523D01*
X121611904Y-108461523D01*
X121707142Y-108509142D01*
X121754761Y-108556761D01*
X121802380Y-108652000D01*
X121802380Y-108937714D01*
X121754761Y-109032952D01*
X121707142Y-109080571D01*
X119167142Y-110326666D02*
X119214761Y-110374285D01*
X119262380Y-110517142D01*
X119262380Y-110612380D01*
X119214761Y-110755238D01*
X119119523Y-110850476D01*
X119024285Y-110898095D01*
X118833809Y-110945714D01*
X118690952Y-110945714D01*
X118500476Y-110898095D01*
X118405238Y-110850476D01*
X118310000Y-110755238D01*
X118262380Y-110612380D01*
X118262380Y-110517142D01*
X118310000Y-110374285D01*
X118357619Y-110326666D01*
X119214761Y-109945714D02*
X119262380Y-109802857D01*
X119262380Y-109564761D01*
X119214761Y-109469523D01*
X119167142Y-109421904D01*
X119071904Y-109374285D01*
X118976666Y-109374285D01*
X118881428Y-109421904D01*
X118833809Y-109469523D01*
X118786190Y-109564761D01*
X118738571Y-109755238D01*
X118690952Y-109850476D01*
X118643333Y-109898095D01*
X118548095Y-109945714D01*
X118452857Y-109945714D01*
X118357619Y-109898095D01*
X118310000Y-109850476D01*
X118262380Y-109755238D01*
X118262380Y-109517142D01*
X118310000Y-109374285D01*
X116722380Y-110969428D02*
X115722380Y-110969428D01*
X116436666Y-110636095D01*
X115722380Y-110302761D01*
X116722380Y-110302761D01*
X115722380Y-109636095D02*
X115722380Y-109445619D01*
X115770000Y-109350380D01*
X115865238Y-109255142D01*
X116055714Y-109207523D01*
X116389047Y-109207523D01*
X116579523Y-109255142D01*
X116674761Y-109350380D01*
X116722380Y-109445619D01*
X116722380Y-109636095D01*
X116674761Y-109731333D01*
X116579523Y-109826571D01*
X116389047Y-109874190D01*
X116055714Y-109874190D01*
X115865238Y-109826571D01*
X115770000Y-109731333D01*
X115722380Y-109636095D01*
X116674761Y-108826571D02*
X116722380Y-108683714D01*
X116722380Y-108445619D01*
X116674761Y-108350380D01*
X116627142Y-108302761D01*
X116531904Y-108255142D01*
X116436666Y-108255142D01*
X116341428Y-108302761D01*
X116293809Y-108350380D01*
X116246190Y-108445619D01*
X116198571Y-108636095D01*
X116150952Y-108731333D01*
X116103333Y-108778952D01*
X116008095Y-108826571D01*
X115912857Y-108826571D01*
X115817619Y-108778952D01*
X115770000Y-108731333D01*
X115722380Y-108636095D01*
X115722380Y-108398000D01*
X115770000Y-108255142D01*
X116722380Y-107826571D02*
X115722380Y-107826571D01*
X114134761Y-110937714D02*
X114182380Y-110794857D01*
X114182380Y-110556761D01*
X114134761Y-110461523D01*
X114087142Y-110413904D01*
X113991904Y-110366285D01*
X113896666Y-110366285D01*
X113801428Y-110413904D01*
X113753809Y-110461523D01*
X113706190Y-110556761D01*
X113658571Y-110747238D01*
X113610952Y-110842476D01*
X113563333Y-110890095D01*
X113468095Y-110937714D01*
X113372857Y-110937714D01*
X113277619Y-110890095D01*
X113230000Y-110842476D01*
X113182380Y-110747238D01*
X113182380Y-110509142D01*
X113230000Y-110366285D01*
X114087142Y-109366285D02*
X114134761Y-109413904D01*
X114182380Y-109556761D01*
X114182380Y-109652000D01*
X114134761Y-109794857D01*
X114039523Y-109890095D01*
X113944285Y-109937714D01*
X113753809Y-109985333D01*
X113610952Y-109985333D01*
X113420476Y-109937714D01*
X113325238Y-109890095D01*
X113230000Y-109794857D01*
X113182380Y-109652000D01*
X113182380Y-109556761D01*
X113230000Y-109413904D01*
X113277619Y-109366285D01*
X114182380Y-108937714D02*
X113182380Y-108937714D01*
X114182380Y-108366285D02*
X113610952Y-108794857D01*
X113182380Y-108366285D02*
X113753809Y-108937714D01*
X111642380Y-110969428D02*
X110642380Y-110969428D01*
X111356666Y-110636095D01*
X110642380Y-110302761D01*
X111642380Y-110302761D01*
X111642380Y-109826571D02*
X110642380Y-109826571D01*
X111594761Y-109398000D02*
X111642380Y-109255142D01*
X111642380Y-109017047D01*
X111594761Y-108921809D01*
X111547142Y-108874190D01*
X111451904Y-108826571D01*
X111356666Y-108826571D01*
X111261428Y-108874190D01*
X111213809Y-108921809D01*
X111166190Y-109017047D01*
X111118571Y-109207523D01*
X111070952Y-109302761D01*
X111023333Y-109350380D01*
X110928095Y-109398000D01*
X110832857Y-109398000D01*
X110737619Y-109350380D01*
X110690000Y-109302761D01*
X110642380Y-109207523D01*
X110642380Y-108969428D01*
X110690000Y-108826571D01*
X110642380Y-108207523D02*
X110642380Y-108017047D01*
X110690000Y-107921809D01*
X110785238Y-107826571D01*
X110975714Y-107778952D01*
X111309047Y-107778952D01*
X111499523Y-107826571D01*
X111594761Y-107921809D01*
X111642380Y-108017047D01*
X111642380Y-108207523D01*
X111594761Y-108302761D01*
X111499523Y-108398000D01*
X111309047Y-108445619D01*
X110975714Y-108445619D01*
X110785238Y-108398000D01*
X110690000Y-108302761D01*
X110642380Y-108207523D01*
X108150000Y-110413904D02*
X108102380Y-110509142D01*
X108102380Y-110652000D01*
X108150000Y-110794857D01*
X108245238Y-110890095D01*
X108340476Y-110937714D01*
X108530952Y-110985333D01*
X108673809Y-110985333D01*
X108864285Y-110937714D01*
X108959523Y-110890095D01*
X109054761Y-110794857D01*
X109102380Y-110652000D01*
X109102380Y-110556761D01*
X109054761Y-110413904D01*
X109007142Y-110366285D01*
X108673809Y-110366285D01*
X108673809Y-110556761D01*
X109102380Y-109937714D02*
X108102380Y-109937714D01*
X109102380Y-109366285D01*
X108102380Y-109366285D01*
X109102380Y-108890095D02*
X108102380Y-108890095D01*
X108102380Y-108652000D01*
X108150000Y-108509142D01*
X108245238Y-108413904D01*
X108340476Y-108366285D01*
X108530952Y-108318666D01*
X108673809Y-108318666D01*
X108864285Y-108366285D01*
X108959523Y-108413904D01*
X109054761Y-108509142D01*
X109102380Y-108652000D01*
X109102380Y-108890095D01*
X121310380Y-165317523D02*
X121310380Y-164698476D01*
X121691333Y-165031809D01*
X121691333Y-164888952D01*
X121738952Y-164793714D01*
X121786571Y-164746095D01*
X121881809Y-164698476D01*
X122119904Y-164698476D01*
X122215142Y-164746095D01*
X122262761Y-164793714D01*
X122310380Y-164888952D01*
X122310380Y-165174666D01*
X122262761Y-165269904D01*
X122215142Y-165317523D01*
X121405619Y-164317523D02*
X121358000Y-164269904D01*
X121310380Y-164174666D01*
X121310380Y-163936571D01*
X121358000Y-163841333D01*
X121405619Y-163793714D01*
X121500857Y-163746095D01*
X121596095Y-163746095D01*
X121738952Y-163793714D01*
X122310380Y-164365142D01*
X122310380Y-163746095D01*
X122310380Y-163317523D02*
X121310380Y-163317523D01*
X122310380Y-162746095D02*
X121738952Y-163174666D01*
X121310380Y-162746095D02*
X121881809Y-163317523D01*
X119976761Y-165642952D02*
X120024380Y-165500095D01*
X120024380Y-165262000D01*
X119976761Y-165166761D01*
X119929142Y-165119142D01*
X119833904Y-165071523D01*
X119738666Y-165071523D01*
X119643428Y-165119142D01*
X119595809Y-165166761D01*
X119548190Y-165262000D01*
X119500571Y-165452476D01*
X119452952Y-165547714D01*
X119405333Y-165595333D01*
X119310095Y-165642952D01*
X119214857Y-165642952D01*
X119119619Y-165595333D01*
X119072000Y-165547714D01*
X119024380Y-165452476D01*
X119024380Y-165214380D01*
X119072000Y-165071523D01*
X120119619Y-163976285D02*
X120072000Y-164071523D01*
X119976761Y-164166761D01*
X119833904Y-164309619D01*
X119786285Y-164404857D01*
X119786285Y-164500095D01*
X120024380Y-164452476D02*
X119976761Y-164547714D01*
X119881523Y-164642952D01*
X119691047Y-164690571D01*
X119357714Y-164690571D01*
X119167238Y-164642952D01*
X119072000Y-164547714D01*
X119024380Y-164452476D01*
X119024380Y-164262000D01*
X119072000Y-164166761D01*
X119167238Y-164071523D01*
X119357714Y-164023904D01*
X119691047Y-164023904D01*
X119881523Y-164071523D01*
X119976761Y-164166761D01*
X120024380Y-164262000D01*
X120024380Y-164452476D01*
X119024380Y-163690571D02*
X120024380Y-163452476D01*
X119310095Y-163262000D01*
X120024380Y-163071523D01*
X119024380Y-162833428D01*
X118668003Y-164563583D02*
X118600660Y-164428896D01*
X118432301Y-164260538D01*
X118331286Y-164226866D01*
X118263942Y-164226866D01*
X118162927Y-164260538D01*
X118095583Y-164327881D01*
X118061912Y-164428896D01*
X118061912Y-164496240D01*
X118095583Y-164597255D01*
X118196599Y-164765614D01*
X118230270Y-164866629D01*
X118230270Y-164933973D01*
X118196599Y-165034988D01*
X118129255Y-165102331D01*
X118028240Y-165136003D01*
X117960896Y-165136003D01*
X117859881Y-165102331D01*
X117691522Y-164933973D01*
X117624179Y-164799286D01*
X117523164Y-163486087D02*
X117590507Y-163486087D01*
X117725194Y-163553431D01*
X117792538Y-163620774D01*
X117859881Y-163755461D01*
X117859881Y-163890148D01*
X117826209Y-163991164D01*
X117725194Y-164159522D01*
X117624179Y-164260538D01*
X117455820Y-164361553D01*
X117354805Y-164395225D01*
X117220118Y-164395225D01*
X117085431Y-164327881D01*
X117018087Y-164260538D01*
X116950744Y-164125851D01*
X116950744Y-164058507D01*
X116950744Y-162778981D02*
X117287461Y-163115698D01*
X116580355Y-163822805D01*
X116398839Y-164580419D02*
X116331496Y-164445732D01*
X116163137Y-164277374D01*
X116062122Y-164243702D01*
X115994778Y-164243702D01*
X115893763Y-164277374D01*
X115826419Y-164344717D01*
X115792748Y-164445732D01*
X115792748Y-164513076D01*
X115826419Y-164614091D01*
X115927435Y-164782450D01*
X115961106Y-164883465D01*
X115961106Y-164950809D01*
X115927435Y-165051824D01*
X115860091Y-165119167D01*
X115759076Y-165152839D01*
X115691732Y-165152839D01*
X115590717Y-165119167D01*
X115422358Y-164950809D01*
X115355015Y-164816122D01*
X115725404Y-163839641D02*
X115018297Y-164546748D01*
X114849938Y-164378389D01*
X114782595Y-164243702D01*
X114782595Y-164109015D01*
X114816267Y-164008000D01*
X114917282Y-163839641D01*
X115018297Y-163738625D01*
X115186656Y-163637610D01*
X115287671Y-163603938D01*
X115422358Y-163603938D01*
X115557045Y-163671282D01*
X115725404Y-163839641D01*
X114849938Y-163368236D02*
X114513221Y-163031519D01*
X115119312Y-163233549D02*
X114176503Y-163704954D01*
X114647908Y-162762145D01*
X113202240Y-165270690D02*
X112764507Y-164832957D01*
X113269583Y-164799286D01*
X113168568Y-164698270D01*
X113134896Y-164597255D01*
X113134896Y-164529912D01*
X113168568Y-164428896D01*
X113336927Y-164260538D01*
X113437942Y-164226866D01*
X113505286Y-164226866D01*
X113606301Y-164260538D01*
X113808331Y-164462568D01*
X113842003Y-164563583D01*
X113842003Y-164630927D01*
X112562477Y-164630927D02*
X113033881Y-163688118D01*
X112091072Y-164159522D01*
X111922713Y-163991164D02*
X111484981Y-163553431D01*
X111990057Y-163519759D01*
X111889042Y-163418744D01*
X111855370Y-163317729D01*
X111855370Y-163250385D01*
X111889042Y-163149370D01*
X112057400Y-162981011D01*
X112158416Y-162947339D01*
X112225759Y-162947339D01*
X112326774Y-162981011D01*
X112528805Y-163183042D01*
X112562477Y-163284057D01*
X112562477Y-163351400D01*
X110105194Y-164900301D02*
X110138866Y-165001316D01*
X110239881Y-165102331D01*
X110374568Y-165169675D01*
X110509255Y-165169675D01*
X110610270Y-165136003D01*
X110778629Y-165034988D01*
X110879644Y-164933973D01*
X110980660Y-164765614D01*
X111014331Y-164664599D01*
X111014331Y-164529912D01*
X110946988Y-164395225D01*
X110879644Y-164327881D01*
X110744957Y-164260538D01*
X110677614Y-164260538D01*
X110441912Y-164496240D01*
X110576599Y-164630927D01*
X110441912Y-163890148D02*
X109734805Y-164597255D01*
X110037851Y-163486087D01*
X109330744Y-164193194D01*
X109701133Y-163149370D02*
X108994026Y-163856477D01*
X108825668Y-163688118D01*
X108758324Y-163553431D01*
X108758324Y-163418744D01*
X108791996Y-163317729D01*
X108893011Y-163149370D01*
X108994026Y-163048355D01*
X109162385Y-162947339D01*
X109263400Y-162913668D01*
X109398087Y-162913668D01*
X109532774Y-162981011D01*
X109701133Y-163149370D01*
D11*
X128547619Y-103892619D02*
X128547619Y-103083095D01*
X128500000Y-102987857D01*
X128452380Y-102940238D01*
X128357142Y-102892619D01*
X128166666Y-102892619D01*
X128071428Y-102940238D01*
X128023809Y-102987857D01*
X127976190Y-103083095D01*
X127976190Y-103892619D01*
X127595238Y-103892619D02*
X127357142Y-102892619D01*
X127166666Y-103606904D01*
X126976190Y-102892619D01*
X126738095Y-103892619D01*
X126357142Y-102892619D02*
X126357142Y-103559285D01*
X126357142Y-103892619D02*
X126404761Y-103845000D01*
X126357142Y-103797380D01*
X126309523Y-103845000D01*
X126357142Y-103892619D01*
X126357142Y-103797380D01*
X125880952Y-103559285D02*
X125880952Y-102892619D01*
X125880952Y-103464047D02*
X125833333Y-103511666D01*
X125738095Y-103559285D01*
X125595238Y-103559285D01*
X125500000Y-103511666D01*
X125452380Y-103416428D01*
X125452380Y-102892619D01*
X124547619Y-102892619D02*
X124547619Y-103892619D01*
X124547619Y-102940238D02*
X124642857Y-102892619D01*
X124833333Y-102892619D01*
X124928571Y-102940238D01*
X124976190Y-102987857D01*
X125023809Y-103083095D01*
X125023809Y-103368809D01*
X124976190Y-103464047D01*
X124928571Y-103511666D01*
X124833333Y-103559285D01*
X124642857Y-103559285D01*
X124547619Y-103511666D01*
X124119047Y-102940238D02*
X124023809Y-102892619D01*
X123833333Y-102892619D01*
X123738095Y-102940238D01*
X123690476Y-103035476D01*
X123690476Y-103083095D01*
X123738095Y-103178333D01*
X123833333Y-103225952D01*
X123976190Y-103225952D01*
X124071428Y-103273571D01*
X124119047Y-103368809D01*
X124119047Y-103416428D01*
X124071428Y-103511666D01*
X123976190Y-103559285D01*
X123833333Y-103559285D01*
X123738095Y-103511666D01*
X123119047Y-102892619D02*
X123214285Y-102940238D01*
X123261904Y-102987857D01*
X123309523Y-103083095D01*
X123309523Y-103368809D01*
X123261904Y-103464047D01*
X123214285Y-103511666D01*
X123119047Y-103559285D01*
X122976190Y-103559285D01*
X122880952Y-103511666D01*
X122833333Y-103464047D01*
X122785714Y-103368809D01*
X122785714Y-103083095D01*
X122833333Y-102987857D01*
X122880952Y-102940238D01*
X122976190Y-102892619D01*
X123119047Y-102892619D01*
X122357142Y-102892619D02*
X122357142Y-103559285D01*
X122357142Y-103368809D02*
X122309523Y-103464047D01*
X122261904Y-103511666D01*
X122166666Y-103559285D01*
X122071428Y-103559285D01*
X129547619Y-101377857D02*
X129595238Y-101330238D01*
X129738095Y-101282619D01*
X129833333Y-101282619D01*
X129976190Y-101330238D01*
X130071428Y-101425476D01*
X130119047Y-101520714D01*
X130166666Y-101711190D01*
X130166666Y-101854047D01*
X130119047Y-102044523D01*
X130071428Y-102139761D01*
X129976190Y-102235000D01*
X129833333Y-102282619D01*
X129738095Y-102282619D01*
X129595238Y-102235000D01*
X129547619Y-102187380D01*
X128976190Y-101282619D02*
X129071428Y-101330238D01*
X129119047Y-101377857D01*
X129166666Y-101473095D01*
X129166666Y-101758809D01*
X129119047Y-101854047D01*
X129071428Y-101901666D01*
X128976190Y-101949285D01*
X128833333Y-101949285D01*
X128738095Y-101901666D01*
X128690476Y-101854047D01*
X128642857Y-101758809D01*
X128642857Y-101473095D01*
X128690476Y-101377857D01*
X128738095Y-101330238D01*
X128833333Y-101282619D01*
X128976190Y-101282619D01*
X127785714Y-101282619D02*
X127785714Y-101806428D01*
X127833333Y-101901666D01*
X127928571Y-101949285D01*
X128119047Y-101949285D01*
X128214285Y-101901666D01*
X127785714Y-101330238D02*
X127880952Y-101282619D01*
X128119047Y-101282619D01*
X128214285Y-101330238D01*
X128261904Y-101425476D01*
X128261904Y-101520714D01*
X128214285Y-101615952D01*
X128119047Y-101663571D01*
X127880952Y-101663571D01*
X127785714Y-101711190D01*
X127357142Y-101330238D02*
X127261904Y-101282619D01*
X127071428Y-101282619D01*
X126976190Y-101330238D01*
X126928571Y-101425476D01*
X126928571Y-101473095D01*
X126976190Y-101568333D01*
X127071428Y-101615952D01*
X127214285Y-101615952D01*
X127309523Y-101663571D01*
X127357142Y-101758809D01*
X127357142Y-101806428D01*
X127309523Y-101901666D01*
X127214285Y-101949285D01*
X127071428Y-101949285D01*
X126976190Y-101901666D01*
X126642857Y-101949285D02*
X126261904Y-101949285D01*
X126500000Y-102282619D02*
X126500000Y-101425476D01*
X126452380Y-101330238D01*
X126357142Y-101282619D01*
X126261904Y-101282619D01*
X125500000Y-101282619D02*
X125500000Y-101806428D01*
X125547619Y-101901666D01*
X125642857Y-101949285D01*
X125833333Y-101949285D01*
X125928571Y-101901666D01*
X125500000Y-101330238D02*
X125595238Y-101282619D01*
X125833333Y-101282619D01*
X125928571Y-101330238D01*
X125976190Y-101425476D01*
X125976190Y-101520714D01*
X125928571Y-101615952D01*
X125833333Y-101663571D01*
X125595238Y-101663571D01*
X125500000Y-101711190D01*
X124880952Y-101282619D02*
X124976190Y-101330238D01*
X125023809Y-101425476D01*
X125023809Y-102282619D01*
X123214285Y-102235000D02*
X123309523Y-102282619D01*
X123452380Y-102282619D01*
X123595238Y-102235000D01*
X123690476Y-102139761D01*
X123738095Y-102044523D01*
X123785714Y-101854047D01*
X123785714Y-101711190D01*
X123738095Y-101520714D01*
X123690476Y-101425476D01*
X123595238Y-101330238D01*
X123452380Y-101282619D01*
X123357142Y-101282619D01*
X123214285Y-101330238D01*
X123166666Y-101377857D01*
X123166666Y-101711190D01*
X123357142Y-101711190D01*
X122738095Y-101282619D02*
X122738095Y-101949285D01*
X122738095Y-101758809D02*
X122690476Y-101854047D01*
X122642857Y-101901666D01*
X122547619Y-101949285D01*
X122452380Y-101949285D01*
X121976190Y-101282619D02*
X122071428Y-101330238D01*
X122119047Y-101377857D01*
X122166666Y-101473095D01*
X122166666Y-101758809D01*
X122119047Y-101854047D01*
X122071428Y-101901666D01*
X121976190Y-101949285D01*
X121833333Y-101949285D01*
X121738095Y-101901666D01*
X121690476Y-101854047D01*
X121642857Y-101758809D01*
X121642857Y-101473095D01*
X121690476Y-101377857D01*
X121738095Y-101330238D01*
X121833333Y-101282619D01*
X121976190Y-101282619D01*
X120785714Y-101949285D02*
X120785714Y-101282619D01*
X121214285Y-101949285D02*
X121214285Y-101425476D01*
X121166666Y-101330238D01*
X121071428Y-101282619D01*
X120928571Y-101282619D01*
X120833333Y-101330238D01*
X120785714Y-101377857D01*
X120309523Y-101949285D02*
X120309523Y-100949285D01*
X120309523Y-101901666D02*
X120214285Y-101949285D01*
X120023809Y-101949285D01*
X119928571Y-101901666D01*
X119880952Y-101854047D01*
X119833333Y-101758809D01*
X119833333Y-101473095D01*
X119880952Y-101377857D01*
X119928571Y-101330238D01*
X120023809Y-101282619D01*
X120214285Y-101282619D01*
X120309523Y-101330238D01*
D10*
X117579333Y-105897619D02*
X117579333Y-106564285D01*
X117579333Y-106469047D02*
X117531714Y-106516666D01*
X117436476Y-106564285D01*
X117293619Y-106564285D01*
X117198380Y-106516666D01*
X117150761Y-106421428D01*
X117150761Y-105897619D01*
X117150761Y-106421428D02*
X117103142Y-106516666D01*
X117007904Y-106564285D01*
X116865047Y-106564285D01*
X116769809Y-106516666D01*
X116722190Y-106421428D01*
X116722190Y-105897619D01*
X116246000Y-105897619D02*
X116246000Y-106564285D01*
X116246000Y-106897619D02*
X116293619Y-106850000D01*
X116246000Y-106802380D01*
X116198380Y-106850000D01*
X116246000Y-106897619D01*
X116246000Y-106802380D01*
X115341238Y-105945238D02*
X115436476Y-105897619D01*
X115626952Y-105897619D01*
X115722190Y-105945238D01*
X115769809Y-105992857D01*
X115817428Y-106088095D01*
X115817428Y-106373809D01*
X115769809Y-106469047D01*
X115722190Y-106516666D01*
X115626952Y-106564285D01*
X115436476Y-106564285D01*
X115341238Y-106516666D01*
X114912666Y-105897619D02*
X114912666Y-106564285D01*
X114912666Y-106373809D02*
X114865047Y-106469047D01*
X114817428Y-106516666D01*
X114722190Y-106564285D01*
X114626952Y-106564285D01*
X114150761Y-105897619D02*
X114246000Y-105945238D01*
X114293619Y-105992857D01*
X114341238Y-106088095D01*
X114341238Y-106373809D01*
X114293619Y-106469047D01*
X114246000Y-106516666D01*
X114150761Y-106564285D01*
X114007904Y-106564285D01*
X113912666Y-106516666D01*
X113865047Y-106469047D01*
X113817428Y-106373809D01*
X113817428Y-106088095D01*
X113865047Y-105992857D01*
X113912666Y-105945238D01*
X114007904Y-105897619D01*
X114150761Y-105897619D01*
X113436476Y-105945238D02*
X113293619Y-105897619D01*
X113055523Y-105897619D01*
X112960285Y-105945238D01*
X112912666Y-105992857D01*
X112865047Y-106088095D01*
X112865047Y-106183333D01*
X112912666Y-106278571D01*
X112960285Y-106326190D01*
X113055523Y-106373809D01*
X113246000Y-106421428D01*
X113341238Y-106469047D01*
X113388857Y-106516666D01*
X113436476Y-106611904D01*
X113436476Y-106707142D01*
X113388857Y-106802380D01*
X113341238Y-106850000D01*
X113246000Y-106897619D01*
X113007904Y-106897619D01*
X112865047Y-106850000D01*
X112436476Y-105897619D02*
X112436476Y-106897619D01*
X112198380Y-106897619D01*
X112055523Y-106850000D01*
X111960285Y-106754761D01*
X111912666Y-106659523D01*
X111865047Y-106469047D01*
X111865047Y-106326190D01*
X111912666Y-106135714D01*
X111960285Y-106040476D01*
X112055523Y-105945238D01*
X112198380Y-105897619D01*
X112436476Y-105897619D01*
X108570285Y-168127619D02*
X108570285Y-169127619D01*
X108236952Y-168413333D01*
X107903619Y-169127619D01*
X107903619Y-168127619D01*
X107475047Y-168175238D02*
X107332190Y-168127619D01*
X107094095Y-168127619D01*
X106998857Y-168175238D01*
X106951238Y-168222857D01*
X106903619Y-168318095D01*
X106903619Y-168413333D01*
X106951238Y-168508571D01*
X106998857Y-168556190D01*
X107094095Y-168603809D01*
X107284571Y-168651428D01*
X107379809Y-168699047D01*
X107427428Y-168746666D01*
X107475047Y-168841904D01*
X107475047Y-168937142D01*
X107427428Y-169032380D01*
X107379809Y-169080000D01*
X107284571Y-169127619D01*
X107046476Y-169127619D01*
X106903619Y-169080000D01*
X105998857Y-169127619D02*
X106475047Y-169127619D01*
X106522666Y-168651428D01*
X106475047Y-168699047D01*
X106379809Y-168746666D01*
X106141714Y-168746666D01*
X106046476Y-168699047D01*
X105998857Y-168651428D01*
X105951238Y-168556190D01*
X105951238Y-168318095D01*
X105998857Y-168222857D01*
X106046476Y-168175238D01*
X106141714Y-168127619D01*
X106379809Y-168127619D01*
X106475047Y-168175238D01*
X106522666Y-168222857D01*
X105379809Y-168699047D02*
X105475047Y-168746666D01*
X105522666Y-168794285D01*
X105570285Y-168889523D01*
X105570285Y-168937142D01*
X105522666Y-169032380D01*
X105475047Y-169080000D01*
X105379809Y-169127619D01*
X105189333Y-169127619D01*
X105094095Y-169080000D01*
X105046476Y-169032380D01*
X104998857Y-168937142D01*
X104998857Y-168889523D01*
X105046476Y-168794285D01*
X105094095Y-168746666D01*
X105189333Y-168699047D01*
X105379809Y-168699047D01*
X105475047Y-168651428D01*
X105522666Y-168603809D01*
X105570285Y-168508571D01*
X105570285Y-168318095D01*
X105522666Y-168222857D01*
X105475047Y-168175238D01*
X105379809Y-168127619D01*
X105189333Y-168127619D01*
X105094095Y-168175238D01*
X105046476Y-168222857D01*
X104998857Y-168318095D01*
X104998857Y-168508571D01*
X105046476Y-168603809D01*
X105094095Y-168651428D01*
X105189333Y-168699047D01*
X104379809Y-169127619D02*
X104284571Y-169127619D01*
X104189333Y-169080000D01*
X104141714Y-169032380D01*
X104094095Y-168937142D01*
X104046476Y-168746666D01*
X104046476Y-168508571D01*
X104094095Y-168318095D01*
X104141714Y-168222857D01*
X104189333Y-168175238D01*
X104284571Y-168127619D01*
X104379809Y-168127619D01*
X104475047Y-168175238D01*
X104522666Y-168222857D01*
X104570285Y-168318095D01*
X104617904Y-168508571D01*
X104617904Y-168746666D01*
X104570285Y-168937142D01*
X104522666Y-169032380D01*
X104475047Y-169080000D01*
X104379809Y-169127619D01*
X103713142Y-169127619D02*
X103094095Y-169127619D01*
X103427428Y-168746666D01*
X103284571Y-168746666D01*
X103189333Y-168699047D01*
X103141714Y-168651428D01*
X103094095Y-168556190D01*
X103094095Y-168318095D01*
X103141714Y-168222857D01*
X103189333Y-168175238D01*
X103284571Y-168127619D01*
X103570285Y-168127619D01*
X103665523Y-168175238D01*
X103713142Y-168222857D01*
X120404761Y-157967619D02*
X120404761Y-158967619D01*
X120166666Y-158967619D01*
X120023809Y-158920000D01*
X119928571Y-158824761D01*
X119880952Y-158729523D01*
X119833333Y-158539047D01*
X119833333Y-158396190D01*
X119880952Y-158205714D01*
X119928571Y-158110476D01*
X120023809Y-158015238D01*
X120166666Y-157967619D01*
X120404761Y-157967619D01*
X119452380Y-158015238D02*
X119309523Y-157967619D01*
X119071428Y-157967619D01*
X118976190Y-158015238D01*
X118928571Y-158062857D01*
X118880952Y-158158095D01*
X118880952Y-158253333D01*
X118928571Y-158348571D01*
X118976190Y-158396190D01*
X119071428Y-158443809D01*
X119261904Y-158491428D01*
X119357142Y-158539047D01*
X119404761Y-158586666D01*
X119452380Y-158681904D01*
X119452380Y-158777142D01*
X119404761Y-158872380D01*
X119357142Y-158920000D01*
X119261904Y-158967619D01*
X119023809Y-158967619D01*
X118880952Y-158920000D01*
X118547619Y-158967619D02*
X117928571Y-158967619D01*
X118261904Y-158586666D01*
X118119047Y-158586666D01*
X118023809Y-158539047D01*
X117976190Y-158491428D01*
X117928571Y-158396190D01*
X117928571Y-158158095D01*
X117976190Y-158062857D01*
X118023809Y-158015238D01*
X118119047Y-157967619D01*
X118404761Y-157967619D01*
X118500000Y-158015238D01*
X118547619Y-158062857D01*
X117547619Y-158872380D02*
X117500000Y-158920000D01*
X117404761Y-158967619D01*
X117166666Y-158967619D01*
X117071428Y-158920000D01*
X117023809Y-158872380D01*
X116976190Y-158777142D01*
X116976190Y-158681904D01*
X117023809Y-158539047D01*
X117595238Y-157967619D01*
X116976190Y-157967619D01*
X116642857Y-158967619D02*
X116023809Y-158967619D01*
X116357142Y-158586666D01*
X116214285Y-158586666D01*
X116119047Y-158539047D01*
X116071428Y-158491428D01*
X116023809Y-158396190D01*
X116023809Y-158158095D01*
X116071428Y-158062857D01*
X116119047Y-158015238D01*
X116214285Y-157967619D01*
X116500000Y-157967619D01*
X116595238Y-158015238D01*
X116642857Y-158062857D01*
X115071428Y-157967619D02*
X115642857Y-157967619D01*
X115357142Y-157967619D02*
X115357142Y-158967619D01*
X115452380Y-158824761D01*
X115547619Y-158729523D01*
X115642857Y-158681904D01*
X114357142Y-157586666D02*
X114404761Y-157634285D01*
X114500000Y-157777142D01*
X114547619Y-157872380D01*
X114595238Y-158015238D01*
X114642857Y-158253333D01*
X114642857Y-158443809D01*
X114595238Y-158681904D01*
X114547619Y-158824761D01*
X114500000Y-158920000D01*
X114404761Y-159062857D01*
X114357142Y-159110476D01*
X114023809Y-158015238D02*
X113880952Y-157967619D01*
X113642857Y-157967619D01*
X113547619Y-158015238D01*
X113500000Y-158062857D01*
X113452380Y-158158095D01*
X113452380Y-158253333D01*
X113500000Y-158348571D01*
X113547619Y-158396190D01*
X113642857Y-158443809D01*
X113833333Y-158491428D01*
X113928571Y-158539047D01*
X113976190Y-158586666D01*
X114023809Y-158681904D01*
X114023809Y-158777142D01*
X113976190Y-158872380D01*
X113928571Y-158920000D01*
X113833333Y-158967619D01*
X113595238Y-158967619D01*
X113452380Y-158920000D01*
X113023809Y-157967619D02*
X113023809Y-158967619D01*
X112452380Y-157967619D01*
X112452380Y-158967619D01*
X111261904Y-159015238D02*
X112119047Y-157729523D01*
X110928571Y-157967619D02*
X110928571Y-158967619D01*
X110595238Y-158253333D01*
X110261904Y-158967619D01*
X110261904Y-157967619D01*
X109880952Y-157586666D02*
X109833333Y-157634285D01*
X109738095Y-157777142D01*
X109690476Y-157872380D01*
X109642857Y-158015238D01*
X109595238Y-158253333D01*
X109595238Y-158443809D01*
X109642857Y-158681904D01*
X109690476Y-158824761D01*
X109738095Y-158920000D01*
X109833333Y-159062857D01*
X109880952Y-159110476D01*
%TO.C,J2*%
X123572380Y-161293333D02*
X124286666Y-161293333D01*
X124429523Y-161340952D01*
X124524761Y-161436190D01*
X124572380Y-161579047D01*
X124572380Y-161674285D01*
X123667619Y-160864761D02*
X123620000Y-160817142D01*
X123572380Y-160721904D01*
X123572380Y-160483809D01*
X123620000Y-160388571D01*
X123667619Y-160340952D01*
X123762857Y-160293333D01*
X123858095Y-160293333D01*
X124000952Y-160340952D01*
X124572380Y-160912380D01*
X124572380Y-160293333D01*
%TO.C,J3*%
X120802380Y-170945333D02*
X121516666Y-170945333D01*
X121659523Y-170992952D01*
X121754761Y-171088190D01*
X121802380Y-171231047D01*
X121802380Y-171326285D01*
X120802380Y-170564380D02*
X120802380Y-169945333D01*
X121183333Y-170278666D01*
X121183333Y-170135809D01*
X121230952Y-170040571D01*
X121278571Y-169992952D01*
X121373809Y-169945333D01*
X121611904Y-169945333D01*
X121707142Y-169992952D01*
X121754761Y-170040571D01*
X121802380Y-170135809D01*
X121802380Y-170421523D01*
X121754761Y-170516761D01*
X121707142Y-170564380D01*
%TO.C,J4*%
X123572380Y-113033333D02*
X124286666Y-113033333D01*
X124429523Y-113080952D01*
X124524761Y-113176190D01*
X124572380Y-113319047D01*
X124572380Y-113414285D01*
X123905714Y-112128571D02*
X124572380Y-112128571D01*
X123524761Y-112366666D02*
X124239047Y-112604761D01*
X124239047Y-111985714D01*
D12*
%TO.C,J2*%
X120080000Y-162290000D02*
X107320000Y-162290000D01*
X107320000Y-159630000D02*
X107320000Y-162290000D01*
X120080000Y-159630000D02*
X107320000Y-159630000D01*
X122680000Y-162290000D02*
X121350000Y-162290000D01*
X120080000Y-159630000D02*
X120080000Y-162290000D01*
X122680000Y-160960000D02*
X122680000Y-162290000D01*
%TO.C,J3*%
X117100000Y-169800000D02*
X117100000Y-170300000D01*
X112900000Y-170300000D02*
X112900000Y-169800000D01*
X119450000Y-166800000D02*
X117500000Y-166800000D01*
X120060000Y-170910000D02*
X120060000Y-166190000D01*
X113000000Y-170300000D02*
X113000000Y-169800000D01*
X120060000Y-166190000D02*
X109940000Y-166190000D01*
X109640000Y-165890000D02*
X109640000Y-167140000D01*
X120060000Y-168800000D02*
X119450000Y-168800000D01*
X109940000Y-167500000D02*
X110550000Y-167500000D01*
X113100000Y-169800000D02*
X113100000Y-170300000D01*
X117000000Y-170300000D02*
X117000000Y-169800000D01*
X114900000Y-169800000D02*
X115100000Y-169800000D01*
X109940000Y-170910000D02*
X120060000Y-170910000D01*
X111400000Y-165990000D02*
X111400000Y-166190000D01*
X112500000Y-166190000D02*
X112500000Y-166800000D01*
X112900000Y-169800000D02*
X113100000Y-169800000D01*
X119450000Y-170300000D02*
X119450000Y-166800000D01*
X120060000Y-167500000D02*
X119450000Y-167500000D01*
X111700000Y-166090000D02*
X111400000Y-166090000D01*
X109940000Y-168800000D02*
X110550000Y-168800000D01*
X116900000Y-169800000D02*
X117100000Y-169800000D01*
X112500000Y-166800000D02*
X110550000Y-166800000D01*
X110550000Y-170300000D02*
X119450000Y-170300000D01*
X116900000Y-170300000D02*
X116900000Y-169800000D01*
X114900000Y-170300000D02*
X114900000Y-169800000D01*
X115000000Y-170300000D02*
X115000000Y-169800000D01*
X109940000Y-166190000D02*
X109940000Y-170910000D01*
X110550000Y-166800000D02*
X110550000Y-170300000D01*
X117500000Y-166800000D02*
X117500000Y-166190000D01*
X110890000Y-165890000D02*
X109640000Y-165890000D01*
X111700000Y-165990000D02*
X111400000Y-165990000D01*
X111700000Y-166190000D02*
X111700000Y-165990000D01*
X115100000Y-169800000D02*
X115100000Y-170300000D01*
%TO.C,J4*%
X120080000Y-111370000D02*
X120080000Y-114030000D01*
X122680000Y-114030000D02*
X121350000Y-114030000D01*
X122680000Y-112700000D02*
X122680000Y-114030000D01*
X120080000Y-114030000D02*
X107320000Y-114030000D01*
X120080000Y-111370000D02*
X107320000Y-111370000D01*
X107320000Y-111370000D02*
X107320000Y-114030000D01*
%TD*%
M02*
