%TF.GenerationSoftware,KiCad,Pcbnew,(6.0.2)*%
%TF.CreationDate,2022-04-15T20:49:01-04:00*%
%TF.ProjectId,firebeetle-shield,66697265-6265-4657-946c-652d73686965,rev?*%
%TF.SameCoordinates,Original*%
%TF.FileFunction,Soldermask,Bot*%
%TF.FilePolarity,Negative*%
%FSLAX46Y46*%
G04 Gerber Fmt 4.6, Leading zero omitted, Abs format (unit mm)*
G04 Created by KiCad (PCBNEW (6.0.2)) date 2022-04-15 20:49:01*
%MOMM*%
%LPD*%
G01*
G04 APERTURE LIST*
G04 Aperture macros list*
%AMRoundRect*
0 Rectangle with rounded corners*
0 $1 Rounding radius*
0 $2 $3 $4 $5 $6 $7 $8 $9 X,Y pos of 4 corners*
0 Add a 4 corners polygon primitive as box body*
4,1,4,$2,$3,$4,$5,$6,$7,$8,$9,$2,$3,0*
0 Add four circle primitives for the rounded corners*
1,1,$1+$1,$2,$3*
1,1,$1+$1,$4,$5*
1,1,$1+$1,$6,$7*
1,1,$1+$1,$8,$9*
0 Add four rect primitives between the rounded corners*
20,1,$1+$1,$2,$3,$4,$5,0*
20,1,$1+$1,$4,$5,$6,$7,0*
20,1,$1+$1,$6,$7,$8,$9,0*
20,1,$1+$1,$8,$9,$2,$3,0*%
%AMFreePoly0*
4,1,20,0.000000,0.744959,0.073905,0.744508,0.209726,0.703889,0.328688,0.626782,0.421226,0.519385,0.479903,0.390333,0.500000,0.250000,0.500000,-0.250000,0.499851,-0.262216,0.476331,-0.402017,0.414519,-0.529596,0.319384,-0.634700,0.198574,-0.708877,0.061801,-0.746166,0.000000,-0.745033,0.000000,-0.750000,-0.500000,-0.750000,-0.500000,0.750000,0.000000,0.750000,0.000000,0.744959,
0.000000,0.744959,$1*%
%AMFreePoly1*
4,1,22,0.500000,-0.750000,0.000000,-0.750000,0.000000,-0.745033,-0.079941,-0.743568,-0.215256,-0.701293,-0.333266,-0.622738,-0.424486,-0.514219,-0.481581,-0.384460,-0.499164,-0.250000,-0.500000,-0.250000,-0.500000,0.250000,-0.499164,0.250000,-0.499963,0.256109,-0.478152,0.396186,-0.417904,0.524511,-0.324060,0.630769,-0.204165,0.706417,-0.067858,0.745374,0.000000,0.744959,0.000000,0.750000,
0.500000,0.750000,0.500000,-0.750000,0.500000,-0.750000,$1*%
G04 Aperture macros list end*
%ADD10R,1.700000X1.700000*%
%ADD11O,1.700000X1.700000*%
%ADD12FreePoly0,90.000000*%
%ADD13FreePoly1,90.000000*%
%ADD14C,1.700000*%
%ADD15FreePoly1,270.000000*%
%ADD16FreePoly0,270.000000*%
%ADD17RoundRect,0.250000X-0.350000X-0.625000X0.350000X-0.625000X0.350000X0.625000X-0.350000X0.625000X0*%
%ADD18O,1.200000X1.750000*%
G04 APERTURE END LIST*
D10*
%TO.C,J1*%
X126455000Y-117790000D03*
D11*
X126455000Y-120330000D03*
X126455000Y-122870000D03*
X126455000Y-125410000D03*
X126455000Y-127950000D03*
X126455000Y-130490000D03*
X126455000Y-133030000D03*
X126455000Y-135570000D03*
X126455000Y-138110000D03*
X126455000Y-140650000D03*
X126455000Y-143190000D03*
X126455000Y-145730000D03*
X126455000Y-148270000D03*
X126455000Y-150810000D03*
%TD*%
D10*
%TO.C,J5*%
X103595000Y-107630000D03*
D11*
X103595000Y-110170000D03*
X103595000Y-112710000D03*
X103595000Y-115250000D03*
X103595000Y-117790000D03*
X103595000Y-120330000D03*
X103595000Y-122870000D03*
X103595000Y-125410000D03*
X103595000Y-127950000D03*
X103595000Y-130490000D03*
X103595000Y-133030000D03*
X103595000Y-135570000D03*
X103595000Y-138110000D03*
X103595000Y-140650000D03*
X103595000Y-143190000D03*
X103595000Y-145730000D03*
X103595000Y-148270000D03*
X103595000Y-150810000D03*
%TD*%
D12*
%TO.C,JP2*%
X118810000Y-156246000D03*
D13*
X118810000Y-157546000D03*
%TD*%
%TO.C,JP1*%
X121350000Y-157546000D03*
D12*
X121350000Y-156246000D03*
%TD*%
D11*
%TO.C,REF\u002A\u002A*%
X123890000Y-150800000D03*
X123831342Y-122860000D03*
X123849092Y-148268322D03*
X123831342Y-120320000D03*
X123849092Y-138135709D03*
X123849092Y-140684031D03*
X123849092Y-133020000D03*
X123849092Y-135560000D03*
X123890000Y-117780000D03*
X123831342Y-125471143D03*
X123849092Y-143180000D03*
X123849092Y-145720000D03*
X123890000Y-127940000D03*
X123849092Y-130480000D03*
X121309092Y-148268322D03*
X121309092Y-138135709D03*
X121350000Y-127940000D03*
X121309092Y-140684031D03*
X121291342Y-120320000D03*
X121309092Y-130480000D03*
X121291342Y-125471143D03*
X121309092Y-135560000D03*
X121309092Y-133020000D03*
X121350000Y-117780000D03*
X121291342Y-122860000D03*
D10*
X121350000Y-150800000D03*
D11*
X121309092Y-143180000D03*
X121309092Y-145720000D03*
X118769092Y-143180000D03*
X118810000Y-150800000D03*
X118810000Y-117780000D03*
X118769092Y-145720000D03*
X118751342Y-122860000D03*
X118810000Y-127940000D03*
X118769092Y-138135709D03*
X118751342Y-125471143D03*
X118769092Y-140684031D03*
X118769092Y-135560000D03*
X118751342Y-120320000D03*
X118769092Y-133020000D03*
X118769092Y-148268322D03*
X118769092Y-130480000D03*
X116211342Y-122860000D03*
X116229092Y-148268322D03*
X116229092Y-140684031D03*
X116211342Y-120320000D03*
X116229092Y-135560000D03*
X116229092Y-143180000D03*
X116229092Y-138135709D03*
X116229092Y-130480000D03*
X116270000Y-150800000D03*
X116270000Y-127940000D03*
X116270000Y-117780000D03*
X116211342Y-125471143D03*
X116229092Y-145720000D03*
X116229092Y-133020000D03*
X113689092Y-148268322D03*
X113689092Y-143180000D03*
X113689092Y-133020000D03*
X113689092Y-138135709D03*
X113689092Y-140684031D03*
X113730000Y-150800000D03*
X113671342Y-125471143D03*
X113689092Y-135560000D03*
X113689092Y-145720000D03*
X113689092Y-130480000D03*
X113730000Y-127940000D03*
X113671342Y-120320000D03*
X113671342Y-122860000D03*
X113730000Y-117780000D03*
X111190000Y-117780000D03*
X111149092Y-148268322D03*
X111149092Y-145720000D03*
X111149092Y-135560000D03*
X111149092Y-130480000D03*
X111190000Y-150800000D03*
X111190000Y-127940000D03*
X111131342Y-120320000D03*
X111149092Y-138135709D03*
X111131342Y-122860000D03*
X111131342Y-125471143D03*
X111149092Y-140684031D03*
X111149092Y-143180000D03*
X111149092Y-133020000D03*
X108591342Y-120320000D03*
X108650000Y-150800000D03*
X108609092Y-138135709D03*
X108650000Y-117780000D03*
X108609092Y-143180000D03*
X108591342Y-125471143D03*
X108609092Y-148268322D03*
X108609092Y-130480000D03*
X108609092Y-135560000D03*
X108591342Y-122860000D03*
X108609092Y-133020000D03*
X108650000Y-127940000D03*
X108609092Y-140684031D03*
X108609092Y-145720000D03*
D14*
X106069092Y-133020000D03*
X106069092Y-135560000D03*
X106069092Y-143180000D03*
X106110000Y-150800000D03*
X106110000Y-117780000D03*
X106069092Y-138135709D03*
X106069092Y-148268322D03*
X106069092Y-145720000D03*
X106069092Y-140684031D03*
X106069092Y-130480000D03*
X106051342Y-122860000D03*
X106110000Y-127940000D03*
X106051342Y-125471143D03*
X106051342Y-120320000D03*
%TD*%
D15*
%TO.C,JP3*%
X103570000Y-160310000D03*
D16*
X103570000Y-161610000D03*
%TD*%
D10*
%TO.C,J2*%
X121350000Y-160960000D03*
D11*
X118810000Y-160960000D03*
X116270000Y-160960000D03*
X113730000Y-160960000D03*
X111190000Y-160960000D03*
X108650000Y-160960000D03*
%TD*%
D17*
%TO.C,J3*%
X112000000Y-168000000D03*
D18*
X114000000Y-168000000D03*
X116000000Y-168000000D03*
X118000000Y-168000000D03*
%TD*%
D10*
%TO.C,J4*%
X121350000Y-112700000D03*
D11*
X118810000Y-112700000D03*
X116270000Y-112700000D03*
X113730000Y-112700000D03*
X111190000Y-112700000D03*
X108650000Y-112700000D03*
%TD*%
M02*
