%TF.GenerationSoftware,KiCad,Pcbnew,(6.0.8)*%
%TF.CreationDate,2022-10-15T13:13:38-04:00*%
%TF.ProjectId,firebeetle-shield,66697265-6265-4657-946c-652d73686965,v1*%
%TF.SameCoordinates,Original*%
%TF.FileFunction,Copper,L1,Top*%
%TF.FilePolarity,Positive*%
%FSLAX46Y46*%
G04 Gerber Fmt 4.6, Leading zero omitted, Abs format (unit mm)*
G04 Created by KiCad (PCBNEW (6.0.8)) date 2022-10-15 13:13:38*
%MOMM*%
%LPD*%
G01*
G04 APERTURE LIST*
G04 Aperture macros list*
%AMRoundRect*
0 Rectangle with rounded corners*
0 $1 Rounding radius*
0 $2 $3 $4 $5 $6 $7 $8 $9 X,Y pos of 4 corners*
0 Add a 4 corners polygon primitive as box body*
4,1,4,$2,$3,$4,$5,$6,$7,$8,$9,$2,$3,0*
0 Add four circle primitives for the rounded corners*
1,1,$1+$1,$2,$3*
1,1,$1+$1,$4,$5*
1,1,$1+$1,$6,$7*
1,1,$1+$1,$8,$9*
0 Add four rect primitives between the rounded corners*
20,1,$1+$1,$2,$3,$4,$5,0*
20,1,$1+$1,$4,$5,$6,$7,0*
20,1,$1+$1,$6,$7,$8,$9,0*
20,1,$1+$1,$8,$9,$2,$3,0*%
G04 Aperture macros list end*
%TA.AperFunction,ComponentPad*%
%ADD10C,1.700000*%
%TD*%
%TA.AperFunction,ComponentPad*%
%ADD11O,1.700000X1.700000*%
%TD*%
%TA.AperFunction,ComponentPad*%
%ADD12R,1.700000X1.700000*%
%TD*%
%TA.AperFunction,ComponentPad*%
%ADD13RoundRect,0.250000X0.350000X0.625000X-0.350000X0.625000X-0.350000X-0.625000X0.350000X-0.625000X0*%
%TD*%
%TA.AperFunction,ComponentPad*%
%ADD14O,1.200000X1.750000*%
%TD*%
%TA.AperFunction,ViaPad*%
%ADD15C,0.800000*%
%TD*%
%TA.AperFunction,Conductor*%
%ADD16C,0.250000*%
%TD*%
G04 APERTURE END LIST*
D10*
%TO.P,REF\u002A\u002A,1*%
%TO.N,N/C*%
X123948658Y-151680000D03*
X123948658Y-146528857D03*
X123890000Y-144060000D03*
X123948658Y-149140000D03*
X123930908Y-141520000D03*
X123930908Y-131315969D03*
X123930908Y-126280000D03*
X123930908Y-123731678D03*
X123930908Y-133864291D03*
X123890000Y-154220000D03*
X123890000Y-121200000D03*
X123930908Y-128820000D03*
X123930908Y-136440000D03*
X123930908Y-138980000D03*
D11*
%TO.P,REF\u002A\u002A,2*%
X121390908Y-126280000D03*
X121390908Y-131315969D03*
X121350000Y-144060000D03*
X121390908Y-138980000D03*
X121408658Y-149140000D03*
X121390908Y-136440000D03*
X121390908Y-141520000D03*
X121390908Y-123731678D03*
X121408658Y-146528857D03*
X121390908Y-128820000D03*
X121350000Y-154220000D03*
X121390908Y-133864291D03*
X121350000Y-121200000D03*
X121408658Y-151680000D03*
%TO.P,REF\u002A\u002A,3*%
X118850908Y-138980000D03*
X118850908Y-128820000D03*
X118850908Y-131315969D03*
X118868658Y-146528857D03*
X118868658Y-149140000D03*
X118850908Y-133864291D03*
X118868658Y-151680000D03*
X118810000Y-144060000D03*
X118810000Y-121200000D03*
X118850908Y-141520000D03*
X118850908Y-136440000D03*
X118850908Y-126280000D03*
X118850908Y-123731678D03*
X118810000Y-154220000D03*
%TO.P,REF\u002A\u002A,4*%
X116270000Y-154220000D03*
X116328658Y-149140000D03*
X116328658Y-151680000D03*
X116270000Y-144060000D03*
X116310908Y-141520000D03*
X116310908Y-126280000D03*
X116310908Y-136440000D03*
X116328658Y-146528857D03*
X116270000Y-121200000D03*
X116310908Y-131315969D03*
X116310908Y-133864291D03*
X116310908Y-138980000D03*
X116310908Y-128820000D03*
X116310908Y-123731678D03*
%TO.P,REF\u002A\u002A,5*%
X113770908Y-138980000D03*
X113770908Y-126280000D03*
X113788658Y-146528857D03*
X113730000Y-154220000D03*
X113730000Y-144060000D03*
X113730000Y-121200000D03*
X113770908Y-141520000D03*
X113770908Y-133864291D03*
X113770908Y-128820000D03*
X113770908Y-136440000D03*
X113788658Y-151680000D03*
X113770908Y-131315969D03*
X113770908Y-123731678D03*
X113788658Y-149140000D03*
%TO.P,REF\u002A\u002A,6*%
X111230908Y-141520000D03*
X111230908Y-123731678D03*
X111230908Y-138980000D03*
X111248658Y-151680000D03*
X111230908Y-136440000D03*
X111230908Y-131315969D03*
X111248658Y-146528857D03*
X111230908Y-133864291D03*
X111190000Y-144060000D03*
X111248658Y-149140000D03*
X111230908Y-126280000D03*
X111190000Y-154220000D03*
X111190000Y-121200000D03*
X111230908Y-128820000D03*
%TO.P,REF\u002A\u002A,7*%
X108690908Y-126280000D03*
X108690908Y-128820000D03*
D12*
%TO.N,32K*%
X108650000Y-121200000D03*
D11*
%TO.N,N/C*%
X108708658Y-149140000D03*
X108650000Y-154220000D03*
X108690908Y-138980000D03*
X108690908Y-136440000D03*
X108708658Y-146528857D03*
X108690908Y-141520000D03*
X108708658Y-151680000D03*
X108690908Y-131315969D03*
X108650000Y-144060000D03*
X108690908Y-133864291D03*
X108690908Y-123731678D03*
%TO.P,REF\u002A\u002A,8*%
X106150908Y-141520000D03*
X106110000Y-144060000D03*
X106150908Y-126280000D03*
X106150908Y-128820000D03*
X106168658Y-146528857D03*
X106110000Y-154220000D03*
X106150908Y-136440000D03*
X106150908Y-138980000D03*
X106150908Y-131315969D03*
X106150908Y-133864291D03*
X106168658Y-151680000D03*
X106150908Y-123731678D03*
X106168658Y-149140000D03*
X106110000Y-121200000D03*
%TD*%
D12*
%TO.P,J2,1,Pin_1*%
%TO.N,Net-(J2-Pad1)*%
X108650000Y-111040000D03*
D11*
%TO.P,J2,2,Pin_2*%
%TO.N,Net-(J2-Pad2)*%
X111190000Y-111040000D03*
%TO.P,J2,3,Pin_3*%
%TO.N,SCL*%
X113730000Y-111040000D03*
%TO.P,J2,4,Pin_4*%
%TO.N,SDA*%
X116270000Y-111040000D03*
%TO.P,J2,5,Pin_5*%
%TO.N,Net-(J2-Pad5)*%
X118810000Y-111040000D03*
%TO.P,J2,6,Pin_6*%
%TO.N,GND*%
X121350000Y-111040000D03*
%TD*%
D13*
%TO.P,J3,1,Pin_1*%
%TO.N,GND*%
X118000000Y-104000000D03*
D14*
%TO.P,J3,2,Pin_2*%
%TO.N,3V3*%
X116000000Y-104000000D03*
%TO.P,J3,3,Pin_3*%
%TO.N,SDA*%
X114000000Y-104000000D03*
%TO.P,J3,4,Pin_4*%
%TO.N,SCL*%
X112000000Y-104000000D03*
%TD*%
D12*
%TO.P,J4,1,Pin_1*%
%TO.N,3V3*%
X108650000Y-159300000D03*
D11*
%TO.P,J4,2,Pin_2*%
%TO.N,CS*%
X111190000Y-159300000D03*
%TO.P,J4,3,Pin_3*%
%TO.N,MOSI*%
X113730000Y-159300000D03*
%TO.P,J4,4,Pin_4*%
%TO.N,SCK*%
X116270000Y-159300000D03*
%TO.P,J4,5,Pin_5*%
%TO.N,MISO*%
X118810000Y-159300000D03*
%TO.P,J4,6,Pin_6*%
%TO.N,GND*%
X121350000Y-159300000D03*
%TD*%
D12*
%TO.P,J5,1,RX*%
%TO.N,unconnected-(J5-Pad1)*%
X126405000Y-121190000D03*
D11*
%TO.P,J5,2,TX*%
%TO.N,unconnected-(J5-Pad2)*%
X126405000Y-123730000D03*
%TO.P,J5,3,D2*%
%TO.N,SQW*%
X126405000Y-126270000D03*
%TO.P,J5,4,D3*%
%TO.N,unconnected-(J5-Pad4)*%
X126405000Y-128810000D03*
%TO.P,J5,5,D5*%
%TO.N,unconnected-(J5-Pad5)*%
X126405000Y-131350000D03*
%TO.P,J5,6,D6*%
%TO.N,unconnected-(J5-Pad6)*%
X126405000Y-133890000D03*
%TO.P,J5,7,D7*%
%TO.N,unconnected-(J5-Pad7)*%
X126405000Y-136430000D03*
%TO.P,J5,8,D9*%
%TO.N,CS*%
X126405000Y-138970000D03*
%TO.P,J5,9,SDA*%
%TO.N,unconnected-(J5-Pad9)*%
X126405000Y-141510000D03*
%TO.P,J5,10,SCL*%
%TO.N,unconnected-(J5-Pad10)*%
X126405000Y-144050000D03*
%TO.P,J5,11,MISO*%
%TO.N,MISO*%
X126405000Y-146590000D03*
%TO.P,J5,12,MOSI*%
%TO.N,MOSI*%
X126405000Y-149130000D03*
%TO.P,J5,13,SCK*%
%TO.N,SCK*%
X126405000Y-151670000D03*
%TO.P,J5,14,EN*%
%TO.N,unconnected-(J5-Pad14)*%
X126405000Y-154210000D03*
%TO.P,J5,15,GND*%
%TO.N,GND*%
X126405000Y-156750000D03*
%TO.P,J5,16,NC*%
%TO.N,unconnected-(J5-Pad16)*%
X126405000Y-159290000D03*
%TO.P,J5,17,3V3*%
%TO.N,unconnected-(J5-Pad17)*%
X126405000Y-161830000D03*
%TO.P,J5,18,RST*%
%TO.N,unconnected-(J5-Pad18)*%
X126405000Y-164370000D03*
%TD*%
D12*
%TO.P,J1,1,D10*%
%TO.N,unconnected-(J1-Pad1)*%
X103545000Y-121190000D03*
D11*
%TO.P,J1,2,D11*%
%TO.N,unconnected-(J1-Pad2)*%
X103545000Y-123730000D03*
%TO.P,J1,3,D12*%
%TO.N,unconnected-(J1-Pad3)*%
X103545000Y-126270000D03*
%TO.P,J1,4,D13*%
%TO.N,unconnected-(J1-Pad4)*%
X103545000Y-128810000D03*
%TO.P,J1,5,A0*%
%TO.N,unconnected-(J1-Pad5)*%
X103545000Y-131350000D03*
%TO.P,J1,6,A1*%
%TO.N,unconnected-(J1-Pad6)*%
X103545000Y-133890000D03*
%TO.P,J1,7,A2*%
%TO.N,unconnected-(J1-Pad7)*%
X103545000Y-136430000D03*
%TO.P,J1,8,A3*%
%TO.N,unconnected-(J1-Pad8)*%
X103545000Y-138970000D03*
%TO.P,J1,9,A4*%
%TO.N,unconnected-(J1-Pad9)*%
X103545000Y-141510000D03*
%TO.P,J1,10,SDA*%
%TO.N,SDA*%
X103545000Y-144050000D03*
%TO.P,J1,11,SCL*%
%TO.N,SCL*%
X103545000Y-146590000D03*
%TO.P,J1,12,GND*%
%TO.N,GND*%
X103545000Y-149130000D03*
%TO.P,J1,13,3V3*%
%TO.N,3V3*%
X103545000Y-151670000D03*
%TO.P,J1,14,VCC*%
%TO.N,VCC*%
X103545000Y-154210000D03*
%TD*%
D15*
%TO.N,GND*%
X115000000Y-156506000D03*
X103824000Y-111040000D03*
X129478000Y-111040000D03*
%TD*%
D16*
%TO.N,SDA*%
X101284000Y-141789000D02*
X103545000Y-144050000D01*
X101284000Y-104690000D02*
X101284000Y-141789000D01*
X103173520Y-102800480D02*
X101284000Y-104690000D01*
X114000000Y-104000000D02*
X112800480Y-102800480D01*
X112800480Y-102800480D02*
X103173520Y-102800480D01*
X114000000Y-108770000D02*
X116270000Y-111040000D01*
X114000000Y-104000000D02*
X114000000Y-108770000D01*
%TO.N,SCL*%
X112000000Y-109310000D02*
X113730000Y-111040000D01*
X112000000Y-104000000D02*
X112000000Y-109310000D01*
%TO.N,MISO*%
X123128000Y-166158000D02*
X118810000Y-161840000D01*
X127954000Y-165904000D02*
X127700000Y-166158000D01*
X127700000Y-166158000D02*
X123128000Y-166158000D01*
X126405000Y-146590000D02*
X127954000Y-148139000D01*
X127954000Y-148139000D02*
X127954000Y-165904000D01*
X118810000Y-161840000D02*
X118810000Y-159300000D01*
%TO.N,3V3*%
X103545000Y-151670000D02*
X100522000Y-148647000D01*
X100522000Y-157268000D02*
X100522000Y-154693000D01*
X100522000Y-148647000D02*
X100522000Y-103928000D01*
X103062000Y-101388000D02*
X113984000Y-101388000D01*
X116000000Y-103404000D02*
X116000000Y-104000000D01*
X113984000Y-101388000D02*
X116000000Y-103404000D01*
X100522000Y-154693000D02*
X103545000Y-151670000D01*
X108650000Y-159300000D02*
X102554000Y-159300000D01*
X102554000Y-159300000D02*
X100522000Y-157268000D01*
X100522000Y-103928000D02*
X103062000Y-101388000D01*
%TO.N,CS*%
X128716000Y-166412000D02*
X128208000Y-166920000D01*
X128716000Y-141281000D02*
X128716000Y-166412000D01*
X111190000Y-161332000D02*
X111190000Y-159300000D01*
X126405000Y-138970000D02*
X128716000Y-141281000D01*
X116778000Y-166920000D02*
X111190000Y-161332000D01*
X128208000Y-166920000D02*
X116778000Y-166920000D01*
%TD*%
%TA.AperFunction,Conductor*%
%TO.N,GND*%
G36*
X103006633Y-100528502D02*
G01*
X103053126Y-100582158D01*
X103063230Y-100652432D01*
X103033736Y-100717012D01*
X102974010Y-100755396D01*
X102965967Y-100757206D01*
X102962110Y-100757327D01*
X102944454Y-100762456D01*
X102942658Y-100762978D01*
X102923306Y-100766986D01*
X102911068Y-100768532D01*
X102911066Y-100768533D01*
X102903203Y-100769526D01*
X102862086Y-100785806D01*
X102850885Y-100789641D01*
X102808406Y-100801982D01*
X102801587Y-100806015D01*
X102801582Y-100806017D01*
X102790971Y-100812293D01*
X102773221Y-100820990D01*
X102754383Y-100828448D01*
X102747967Y-100833109D01*
X102747966Y-100833110D01*
X102718625Y-100854428D01*
X102708701Y-100860947D01*
X102677460Y-100879422D01*
X102677455Y-100879426D01*
X102670637Y-100883458D01*
X102656313Y-100897782D01*
X102641281Y-100910621D01*
X102624893Y-100922528D01*
X102602550Y-100949536D01*
X102596712Y-100956593D01*
X102588722Y-100965373D01*
X100129747Y-103424348D01*
X100121461Y-103431888D01*
X100114982Y-103436000D01*
X100109557Y-103441777D01*
X100068357Y-103485651D01*
X100065602Y-103488493D01*
X100045865Y-103508230D01*
X100043385Y-103511427D01*
X100035682Y-103520447D01*
X100005414Y-103552679D01*
X100001595Y-103559625D01*
X100001593Y-103559628D01*
X99995652Y-103570434D01*
X99984801Y-103586953D01*
X99972386Y-103602959D01*
X99969241Y-103610228D01*
X99969238Y-103610232D01*
X99954826Y-103643537D01*
X99949609Y-103654187D01*
X99928305Y-103692940D01*
X99926334Y-103700615D01*
X99926334Y-103700616D01*
X99923267Y-103712562D01*
X99916863Y-103731266D01*
X99908819Y-103749855D01*
X99907580Y-103757678D01*
X99907577Y-103757688D01*
X99901901Y-103793524D01*
X99899495Y-103805144D01*
X99888500Y-103847970D01*
X99888500Y-103868224D01*
X99886949Y-103887934D01*
X99883780Y-103907943D01*
X99884526Y-103915835D01*
X99887941Y-103951961D01*
X99888500Y-103963819D01*
X99888500Y-148568233D01*
X99887973Y-148579416D01*
X99886298Y-148586909D01*
X99886547Y-148594835D01*
X99886547Y-148594836D01*
X99888438Y-148654986D01*
X99888500Y-148658945D01*
X99888500Y-148686856D01*
X99888997Y-148690790D01*
X99888997Y-148690791D01*
X99889005Y-148690856D01*
X99889938Y-148702693D01*
X99891327Y-148746889D01*
X99896978Y-148766339D01*
X99900987Y-148785700D01*
X99903526Y-148805797D01*
X99906445Y-148813168D01*
X99906445Y-148813170D01*
X99919804Y-148846912D01*
X99923649Y-148858142D01*
X99928837Y-148876000D01*
X99935982Y-148900593D01*
X99940015Y-148907412D01*
X99940017Y-148907417D01*
X99946293Y-148918028D01*
X99954988Y-148935776D01*
X99962448Y-148954617D01*
X99967110Y-148961033D01*
X99967110Y-148961034D01*
X99988436Y-148990387D01*
X99994952Y-149000307D01*
X100017458Y-149038362D01*
X100031779Y-149052683D01*
X100044619Y-149067716D01*
X100056528Y-149084107D01*
X100062634Y-149089158D01*
X100090605Y-149112298D01*
X100099384Y-149120288D01*
X102194778Y-151215682D01*
X102228804Y-151277994D01*
X102227100Y-151338448D01*
X102205989Y-151414570D01*
X102182251Y-151636695D01*
X102195110Y-151859715D01*
X102196247Y-151864761D01*
X102196248Y-151864767D01*
X102228453Y-152007668D01*
X102223917Y-152078520D01*
X102194631Y-152124464D01*
X100129747Y-154189348D01*
X100121461Y-154196888D01*
X100114982Y-154201000D01*
X100109557Y-154206777D01*
X100068357Y-154250651D01*
X100065602Y-154253493D01*
X100045865Y-154273230D01*
X100043385Y-154276427D01*
X100035682Y-154285447D01*
X100005414Y-154317679D01*
X100001595Y-154324625D01*
X100001593Y-154324628D01*
X99995652Y-154335434D01*
X99984801Y-154351953D01*
X99972386Y-154367959D01*
X99969241Y-154375228D01*
X99969238Y-154375232D01*
X99954826Y-154408537D01*
X99949609Y-154419187D01*
X99928305Y-154457940D01*
X99926334Y-154465615D01*
X99926334Y-154465616D01*
X99923267Y-154477562D01*
X99916863Y-154496266D01*
X99908819Y-154514855D01*
X99907580Y-154522678D01*
X99907577Y-154522688D01*
X99901901Y-154558524D01*
X99899495Y-154570144D01*
X99888500Y-154612970D01*
X99888500Y-154633224D01*
X99886949Y-154652934D01*
X99883780Y-154672943D01*
X99884526Y-154680835D01*
X99887941Y-154716961D01*
X99888500Y-154728819D01*
X99888500Y-157189233D01*
X99887973Y-157200416D01*
X99886298Y-157207909D01*
X99886547Y-157215835D01*
X99886547Y-157215836D01*
X99888438Y-157275986D01*
X99888500Y-157279945D01*
X99888500Y-157307856D01*
X99888997Y-157311790D01*
X99888997Y-157311791D01*
X99889005Y-157311856D01*
X99889938Y-157323693D01*
X99891327Y-157367889D01*
X99896978Y-157387339D01*
X99900987Y-157406700D01*
X99903526Y-157426797D01*
X99906445Y-157434168D01*
X99906445Y-157434170D01*
X99919804Y-157467912D01*
X99923649Y-157479142D01*
X99935982Y-157521593D01*
X99940015Y-157528412D01*
X99940017Y-157528417D01*
X99946293Y-157539028D01*
X99954988Y-157556776D01*
X99962448Y-157575617D01*
X99967110Y-157582033D01*
X99967110Y-157582034D01*
X99988436Y-157611387D01*
X99994952Y-157621307D01*
X100017458Y-157659362D01*
X100031779Y-157673683D01*
X100044619Y-157688716D01*
X100056528Y-157705107D01*
X100062634Y-157710158D01*
X100090605Y-157733298D01*
X100099384Y-157741288D01*
X102050348Y-159692253D01*
X102057888Y-159700539D01*
X102062000Y-159707018D01*
X102067777Y-159712443D01*
X102111651Y-159753643D01*
X102114493Y-159756398D01*
X102134230Y-159776135D01*
X102137427Y-159778615D01*
X102146447Y-159786318D01*
X102178679Y-159816586D01*
X102185625Y-159820405D01*
X102185628Y-159820407D01*
X102196434Y-159826348D01*
X102212953Y-159837199D01*
X102228959Y-159849614D01*
X102236228Y-159852759D01*
X102236232Y-159852762D01*
X102269537Y-159867174D01*
X102280187Y-159872391D01*
X102318940Y-159893695D01*
X102326615Y-159895666D01*
X102326616Y-159895666D01*
X102338562Y-159898733D01*
X102357267Y-159905137D01*
X102375855Y-159913181D01*
X102383678Y-159914420D01*
X102383688Y-159914423D01*
X102419524Y-159920099D01*
X102431144Y-159922505D01*
X102466289Y-159931528D01*
X102473970Y-159933500D01*
X102494224Y-159933500D01*
X102513934Y-159935051D01*
X102533943Y-159938220D01*
X102541835Y-159937474D01*
X102577961Y-159934059D01*
X102589819Y-159933500D01*
X107165500Y-159933500D01*
X107233621Y-159953502D01*
X107280114Y-160007158D01*
X107291500Y-160059500D01*
X107291500Y-160198134D01*
X107298255Y-160260316D01*
X107349385Y-160396705D01*
X107436739Y-160513261D01*
X107553295Y-160600615D01*
X107689684Y-160651745D01*
X107751866Y-160658500D01*
X109548134Y-160658500D01*
X109610316Y-160651745D01*
X109746705Y-160600615D01*
X109863261Y-160513261D01*
X109950615Y-160396705D01*
X109972799Y-160337529D01*
X109994598Y-160279382D01*
X110037240Y-160222618D01*
X110103802Y-160197918D01*
X110173150Y-160213126D01*
X110207817Y-160241114D01*
X110236250Y-160273938D01*
X110408126Y-160416632D01*
X110494070Y-160466853D01*
X110542794Y-160518491D01*
X110556500Y-160575641D01*
X110556500Y-161253233D01*
X110555973Y-161264416D01*
X110554298Y-161271909D01*
X110554547Y-161279835D01*
X110554547Y-161279836D01*
X110556438Y-161339986D01*
X110556500Y-161343945D01*
X110556500Y-161371856D01*
X110556997Y-161375790D01*
X110556997Y-161375791D01*
X110557005Y-161375856D01*
X110557938Y-161387693D01*
X110559327Y-161431889D01*
X110564978Y-161451339D01*
X110568987Y-161470700D01*
X110571526Y-161490797D01*
X110574445Y-161498168D01*
X110574445Y-161498170D01*
X110587804Y-161531912D01*
X110591649Y-161543142D01*
X110601658Y-161577595D01*
X110603982Y-161585593D01*
X110608015Y-161592412D01*
X110608017Y-161592417D01*
X110614293Y-161603028D01*
X110622988Y-161620776D01*
X110630448Y-161639617D01*
X110635110Y-161646033D01*
X110635110Y-161646034D01*
X110656436Y-161675387D01*
X110662952Y-161685307D01*
X110685458Y-161723362D01*
X110699779Y-161737683D01*
X110712619Y-161752716D01*
X110724528Y-161769107D01*
X110751671Y-161791562D01*
X110758605Y-161797298D01*
X110767384Y-161805288D01*
X116274343Y-167312247D01*
X116281887Y-167320537D01*
X116286000Y-167327018D01*
X116291777Y-167332443D01*
X116335667Y-167373658D01*
X116338509Y-167376413D01*
X116358230Y-167396134D01*
X116361425Y-167398612D01*
X116370447Y-167406318D01*
X116402679Y-167436586D01*
X116409628Y-167440406D01*
X116420432Y-167446346D01*
X116436956Y-167457199D01*
X116452959Y-167469613D01*
X116493543Y-167487176D01*
X116504173Y-167492383D01*
X116542940Y-167513695D01*
X116550617Y-167515666D01*
X116550622Y-167515668D01*
X116562558Y-167518732D01*
X116581266Y-167525137D01*
X116599855Y-167533181D01*
X116607680Y-167534420D01*
X116607682Y-167534421D01*
X116643519Y-167540097D01*
X116655140Y-167542504D01*
X116686959Y-167550673D01*
X116697970Y-167553500D01*
X116718231Y-167553500D01*
X116737940Y-167555051D01*
X116757943Y-167558219D01*
X116765835Y-167557473D01*
X116771062Y-167556979D01*
X116801954Y-167554059D01*
X116813811Y-167553500D01*
X128129233Y-167553500D01*
X128140416Y-167554027D01*
X128147909Y-167555702D01*
X128155835Y-167555453D01*
X128155836Y-167555453D01*
X128215986Y-167553562D01*
X128219945Y-167553500D01*
X128247856Y-167553500D01*
X128251791Y-167553003D01*
X128251856Y-167552995D01*
X128263693Y-167552062D01*
X128295951Y-167551048D01*
X128299970Y-167550922D01*
X128307889Y-167550673D01*
X128327343Y-167545021D01*
X128346700Y-167541013D01*
X128358930Y-167539468D01*
X128358931Y-167539468D01*
X128366797Y-167538474D01*
X128374168Y-167535555D01*
X128374170Y-167535555D01*
X128407912Y-167522196D01*
X128419142Y-167518351D01*
X128453983Y-167508229D01*
X128453984Y-167508229D01*
X128461593Y-167506018D01*
X128468412Y-167501985D01*
X128468417Y-167501983D01*
X128479028Y-167495707D01*
X128496776Y-167487012D01*
X128515617Y-167479552D01*
X128535987Y-167464753D01*
X128551387Y-167453564D01*
X128561307Y-167447048D01*
X128592535Y-167428580D01*
X128592538Y-167428578D01*
X128599362Y-167424542D01*
X128613683Y-167410221D01*
X128628717Y-167397380D01*
X128630432Y-167396134D01*
X128645107Y-167385472D01*
X128673298Y-167351395D01*
X128681288Y-167342616D01*
X129108247Y-166915657D01*
X129116537Y-166908113D01*
X129123018Y-166904000D01*
X129169659Y-166854332D01*
X129172413Y-166851491D01*
X129192134Y-166831770D01*
X129194612Y-166828575D01*
X129202318Y-166819553D01*
X129227158Y-166793101D01*
X129232586Y-166787321D01*
X129242346Y-166769568D01*
X129253199Y-166753045D01*
X129260753Y-166743306D01*
X129265613Y-166737041D01*
X129283176Y-166696457D01*
X129288383Y-166685827D01*
X129309695Y-166647060D01*
X129311666Y-166639383D01*
X129311668Y-166639378D01*
X129314732Y-166627442D01*
X129321138Y-166608730D01*
X129326034Y-166597417D01*
X129329181Y-166590145D01*
X129336097Y-166546481D01*
X129338504Y-166534860D01*
X129347528Y-166499711D01*
X129347528Y-166499710D01*
X129349500Y-166492030D01*
X129349500Y-166471769D01*
X129351051Y-166452058D01*
X129352979Y-166439885D01*
X129354219Y-166432057D01*
X129350059Y-166388046D01*
X129349500Y-166376189D01*
X129349500Y-141359768D01*
X129350027Y-141348585D01*
X129351702Y-141341092D01*
X129349562Y-141273001D01*
X129349500Y-141269044D01*
X129349500Y-141241144D01*
X129348996Y-141237153D01*
X129348063Y-141225311D01*
X129346923Y-141189036D01*
X129346674Y-141181111D01*
X129341021Y-141161652D01*
X129337012Y-141142293D01*
X129336846Y-141140983D01*
X129334474Y-141122203D01*
X129331558Y-141114837D01*
X129331556Y-141114831D01*
X129318200Y-141081098D01*
X129314355Y-141069868D01*
X129304230Y-141035017D01*
X129304230Y-141035016D01*
X129302019Y-141027407D01*
X129291705Y-141009966D01*
X129283008Y-140992213D01*
X129278472Y-140980758D01*
X129275552Y-140973383D01*
X129249563Y-140937612D01*
X129243047Y-140927692D01*
X129224578Y-140896463D01*
X129220542Y-140889638D01*
X129206221Y-140875317D01*
X129193380Y-140860283D01*
X129186131Y-140850306D01*
X129181472Y-140843893D01*
X129147395Y-140815702D01*
X129138616Y-140807712D01*
X127756218Y-139425313D01*
X127722192Y-139363001D01*
X127724755Y-139299589D01*
X127735865Y-139263022D01*
X127737370Y-139258069D01*
X127766529Y-139036590D01*
X127768156Y-138970000D01*
X127749852Y-138747361D01*
X127695431Y-138530702D01*
X127606354Y-138325840D01*
X127494288Y-138152612D01*
X127487822Y-138142617D01*
X127487820Y-138142614D01*
X127485014Y-138138277D01*
X127334670Y-137973051D01*
X127330619Y-137969852D01*
X127330615Y-137969848D01*
X127163414Y-137837800D01*
X127163410Y-137837798D01*
X127159359Y-137834598D01*
X127118053Y-137811796D01*
X127068084Y-137761364D01*
X127053312Y-137691921D01*
X127078428Y-137625516D01*
X127105780Y-137598909D01*
X127169684Y-137553327D01*
X127284860Y-137471173D01*
X127443096Y-137313489D01*
X127502594Y-137230689D01*
X127570435Y-137136277D01*
X127573453Y-137132077D01*
X127595423Y-137087625D01*
X127670136Y-136936453D01*
X127670137Y-136936451D01*
X127672430Y-136931811D01*
X127737370Y-136718069D01*
X127766529Y-136496590D01*
X127768156Y-136430000D01*
X127749852Y-136207361D01*
X127695431Y-135990702D01*
X127606354Y-135785840D01*
X127494288Y-135612612D01*
X127487822Y-135602617D01*
X127487820Y-135602614D01*
X127485014Y-135598277D01*
X127334670Y-135433051D01*
X127330619Y-135429852D01*
X127330615Y-135429848D01*
X127163414Y-135297800D01*
X127163410Y-135297798D01*
X127159359Y-135294598D01*
X127118053Y-135271796D01*
X127068084Y-135221364D01*
X127053312Y-135151921D01*
X127078428Y-135085516D01*
X127105780Y-135058909D01*
X127149603Y-135027650D01*
X127284860Y-134931173D01*
X127443096Y-134773489D01*
X127502594Y-134690689D01*
X127570435Y-134596277D01*
X127573453Y-134592077D01*
X127606771Y-134524664D01*
X127670136Y-134396453D01*
X127670137Y-134396451D01*
X127672430Y-134391811D01*
X127737370Y-134178069D01*
X127766529Y-133956590D01*
X127768156Y-133890000D01*
X127749852Y-133667361D01*
X127695431Y-133450702D01*
X127606354Y-133245840D01*
X127529806Y-133127515D01*
X127487822Y-133062617D01*
X127487820Y-133062614D01*
X127485014Y-133058277D01*
X127334670Y-132893051D01*
X127330619Y-132889852D01*
X127330615Y-132889848D01*
X127163414Y-132757800D01*
X127163410Y-132757798D01*
X127159359Y-132754598D01*
X127118053Y-132731796D01*
X127068084Y-132681364D01*
X127053312Y-132611921D01*
X127078428Y-132545516D01*
X127105780Y-132518909D01*
X127160544Y-132479846D01*
X127284860Y-132391173D01*
X127443096Y-132233489D01*
X127470566Y-132195261D01*
X127570435Y-132056277D01*
X127573453Y-132052077D01*
X127611139Y-131975826D01*
X127670136Y-131856453D01*
X127670137Y-131856451D01*
X127672430Y-131851811D01*
X127737370Y-131638069D01*
X127766529Y-131416590D01*
X127768156Y-131350000D01*
X127749852Y-131127361D01*
X127695431Y-130910702D01*
X127606354Y-130705840D01*
X127485014Y-130518277D01*
X127334670Y-130353051D01*
X127330619Y-130349852D01*
X127330615Y-130349848D01*
X127163414Y-130217800D01*
X127163410Y-130217798D01*
X127159359Y-130214598D01*
X127118053Y-130191796D01*
X127068084Y-130141364D01*
X127053312Y-130071921D01*
X127078428Y-130005516D01*
X127105780Y-129978909D01*
X127169684Y-129933327D01*
X127284860Y-129851173D01*
X127443096Y-129693489D01*
X127502594Y-129610689D01*
X127570435Y-129516277D01*
X127573453Y-129512077D01*
X127595423Y-129467625D01*
X127670136Y-129316453D01*
X127670137Y-129316451D01*
X127672430Y-129311811D01*
X127737370Y-129098069D01*
X127766529Y-128876590D01*
X127768156Y-128810000D01*
X127749852Y-128587361D01*
X127695431Y-128370702D01*
X127606354Y-128165840D01*
X127494288Y-127992612D01*
X127487822Y-127982617D01*
X127487820Y-127982614D01*
X127485014Y-127978277D01*
X127334670Y-127813051D01*
X127330619Y-127809852D01*
X127330615Y-127809848D01*
X127163414Y-127677800D01*
X127163410Y-127677798D01*
X127159359Y-127674598D01*
X127118053Y-127651796D01*
X127068084Y-127601364D01*
X127053312Y-127531921D01*
X127078428Y-127465516D01*
X127105780Y-127438909D01*
X127169684Y-127393327D01*
X127284860Y-127311173D01*
X127443096Y-127153489D01*
X127502594Y-127070689D01*
X127570435Y-126976277D01*
X127573453Y-126972077D01*
X127595423Y-126927625D01*
X127670136Y-126776453D01*
X127670137Y-126776451D01*
X127672430Y-126771811D01*
X127737370Y-126558069D01*
X127766529Y-126336590D01*
X127768156Y-126270000D01*
X127749852Y-126047361D01*
X127695431Y-125830702D01*
X127606354Y-125625840D01*
X127494288Y-125452612D01*
X127487822Y-125442617D01*
X127487820Y-125442614D01*
X127485014Y-125438277D01*
X127334670Y-125273051D01*
X127330619Y-125269852D01*
X127330615Y-125269848D01*
X127163414Y-125137800D01*
X127163410Y-125137798D01*
X127159359Y-125134598D01*
X127118053Y-125111796D01*
X127068084Y-125061364D01*
X127053312Y-124991921D01*
X127078428Y-124925516D01*
X127105780Y-124898909D01*
X127173058Y-124850920D01*
X127284860Y-124771173D01*
X127350647Y-124705616D01*
X127439435Y-124617137D01*
X127443096Y-124613489D01*
X127501389Y-124532366D01*
X127570435Y-124436277D01*
X127573453Y-124432077D01*
X127599536Y-124379303D01*
X127670136Y-124236453D01*
X127670137Y-124236451D01*
X127672430Y-124231811D01*
X127737370Y-124018069D01*
X127766529Y-123796590D01*
X127768156Y-123730000D01*
X127749852Y-123507361D01*
X127695431Y-123290702D01*
X127606354Y-123085840D01*
X127536772Y-122978282D01*
X127487822Y-122902617D01*
X127487820Y-122902614D01*
X127485014Y-122898277D01*
X127481532Y-122894450D01*
X127337798Y-122736488D01*
X127306746Y-122672642D01*
X127315141Y-122602143D01*
X127360317Y-122547375D01*
X127386761Y-122533706D01*
X127493297Y-122493767D01*
X127501705Y-122490615D01*
X127618261Y-122403261D01*
X127705615Y-122286705D01*
X127756745Y-122150316D01*
X127763500Y-122088134D01*
X127763500Y-120291866D01*
X127756745Y-120229684D01*
X127705615Y-120093295D01*
X127618261Y-119976739D01*
X127501705Y-119889385D01*
X127365316Y-119838255D01*
X127303134Y-119831500D01*
X125506866Y-119831500D01*
X125444684Y-119838255D01*
X125308295Y-119889385D01*
X125191739Y-119976739D01*
X125104385Y-120093295D01*
X125101233Y-120101703D01*
X125101232Y-120101705D01*
X125064559Y-120199530D01*
X125021918Y-120256295D01*
X124955356Y-120280995D01*
X124886007Y-120265788D01*
X124853384Y-120240101D01*
X124823152Y-120206876D01*
X124823142Y-120206867D01*
X124819670Y-120203051D01*
X124815619Y-120199852D01*
X124815615Y-120199848D01*
X124648414Y-120067800D01*
X124648410Y-120067798D01*
X124644359Y-120064598D01*
X124448789Y-119956638D01*
X124443920Y-119954914D01*
X124443916Y-119954912D01*
X124243087Y-119883795D01*
X124243083Y-119883794D01*
X124238212Y-119882069D01*
X124233119Y-119881162D01*
X124233116Y-119881161D01*
X124023373Y-119843800D01*
X124023367Y-119843799D01*
X124018284Y-119842894D01*
X123944452Y-119841992D01*
X123800081Y-119840228D01*
X123800079Y-119840228D01*
X123794911Y-119840165D01*
X123574091Y-119873955D01*
X123361756Y-119943357D01*
X123163607Y-120046507D01*
X123159474Y-120049610D01*
X123159471Y-120049612D01*
X122989100Y-120177530D01*
X122984965Y-120180635D01*
X122945525Y-120221907D01*
X122873729Y-120297037D01*
X122830629Y-120342138D01*
X122723201Y-120499621D01*
X122668293Y-120544621D01*
X122597768Y-120552792D01*
X122534021Y-120521538D01*
X122513324Y-120497054D01*
X122432822Y-120372617D01*
X122432820Y-120372614D01*
X122430014Y-120368277D01*
X122279670Y-120203051D01*
X122275619Y-120199852D01*
X122275615Y-120199848D01*
X122108414Y-120067800D01*
X122108410Y-120067798D01*
X122104359Y-120064598D01*
X121908789Y-119956638D01*
X121903920Y-119954914D01*
X121903916Y-119954912D01*
X121703087Y-119883795D01*
X121703083Y-119883794D01*
X121698212Y-119882069D01*
X121693119Y-119881162D01*
X121693116Y-119881161D01*
X121483373Y-119843800D01*
X121483367Y-119843799D01*
X121478284Y-119842894D01*
X121404452Y-119841992D01*
X121260081Y-119840228D01*
X121260079Y-119840228D01*
X121254911Y-119840165D01*
X121034091Y-119873955D01*
X120821756Y-119943357D01*
X120623607Y-120046507D01*
X120619474Y-120049610D01*
X120619471Y-120049612D01*
X120449100Y-120177530D01*
X120444965Y-120180635D01*
X120405525Y-120221907D01*
X120333729Y-120297037D01*
X120290629Y-120342138D01*
X120183201Y-120499621D01*
X120128293Y-120544621D01*
X120057768Y-120552792D01*
X119994021Y-120521538D01*
X119973324Y-120497054D01*
X119892822Y-120372617D01*
X119892820Y-120372614D01*
X119890014Y-120368277D01*
X119739670Y-120203051D01*
X119735619Y-120199852D01*
X119735615Y-120199848D01*
X119568414Y-120067800D01*
X119568410Y-120067798D01*
X119564359Y-120064598D01*
X119368789Y-119956638D01*
X119363920Y-119954914D01*
X119363916Y-119954912D01*
X119163087Y-119883795D01*
X119163083Y-119883794D01*
X119158212Y-119882069D01*
X119153119Y-119881162D01*
X119153116Y-119881161D01*
X118943373Y-119843800D01*
X118943367Y-119843799D01*
X118938284Y-119842894D01*
X118864452Y-119841992D01*
X118720081Y-119840228D01*
X118720079Y-119840228D01*
X118714911Y-119840165D01*
X118494091Y-119873955D01*
X118281756Y-119943357D01*
X118083607Y-120046507D01*
X118079474Y-120049610D01*
X118079471Y-120049612D01*
X117909100Y-120177530D01*
X117904965Y-120180635D01*
X117865525Y-120221907D01*
X117793729Y-120297037D01*
X117750629Y-120342138D01*
X117643201Y-120499621D01*
X117588293Y-120544621D01*
X117517768Y-120552792D01*
X117454021Y-120521538D01*
X117433324Y-120497054D01*
X117352822Y-120372617D01*
X117352820Y-120372614D01*
X117350014Y-120368277D01*
X117199670Y-120203051D01*
X117195619Y-120199852D01*
X117195615Y-120199848D01*
X117028414Y-120067800D01*
X117028410Y-120067798D01*
X117024359Y-120064598D01*
X116828789Y-119956638D01*
X116823920Y-119954914D01*
X116823916Y-119954912D01*
X116623087Y-119883795D01*
X116623083Y-119883794D01*
X116618212Y-119882069D01*
X116613119Y-119881162D01*
X116613116Y-119881161D01*
X116403373Y-119843800D01*
X116403367Y-119843799D01*
X116398284Y-119842894D01*
X116324452Y-119841992D01*
X116180081Y-119840228D01*
X116180079Y-119840228D01*
X116174911Y-119840165D01*
X115954091Y-119873955D01*
X115741756Y-119943357D01*
X115543607Y-120046507D01*
X115539474Y-120049610D01*
X115539471Y-120049612D01*
X115369100Y-120177530D01*
X115364965Y-120180635D01*
X115325525Y-120221907D01*
X115253729Y-120297037D01*
X115210629Y-120342138D01*
X115103201Y-120499621D01*
X115048293Y-120544621D01*
X114977768Y-120552792D01*
X114914021Y-120521538D01*
X114893324Y-120497054D01*
X114812822Y-120372617D01*
X114812820Y-120372614D01*
X114810014Y-120368277D01*
X114659670Y-120203051D01*
X114655619Y-120199852D01*
X114655615Y-120199848D01*
X114488414Y-120067800D01*
X114488410Y-120067798D01*
X114484359Y-120064598D01*
X114288789Y-119956638D01*
X114283920Y-119954914D01*
X114283916Y-119954912D01*
X114083087Y-119883795D01*
X114083083Y-119883794D01*
X114078212Y-119882069D01*
X114073119Y-119881162D01*
X114073116Y-119881161D01*
X113863373Y-119843800D01*
X113863367Y-119843799D01*
X113858284Y-119842894D01*
X113784452Y-119841992D01*
X113640081Y-119840228D01*
X113640079Y-119840228D01*
X113634911Y-119840165D01*
X113414091Y-119873955D01*
X113201756Y-119943357D01*
X113003607Y-120046507D01*
X112999474Y-120049610D01*
X112999471Y-120049612D01*
X112829100Y-120177530D01*
X112824965Y-120180635D01*
X112785525Y-120221907D01*
X112713729Y-120297037D01*
X112670629Y-120342138D01*
X112563201Y-120499621D01*
X112508293Y-120544621D01*
X112437768Y-120552792D01*
X112374021Y-120521538D01*
X112353324Y-120497054D01*
X112272822Y-120372617D01*
X112272820Y-120372614D01*
X112270014Y-120368277D01*
X112119670Y-120203051D01*
X112115619Y-120199852D01*
X112115615Y-120199848D01*
X111948414Y-120067800D01*
X111948410Y-120067798D01*
X111944359Y-120064598D01*
X111748789Y-119956638D01*
X111743920Y-119954914D01*
X111743916Y-119954912D01*
X111543087Y-119883795D01*
X111543083Y-119883794D01*
X111538212Y-119882069D01*
X111533119Y-119881162D01*
X111533116Y-119881161D01*
X111323373Y-119843800D01*
X111323367Y-119843799D01*
X111318284Y-119842894D01*
X111244452Y-119841992D01*
X111100081Y-119840228D01*
X111100079Y-119840228D01*
X111094911Y-119840165D01*
X110874091Y-119873955D01*
X110661756Y-119943357D01*
X110463607Y-120046507D01*
X110459474Y-120049610D01*
X110459471Y-120049612D01*
X110289100Y-120177530D01*
X110284965Y-120180635D01*
X110228537Y-120239684D01*
X110204283Y-120265064D01*
X110142759Y-120300494D01*
X110071846Y-120297037D01*
X110014060Y-120255791D01*
X109995207Y-120222243D01*
X109953767Y-120111703D01*
X109950615Y-120103295D01*
X109863261Y-119986739D01*
X109746705Y-119899385D01*
X109610316Y-119848255D01*
X109548134Y-119841500D01*
X107751866Y-119841500D01*
X107689684Y-119848255D01*
X107553295Y-119899385D01*
X107436739Y-119986739D01*
X107349385Y-120103295D01*
X107346233Y-120111703D01*
X107304919Y-120221907D01*
X107262277Y-120278671D01*
X107195716Y-120303371D01*
X107126367Y-120288163D01*
X107093743Y-120262476D01*
X107043151Y-120206875D01*
X107043142Y-120206866D01*
X107039670Y-120203051D01*
X107035619Y-120199852D01*
X107035615Y-120199848D01*
X106868414Y-120067800D01*
X106868410Y-120067798D01*
X106864359Y-120064598D01*
X106668789Y-119956638D01*
X106663920Y-119954914D01*
X106663916Y-119954912D01*
X106463087Y-119883795D01*
X106463083Y-119883794D01*
X106458212Y-119882069D01*
X106453119Y-119881162D01*
X106453116Y-119881161D01*
X106243373Y-119843800D01*
X106243367Y-119843799D01*
X106238284Y-119842894D01*
X106164452Y-119841992D01*
X106020081Y-119840228D01*
X106020079Y-119840228D01*
X106014911Y-119840165D01*
X105794091Y-119873955D01*
X105581756Y-119943357D01*
X105383607Y-120046507D01*
X105379474Y-120049610D01*
X105379471Y-120049612D01*
X105209100Y-120177530D01*
X105204965Y-120180635D01*
X105111280Y-120278671D01*
X105108083Y-120282016D01*
X105046558Y-120317446D01*
X104975646Y-120313989D01*
X104917860Y-120272743D01*
X104897039Y-120229574D01*
X104896745Y-120229684D01*
X104895532Y-120226449D01*
X104845615Y-120093295D01*
X104758261Y-119976739D01*
X104641705Y-119889385D01*
X104505316Y-119838255D01*
X104443134Y-119831500D01*
X102646866Y-119831500D01*
X102584684Y-119838255D01*
X102448295Y-119889385D01*
X102331739Y-119976739D01*
X102244385Y-120093295D01*
X102193255Y-120229684D01*
X102186500Y-120291866D01*
X102186500Y-122088134D01*
X102193255Y-122150316D01*
X102244385Y-122286705D01*
X102331739Y-122403261D01*
X102448295Y-122490615D01*
X102456704Y-122493767D01*
X102456705Y-122493768D01*
X102565451Y-122534535D01*
X102622216Y-122577176D01*
X102646916Y-122643738D01*
X102631709Y-122713087D01*
X102612316Y-122739568D01*
X102485629Y-122872138D01*
X102482720Y-122876403D01*
X102482714Y-122876411D01*
X102464838Y-122902617D01*
X102359743Y-123056680D01*
X102345429Y-123087518D01*
X102273218Y-123243084D01*
X102265688Y-123259305D01*
X102205989Y-123474570D01*
X102182251Y-123696695D01*
X102182548Y-123701848D01*
X102182548Y-123701851D01*
X102188011Y-123796590D01*
X102195110Y-123919715D01*
X102196247Y-123924761D01*
X102196248Y-123924767D01*
X102216119Y-124012939D01*
X102244222Y-124137639D01*
X102284346Y-124236453D01*
X102325428Y-124337626D01*
X102328266Y-124344616D01*
X102355976Y-124389834D01*
X102400608Y-124462667D01*
X102444987Y-124535088D01*
X102591250Y-124703938D01*
X102763126Y-124846632D01*
X102833595Y-124887811D01*
X102836445Y-124889476D01*
X102885169Y-124941114D01*
X102898240Y-125010897D01*
X102871509Y-125076669D01*
X102831055Y-125110027D01*
X102818607Y-125116507D01*
X102814474Y-125119610D01*
X102814471Y-125119612D01*
X102644100Y-125247530D01*
X102639965Y-125250635D01*
X102485629Y-125412138D01*
X102482720Y-125416403D01*
X102482714Y-125416411D01*
X102458016Y-125452617D01*
X102359743Y-125596680D01*
X102341566Y-125635840D01*
X102269355Y-125791406D01*
X102265688Y-125799305D01*
X102205989Y-126014570D01*
X102182251Y-126236695D01*
X102182548Y-126241848D01*
X102182548Y-126241851D01*
X102188011Y-126336590D01*
X102195110Y-126459715D01*
X102196247Y-126464761D01*
X102196248Y-126464767D01*
X102216119Y-126552939D01*
X102244222Y-126677639D01*
X102328266Y-126884616D01*
X102379019Y-126967438D01*
X102442291Y-127070688D01*
X102444987Y-127075088D01*
X102591250Y-127243938D01*
X102763126Y-127386632D01*
X102780239Y-127396632D01*
X102836445Y-127429476D01*
X102885169Y-127481114D01*
X102898240Y-127550897D01*
X102871509Y-127616669D01*
X102831055Y-127650027D01*
X102818607Y-127656507D01*
X102814474Y-127659610D01*
X102814471Y-127659612D01*
X102644100Y-127787530D01*
X102639965Y-127790635D01*
X102485629Y-127952138D01*
X102482720Y-127956403D01*
X102482714Y-127956411D01*
X102458016Y-127992617D01*
X102359743Y-128136680D01*
X102341566Y-128175840D01*
X102269355Y-128331406D01*
X102265688Y-128339305D01*
X102205989Y-128554570D01*
X102182251Y-128776695D01*
X102182548Y-128781848D01*
X102182548Y-128781851D01*
X102188011Y-128876590D01*
X102195110Y-128999715D01*
X102196247Y-129004761D01*
X102196248Y-129004767D01*
X102216119Y-129092939D01*
X102244222Y-129217639D01*
X102328266Y-129424616D01*
X102379019Y-129507438D01*
X102442291Y-129610688D01*
X102444987Y-129615088D01*
X102591250Y-129783938D01*
X102763126Y-129926632D01*
X102780239Y-129936632D01*
X102836445Y-129969476D01*
X102885169Y-130021114D01*
X102898240Y-130090897D01*
X102871509Y-130156669D01*
X102831055Y-130190027D01*
X102818607Y-130196507D01*
X102814474Y-130199610D01*
X102814471Y-130199612D01*
X102650348Y-130322839D01*
X102639965Y-130330635D01*
X102485629Y-130492138D01*
X102359743Y-130676680D01*
X102344003Y-130710590D01*
X102281485Y-130845274D01*
X102265688Y-130879305D01*
X102205989Y-131094570D01*
X102182251Y-131316695D01*
X102182548Y-131321848D01*
X102182548Y-131321851D01*
X102188011Y-131416590D01*
X102195110Y-131539715D01*
X102196247Y-131544761D01*
X102196248Y-131544767D01*
X102216119Y-131632939D01*
X102244222Y-131757639D01*
X102282461Y-131851811D01*
X102314448Y-131930585D01*
X102328266Y-131964616D01*
X102379019Y-132047438D01*
X102421437Y-132116657D01*
X102444987Y-132155088D01*
X102591250Y-132323938D01*
X102763126Y-132466632D01*
X102797751Y-132486865D01*
X102836445Y-132509476D01*
X102885169Y-132561114D01*
X102898240Y-132630897D01*
X102871509Y-132696669D01*
X102831055Y-132730027D01*
X102818607Y-132736507D01*
X102814474Y-132739610D01*
X102814471Y-132739612D01*
X102644100Y-132867530D01*
X102639965Y-132870635D01*
X102485629Y-133032138D01*
X102359743Y-133216680D01*
X102344003Y-133250590D01*
X102277622Y-133393596D01*
X102265688Y-133419305D01*
X102205989Y-133634570D01*
X102182251Y-133856695D01*
X102182548Y-133861848D01*
X102182548Y-133861851D01*
X102188011Y-133956590D01*
X102195110Y-134079715D01*
X102196247Y-134084761D01*
X102196248Y-134084767D01*
X102216119Y-134172939D01*
X102244222Y-134297639D01*
X102328266Y-134504616D01*
X102346685Y-134534673D01*
X102431624Y-134673281D01*
X102444987Y-134695088D01*
X102591250Y-134863938D01*
X102763126Y-135006632D01*
X102811992Y-135035187D01*
X102836445Y-135049476D01*
X102885169Y-135101114D01*
X102898240Y-135170897D01*
X102871509Y-135236669D01*
X102831055Y-135270027D01*
X102818607Y-135276507D01*
X102814474Y-135279610D01*
X102814471Y-135279612D01*
X102644100Y-135407530D01*
X102639965Y-135410635D01*
X102485629Y-135572138D01*
X102482720Y-135576403D01*
X102482714Y-135576411D01*
X102458016Y-135612617D01*
X102359743Y-135756680D01*
X102341566Y-135795840D01*
X102269355Y-135951406D01*
X102265688Y-135959305D01*
X102205989Y-136174570D01*
X102182251Y-136396695D01*
X102182548Y-136401848D01*
X102182548Y-136401851D01*
X102188011Y-136496590D01*
X102195110Y-136619715D01*
X102196247Y-136624761D01*
X102196248Y-136624767D01*
X102216119Y-136712939D01*
X102244222Y-136837639D01*
X102328266Y-137044616D01*
X102379019Y-137127438D01*
X102442291Y-137230688D01*
X102444987Y-137235088D01*
X102591250Y-137403938D01*
X102763126Y-137546632D01*
X102780239Y-137556632D01*
X102836445Y-137589476D01*
X102885169Y-137641114D01*
X102898240Y-137710897D01*
X102871509Y-137776669D01*
X102831055Y-137810027D01*
X102818607Y-137816507D01*
X102814474Y-137819610D01*
X102814471Y-137819612D01*
X102644100Y-137947530D01*
X102639965Y-137950635D01*
X102485629Y-138112138D01*
X102482720Y-138116403D01*
X102482714Y-138116411D01*
X102458016Y-138152617D01*
X102359743Y-138296680D01*
X102341566Y-138335840D01*
X102269355Y-138491406D01*
X102265688Y-138499305D01*
X102205989Y-138714570D01*
X102182251Y-138936695D01*
X102182548Y-138941848D01*
X102182548Y-138941851D01*
X102188011Y-139036590D01*
X102195110Y-139159715D01*
X102196247Y-139164761D01*
X102196248Y-139164767D01*
X102216119Y-139252939D01*
X102244222Y-139377639D01*
X102328266Y-139584616D01*
X102379019Y-139667438D01*
X102442291Y-139770688D01*
X102444987Y-139775088D01*
X102591250Y-139943938D01*
X102763126Y-140086632D01*
X102780239Y-140096632D01*
X102836445Y-140129476D01*
X102885169Y-140181114D01*
X102898240Y-140250897D01*
X102871509Y-140316669D01*
X102831055Y-140350027D01*
X102818607Y-140356507D01*
X102814474Y-140359610D01*
X102814471Y-140359612D01*
X102644100Y-140487530D01*
X102639965Y-140490635D01*
X102485629Y-140652138D01*
X102482720Y-140656403D01*
X102482714Y-140656411D01*
X102458016Y-140692617D01*
X102359743Y-140836680D01*
X102335161Y-140889638D01*
X102269355Y-141031406D01*
X102265688Y-141039305D01*
X102205989Y-141254570D01*
X102182251Y-141476695D01*
X102182548Y-141481853D01*
X102182422Y-141487024D01*
X102180914Y-141486987D01*
X102166411Y-141549482D01*
X102115520Y-141598986D01*
X102045944Y-141613117D01*
X101979773Y-141587389D01*
X101967574Y-141576669D01*
X101954405Y-141563500D01*
X101920379Y-141501188D01*
X101917500Y-141474405D01*
X101917500Y-105004594D01*
X101937502Y-104936473D01*
X101954405Y-104915499D01*
X103399020Y-103470885D01*
X103461332Y-103436859D01*
X103488115Y-103433980D01*
X110774398Y-103433980D01*
X110842519Y-103453982D01*
X110889012Y-103507638D01*
X110898062Y-103584129D01*
X110891772Y-103616337D01*
X110891500Y-103621899D01*
X110891500Y-104327846D01*
X110906548Y-104485566D01*
X110966092Y-104688534D01*
X110968836Y-104693861D01*
X110968836Y-104693862D01*
X111016440Y-104786290D01*
X111062942Y-104876580D01*
X111193604Y-105042920D01*
X111323082Y-105155275D01*
X111361421Y-105215027D01*
X111366500Y-105250439D01*
X111366500Y-109231233D01*
X111365973Y-109242416D01*
X111364298Y-109249909D01*
X111364547Y-109257835D01*
X111364547Y-109257836D01*
X111366438Y-109317986D01*
X111366500Y-109321945D01*
X111366500Y-109349856D01*
X111366997Y-109353790D01*
X111366997Y-109353791D01*
X111367005Y-109353856D01*
X111367938Y-109365693D01*
X111369327Y-109409889D01*
X111374978Y-109429339D01*
X111378987Y-109448700D01*
X111381526Y-109468797D01*
X111384445Y-109476168D01*
X111384445Y-109476170D01*
X111397804Y-109509912D01*
X111401591Y-109520944D01*
X111401629Y-109521074D01*
X111401543Y-109592070D01*
X111363087Y-109651750D01*
X111298470Y-109681164D01*
X111279152Y-109682416D01*
X111204183Y-109681500D01*
X111100080Y-109680228D01*
X111100078Y-109680228D01*
X111094911Y-109680165D01*
X110874091Y-109713955D01*
X110661756Y-109783357D01*
X110463607Y-109886507D01*
X110459474Y-109889610D01*
X110459471Y-109889612D01*
X110289100Y-110017530D01*
X110284965Y-110020635D01*
X110228537Y-110079684D01*
X110204283Y-110105064D01*
X110142759Y-110140494D01*
X110071846Y-110137037D01*
X110014060Y-110095791D01*
X109995207Y-110062243D01*
X109953767Y-109951703D01*
X109950615Y-109943295D01*
X109863261Y-109826739D01*
X109746705Y-109739385D01*
X109610316Y-109688255D01*
X109548134Y-109681500D01*
X107751866Y-109681500D01*
X107689684Y-109688255D01*
X107553295Y-109739385D01*
X107436739Y-109826739D01*
X107349385Y-109943295D01*
X107298255Y-110079684D01*
X107291500Y-110141866D01*
X107291500Y-111938134D01*
X107298255Y-112000316D01*
X107349385Y-112136705D01*
X107436739Y-112253261D01*
X107553295Y-112340615D01*
X107689684Y-112391745D01*
X107751866Y-112398500D01*
X109548134Y-112398500D01*
X109610316Y-112391745D01*
X109746705Y-112340615D01*
X109863261Y-112253261D01*
X109950615Y-112136705D01*
X109972799Y-112077529D01*
X109994598Y-112019382D01*
X110037240Y-111962618D01*
X110103802Y-111937918D01*
X110173150Y-111953126D01*
X110207817Y-111981114D01*
X110236250Y-112013938D01*
X110408126Y-112156632D01*
X110601000Y-112269338D01*
X110809692Y-112349030D01*
X110814760Y-112350061D01*
X110814763Y-112350062D01*
X110909862Y-112369410D01*
X111028597Y-112393567D01*
X111033772Y-112393757D01*
X111033774Y-112393757D01*
X111246673Y-112401564D01*
X111246677Y-112401564D01*
X111251837Y-112401753D01*
X111256957Y-112401097D01*
X111256959Y-112401097D01*
X111468288Y-112374025D01*
X111468289Y-112374025D01*
X111473416Y-112373368D01*
X111478366Y-112371883D01*
X111682429Y-112310661D01*
X111682434Y-112310659D01*
X111687384Y-112309174D01*
X111887994Y-112210896D01*
X112069860Y-112081173D01*
X112228096Y-111923489D01*
X112358453Y-111742077D01*
X112359776Y-111743028D01*
X112406645Y-111699857D01*
X112476580Y-111687625D01*
X112542026Y-111715144D01*
X112569875Y-111746994D01*
X112629987Y-111845088D01*
X112776250Y-112013938D01*
X112948126Y-112156632D01*
X113141000Y-112269338D01*
X113349692Y-112349030D01*
X113354760Y-112350061D01*
X113354763Y-112350062D01*
X113449862Y-112369410D01*
X113568597Y-112393567D01*
X113573772Y-112393757D01*
X113573774Y-112393757D01*
X113786673Y-112401564D01*
X113786677Y-112401564D01*
X113791837Y-112401753D01*
X113796957Y-112401097D01*
X113796959Y-112401097D01*
X114008288Y-112374025D01*
X114008289Y-112374025D01*
X114013416Y-112373368D01*
X114018366Y-112371883D01*
X114222429Y-112310661D01*
X114222434Y-112310659D01*
X114227384Y-112309174D01*
X114427994Y-112210896D01*
X114609860Y-112081173D01*
X114768096Y-111923489D01*
X114898453Y-111742077D01*
X114899776Y-111743028D01*
X114946645Y-111699857D01*
X115016580Y-111687625D01*
X115082026Y-111715144D01*
X115109875Y-111746994D01*
X115169987Y-111845088D01*
X115316250Y-112013938D01*
X115488126Y-112156632D01*
X115681000Y-112269338D01*
X115889692Y-112349030D01*
X115894760Y-112350061D01*
X115894763Y-112350062D01*
X115989862Y-112369410D01*
X116108597Y-112393567D01*
X116113772Y-112393757D01*
X116113774Y-112393757D01*
X116326673Y-112401564D01*
X116326677Y-112401564D01*
X116331837Y-112401753D01*
X116336957Y-112401097D01*
X116336959Y-112401097D01*
X116548288Y-112374025D01*
X116548289Y-112374025D01*
X116553416Y-112373368D01*
X116558366Y-112371883D01*
X116762429Y-112310661D01*
X116762434Y-112310659D01*
X116767384Y-112309174D01*
X116967994Y-112210896D01*
X117149860Y-112081173D01*
X117308096Y-111923489D01*
X117438453Y-111742077D01*
X117439776Y-111743028D01*
X117486645Y-111699857D01*
X117556580Y-111687625D01*
X117622026Y-111715144D01*
X117649875Y-111746994D01*
X117709987Y-111845088D01*
X117856250Y-112013938D01*
X118028126Y-112156632D01*
X118221000Y-112269338D01*
X118429692Y-112349030D01*
X118434760Y-112350061D01*
X118434763Y-112350062D01*
X118529862Y-112369410D01*
X118648597Y-112393567D01*
X118653772Y-112393757D01*
X118653774Y-112393757D01*
X118866673Y-112401564D01*
X118866677Y-112401564D01*
X118871837Y-112401753D01*
X118876957Y-112401097D01*
X118876959Y-112401097D01*
X119088288Y-112374025D01*
X119088289Y-112374025D01*
X119093416Y-112373368D01*
X119098366Y-112371883D01*
X119302429Y-112310661D01*
X119302434Y-112310659D01*
X119307384Y-112309174D01*
X119507994Y-112210896D01*
X119689860Y-112081173D01*
X119848096Y-111923489D01*
X119978453Y-111742077D01*
X119979640Y-111742930D01*
X120026960Y-111699362D01*
X120096897Y-111687145D01*
X120162338Y-111714678D01*
X120190166Y-111746511D01*
X120247694Y-111840388D01*
X120253777Y-111848699D01*
X120393213Y-112009667D01*
X120400580Y-112016883D01*
X120564434Y-112152916D01*
X120572881Y-112158831D01*
X120756756Y-112266279D01*
X120766042Y-112270729D01*
X120965001Y-112346703D01*
X120974899Y-112349579D01*
X121078250Y-112370606D01*
X121092299Y-112369410D01*
X121096000Y-112359065D01*
X121096000Y-112358517D01*
X121604000Y-112358517D01*
X121608064Y-112372359D01*
X121621478Y-112374393D01*
X121628184Y-112373534D01*
X121638262Y-112371392D01*
X121842255Y-112310191D01*
X121851842Y-112306433D01*
X122043095Y-112212739D01*
X122051945Y-112207464D01*
X122225328Y-112083792D01*
X122233200Y-112077139D01*
X122384052Y-111926812D01*
X122390730Y-111918965D01*
X122515003Y-111746020D01*
X122520313Y-111737183D01*
X122614670Y-111546267D01*
X122618469Y-111536672D01*
X122680377Y-111332910D01*
X122682555Y-111322837D01*
X122683986Y-111311962D01*
X122681775Y-111297778D01*
X122668617Y-111294000D01*
X121622115Y-111294000D01*
X121606876Y-111298475D01*
X121605671Y-111299865D01*
X121604000Y-111307548D01*
X121604000Y-112358517D01*
X121096000Y-112358517D01*
X121096000Y-110767885D01*
X121604000Y-110767885D01*
X121608475Y-110783124D01*
X121609865Y-110784329D01*
X121617548Y-110786000D01*
X122668344Y-110786000D01*
X122681875Y-110782027D01*
X122683180Y-110772947D01*
X122641214Y-110605875D01*
X122637894Y-110596124D01*
X122552972Y-110400814D01*
X122548105Y-110391739D01*
X122432426Y-110212926D01*
X122426136Y-110204757D01*
X122282806Y-110047240D01*
X122275273Y-110040215D01*
X122108139Y-109908222D01*
X122099552Y-109902517D01*
X121913117Y-109799599D01*
X121903705Y-109795369D01*
X121702959Y-109724280D01*
X121692988Y-109721646D01*
X121621837Y-109708972D01*
X121608540Y-109710432D01*
X121604000Y-109724989D01*
X121604000Y-110767885D01*
X121096000Y-110767885D01*
X121096000Y-109723102D01*
X121092082Y-109709758D01*
X121077806Y-109707771D01*
X121039324Y-109713660D01*
X121029288Y-109716051D01*
X120826868Y-109782212D01*
X120817359Y-109786209D01*
X120628463Y-109884542D01*
X120619738Y-109890036D01*
X120449433Y-110017905D01*
X120441726Y-110024748D01*
X120294590Y-110178717D01*
X120288109Y-110186722D01*
X120183498Y-110340074D01*
X120128587Y-110385076D01*
X120058062Y-110393247D01*
X119994315Y-110361993D01*
X119973618Y-110337509D01*
X119892822Y-110212617D01*
X119892820Y-110212614D01*
X119890014Y-110208277D01*
X119739670Y-110043051D01*
X119735619Y-110039852D01*
X119735615Y-110039848D01*
X119568414Y-109907800D01*
X119568410Y-109907798D01*
X119564359Y-109904598D01*
X119528028Y-109884542D01*
X119512136Y-109875769D01*
X119368789Y-109796638D01*
X119363920Y-109794914D01*
X119363916Y-109794912D01*
X119163087Y-109723795D01*
X119163083Y-109723794D01*
X119158212Y-109722069D01*
X119153119Y-109721162D01*
X119153116Y-109721161D01*
X118943373Y-109683800D01*
X118943367Y-109683799D01*
X118938284Y-109682894D01*
X118864452Y-109681992D01*
X118720081Y-109680228D01*
X118720079Y-109680228D01*
X118714911Y-109680165D01*
X118494091Y-109713955D01*
X118281756Y-109783357D01*
X118083607Y-109886507D01*
X118079474Y-109889610D01*
X118079471Y-109889612D01*
X117909100Y-110017530D01*
X117904965Y-110020635D01*
X117901393Y-110024373D01*
X117793729Y-110137037D01*
X117750629Y-110182138D01*
X117643201Y-110339621D01*
X117588293Y-110384621D01*
X117517768Y-110392792D01*
X117454021Y-110361538D01*
X117433324Y-110337054D01*
X117352822Y-110212617D01*
X117352820Y-110212614D01*
X117350014Y-110208277D01*
X117199670Y-110043051D01*
X117195619Y-110039852D01*
X117195615Y-110039848D01*
X117028414Y-109907800D01*
X117028410Y-109907798D01*
X117024359Y-109904598D01*
X116988028Y-109884542D01*
X116972136Y-109875769D01*
X116828789Y-109796638D01*
X116823920Y-109794914D01*
X116823916Y-109794912D01*
X116623087Y-109723795D01*
X116623083Y-109723794D01*
X116618212Y-109722069D01*
X116613119Y-109721162D01*
X116613116Y-109721161D01*
X116403373Y-109683800D01*
X116403367Y-109683799D01*
X116398284Y-109682894D01*
X116324452Y-109681992D01*
X116180081Y-109680228D01*
X116180079Y-109680228D01*
X116174911Y-109680165D01*
X115954091Y-109713955D01*
X115941532Y-109718060D01*
X115870568Y-109720210D01*
X115813294Y-109687389D01*
X114670405Y-108544500D01*
X114636379Y-108482188D01*
X114633500Y-108455405D01*
X114633500Y-105249807D01*
X114653502Y-105181686D01*
X114686601Y-105147037D01*
X114722720Y-105121416D01*
X114722725Y-105121412D01*
X114727611Y-105117946D01*
X114873881Y-104965150D01*
X114877688Y-104959255D01*
X114894746Y-104932837D01*
X114948501Y-104886460D01*
X115018797Y-104876507D01*
X115083314Y-104906139D01*
X115099681Y-104923351D01*
X115193604Y-105042920D01*
X115198133Y-105046850D01*
X115198138Y-105046855D01*
X115284058Y-105121412D01*
X115353363Y-105181552D01*
X115358549Y-105184552D01*
X115358553Y-105184555D01*
X115454957Y-105240326D01*
X115536454Y-105287473D01*
X115736271Y-105356861D01*
X115742206Y-105357722D01*
X115742208Y-105357722D01*
X115939664Y-105386352D01*
X115939667Y-105386352D01*
X115945604Y-105387213D01*
X116156899Y-105377433D01*
X116288077Y-105345819D01*
X116356701Y-105329281D01*
X116356703Y-105329280D01*
X116362534Y-105327875D01*
X116367992Y-105325393D01*
X116367996Y-105325392D01*
X116483041Y-105273084D01*
X116555087Y-105240326D01*
X116727611Y-105117946D01*
X116731749Y-105113623D01*
X116731754Y-105113619D01*
X116819164Y-105022309D01*
X116880720Y-104986933D01*
X116951629Y-104990452D01*
X117009379Y-105031749D01*
X117017326Y-105043137D01*
X117048063Y-105092807D01*
X117057099Y-105104208D01*
X117171829Y-105218739D01*
X117183240Y-105227751D01*
X117321243Y-105312816D01*
X117334424Y-105318963D01*
X117488710Y-105370138D01*
X117502086Y-105373005D01*
X117596438Y-105382672D01*
X117602854Y-105383000D01*
X117727885Y-105383000D01*
X117743124Y-105378525D01*
X117744329Y-105377135D01*
X117746000Y-105369452D01*
X117746000Y-105364884D01*
X118254000Y-105364884D01*
X118258475Y-105380123D01*
X118259865Y-105381328D01*
X118267548Y-105382999D01*
X118397095Y-105382999D01*
X118403614Y-105382662D01*
X118499206Y-105372743D01*
X118512600Y-105369851D01*
X118666784Y-105318412D01*
X118679962Y-105312239D01*
X118817807Y-105226937D01*
X118829208Y-105217901D01*
X118943739Y-105103171D01*
X118952751Y-105091760D01*
X119037816Y-104953757D01*
X119043963Y-104940576D01*
X119095138Y-104786290D01*
X119098005Y-104772914D01*
X119107672Y-104678562D01*
X119108000Y-104672146D01*
X119108000Y-104272115D01*
X119103525Y-104256876D01*
X119102135Y-104255671D01*
X119094452Y-104254000D01*
X118272115Y-104254000D01*
X118256876Y-104258475D01*
X118255671Y-104259865D01*
X118254000Y-104267548D01*
X118254000Y-105364884D01*
X117746000Y-105364884D01*
X117746000Y-103727885D01*
X118254000Y-103727885D01*
X118258475Y-103743124D01*
X118259865Y-103744329D01*
X118267548Y-103746000D01*
X119089884Y-103746000D01*
X119105123Y-103741525D01*
X119106328Y-103740135D01*
X119107999Y-103732452D01*
X119107999Y-103327905D01*
X119107662Y-103321386D01*
X119097743Y-103225794D01*
X119094851Y-103212400D01*
X119043412Y-103058216D01*
X119037239Y-103045038D01*
X118951937Y-102907193D01*
X118942901Y-102895792D01*
X118828171Y-102781261D01*
X118816760Y-102772249D01*
X118678757Y-102687184D01*
X118665576Y-102681037D01*
X118511290Y-102629862D01*
X118497914Y-102626995D01*
X118403562Y-102617328D01*
X118397145Y-102617000D01*
X118272115Y-102617000D01*
X118256876Y-102621475D01*
X118255671Y-102622865D01*
X118254000Y-102630548D01*
X118254000Y-103727885D01*
X117746000Y-103727885D01*
X117746000Y-102635116D01*
X117741525Y-102619877D01*
X117740135Y-102618672D01*
X117732452Y-102617001D01*
X117602905Y-102617001D01*
X117596386Y-102617338D01*
X117500794Y-102627257D01*
X117487400Y-102630149D01*
X117333216Y-102681588D01*
X117320038Y-102687761D01*
X117182193Y-102773063D01*
X117170792Y-102782099D01*
X117056261Y-102896829D01*
X117047249Y-102908240D01*
X117019255Y-102953655D01*
X116966483Y-103001148D01*
X116896411Y-103012572D01*
X116831287Y-102984298D01*
X116812912Y-102965375D01*
X116806396Y-102957080D01*
X116801865Y-102953148D01*
X116801862Y-102953145D01*
X116651167Y-102822379D01*
X116646637Y-102818448D01*
X116641451Y-102815448D01*
X116641447Y-102815445D01*
X116468742Y-102715533D01*
X116463546Y-102712527D01*
X116263729Y-102643139D01*
X116257796Y-102642279D01*
X116257793Y-102642278D01*
X116207014Y-102634916D01*
X116154639Y-102627322D01*
X116090094Y-102597752D01*
X116083625Y-102591721D01*
X114487652Y-100995747D01*
X114480112Y-100987461D01*
X114476000Y-100980982D01*
X114426348Y-100934356D01*
X114423507Y-100931602D01*
X114403770Y-100911865D01*
X114400573Y-100909385D01*
X114391551Y-100901680D01*
X114378116Y-100889064D01*
X114359321Y-100871414D01*
X114352375Y-100867595D01*
X114352372Y-100867593D01*
X114341566Y-100861652D01*
X114325047Y-100850801D01*
X114324583Y-100850441D01*
X114309041Y-100838386D01*
X114301772Y-100835241D01*
X114301768Y-100835238D01*
X114268463Y-100820826D01*
X114257813Y-100815609D01*
X114219060Y-100794305D01*
X114199437Y-100789267D01*
X114180734Y-100782863D01*
X114169420Y-100777967D01*
X114169419Y-100777967D01*
X114162145Y-100774819D01*
X114154322Y-100773580D01*
X114154312Y-100773577D01*
X114118476Y-100767901D01*
X114106856Y-100765495D01*
X114071984Y-100756542D01*
X114010977Y-100720228D01*
X113979288Y-100656697D01*
X113986976Y-100586118D01*
X114031603Y-100530900D01*
X114103317Y-100508500D01*
X128950633Y-100508500D01*
X128970018Y-100510000D01*
X128984851Y-100512310D01*
X128984855Y-100512310D01*
X128993724Y-100513691D01*
X129010923Y-100511442D01*
X129034863Y-100510609D01*
X129292710Y-100526206D01*
X129307814Y-100528040D01*
X129323421Y-100530900D01*
X129588760Y-100579525D01*
X129603526Y-100583164D01*
X129876231Y-100668142D01*
X129890445Y-100673534D01*
X130147595Y-100789267D01*
X130150906Y-100790757D01*
X130164379Y-100797828D01*
X130408813Y-100945595D01*
X130421334Y-100954238D01*
X130646171Y-101130385D01*
X130657560Y-101140475D01*
X130859525Y-101342440D01*
X130869615Y-101353829D01*
X131045762Y-101578666D01*
X131054405Y-101591187D01*
X131202172Y-101835621D01*
X131209242Y-101849092D01*
X131326466Y-102109555D01*
X131331858Y-102123769D01*
X131394360Y-102324345D01*
X131416836Y-102396473D01*
X131420475Y-102411240D01*
X131454655Y-102597752D01*
X131471960Y-102692186D01*
X131473794Y-102707290D01*
X131488953Y-102957904D01*
X131487692Y-102984716D01*
X131487690Y-102984852D01*
X131486309Y-102993724D01*
X131487473Y-103002626D01*
X131487473Y-103002628D01*
X131490436Y-103025283D01*
X131491500Y-103041621D01*
X131491500Y-168950633D01*
X131490000Y-168970018D01*
X131487690Y-168984851D01*
X131487690Y-168984855D01*
X131486309Y-168993724D01*
X131488558Y-169010919D01*
X131489391Y-169034863D01*
X131473794Y-169292710D01*
X131471960Y-169307814D01*
X131420477Y-169588754D01*
X131416836Y-169603527D01*
X131331859Y-169876227D01*
X131326466Y-169890445D01*
X131209243Y-170150906D01*
X131202172Y-170164379D01*
X131054405Y-170408813D01*
X131045762Y-170421334D01*
X130869615Y-170646171D01*
X130859525Y-170657560D01*
X130657560Y-170859525D01*
X130646171Y-170869615D01*
X130421334Y-171045762D01*
X130408813Y-171054405D01*
X130164379Y-171202172D01*
X130150908Y-171209242D01*
X129890445Y-171326466D01*
X129876231Y-171331858D01*
X129603527Y-171416836D01*
X129588760Y-171420475D01*
X129379786Y-171458771D01*
X129307814Y-171471960D01*
X129292710Y-171473794D01*
X129042096Y-171488953D01*
X129015284Y-171487692D01*
X129015148Y-171487690D01*
X129006276Y-171486309D01*
X128997374Y-171487473D01*
X128997372Y-171487473D01*
X128982707Y-171489391D01*
X128974714Y-171490436D01*
X128958379Y-171491500D01*
X101049367Y-171491500D01*
X101029982Y-171490000D01*
X101015149Y-171487690D01*
X101015145Y-171487690D01*
X101006276Y-171486309D01*
X100989077Y-171488558D01*
X100965137Y-171489391D01*
X100707290Y-171473794D01*
X100692186Y-171471960D01*
X100620214Y-171458771D01*
X100411240Y-171420475D01*
X100396473Y-171416836D01*
X100123769Y-171331858D01*
X100109555Y-171326466D01*
X99849092Y-171209242D01*
X99835621Y-171202172D01*
X99591187Y-171054405D01*
X99578666Y-171045762D01*
X99353829Y-170869615D01*
X99342440Y-170859525D01*
X99140475Y-170657560D01*
X99130385Y-170646171D01*
X98954238Y-170421334D01*
X98945595Y-170408813D01*
X98797828Y-170164379D01*
X98790757Y-170150906D01*
X98673534Y-169890445D01*
X98668141Y-169876227D01*
X98583164Y-169603527D01*
X98579523Y-169588754D01*
X98528040Y-169307814D01*
X98526206Y-169292710D01*
X98511269Y-169045768D01*
X98512520Y-169022216D01*
X98512334Y-169022199D01*
X98512769Y-169017350D01*
X98513576Y-169012552D01*
X98513729Y-169000000D01*
X98509773Y-168972376D01*
X98508500Y-168954514D01*
X98508500Y-103053250D01*
X98510246Y-103032345D01*
X98512770Y-103017344D01*
X98512770Y-103017341D01*
X98513576Y-103012552D01*
X98513729Y-103000000D01*
X98513040Y-102995186D01*
X98513039Y-102995177D01*
X98511869Y-102987006D01*
X98510827Y-102961540D01*
X98526206Y-102707290D01*
X98528040Y-102692186D01*
X98545345Y-102597752D01*
X98579525Y-102411240D01*
X98583164Y-102396473D01*
X98605640Y-102324345D01*
X98668142Y-102123769D01*
X98673534Y-102109555D01*
X98790758Y-101849092D01*
X98797828Y-101835621D01*
X98945595Y-101591187D01*
X98954238Y-101578666D01*
X99130385Y-101353829D01*
X99140475Y-101342440D01*
X99342440Y-101140475D01*
X99353829Y-101130385D01*
X99578666Y-100954238D01*
X99591187Y-100945595D01*
X99835621Y-100797828D01*
X99849094Y-100790757D01*
X99852405Y-100789267D01*
X100109555Y-100673534D01*
X100123769Y-100668142D01*
X100396474Y-100583164D01*
X100411240Y-100579525D01*
X100676579Y-100530900D01*
X100692186Y-100528040D01*
X100707290Y-100526206D01*
X100957904Y-100511047D01*
X100984716Y-100512308D01*
X100984852Y-100512310D01*
X100993724Y-100513691D01*
X101002626Y-100512527D01*
X101002628Y-100512527D01*
X101017677Y-100510559D01*
X101025286Y-100509564D01*
X101041621Y-100508500D01*
X102938512Y-100508500D01*
X103006633Y-100528502D01*
G37*
%TD.AperFunction*%
%TA.AperFunction,Conductor*%
G36*
X102103146Y-154111924D02*
G01*
X102159982Y-154154471D01*
X102184905Y-154222727D01*
X102186679Y-154253493D01*
X102195110Y-154399715D01*
X102196247Y-154404761D01*
X102196248Y-154404767D01*
X102212654Y-154477562D01*
X102244222Y-154617639D01*
X102328266Y-154824616D01*
X102375309Y-154901384D01*
X102442291Y-155010688D01*
X102444987Y-155015088D01*
X102591250Y-155183938D01*
X102763126Y-155326632D01*
X102956000Y-155439338D01*
X102960825Y-155441180D01*
X102960826Y-155441181D01*
X103033612Y-155468975D01*
X103164692Y-155519030D01*
X103169760Y-155520061D01*
X103169763Y-155520062D01*
X103277017Y-155541883D01*
X103383597Y-155563567D01*
X103388772Y-155563757D01*
X103388774Y-155563757D01*
X103601673Y-155571564D01*
X103601677Y-155571564D01*
X103606837Y-155571753D01*
X103611957Y-155571097D01*
X103611959Y-155571097D01*
X103823288Y-155544025D01*
X103823289Y-155544025D01*
X103828416Y-155543368D01*
X103876207Y-155529030D01*
X104037429Y-155480661D01*
X104037434Y-155480659D01*
X104042384Y-155479174D01*
X104242994Y-155380896D01*
X104424860Y-155251173D01*
X104583096Y-155093489D01*
X104642594Y-155010689D01*
X104710435Y-154916277D01*
X104713453Y-154912077D01*
X104715746Y-154907438D01*
X104718405Y-154903012D01*
X104720421Y-154904223D01*
X104761835Y-154859227D01*
X104830525Y-154841276D01*
X104898015Y-154863311D01*
X104934181Y-154901384D01*
X104943403Y-154916433D01*
X105009987Y-155025088D01*
X105156250Y-155193938D01*
X105328126Y-155336632D01*
X105521000Y-155449338D01*
X105729692Y-155529030D01*
X105734760Y-155530061D01*
X105734763Y-155530062D01*
X105800165Y-155543368D01*
X105948597Y-155573567D01*
X105953772Y-155573757D01*
X105953774Y-155573757D01*
X106166673Y-155581564D01*
X106166677Y-155581564D01*
X106171837Y-155581753D01*
X106176957Y-155581097D01*
X106176959Y-155581097D01*
X106388288Y-155554025D01*
X106388289Y-155554025D01*
X106393416Y-155553368D01*
X106424558Y-155544025D01*
X106602429Y-155490661D01*
X106602434Y-155490659D01*
X106607384Y-155489174D01*
X106807994Y-155390896D01*
X106989860Y-155261173D01*
X107148096Y-155103489D01*
X107152661Y-155097137D01*
X107278453Y-154922077D01*
X107279776Y-154923028D01*
X107326645Y-154879857D01*
X107396580Y-154867625D01*
X107462026Y-154895144D01*
X107489875Y-154926994D01*
X107549987Y-155025088D01*
X107696250Y-155193938D01*
X107868126Y-155336632D01*
X108061000Y-155449338D01*
X108269692Y-155529030D01*
X108274760Y-155530061D01*
X108274763Y-155530062D01*
X108340165Y-155543368D01*
X108488597Y-155573567D01*
X108493772Y-155573757D01*
X108493774Y-155573757D01*
X108706673Y-155581564D01*
X108706677Y-155581564D01*
X108711837Y-155581753D01*
X108716957Y-155581097D01*
X108716959Y-155581097D01*
X108928288Y-155554025D01*
X108928289Y-155554025D01*
X108933416Y-155553368D01*
X108964558Y-155544025D01*
X109142429Y-155490661D01*
X109142434Y-155490659D01*
X109147384Y-155489174D01*
X109347994Y-155390896D01*
X109529860Y-155261173D01*
X109688096Y-155103489D01*
X109692661Y-155097137D01*
X109818453Y-154922077D01*
X109819776Y-154923028D01*
X109866645Y-154879857D01*
X109936580Y-154867625D01*
X110002026Y-154895144D01*
X110029875Y-154926994D01*
X110089987Y-155025088D01*
X110236250Y-155193938D01*
X110408126Y-155336632D01*
X110601000Y-155449338D01*
X110809692Y-155529030D01*
X110814760Y-155530061D01*
X110814763Y-155530062D01*
X110880165Y-155543368D01*
X111028597Y-155573567D01*
X111033772Y-155573757D01*
X111033774Y-155573757D01*
X111246673Y-155581564D01*
X111246677Y-155581564D01*
X111251837Y-155581753D01*
X111256957Y-155581097D01*
X111256959Y-155581097D01*
X111468288Y-155554025D01*
X111468289Y-155554025D01*
X111473416Y-155553368D01*
X111504558Y-155544025D01*
X111682429Y-155490661D01*
X111682434Y-155490659D01*
X111687384Y-155489174D01*
X111887994Y-155390896D01*
X112069860Y-155261173D01*
X112228096Y-155103489D01*
X112232661Y-155097137D01*
X112358453Y-154922077D01*
X112359776Y-154923028D01*
X112406645Y-154879857D01*
X112476580Y-154867625D01*
X112542026Y-154895144D01*
X112569875Y-154926994D01*
X112629987Y-155025088D01*
X112776250Y-155193938D01*
X112948126Y-155336632D01*
X113141000Y-155449338D01*
X113349692Y-155529030D01*
X113354760Y-155530061D01*
X113354763Y-155530062D01*
X113420165Y-155543368D01*
X113568597Y-155573567D01*
X113573772Y-155573757D01*
X113573774Y-155573757D01*
X113786673Y-155581564D01*
X113786677Y-155581564D01*
X113791837Y-155581753D01*
X113796957Y-155581097D01*
X113796959Y-155581097D01*
X114008288Y-155554025D01*
X114008289Y-155554025D01*
X114013416Y-155553368D01*
X114044558Y-155544025D01*
X114222429Y-155490661D01*
X114222434Y-155490659D01*
X114227384Y-155489174D01*
X114427994Y-155390896D01*
X114609860Y-155261173D01*
X114768096Y-155103489D01*
X114772661Y-155097137D01*
X114898453Y-154922077D01*
X114899776Y-154923028D01*
X114946645Y-154879857D01*
X115016580Y-154867625D01*
X115082026Y-154895144D01*
X115109875Y-154926994D01*
X115169987Y-155025088D01*
X115316250Y-155193938D01*
X115488126Y-155336632D01*
X115681000Y-155449338D01*
X115889692Y-155529030D01*
X115894760Y-155530061D01*
X115894763Y-155530062D01*
X115960165Y-155543368D01*
X116108597Y-155573567D01*
X116113772Y-155573757D01*
X116113774Y-155573757D01*
X116326673Y-155581564D01*
X116326677Y-155581564D01*
X116331837Y-155581753D01*
X116336957Y-155581097D01*
X116336959Y-155581097D01*
X116548288Y-155554025D01*
X116548289Y-155554025D01*
X116553416Y-155553368D01*
X116584558Y-155544025D01*
X116762429Y-155490661D01*
X116762434Y-155490659D01*
X116767384Y-155489174D01*
X116967994Y-155390896D01*
X117149860Y-155261173D01*
X117308096Y-155103489D01*
X117312661Y-155097137D01*
X117438453Y-154922077D01*
X117439776Y-154923028D01*
X117486645Y-154879857D01*
X117556580Y-154867625D01*
X117622026Y-154895144D01*
X117649875Y-154926994D01*
X117709987Y-155025088D01*
X117856250Y-155193938D01*
X118028126Y-155336632D01*
X118221000Y-155449338D01*
X118429692Y-155529030D01*
X118434760Y-155530061D01*
X118434763Y-155530062D01*
X118500165Y-155543368D01*
X118648597Y-155573567D01*
X118653772Y-155573757D01*
X118653774Y-155573757D01*
X118866673Y-155581564D01*
X118866677Y-155581564D01*
X118871837Y-155581753D01*
X118876957Y-155581097D01*
X118876959Y-155581097D01*
X119088288Y-155554025D01*
X119088289Y-155554025D01*
X119093416Y-155553368D01*
X119124558Y-155544025D01*
X119302429Y-155490661D01*
X119302434Y-155490659D01*
X119307384Y-155489174D01*
X119507994Y-155390896D01*
X119689860Y-155261173D01*
X119848096Y-155103489D01*
X119852661Y-155097137D01*
X119978453Y-154922077D01*
X119979776Y-154923028D01*
X120026645Y-154879857D01*
X120096580Y-154867625D01*
X120162026Y-154895144D01*
X120189875Y-154926994D01*
X120249987Y-155025088D01*
X120396250Y-155193938D01*
X120568126Y-155336632D01*
X120761000Y-155449338D01*
X120969692Y-155529030D01*
X120974760Y-155530061D01*
X120974763Y-155530062D01*
X121040165Y-155543368D01*
X121188597Y-155573567D01*
X121193772Y-155573757D01*
X121193774Y-155573757D01*
X121406673Y-155581564D01*
X121406677Y-155581564D01*
X121411837Y-155581753D01*
X121416957Y-155581097D01*
X121416959Y-155581097D01*
X121628288Y-155554025D01*
X121628289Y-155554025D01*
X121633416Y-155553368D01*
X121664558Y-155544025D01*
X121842429Y-155490661D01*
X121842434Y-155490659D01*
X121847384Y-155489174D01*
X122047994Y-155390896D01*
X122229860Y-155261173D01*
X122388096Y-155103489D01*
X122392661Y-155097137D01*
X122518453Y-154922077D01*
X122519776Y-154923028D01*
X122566645Y-154879857D01*
X122636580Y-154867625D01*
X122702026Y-154895144D01*
X122729875Y-154926994D01*
X122789987Y-155025088D01*
X122936250Y-155193938D01*
X123108126Y-155336632D01*
X123301000Y-155449338D01*
X123509692Y-155529030D01*
X123514760Y-155530061D01*
X123514763Y-155530062D01*
X123580165Y-155543368D01*
X123728597Y-155573567D01*
X123733772Y-155573757D01*
X123733774Y-155573757D01*
X123946673Y-155581564D01*
X123946677Y-155581564D01*
X123951837Y-155581753D01*
X123956957Y-155581097D01*
X123956959Y-155581097D01*
X124168288Y-155554025D01*
X124168289Y-155554025D01*
X124173416Y-155553368D01*
X124204558Y-155544025D01*
X124382429Y-155490661D01*
X124382434Y-155490659D01*
X124387384Y-155489174D01*
X124587994Y-155390896D01*
X124769860Y-155261173D01*
X124928096Y-155103489D01*
X124931112Y-155099292D01*
X125050084Y-154933724D01*
X125106079Y-154890076D01*
X125176782Y-154883630D01*
X125239747Y-154916433D01*
X125259840Y-154941415D01*
X125304987Y-155015088D01*
X125451250Y-155183938D01*
X125623126Y-155326632D01*
X125640239Y-155336632D01*
X125696955Y-155369774D01*
X125745679Y-155421412D01*
X125758750Y-155491195D01*
X125732019Y-155556967D01*
X125691562Y-155590327D01*
X125683457Y-155594546D01*
X125674738Y-155600036D01*
X125504433Y-155727905D01*
X125496726Y-155734748D01*
X125349590Y-155888717D01*
X125343104Y-155896727D01*
X125223098Y-156072649D01*
X125218000Y-156081623D01*
X125128338Y-156274783D01*
X125124775Y-156284470D01*
X125069389Y-156484183D01*
X125070912Y-156492607D01*
X125083292Y-156496000D01*
X126533000Y-156496000D01*
X126601121Y-156516002D01*
X126647614Y-156569658D01*
X126659000Y-156622000D01*
X126659000Y-156878000D01*
X126638998Y-156946121D01*
X126585342Y-156992614D01*
X126533000Y-157004000D01*
X125088225Y-157004000D01*
X125074694Y-157007973D01*
X125073257Y-157017966D01*
X125103565Y-157152446D01*
X125106645Y-157162275D01*
X125186770Y-157359603D01*
X125191413Y-157368794D01*
X125302694Y-157550388D01*
X125308777Y-157558699D01*
X125448213Y-157719667D01*
X125455580Y-157726883D01*
X125619434Y-157862916D01*
X125627881Y-157868831D01*
X125696969Y-157909203D01*
X125745693Y-157960842D01*
X125758764Y-158030625D01*
X125732033Y-158096396D01*
X125691584Y-158129752D01*
X125678607Y-158136507D01*
X125674474Y-158139610D01*
X125674471Y-158139612D01*
X125578455Y-158211703D01*
X125499965Y-158270635D01*
X125345629Y-158432138D01*
X125219743Y-158616680D01*
X125172715Y-158717993D01*
X125129355Y-158811406D01*
X125125688Y-158819305D01*
X125065989Y-159034570D01*
X125065440Y-159039707D01*
X125064456Y-159048913D01*
X125042251Y-159256695D01*
X125055110Y-159479715D01*
X125056247Y-159484761D01*
X125056248Y-159484767D01*
X125073173Y-159559865D01*
X125104222Y-159697639D01*
X125188266Y-159904616D01*
X125304987Y-160095088D01*
X125451250Y-160263938D01*
X125623126Y-160406632D01*
X125644706Y-160419242D01*
X125696445Y-160449476D01*
X125745169Y-160501114D01*
X125758240Y-160570897D01*
X125731509Y-160636669D01*
X125691055Y-160670027D01*
X125678607Y-160676507D01*
X125674474Y-160679610D01*
X125674471Y-160679612D01*
X125504100Y-160807530D01*
X125499965Y-160810635D01*
X125345629Y-160972138D01*
X125219743Y-161156680D01*
X125217564Y-161161375D01*
X125134656Y-161339986D01*
X125125688Y-161359305D01*
X125065989Y-161574570D01*
X125042251Y-161796695D01*
X125042548Y-161801848D01*
X125042548Y-161801851D01*
X125047617Y-161889760D01*
X125055110Y-162019715D01*
X125056247Y-162024761D01*
X125056248Y-162024767D01*
X125077612Y-162119563D01*
X125104222Y-162237639D01*
X125188266Y-162444616D01*
X125304987Y-162635088D01*
X125451250Y-162803938D01*
X125623126Y-162946632D01*
X125693595Y-162987811D01*
X125696445Y-162989476D01*
X125745169Y-163041114D01*
X125758240Y-163110897D01*
X125731509Y-163176669D01*
X125691055Y-163210027D01*
X125678607Y-163216507D01*
X125674474Y-163219610D01*
X125674471Y-163219612D01*
X125504100Y-163347530D01*
X125499965Y-163350635D01*
X125345629Y-163512138D01*
X125219743Y-163696680D01*
X125125688Y-163899305D01*
X125065989Y-164114570D01*
X125042251Y-164336695D01*
X125055110Y-164559715D01*
X125056247Y-164564761D01*
X125056248Y-164564767D01*
X125080304Y-164671508D01*
X125104222Y-164777639D01*
X125188266Y-164984616D01*
X125304987Y-165175088D01*
X125308367Y-165178990D01*
X125427051Y-165316002D01*
X125456534Y-165380588D01*
X125446419Y-165450860D01*
X125399918Y-165504509D01*
X125331814Y-165524500D01*
X123442595Y-165524500D01*
X123374474Y-165504498D01*
X123353500Y-165487595D01*
X119480405Y-161614500D01*
X119446379Y-161552188D01*
X119443500Y-161525405D01*
X119443500Y-160580427D01*
X119463502Y-160512306D01*
X119504618Y-160472550D01*
X119507994Y-160470896D01*
X119689860Y-160341173D01*
X119848096Y-160183489D01*
X119978453Y-160002077D01*
X119979640Y-160002930D01*
X120026960Y-159959362D01*
X120096897Y-159947145D01*
X120162338Y-159974678D01*
X120190166Y-160006511D01*
X120247694Y-160100388D01*
X120253777Y-160108699D01*
X120393213Y-160269667D01*
X120400580Y-160276883D01*
X120564434Y-160412916D01*
X120572881Y-160418831D01*
X120756756Y-160526279D01*
X120766042Y-160530729D01*
X120965001Y-160606703D01*
X120974899Y-160609579D01*
X121078250Y-160630606D01*
X121092299Y-160629410D01*
X121096000Y-160619065D01*
X121096000Y-160618517D01*
X121604000Y-160618517D01*
X121608064Y-160632359D01*
X121621478Y-160634393D01*
X121628184Y-160633534D01*
X121638262Y-160631392D01*
X121842255Y-160570191D01*
X121851842Y-160566433D01*
X122043095Y-160472739D01*
X122051945Y-160467464D01*
X122225328Y-160343792D01*
X122233200Y-160337139D01*
X122384052Y-160186812D01*
X122390730Y-160178965D01*
X122515003Y-160006020D01*
X122520313Y-159997183D01*
X122614670Y-159806267D01*
X122618469Y-159796672D01*
X122680377Y-159592910D01*
X122682555Y-159582837D01*
X122683986Y-159571962D01*
X122681775Y-159557778D01*
X122668617Y-159554000D01*
X121622115Y-159554000D01*
X121606876Y-159558475D01*
X121605671Y-159559865D01*
X121604000Y-159567548D01*
X121604000Y-160618517D01*
X121096000Y-160618517D01*
X121096000Y-159027885D01*
X121604000Y-159027885D01*
X121608475Y-159043124D01*
X121609865Y-159044329D01*
X121617548Y-159046000D01*
X122668344Y-159046000D01*
X122681875Y-159042027D01*
X122683180Y-159032947D01*
X122641214Y-158865875D01*
X122637894Y-158856124D01*
X122552972Y-158660814D01*
X122548105Y-158651739D01*
X122432426Y-158472926D01*
X122426136Y-158464757D01*
X122282806Y-158307240D01*
X122275273Y-158300215D01*
X122108139Y-158168222D01*
X122099552Y-158162517D01*
X121913117Y-158059599D01*
X121903705Y-158055369D01*
X121702959Y-157984280D01*
X121692988Y-157981646D01*
X121621837Y-157968972D01*
X121608540Y-157970432D01*
X121604000Y-157984989D01*
X121604000Y-159027885D01*
X121096000Y-159027885D01*
X121096000Y-157983102D01*
X121092082Y-157969758D01*
X121077806Y-157967771D01*
X121039324Y-157973660D01*
X121029288Y-157976051D01*
X120826868Y-158042212D01*
X120817359Y-158046209D01*
X120628463Y-158144542D01*
X120619738Y-158150036D01*
X120449433Y-158277905D01*
X120441726Y-158284748D01*
X120294590Y-158438717D01*
X120288109Y-158446722D01*
X120183498Y-158600074D01*
X120128587Y-158645076D01*
X120058062Y-158653247D01*
X119994315Y-158621993D01*
X119973618Y-158597509D01*
X119892822Y-158472617D01*
X119892820Y-158472614D01*
X119890014Y-158468277D01*
X119739670Y-158303051D01*
X119735619Y-158299852D01*
X119735615Y-158299848D01*
X119568414Y-158167800D01*
X119568410Y-158167798D01*
X119564359Y-158164598D01*
X119528028Y-158144542D01*
X119501239Y-158129754D01*
X119368789Y-158056638D01*
X119363920Y-158054914D01*
X119363916Y-158054912D01*
X119163087Y-157983795D01*
X119163083Y-157983794D01*
X119158212Y-157982069D01*
X119153119Y-157981162D01*
X119153116Y-157981161D01*
X118943373Y-157943800D01*
X118943367Y-157943799D01*
X118938284Y-157942894D01*
X118864452Y-157941992D01*
X118720081Y-157940228D01*
X118720079Y-157940228D01*
X118714911Y-157940165D01*
X118494091Y-157973955D01*
X118281756Y-158043357D01*
X118083607Y-158146507D01*
X118079474Y-158149610D01*
X118079471Y-158149612D01*
X117913305Y-158274373D01*
X117904965Y-158280635D01*
X117901393Y-158284373D01*
X117793729Y-158397037D01*
X117750629Y-158442138D01*
X117643201Y-158599621D01*
X117588293Y-158644621D01*
X117517768Y-158652792D01*
X117454021Y-158621538D01*
X117433324Y-158597054D01*
X117352822Y-158472617D01*
X117352820Y-158472614D01*
X117350014Y-158468277D01*
X117199670Y-158303051D01*
X117195619Y-158299852D01*
X117195615Y-158299848D01*
X117028414Y-158167800D01*
X117028410Y-158167798D01*
X117024359Y-158164598D01*
X116988028Y-158144542D01*
X116961239Y-158129754D01*
X116828789Y-158056638D01*
X116823920Y-158054914D01*
X116823916Y-158054912D01*
X116623087Y-157983795D01*
X116623083Y-157983794D01*
X116618212Y-157982069D01*
X116613119Y-157981162D01*
X116613116Y-157981161D01*
X116403373Y-157943800D01*
X116403367Y-157943799D01*
X116398284Y-157942894D01*
X116324452Y-157941992D01*
X116180081Y-157940228D01*
X116180079Y-157940228D01*
X116174911Y-157940165D01*
X115954091Y-157973955D01*
X115741756Y-158043357D01*
X115543607Y-158146507D01*
X115539474Y-158149610D01*
X115539471Y-158149612D01*
X115373305Y-158274373D01*
X115364965Y-158280635D01*
X115361393Y-158284373D01*
X115253729Y-158397037D01*
X115210629Y-158442138D01*
X115103201Y-158599621D01*
X115048293Y-158644621D01*
X114977768Y-158652792D01*
X114914021Y-158621538D01*
X114893324Y-158597054D01*
X114812822Y-158472617D01*
X114812820Y-158472614D01*
X114810014Y-158468277D01*
X114659670Y-158303051D01*
X114655619Y-158299852D01*
X114655615Y-158299848D01*
X114488414Y-158167800D01*
X114488410Y-158167798D01*
X114484359Y-158164598D01*
X114448028Y-158144542D01*
X114421239Y-158129754D01*
X114288789Y-158056638D01*
X114283920Y-158054914D01*
X114283916Y-158054912D01*
X114083087Y-157983795D01*
X114083083Y-157983794D01*
X114078212Y-157982069D01*
X114073119Y-157981162D01*
X114073116Y-157981161D01*
X113863373Y-157943800D01*
X113863367Y-157943799D01*
X113858284Y-157942894D01*
X113784452Y-157941992D01*
X113640081Y-157940228D01*
X113640079Y-157940228D01*
X113634911Y-157940165D01*
X113414091Y-157973955D01*
X113201756Y-158043357D01*
X113003607Y-158146507D01*
X112999474Y-158149610D01*
X112999471Y-158149612D01*
X112833305Y-158274373D01*
X112824965Y-158280635D01*
X112821393Y-158284373D01*
X112713729Y-158397037D01*
X112670629Y-158442138D01*
X112563201Y-158599621D01*
X112508293Y-158644621D01*
X112437768Y-158652792D01*
X112374021Y-158621538D01*
X112353324Y-158597054D01*
X112272822Y-158472617D01*
X112272820Y-158472614D01*
X112270014Y-158468277D01*
X112119670Y-158303051D01*
X112115619Y-158299852D01*
X112115615Y-158299848D01*
X111948414Y-158167800D01*
X111948410Y-158167798D01*
X111944359Y-158164598D01*
X111908028Y-158144542D01*
X111881239Y-158129754D01*
X111748789Y-158056638D01*
X111743920Y-158054914D01*
X111743916Y-158054912D01*
X111543087Y-157983795D01*
X111543083Y-157983794D01*
X111538212Y-157982069D01*
X111533119Y-157981162D01*
X111533116Y-157981161D01*
X111323373Y-157943800D01*
X111323367Y-157943799D01*
X111318284Y-157942894D01*
X111244452Y-157941992D01*
X111100081Y-157940228D01*
X111100079Y-157940228D01*
X111094911Y-157940165D01*
X110874091Y-157973955D01*
X110661756Y-158043357D01*
X110463607Y-158146507D01*
X110459474Y-158149610D01*
X110459471Y-158149612D01*
X110293305Y-158274373D01*
X110284965Y-158280635D01*
X110228537Y-158339684D01*
X110204283Y-158365064D01*
X110142759Y-158400494D01*
X110071846Y-158397037D01*
X110014060Y-158355791D01*
X109995207Y-158322243D01*
X109953767Y-158211703D01*
X109950615Y-158203295D01*
X109863261Y-158086739D01*
X109746705Y-157999385D01*
X109610316Y-157948255D01*
X109548134Y-157941500D01*
X107751866Y-157941500D01*
X107689684Y-157948255D01*
X107553295Y-157999385D01*
X107436739Y-158086739D01*
X107349385Y-158203295D01*
X107298255Y-158339684D01*
X107291500Y-158401866D01*
X107291500Y-158540500D01*
X107271498Y-158608621D01*
X107217842Y-158655114D01*
X107165500Y-158666500D01*
X102868594Y-158666500D01*
X102800473Y-158646498D01*
X102779499Y-158629595D01*
X101192405Y-157042500D01*
X101158379Y-156980188D01*
X101155500Y-156953405D01*
X101155500Y-155007594D01*
X101175502Y-154939473D01*
X101192405Y-154918499D01*
X101970019Y-154140885D01*
X102032331Y-154106859D01*
X102103146Y-154111924D01*
G37*
%TD.AperFunction*%
%TA.AperFunction,Conductor*%
G36*
X101364012Y-142765370D02*
G01*
X101370579Y-142771483D01*
X102194779Y-143595684D01*
X102228803Y-143657994D01*
X102227100Y-143718446D01*
X102205989Y-143794570D01*
X102182251Y-144016695D01*
X102182548Y-144021848D01*
X102182548Y-144021851D01*
X102188011Y-144116590D01*
X102195110Y-144239715D01*
X102196247Y-144244761D01*
X102196248Y-144244767D01*
X102216119Y-144332939D01*
X102244222Y-144457639D01*
X102328266Y-144664616D01*
X102375309Y-144741384D01*
X102442291Y-144850688D01*
X102444987Y-144855088D01*
X102591250Y-145023938D01*
X102763126Y-145166632D01*
X102829528Y-145205434D01*
X102836445Y-145209476D01*
X102885169Y-145261114D01*
X102898240Y-145330897D01*
X102871509Y-145396669D01*
X102831055Y-145430027D01*
X102818607Y-145436507D01*
X102814474Y-145439610D01*
X102814471Y-145439612D01*
X102686458Y-145535727D01*
X102639965Y-145570635D01*
X102485629Y-145732138D01*
X102359743Y-145916680D01*
X102344003Y-145950590D01*
X102294070Y-146058162D01*
X102265688Y-146119305D01*
X102205989Y-146334570D01*
X102182251Y-146556695D01*
X102182548Y-146561848D01*
X102182548Y-146561851D01*
X102188011Y-146656590D01*
X102195110Y-146779715D01*
X102196247Y-146784761D01*
X102196248Y-146784767D01*
X102216119Y-146872939D01*
X102244222Y-146997639D01*
X102282461Y-147091811D01*
X102306491Y-147150989D01*
X102328266Y-147204616D01*
X102347407Y-147235851D01*
X102442291Y-147390688D01*
X102444987Y-147395088D01*
X102591250Y-147563938D01*
X102763126Y-147706632D01*
X102796199Y-147725958D01*
X102836955Y-147749774D01*
X102885679Y-147801412D01*
X102898750Y-147871195D01*
X102872019Y-147936967D01*
X102831562Y-147970327D01*
X102823457Y-147974546D01*
X102814738Y-147980036D01*
X102644433Y-148107905D01*
X102636726Y-148114748D01*
X102489590Y-148268717D01*
X102483104Y-148276727D01*
X102363098Y-148452649D01*
X102358000Y-148461623D01*
X102268338Y-148654783D01*
X102264775Y-148664470D01*
X102209389Y-148864183D01*
X102210912Y-148872607D01*
X102223292Y-148876000D01*
X103673000Y-148876000D01*
X103741121Y-148896002D01*
X103787614Y-148949658D01*
X103799000Y-149002000D01*
X103799000Y-149258000D01*
X103778998Y-149326121D01*
X103725342Y-149372614D01*
X103673000Y-149384000D01*
X102210110Y-149384000D01*
X102210110Y-149379580D01*
X102172260Y-149379574D01*
X102118684Y-149347779D01*
X101192405Y-148421500D01*
X101158379Y-148359188D01*
X101155500Y-148332405D01*
X101155500Y-142860594D01*
X101175502Y-142792473D01*
X101229158Y-142745980D01*
X101299432Y-142735876D01*
X101364012Y-142765370D01*
G37*
%TD.AperFunction*%
%TD*%
M02*
