M48
; DRILL file {KiCad (6.0.4)} date Thu 21 Apr 2022 10:01:02 PM EDT
; FORMAT={-:-/ absolute / inch / decimal}
; #@! TF.CreationDate,2022-04-21T22:01:02-04:00
; #@! TF.GenerationSoftware,Kicad,Pcbnew,(6.0.4)
; #@! TF.FileFunction,Plated,1,2,PTH
FMAT,2
INCH
; #@! TA.AperFunction,Plated,PTH,ViaDrill
T1C0.0157
; #@! TA.AperFunction,Plated,PTH,ComponentDrill
T2C0.0295
; #@! TA.AperFunction,Plated,PTH,ComponentDrill
T3C0.0394
%
G90
G05
T1
X4.0876Y-4.3717
X4.5276Y-6.1617
X5.0976Y-4.3717
T2
X4.4094Y-4.0945
X4.4882Y-4.0945
X4.5669Y-4.0945
X4.6457Y-4.0945
T3
X4.0766Y-4.7713
X4.0766Y-4.8713
X4.0766Y-4.9713
X4.0766Y-5.0713
X4.0766Y-5.1713
X4.0766Y-5.2713
X4.0766Y-5.3713
X4.0766Y-5.4713
X4.0766Y-5.5713
X4.0766Y-5.6713
X4.0766Y-5.7713
X4.0766Y-5.8713
X4.0766Y-5.9713
X4.0766Y-6.0713
X4.1776Y-4.7717
X4.1776Y-5.6717
X4.1776Y-6.0717
X4.1792Y-4.8713
X4.1792Y-4.9717
X4.1792Y-5.0717
X4.1792Y-5.1699
X4.1792Y-5.2702
X4.1792Y-5.3717
X4.1792Y-5.4717
X4.1792Y-5.5717
X4.1799Y-5.7689
X4.1799Y-5.8717
X4.1799Y-5.9717
X4.2776Y-4.3717
X4.2776Y-4.7717
X4.2776Y-5.6717
X4.2776Y-6.0717
X4.2776Y-6.2717
X4.2792Y-4.8713
X4.2792Y-4.9717
X4.2792Y-5.0717
X4.2792Y-5.1699
X4.2792Y-5.2702
X4.2792Y-5.3717
X4.2792Y-5.4717
X4.2792Y-5.5717
X4.2799Y-5.7689
X4.2799Y-5.8717
X4.2799Y-5.9717
X4.3776Y-4.3717
X4.3776Y-4.7717
X4.3776Y-5.6717
X4.3776Y-6.0717
X4.3776Y-6.2717
X4.3792Y-4.8713
X4.3792Y-4.9717
X4.3792Y-5.0717
X4.3792Y-5.1699
X4.3792Y-5.2702
X4.3792Y-5.3717
X4.3792Y-5.4717
X4.3792Y-5.5717
X4.3799Y-5.7689
X4.3799Y-5.8717
X4.3799Y-5.9717
X4.4776Y-4.3717
X4.4776Y-4.7717
X4.4776Y-5.6717
X4.4776Y-6.0717
X4.4776Y-6.2717
X4.4792Y-4.8713
X4.4792Y-4.9717
X4.4792Y-5.0717
X4.4792Y-5.1699
X4.4792Y-5.2702
X4.4792Y-5.3717
X4.4792Y-5.4717
X4.4792Y-5.5717
X4.4799Y-5.7689
X4.4799Y-5.8717
X4.4799Y-5.9717
X4.5776Y-4.3717
X4.5776Y-4.7717
X4.5776Y-5.6717
X4.5776Y-6.0717
X4.5776Y-6.2717
X4.5792Y-4.8713
X4.5792Y-4.9717
X4.5792Y-5.0717
X4.5792Y-5.1699
X4.5792Y-5.2702
X4.5792Y-5.3717
X4.5792Y-5.4717
X4.5792Y-5.5717
X4.5799Y-5.7689
X4.5799Y-5.8717
X4.5799Y-5.9717
X4.6776Y-4.3717
X4.6776Y-4.7717
X4.6776Y-5.6717
X4.6776Y-6.0717
X4.6776Y-6.2717
X4.6792Y-4.8713
X4.6792Y-4.9717
X4.6792Y-5.0717
X4.6792Y-5.1699
X4.6792Y-5.2702
X4.6792Y-5.3717
X4.6792Y-5.4717
X4.6792Y-5.5717
X4.6799Y-5.7689
X4.6799Y-5.8717
X4.6799Y-5.9717
X4.7776Y-4.3717
X4.7776Y-4.7717
X4.7776Y-5.6717
X4.7776Y-6.0717
X4.7776Y-6.2717
X4.7792Y-4.8713
X4.7792Y-4.9717
X4.7792Y-5.0717
X4.7792Y-5.1699
X4.7792Y-5.2702
X4.7792Y-5.3717
X4.7792Y-5.4717
X4.7792Y-5.5717
X4.7799Y-5.7689
X4.7799Y-5.8717
X4.7799Y-5.9717
X4.8776Y-4.7717
X4.8776Y-5.6717
X4.8776Y-6.0717
X4.8792Y-4.8713
X4.8792Y-4.9717
X4.8792Y-5.0717
X4.8792Y-5.1699
X4.8792Y-5.2702
X4.8792Y-5.3717
X4.8792Y-5.4717
X4.8792Y-5.5717
X4.8799Y-5.7689
X4.8799Y-5.8717
X4.8799Y-5.9717
X4.9766Y-4.7713
X4.9766Y-4.8713
X4.9766Y-4.9713
X4.9766Y-5.0713
X4.9766Y-5.1713
X4.9766Y-5.2713
X4.9766Y-5.3713
X4.9766Y-5.4713
X4.9766Y-5.5713
X4.9766Y-5.6713
X4.9766Y-5.7713
X4.9766Y-5.8713
X4.9766Y-5.9713
X4.9766Y-6.0713
X4.9766Y-6.1713
X4.9766Y-6.2713
X4.9766Y-6.3713
X4.9766Y-6.4713
T0
M30
