%TF.GenerationSoftware,KiCad,Pcbnew,9.0.1*%
%TF.CreationDate,2025-04-20T13:23:21-04:00*%
%TF.ProjectId,firebeetle-shield,66697265-6265-4657-946c-652d73686965,v2*%
%TF.SameCoordinates,Original*%
%TF.FileFunction,Copper,L1,Top*%
%TF.FilePolarity,Positive*%
%FSLAX46Y46*%
G04 Gerber Fmt 4.6, Leading zero omitted, Abs format (unit mm)*
G04 Created by KiCad (PCBNEW 9.0.1) date 2025-04-20 13:23:21*
%MOMM*%
%LPD*%
G01*
G04 APERTURE LIST*
G04 Aperture macros list*
%AMRoundRect*
0 Rectangle with rounded corners*
0 $1 Rounding radius*
0 $2 $3 $4 $5 $6 $7 $8 $9 X,Y pos of 4 corners*
0 Add a 4 corners polygon primitive as box body*
4,1,4,$2,$3,$4,$5,$6,$7,$8,$9,$2,$3,0*
0 Add four circle primitives for the rounded corners*
1,1,$1+$1,$2,$3*
1,1,$1+$1,$4,$5*
1,1,$1+$1,$6,$7*
1,1,$1+$1,$8,$9*
0 Add four rect primitives between the rounded corners*
20,1,$1+$1,$2,$3,$4,$5,0*
20,1,$1+$1,$4,$5,$6,$7,0*
20,1,$1+$1,$6,$7,$8,$9,0*
20,1,$1+$1,$8,$9,$2,$3,0*%
G04 Aperture macros list end*
%TA.AperFunction,ComponentPad*%
%ADD10R,1.700000X1.700000*%
%TD*%
%TA.AperFunction,ComponentPad*%
%ADD11C,1.700000*%
%TD*%
%TA.AperFunction,ComponentPad*%
%ADD12RoundRect,0.250000X-0.350000X-0.625000X0.350000X-0.625000X0.350000X0.625000X-0.350000X0.625000X0*%
%TD*%
%TA.AperFunction,ComponentPad*%
%ADD13O,1.200000X1.750000*%
%TD*%
%TA.AperFunction,ComponentPad*%
%ADD14C,1.400000*%
%TD*%
%TA.AperFunction,ComponentPad*%
%ADD15O,1.400000X1.400000*%
%TD*%
%TA.AperFunction,ComponentPad*%
%ADD16O,1.700000X1.700000*%
%TD*%
%TA.AperFunction,ViaPad*%
%ADD17C,0.800000*%
%TD*%
%TA.AperFunction,Conductor*%
%ADD18C,0.250000*%
%TD*%
G04 APERTURE END LIST*
D10*
%TO.P,J2,1,RX*%
%TO.N,unconnected-(J2-RX-Pad1)*%
X103570000Y-149902000D03*
D11*
%TO.P,J2,2,TX*%
%TO.N,unconnected-(J2-TX-Pad2)*%
X103570000Y-147362000D03*
%TO.P,J2,3,D2*%
%TO.N,SQW*%
X103570000Y-144822000D03*
%TO.P,J2,4,D3*%
%TO.N,RTC VCC*%
X103570000Y-142282000D03*
%TO.P,J2,5,D5*%
%TO.N,SCL2*%
X103570000Y-139742000D03*
%TO.P,J2,6,D6*%
%TO.N,SDA2*%
X103570000Y-137202000D03*
%TO.P,J2,7,D7*%
%TO.N,CS*%
X103570000Y-134662000D03*
%TO.P,J2,8,D9*%
%TO.N,unconnected-(J2-D9-Pad8)*%
X103570000Y-132122000D03*
%TO.P,J2,9,SDA*%
%TO.N,SDA2*%
X103570000Y-129582000D03*
%TO.P,J2,10,SCL*%
%TO.N,SCL2*%
X103570000Y-127042000D03*
%TO.P,J2,11,MISO*%
%TO.N,MISO*%
X103570000Y-124502000D03*
%TO.P,J2,12,MOSI*%
%TO.N,MOSI*%
X103570000Y-121962000D03*
%TO.P,J2,13,SCK*%
%TO.N,SCK*%
X103570000Y-119422000D03*
%TO.P,J2,14,EN*%
%TO.N,unconnected-(J2-EN-Pad14)*%
X103570000Y-116882000D03*
%TO.P,J2,15,GND*%
%TO.N,GND*%
X103570000Y-114342000D03*
%TO.P,J2,16,NC*%
%TO.N,unconnected-(J2-NC-Pad16)*%
X103570000Y-111802000D03*
%TO.P,J2,17,3V3*%
%TO.N,unconnected-(J2-3V3-Pad17)*%
X103570000Y-109262000D03*
%TO.P,J2,18,RST*%
%TO.N,unconnected-(J2-RST-Pad18)*%
X103570000Y-106722000D03*
%TD*%
D10*
%TO.P,J1,1,D10*%
%TO.N,unconnected-(J1-D10-Pad1)*%
X126430000Y-149902000D03*
D11*
%TO.P,J1,2,D11*%
%TO.N,unconnected-(J1-D11-Pad2)*%
X126430000Y-147362000D03*
%TO.P,J1,3,D12*%
%TO.N,unconnected-(J1-D12-Pad3)*%
X126430000Y-144822000D03*
%TO.P,J1,4,D13*%
%TO.N,unconnected-(J1-D13-Pad4)*%
X126430000Y-142282000D03*
%TO.P,J1,5,A0*%
%TO.N,unconnected-(J1-A0-Pad5)*%
X126430000Y-139742000D03*
%TO.P,J1,6,A1*%
%TO.N,unconnected-(J1-A1-Pad6)*%
X126430000Y-137202000D03*
%TO.P,J1,7,A2*%
%TO.N,unconnected-(J1-A2-Pad7)*%
X126430000Y-134662000D03*
%TO.P,J1,8,A3*%
%TO.N,unconnected-(J1-A3-Pad8)*%
X126430000Y-132122000D03*
%TO.P,J1,9,A4*%
%TO.N,SD Switch*%
X126430000Y-129582000D03*
%TO.P,J1,10,SDA*%
%TO.N,SDA1*%
X126430000Y-127042000D03*
%TO.P,J1,11,SCL*%
%TO.N,SCL1*%
X126430000Y-124502000D03*
%TO.P,J1,12,GND*%
%TO.N,GND*%
X126430000Y-121962000D03*
%TO.P,J1,13,3V3*%
%TO.N,3V3*%
X126430000Y-119422000D03*
%TO.P,J1,14,VCC*%
%TO.N,unconnected-(J1-VCC-Pad14)*%
X126430000Y-116882000D03*
%TD*%
D10*
%TO.P,J5,1,Pin_1*%
%TO.N,Net-(J5-Pin_1)*%
X121350000Y-160062000D03*
D11*
%TO.P,J5,2,Pin_2*%
%TO.N,SQW*%
X118810000Y-160062000D03*
%TO.P,J5,3,Pin_3*%
%TO.N,SCL1*%
X116270000Y-160062000D03*
%TO.P,J5,4,Pin_4*%
%TO.N,SDA1*%
X113730000Y-160062000D03*
%TO.P,J5,5,Pin_5*%
%TO.N,RTC VCC*%
X111190000Y-160062000D03*
%TO.P,J5,6,Pin_6*%
%TO.N,GND*%
X108650000Y-160062000D03*
%TD*%
D10*
%TO.P,J3,1,Pin_1*%
%TO.N,Net-(J3-Pin_1)*%
X121350000Y-111802000D03*
D11*
%TO.P,J3,2,Pin_2*%
%TO.N,CS*%
X118810000Y-111802000D03*
%TO.P,J3,3,Pin_3*%
%TO.N,MOSI*%
X116270000Y-111802000D03*
%TO.P,J3,4,Pin_4*%
%TO.N,SCK*%
X113730000Y-111802000D03*
%TO.P,J3,5,Pin_5*%
%TO.N,MISO*%
X111190000Y-111802000D03*
%TO.P,J3,6,Pin_6*%
%TO.N,GND*%
X108650000Y-111802000D03*
%TD*%
D12*
%TO.P,J4,1,Pin_1*%
%TO.N,GND*%
X112000000Y-167102000D03*
D13*
%TO.P,J4,2,Pin_2*%
%TO.N,3V3*%
X114000000Y-167102000D03*
%TO.P,J4,3,Pin_3*%
%TO.N,SDA1*%
X116000000Y-167102000D03*
%TO.P,J4,4,Pin_4*%
%TO.N,SCL1*%
X118000000Y-167102000D03*
%TD*%
D14*
%TO.P,R1,1*%
%TO.N,SD Switch*%
X122620000Y-105198000D03*
D15*
%TO.P,R1,2*%
%TO.N,Net-(JP2-A)*%
X130240000Y-105198000D03*
%TD*%
D14*
%TO.P,R2,1*%
%TO.N,SDA1*%
X105475000Y-168317000D03*
D15*
%TO.P,R2,2*%
%TO.N,3V3*%
X105475000Y-160697000D03*
%TD*%
D14*
%TO.P,R3,1*%
%TO.N,SCL1*%
X102935000Y-168317000D03*
D15*
%TO.P,R3,2*%
%TO.N,3V3*%
X102935000Y-160697000D03*
%TD*%
D11*
%TO.P,REF\u002A\u002A,1*%
%TO.N,N/C*%
X106051342Y-119422000D03*
X106051342Y-124573143D03*
X106110000Y-127042000D03*
X106051342Y-121962000D03*
X106069092Y-129582000D03*
X106069092Y-139786031D03*
X106069092Y-144822000D03*
X106069092Y-147370322D03*
X106069092Y-137237709D03*
X106110000Y-116882000D03*
X106110000Y-149902000D03*
X106069092Y-142282000D03*
X106069092Y-134662000D03*
X106069092Y-132122000D03*
D16*
%TO.P,REF\u002A\u002A,2*%
X108609092Y-144822000D03*
X108609092Y-139786031D03*
X108650000Y-127042000D03*
X108609092Y-132122000D03*
X108591342Y-121962000D03*
X108609092Y-134662000D03*
X108609092Y-129582000D03*
X108609092Y-147370322D03*
X108591342Y-124573143D03*
X108609092Y-142282000D03*
X108650000Y-116882000D03*
X108609092Y-137237709D03*
X108650000Y-149902000D03*
X108591342Y-119422000D03*
%TO.P,REF\u002A\u002A,3*%
X111149092Y-132122000D03*
X111149092Y-142282000D03*
X111149092Y-139786031D03*
X111131342Y-124573143D03*
X111131342Y-121962000D03*
X111149092Y-137237709D03*
X111131342Y-119422000D03*
X111190000Y-127042000D03*
X111190000Y-149902000D03*
X111149092Y-129582000D03*
X111149092Y-134662000D03*
X111149092Y-144822000D03*
X111149092Y-147370322D03*
X111190000Y-116882000D03*
%TO.P,REF\u002A\u002A,4*%
X113730000Y-116882000D03*
X113671342Y-121962000D03*
X113671342Y-119422000D03*
X113730000Y-127042000D03*
X113689092Y-129582000D03*
X113689092Y-144822000D03*
X113689092Y-134662000D03*
X113671342Y-124573143D03*
X113730000Y-149902000D03*
X113689092Y-139786031D03*
X113689092Y-137237709D03*
X113689092Y-132122000D03*
X113689092Y-142282000D03*
X113689092Y-147370322D03*
%TO.P,REF\u002A\u002A,5*%
X116229092Y-132122000D03*
X116229092Y-144822000D03*
X116211342Y-124573143D03*
X116270000Y-116882000D03*
X116270000Y-127042000D03*
X116270000Y-149902000D03*
X116229092Y-129582000D03*
X116229092Y-137237709D03*
X116229092Y-142282000D03*
X116229092Y-134662000D03*
X116211342Y-119422000D03*
X116229092Y-139786031D03*
X116229092Y-147370322D03*
X116211342Y-121962000D03*
%TO.P,REF\u002A\u002A,6*%
X118769092Y-129582000D03*
X118769092Y-147370322D03*
X118769092Y-132122000D03*
X118751342Y-119422000D03*
X118769092Y-134662000D03*
X118769092Y-139786031D03*
X118751342Y-124573143D03*
X118769092Y-137237709D03*
X118810000Y-127042000D03*
X118751342Y-121962000D03*
X118769092Y-144822000D03*
X118810000Y-116882000D03*
X118810000Y-149902000D03*
X118769092Y-142282000D03*
%TO.P,REF\u002A\u002A,7*%
X121309092Y-144822000D03*
X121309092Y-142282000D03*
D10*
%TO.N,32K*%
X121350000Y-149902000D03*
D16*
%TO.N,N/C*%
X121291342Y-121962000D03*
X121350000Y-116882000D03*
X121309092Y-132122000D03*
X121309092Y-134662000D03*
X121291342Y-124573143D03*
X121309092Y-129582000D03*
X121291342Y-119422000D03*
X121309092Y-139786031D03*
X121350000Y-127042000D03*
X121309092Y-137237709D03*
X121309092Y-147370322D03*
%TO.P,REF\u002A\u002A,8*%
X123849092Y-129582000D03*
X123890000Y-127042000D03*
X123849092Y-144822000D03*
X123849092Y-142282000D03*
X123831342Y-124573143D03*
X123890000Y-116882000D03*
X123849092Y-134662000D03*
X123849092Y-132122000D03*
X123849092Y-139786031D03*
X123849092Y-137237709D03*
X123831342Y-119422000D03*
X123849092Y-147370322D03*
X123831342Y-121962000D03*
X123890000Y-149902000D03*
%TD*%
D17*
%TO.N,SDA1*%
X129478000Y-164253000D03*
X129478000Y-127042000D03*
X116000000Y-164269000D03*
%TO.N,SCL1*%
X118000000Y-163412000D03*
X130240000Y-163364000D03*
X130240000Y-124502000D03*
%TO.N,MOSI*%
X100522000Y-121962000D03*
X116270000Y-103674000D03*
X100522000Y-103674000D03*
%TO.N,MISO*%
X99760000Y-102912000D03*
X99760000Y-124502000D03*
X111190000Y-102912000D03*
%TO.N,GND*%
X115000000Y-114951600D03*
X129732000Y-112691000D03*
X126176000Y-156379000D03*
X101284000Y-148632000D03*
X101284000Y-141012000D03*
X100522000Y-160062000D03*
%TO.N,3V3*%
X131002000Y-119422000D03*
X114000000Y-162491000D03*
X131002000Y-162475000D03*
X125922000Y-114088000D03*
X131002000Y-114088000D03*
%TO.N,SCK*%
X101284000Y-119422000D03*
X101284000Y-104436000D03*
X113730000Y-104436000D03*
%TO.N,CS*%
X118810000Y-102150000D03*
X98998000Y-134662000D03*
X98998000Y-102150000D03*
%TO.N,SD Switch*%
X128716000Y-129582000D03*
%TO.N,SQW*%
X98998000Y-151807000D03*
X118810000Y-151807000D03*
X98998000Y-144822000D03*
%TO.N,RTC VCC*%
X111190000Y-152569000D03*
X99760000Y-142282000D03*
X99760000Y-152569000D03*
%TO.N,Net-(JP2-A)*%
X130240000Y-109897000D03*
X127185000Y-109904000D03*
%TO.N,SCL2*%
X99760000Y-127042000D03*
X99760000Y-139742000D03*
%TO.N,SDA2*%
X100522000Y-129582000D03*
X100522000Y-137202000D03*
%TD*%
D18*
%TO.N,SDA1*%
X129478000Y-164253000D02*
X116016000Y-164253000D01*
X109523000Y-164269000D02*
X105475000Y-168317000D01*
X116016000Y-164253000D02*
X116000000Y-164269000D01*
X116000000Y-164269000D02*
X109523000Y-164269000D01*
X129478000Y-127042000D02*
X126430000Y-127042000D01*
%TO.N,SCL1*%
X130240000Y-124502000D02*
X126430000Y-124502000D01*
X118048000Y-163364000D02*
X118000000Y-163412000D01*
X107840000Y-163412000D02*
X102935000Y-168317000D01*
X118000000Y-163412000D02*
X107840000Y-163412000D01*
X130240000Y-163364000D02*
X118048000Y-163364000D01*
%TO.N,MOSI*%
X100522000Y-103674000D02*
X116270000Y-103674000D01*
X103570000Y-121962000D02*
X100522000Y-121962000D01*
%TO.N,MISO*%
X99760000Y-102912000D02*
X111190000Y-102912000D01*
X103570000Y-124502000D02*
X99760000Y-124502000D01*
%TO.N,3V3*%
X131002000Y-114088000D02*
X125922000Y-114088000D01*
X105475000Y-160697000D02*
X105475000Y-162380000D01*
X102935000Y-160697000D02*
X104729000Y-162491000D01*
X114016000Y-162475000D02*
X114000000Y-162491000D01*
X131002000Y-119422000D02*
X126430000Y-119422000D01*
X104729000Y-162491000D02*
X105586000Y-162491000D01*
X105475000Y-162380000D02*
X105586000Y-162491000D01*
X105586000Y-162491000D02*
X114000000Y-162491000D01*
X131002000Y-162475000D02*
X114016000Y-162475000D01*
%TO.N,SCK*%
X103570000Y-119422000D02*
X101284000Y-119422000D01*
X101284000Y-104436000D02*
X113730000Y-104436000D01*
%TO.N,CS*%
X98998000Y-102150000D02*
X118810000Y-102150000D01*
X98998000Y-134662000D02*
X103570000Y-134662000D01*
%TO.N,SD Switch*%
X126430000Y-129582000D02*
X128716000Y-129582000D01*
%TO.N,SQW*%
X118810000Y-151807000D02*
X98998000Y-151807000D01*
X103570000Y-144822000D02*
X98998000Y-144822000D01*
%TO.N,RTC VCC*%
X99760000Y-142282000D02*
X103570000Y-142282000D01*
X111190000Y-152569000D02*
X99760000Y-152569000D01*
%TO.N,Net-(JP2-A)*%
X130240000Y-109897000D02*
X127192000Y-109897000D01*
X127192000Y-109897000D02*
X127185000Y-109904000D01*
%TO.N,SCL2*%
X103570000Y-139742000D02*
X99760000Y-139742000D01*
X103570000Y-127042000D02*
X99760000Y-127042000D01*
%TO.N,SDA2*%
X103570000Y-137202000D02*
X100522000Y-137202000D01*
X103570000Y-129582000D02*
X100522000Y-129582000D01*
%TD*%
%TA.AperFunction,Conductor*%
%TO.N,GND*%
G36*
X130366364Y-120075185D02*
G01*
X130387007Y-120091820D01*
X130422861Y-120127675D01*
X130422865Y-120127678D01*
X130571657Y-120227098D01*
X130571661Y-120227100D01*
X130571664Y-120227102D01*
X130737000Y-120295587D01*
X130912516Y-120330499D01*
X130912520Y-120330500D01*
X130912521Y-120330500D01*
X131091480Y-120330500D01*
X131091481Y-120330499D01*
X131267000Y-120295587D01*
X131432336Y-120227102D01*
X131432343Y-120227096D01*
X131436046Y-120225119D01*
X131504449Y-120210877D01*
X131569693Y-120235877D01*
X131611064Y-120292182D01*
X131618500Y-120334477D01*
X131618500Y-161562522D01*
X131598815Y-161629561D01*
X131546011Y-161675316D01*
X131476853Y-161685260D01*
X131436056Y-161671885D01*
X131432342Y-161669900D01*
X131267000Y-161601413D01*
X131266992Y-161601411D01*
X131091483Y-161566500D01*
X131091479Y-161566500D01*
X130912521Y-161566500D01*
X130912516Y-161566500D01*
X130737007Y-161601411D01*
X130736999Y-161601413D01*
X130571667Y-161669896D01*
X130571657Y-161669901D01*
X130422865Y-161769321D01*
X130422861Y-161769324D01*
X130387007Y-161805180D01*
X130325685Y-161838666D01*
X130299325Y-161841500D01*
X114686676Y-161841500D01*
X114619637Y-161821815D01*
X114598995Y-161805181D01*
X114579138Y-161785324D01*
X114579134Y-161785321D01*
X114430342Y-161685901D01*
X114430332Y-161685896D01*
X114265000Y-161617413D01*
X114264992Y-161617411D01*
X114156769Y-161595884D01*
X114094858Y-161563499D01*
X114060284Y-161502784D01*
X114064023Y-161433014D01*
X114104890Y-161376342D01*
X114142643Y-161356336D01*
X114251477Y-161320974D01*
X114251483Y-161320972D01*
X114266942Y-161313095D01*
X114442009Y-161223894D01*
X114615004Y-161098206D01*
X114766206Y-160947004D01*
X114891894Y-160774009D01*
X114891896Y-160774004D01*
X114894270Y-160770132D01*
X114946080Y-160723254D01*
X115015009Y-160711829D01*
X115079173Y-160739483D01*
X115105730Y-160770132D01*
X115108103Y-160774005D01*
X115108105Y-160774008D01*
X115108106Y-160774009D01*
X115233794Y-160947004D01*
X115384996Y-161098206D01*
X115557991Y-161223894D01*
X115651438Y-161271507D01*
X115748516Y-161320972D01*
X115748519Y-161320973D01*
X115850200Y-161354010D01*
X115951884Y-161387049D01*
X116163084Y-161420500D01*
X116163085Y-161420500D01*
X116376915Y-161420500D01*
X116376916Y-161420500D01*
X116588116Y-161387049D01*
X116791483Y-161320972D01*
X116982009Y-161223894D01*
X117155004Y-161098206D01*
X117306206Y-160947004D01*
X117431894Y-160774009D01*
X117431896Y-160774004D01*
X117434270Y-160770132D01*
X117486080Y-160723254D01*
X117555009Y-160711829D01*
X117619173Y-160739483D01*
X117645730Y-160770132D01*
X117648103Y-160774005D01*
X117648105Y-160774008D01*
X117648106Y-160774009D01*
X117773794Y-160947004D01*
X117924996Y-161098206D01*
X118097991Y-161223894D01*
X118191438Y-161271507D01*
X118288516Y-161320972D01*
X118288519Y-161320973D01*
X118390200Y-161354010D01*
X118491884Y-161387049D01*
X118703084Y-161420500D01*
X118703085Y-161420500D01*
X118916915Y-161420500D01*
X118916916Y-161420500D01*
X119128116Y-161387049D01*
X119331483Y-161320972D01*
X119522009Y-161223894D01*
X119695004Y-161098206D01*
X119800184Y-160993025D01*
X119861503Y-160959543D01*
X119931195Y-160964527D01*
X119987129Y-161006398D01*
X120004043Y-161037375D01*
X120049110Y-161158203D01*
X120049111Y-161158204D01*
X120136739Y-161275261D01*
X120253796Y-161362889D01*
X120390799Y-161413989D01*
X120418050Y-161416918D01*
X120451345Y-161420499D01*
X120451362Y-161420500D01*
X122248638Y-161420500D01*
X122248654Y-161420499D01*
X122275692Y-161417591D01*
X122309201Y-161413989D01*
X122446204Y-161362889D01*
X122563261Y-161275261D01*
X122650889Y-161158204D01*
X122701989Y-161021201D01*
X122705591Y-160987692D01*
X122708499Y-160960654D01*
X122708500Y-160960637D01*
X122708500Y-159163362D01*
X122708499Y-159163345D01*
X122705018Y-159130971D01*
X122701989Y-159102799D01*
X122695956Y-159086625D01*
X122673267Y-159025794D01*
X122650889Y-158965796D01*
X122563261Y-158848739D01*
X122446204Y-158761111D01*
X122309203Y-158710011D01*
X122248654Y-158703500D01*
X122248638Y-158703500D01*
X120451362Y-158703500D01*
X120451345Y-158703500D01*
X120390797Y-158710011D01*
X120390795Y-158710011D01*
X120253795Y-158761111D01*
X120136739Y-158848739D01*
X120049111Y-158965795D01*
X120004043Y-159086625D01*
X119962171Y-159142558D01*
X119896707Y-159166974D01*
X119828434Y-159152122D01*
X119800181Y-159130971D01*
X119695006Y-159025796D01*
X119695004Y-159025794D01*
X119522009Y-158900106D01*
X119331483Y-158803027D01*
X119331480Y-158803026D01*
X119128117Y-158736951D01*
X119022516Y-158720225D01*
X118916916Y-158703500D01*
X118703084Y-158703500D01*
X118632684Y-158714650D01*
X118491882Y-158736951D01*
X118288519Y-158803026D01*
X118288516Y-158803027D01*
X118097990Y-158900106D01*
X117924993Y-159025796D01*
X117773796Y-159176993D01*
X117648105Y-159349991D01*
X117645727Y-159353873D01*
X117593914Y-159400748D01*
X117524984Y-159412169D01*
X117460822Y-159384512D01*
X117434273Y-159353873D01*
X117431894Y-159349991D01*
X117395778Y-159300282D01*
X117306206Y-159176996D01*
X117155004Y-159025794D01*
X116982009Y-158900106D01*
X116791483Y-158803027D01*
X116791480Y-158803026D01*
X116588117Y-158736951D01*
X116482516Y-158720225D01*
X116376916Y-158703500D01*
X116163084Y-158703500D01*
X116092684Y-158714650D01*
X115951882Y-158736951D01*
X115748519Y-158803026D01*
X115748516Y-158803027D01*
X115557990Y-158900106D01*
X115384993Y-159025796D01*
X115233796Y-159176993D01*
X115108105Y-159349991D01*
X115105727Y-159353873D01*
X115053914Y-159400748D01*
X114984984Y-159412169D01*
X114920822Y-159384512D01*
X114894273Y-159353873D01*
X114891894Y-159349991D01*
X114855778Y-159300282D01*
X114766206Y-159176996D01*
X114615004Y-159025794D01*
X114442009Y-158900106D01*
X114251483Y-158803027D01*
X114251480Y-158803026D01*
X114048117Y-158736951D01*
X113942516Y-158720225D01*
X113836916Y-158703500D01*
X113623084Y-158703500D01*
X113552684Y-158714650D01*
X113411882Y-158736951D01*
X113208519Y-158803026D01*
X113208516Y-158803027D01*
X113017990Y-158900106D01*
X112844993Y-159025796D01*
X112693796Y-159176993D01*
X112568105Y-159349991D01*
X112565727Y-159353873D01*
X112513914Y-159400748D01*
X112444984Y-159412169D01*
X112380822Y-159384512D01*
X112354273Y-159353873D01*
X112351894Y-159349991D01*
X112315778Y-159300282D01*
X112226206Y-159176996D01*
X112075004Y-159025794D01*
X111902009Y-158900106D01*
X111711483Y-158803027D01*
X111711480Y-158803026D01*
X111508117Y-158736951D01*
X111402516Y-158720225D01*
X111296916Y-158703500D01*
X111083084Y-158703500D01*
X111012684Y-158714650D01*
X110871882Y-158736951D01*
X110668519Y-158803026D01*
X110668516Y-158803027D01*
X110477990Y-158900106D01*
X110304993Y-159025796D01*
X110153796Y-159176993D01*
X110028103Y-159349994D01*
X110025709Y-159354693D01*
X109977731Y-159405485D01*
X109909908Y-159422275D01*
X109843775Y-159399732D01*
X109807804Y-159358215D01*
X109807171Y-159358604D01*
X109804826Y-159354778D01*
X109804743Y-159354682D01*
X109804624Y-159354449D01*
X109765270Y-159300282D01*
X109765269Y-159300282D01*
X109132962Y-159932590D01*
X109115925Y-159869007D01*
X109050099Y-159754993D01*
X108957007Y-159661901D01*
X108842993Y-159596075D01*
X108779409Y-159579037D01*
X109411716Y-158946728D01*
X109357550Y-158907375D01*
X109168217Y-158810904D01*
X108966129Y-158745242D01*
X108756246Y-158712000D01*
X108543754Y-158712000D01*
X108333872Y-158745242D01*
X108333869Y-158745242D01*
X108131782Y-158810904D01*
X107942439Y-158907380D01*
X107888282Y-158946727D01*
X107888282Y-158946728D01*
X108520591Y-159579037D01*
X108457007Y-159596075D01*
X108342993Y-159661901D01*
X108249901Y-159754993D01*
X108184075Y-159869007D01*
X108167037Y-159932591D01*
X107534728Y-159300282D01*
X107534727Y-159300282D01*
X107495380Y-159354439D01*
X107398904Y-159543782D01*
X107333242Y-159745869D01*
X107333242Y-159745872D01*
X107300000Y-159955753D01*
X107300000Y-160168246D01*
X107333242Y-160378127D01*
X107333242Y-160378130D01*
X107398904Y-160580217D01*
X107495375Y-160769550D01*
X107534728Y-160823716D01*
X108167037Y-160191408D01*
X108184075Y-160254993D01*
X108249901Y-160369007D01*
X108342993Y-160462099D01*
X108457007Y-160527925D01*
X108520590Y-160544962D01*
X107888282Y-161177269D01*
X107888282Y-161177270D01*
X107942449Y-161216624D01*
X108131782Y-161313095D01*
X108333870Y-161378757D01*
X108543754Y-161412000D01*
X108756246Y-161412000D01*
X108966127Y-161378757D01*
X108966130Y-161378757D01*
X109168217Y-161313095D01*
X109357554Y-161216622D01*
X109411716Y-161177270D01*
X109411717Y-161177270D01*
X108779408Y-160544962D01*
X108842993Y-160527925D01*
X108957007Y-160462099D01*
X109050099Y-160369007D01*
X109115925Y-160254993D01*
X109132962Y-160191409D01*
X109765270Y-160823717D01*
X109765270Y-160823716D01*
X109804621Y-160769556D01*
X109804738Y-160769327D01*
X109804808Y-160769252D01*
X109807168Y-160765402D01*
X109807976Y-160765897D01*
X109852707Y-160718526D01*
X109920526Y-160701723D01*
X109986663Y-160724254D01*
X110025712Y-160769311D01*
X110028103Y-160774005D01*
X110028106Y-160774009D01*
X110153794Y-160947004D01*
X110304996Y-161098206D01*
X110477991Y-161223894D01*
X110571438Y-161271507D01*
X110668516Y-161320972D01*
X110668519Y-161320973D01*
X110770200Y-161354010D01*
X110871884Y-161387049D01*
X111083084Y-161420500D01*
X111083085Y-161420500D01*
X111296915Y-161420500D01*
X111296916Y-161420500D01*
X111508116Y-161387049D01*
X111711483Y-161320972D01*
X111902009Y-161223894D01*
X112075004Y-161098206D01*
X112226206Y-160947004D01*
X112351894Y-160774009D01*
X112351896Y-160774004D01*
X112354270Y-160770132D01*
X112406080Y-160723254D01*
X112475009Y-160711829D01*
X112539173Y-160739483D01*
X112565730Y-160770132D01*
X112568103Y-160774005D01*
X112568105Y-160774008D01*
X112568106Y-160774009D01*
X112693794Y-160947004D01*
X112844996Y-161098206D01*
X113017991Y-161223894D01*
X113111438Y-161271507D01*
X113208516Y-161320972D01*
X113208519Y-161320973D01*
X113310200Y-161354010D01*
X113411884Y-161387049D01*
X113613681Y-161419010D01*
X113676814Y-161448939D01*
X113713746Y-161508250D01*
X113712748Y-161578113D01*
X113674139Y-161636346D01*
X113641736Y-161656044D01*
X113569664Y-161685898D01*
X113569657Y-161685901D01*
X113420865Y-161785321D01*
X113420861Y-161785324D01*
X113385007Y-161821180D01*
X113323685Y-161854666D01*
X113297325Y-161857500D01*
X106315365Y-161857500D01*
X106248326Y-161837815D01*
X106202571Y-161785011D01*
X106192627Y-161715853D01*
X106221652Y-161652297D01*
X106242480Y-161633181D01*
X106262285Y-161618792D01*
X106396792Y-161484285D01*
X106508602Y-161330392D01*
X106594961Y-161160903D01*
X106653743Y-160979991D01*
X106658968Y-160947004D01*
X106683500Y-160792116D01*
X106683500Y-160601883D01*
X106653743Y-160414008D01*
X106594959Y-160233092D01*
X106561918Y-160168246D01*
X106508602Y-160063608D01*
X106505481Y-160059312D01*
X106479658Y-160023769D01*
X106479656Y-160023767D01*
X106455106Y-159989977D01*
X106396792Y-159909715D01*
X106262285Y-159775208D01*
X106108392Y-159663398D01*
X106105454Y-159661901D01*
X105938907Y-159577040D01*
X105757991Y-159518256D01*
X105570116Y-159488500D01*
X105570111Y-159488500D01*
X105379889Y-159488500D01*
X105379884Y-159488500D01*
X105192008Y-159518256D01*
X105011092Y-159577040D01*
X104841607Y-159663398D01*
X104779605Y-159708446D01*
X104687715Y-159775208D01*
X104687713Y-159775210D01*
X104687712Y-159775210D01*
X104553210Y-159909712D01*
X104553210Y-159909713D01*
X104553208Y-159909715D01*
X104505189Y-159975806D01*
X104441398Y-160063607D01*
X104355040Y-160233092D01*
X104322931Y-160331915D01*
X104283493Y-160389590D01*
X104219134Y-160416788D01*
X104150288Y-160404873D01*
X104098812Y-160357629D01*
X104087069Y-160331915D01*
X104054959Y-160233092D01*
X103968601Y-160063607D01*
X103967434Y-160062001D01*
X103856792Y-159909715D01*
X103722285Y-159775208D01*
X103568392Y-159663398D01*
X103565454Y-159661901D01*
X103398907Y-159577040D01*
X103217991Y-159518256D01*
X103030116Y-159488500D01*
X103030111Y-159488500D01*
X102839889Y-159488500D01*
X102839884Y-159488500D01*
X102652008Y-159518256D01*
X102471092Y-159577040D01*
X102301607Y-159663398D01*
X102239605Y-159708446D01*
X102147715Y-159775208D01*
X102147713Y-159775210D01*
X102147712Y-159775210D01*
X102013210Y-159909712D01*
X102013210Y-159909713D01*
X102013208Y-159909715D01*
X101965189Y-159975806D01*
X101901398Y-160063607D01*
X101815040Y-160233092D01*
X101756256Y-160414008D01*
X101726500Y-160601883D01*
X101726500Y-160792116D01*
X101756256Y-160979991D01*
X101815040Y-161160907D01*
X101873307Y-161275261D01*
X101901398Y-161330392D01*
X102013208Y-161484285D01*
X102147715Y-161618792D01*
X102301608Y-161730602D01*
X102377598Y-161769321D01*
X102471092Y-161816959D01*
X102471094Y-161816959D01*
X102471097Y-161816961D01*
X102535279Y-161837815D01*
X102652008Y-161875743D01*
X102839884Y-161905500D01*
X102839889Y-161905500D01*
X103030109Y-161905500D01*
X103030111Y-161905500D01*
X103155458Y-161885646D01*
X103224747Y-161894600D01*
X103262534Y-161920438D01*
X104236929Y-162894833D01*
X104325167Y-162983071D01*
X104325168Y-162983072D01*
X104428918Y-163052396D01*
X104428924Y-163052399D01*
X104428925Y-163052400D01*
X104544215Y-163100155D01*
X104666601Y-163124499D01*
X104666605Y-163124500D01*
X104666606Y-163124500D01*
X105523606Y-163124500D01*
X105523607Y-163124500D01*
X105648394Y-163124500D01*
X106932233Y-163124500D01*
X106999272Y-163144185D01*
X107045027Y-163196989D01*
X107054971Y-163266147D01*
X107025946Y-163329703D01*
X107019914Y-163336181D01*
X103262534Y-167093560D01*
X103201211Y-167127045D01*
X103155455Y-167128352D01*
X103030116Y-167108500D01*
X103030111Y-167108500D01*
X102839889Y-167108500D01*
X102839884Y-167108500D01*
X102652008Y-167138256D01*
X102471092Y-167197040D01*
X102301607Y-167283398D01*
X102234362Y-167332255D01*
X102147715Y-167395208D01*
X102147713Y-167395210D01*
X102147712Y-167395210D01*
X102013210Y-167529712D01*
X102013210Y-167529713D01*
X102013208Y-167529715D01*
X101965189Y-167595806D01*
X101901398Y-167683607D01*
X101815040Y-167853092D01*
X101756256Y-168034008D01*
X101726500Y-168221883D01*
X101726500Y-168412116D01*
X101756256Y-168599991D01*
X101815040Y-168780907D01*
X101901398Y-168950392D01*
X102013208Y-169104285D01*
X102147715Y-169238792D01*
X102301608Y-169350602D01*
X102381683Y-169391402D01*
X102471092Y-169436959D01*
X102471094Y-169436959D01*
X102471097Y-169436961D01*
X102568070Y-169468469D01*
X102652008Y-169495743D01*
X102839884Y-169525500D01*
X102839889Y-169525500D01*
X103030116Y-169525500D01*
X103217991Y-169495743D01*
X103238648Y-169489031D01*
X103398903Y-169436961D01*
X103568392Y-169350602D01*
X103722285Y-169238792D01*
X103856792Y-169104285D01*
X103968602Y-168950392D01*
X104054961Y-168780903D01*
X104087069Y-168682083D01*
X104126507Y-168624409D01*
X104190866Y-168597211D01*
X104259712Y-168609126D01*
X104311188Y-168656370D01*
X104322929Y-168682081D01*
X104325945Y-168691360D01*
X104355040Y-168780907D01*
X104441398Y-168950392D01*
X104553208Y-169104285D01*
X104687715Y-169238792D01*
X104841608Y-169350602D01*
X104921683Y-169391402D01*
X105011092Y-169436959D01*
X105011094Y-169436959D01*
X105011097Y-169436961D01*
X105108070Y-169468469D01*
X105192008Y-169495743D01*
X105379884Y-169525500D01*
X105379889Y-169525500D01*
X105570116Y-169525500D01*
X105757991Y-169495743D01*
X105778648Y-169489031D01*
X105938903Y-169436961D01*
X106108392Y-169350602D01*
X106262285Y-169238792D01*
X106396792Y-169104285D01*
X106508602Y-168950392D01*
X106594961Y-168780903D01*
X106653743Y-168599991D01*
X106654183Y-168597211D01*
X106683500Y-168412116D01*
X106683500Y-168221891D01*
X106683499Y-168221883D01*
X106663646Y-168096540D01*
X106672600Y-168027250D01*
X106698435Y-167989467D01*
X108260891Y-166427013D01*
X110900000Y-166427013D01*
X110900000Y-166852000D01*
X111719670Y-166852000D01*
X111699925Y-166871745D01*
X111650556Y-166957255D01*
X111625000Y-167052630D01*
X111625000Y-167151370D01*
X111650556Y-167246745D01*
X111699925Y-167332255D01*
X111719670Y-167352000D01*
X110900001Y-167352000D01*
X110900001Y-167776986D01*
X110910494Y-167879697D01*
X110965641Y-168046119D01*
X110965643Y-168046124D01*
X111057684Y-168195345D01*
X111181654Y-168319315D01*
X111330875Y-168411356D01*
X111330880Y-168411358D01*
X111497302Y-168466505D01*
X111497309Y-168466506D01*
X111600019Y-168476999D01*
X111749999Y-168476999D01*
X111750000Y-168476998D01*
X111750000Y-167382330D01*
X111769745Y-167402075D01*
X111855255Y-167451444D01*
X111950630Y-167477000D01*
X112049370Y-167477000D01*
X112144745Y-167451444D01*
X112230255Y-167402075D01*
X112250000Y-167382330D01*
X112250000Y-168476999D01*
X112399972Y-168476999D01*
X112399986Y-168476998D01*
X112502697Y-168466505D01*
X112669119Y-168411358D01*
X112669124Y-168411356D01*
X112818345Y-168319315D01*
X112942317Y-168195343D01*
X112977630Y-168138091D01*
X113029577Y-168091366D01*
X113098539Y-168080143D01*
X113162622Y-168107986D01*
X113170850Y-168115506D01*
X113277862Y-168222518D01*
X113277867Y-168222522D01*
X113355902Y-168279217D01*
X113419019Y-168325074D01*
X113520646Y-168376856D01*
X113574483Y-168404288D01*
X113574486Y-168404289D01*
X113598576Y-168412116D01*
X113740426Y-168458205D01*
X113912759Y-168485500D01*
X113912760Y-168485500D01*
X114087240Y-168485500D01*
X114087241Y-168485500D01*
X114259574Y-168458205D01*
X114425516Y-168404288D01*
X114580981Y-168325074D01*
X114722139Y-168222517D01*
X114845517Y-168099139D01*
X114884035Y-168046124D01*
X114899682Y-168024588D01*
X114955011Y-167981922D01*
X115024625Y-167975943D01*
X115086420Y-168008548D01*
X115100318Y-168024588D01*
X115154477Y-168099132D01*
X115154481Y-168099137D01*
X115277862Y-168222518D01*
X115277867Y-168222522D01*
X115355902Y-168279217D01*
X115419019Y-168325074D01*
X115520646Y-168376856D01*
X115574483Y-168404288D01*
X115574486Y-168404289D01*
X115598576Y-168412116D01*
X115740426Y-168458205D01*
X115912759Y-168485500D01*
X115912760Y-168485500D01*
X116087240Y-168485500D01*
X116087241Y-168485500D01*
X116259574Y-168458205D01*
X116425516Y-168404288D01*
X116580981Y-168325074D01*
X116722139Y-168222517D01*
X116845517Y-168099139D01*
X116884035Y-168046124D01*
X116899682Y-168024588D01*
X116955011Y-167981922D01*
X117024625Y-167975943D01*
X117086420Y-168008548D01*
X117100318Y-168024588D01*
X117154477Y-168099132D01*
X117154481Y-168099137D01*
X117277862Y-168222518D01*
X117277867Y-168222522D01*
X117355902Y-168279217D01*
X117419019Y-168325074D01*
X117520646Y-168376856D01*
X117574483Y-168404288D01*
X117574486Y-168404289D01*
X117598576Y-168412116D01*
X117740426Y-168458205D01*
X117912759Y-168485500D01*
X117912760Y-168485500D01*
X118087240Y-168485500D01*
X118087241Y-168485500D01*
X118259574Y-168458205D01*
X118425516Y-168404288D01*
X118580981Y-168325074D01*
X118722139Y-168222517D01*
X118845517Y-168099139D01*
X118948074Y-167957981D01*
X119027288Y-167802516D01*
X119081205Y-167636574D01*
X119108500Y-167464241D01*
X119108500Y-166739759D01*
X119081205Y-166567426D01*
X119027288Y-166401484D01*
X119027288Y-166401483D01*
X118987961Y-166324302D01*
X118948074Y-166246019D01*
X118911334Y-166195450D01*
X118845522Y-166104867D01*
X118845518Y-166104862D01*
X118722137Y-165981481D01*
X118722132Y-165981477D01*
X118580984Y-165878928D01*
X118580983Y-165878927D01*
X118580981Y-165878926D01*
X118531175Y-165853548D01*
X118425516Y-165799711D01*
X118425513Y-165799710D01*
X118259575Y-165745795D01*
X118140914Y-165727001D01*
X118087241Y-165718500D01*
X117912759Y-165718500D01*
X117859092Y-165727000D01*
X117740424Y-165745795D01*
X117574486Y-165799710D01*
X117574483Y-165799711D01*
X117419015Y-165878928D01*
X117277867Y-165981477D01*
X117277862Y-165981481D01*
X117154481Y-166104862D01*
X117100318Y-166179412D01*
X117044988Y-166222077D01*
X116975375Y-166228056D01*
X116913580Y-166195450D01*
X116899682Y-166179412D01*
X116845518Y-166104862D01*
X116722137Y-165981481D01*
X116722132Y-165981477D01*
X116580984Y-165878928D01*
X116580983Y-165878927D01*
X116580981Y-165878926D01*
X116531175Y-165853548D01*
X116425516Y-165799711D01*
X116425513Y-165799710D01*
X116259575Y-165745795D01*
X116140914Y-165727001D01*
X116087241Y-165718500D01*
X115912759Y-165718500D01*
X115859092Y-165727000D01*
X115740424Y-165745795D01*
X115574486Y-165799710D01*
X115574483Y-165799711D01*
X115419015Y-165878928D01*
X115277867Y-165981477D01*
X115277862Y-165981481D01*
X115154481Y-166104862D01*
X115100318Y-166179412D01*
X115044988Y-166222077D01*
X114975375Y-166228056D01*
X114913580Y-166195450D01*
X114899682Y-166179412D01*
X114845518Y-166104862D01*
X114722137Y-165981481D01*
X114722132Y-165981477D01*
X114580984Y-165878928D01*
X114580983Y-165878927D01*
X114580981Y-165878926D01*
X114531175Y-165853548D01*
X114425516Y-165799711D01*
X114425513Y-165799710D01*
X114259575Y-165745795D01*
X114140914Y-165727001D01*
X114087241Y-165718500D01*
X113912759Y-165718500D01*
X113859092Y-165727000D01*
X113740424Y-165745795D01*
X113574486Y-165799710D01*
X113574483Y-165799711D01*
X113419015Y-165878928D01*
X113277868Y-165981476D01*
X113170850Y-166088494D01*
X113109527Y-166121978D01*
X113039835Y-166116994D01*
X112983902Y-166075122D01*
X112977630Y-166065908D01*
X112942317Y-166008656D01*
X112818345Y-165884684D01*
X112669124Y-165792643D01*
X112669119Y-165792641D01*
X112502697Y-165737494D01*
X112502690Y-165737493D01*
X112399986Y-165727000D01*
X112250000Y-165727000D01*
X112250000Y-166821670D01*
X112230255Y-166801925D01*
X112144745Y-166752556D01*
X112049370Y-166727000D01*
X111950630Y-166727000D01*
X111855255Y-166752556D01*
X111769745Y-166801925D01*
X111750000Y-166821670D01*
X111750000Y-165727000D01*
X111600027Y-165727000D01*
X111600012Y-165727001D01*
X111497302Y-165737494D01*
X111330880Y-165792641D01*
X111330875Y-165792643D01*
X111181654Y-165884684D01*
X111057684Y-166008654D01*
X110965643Y-166157875D01*
X110965641Y-166157880D01*
X110910494Y-166324302D01*
X110910493Y-166324309D01*
X110900000Y-166427013D01*
X108260891Y-166427013D01*
X109749086Y-164938819D01*
X109810409Y-164905334D01*
X109836767Y-164902500D01*
X115297325Y-164902500D01*
X115364364Y-164922185D01*
X115385007Y-164938820D01*
X115420861Y-164974675D01*
X115420865Y-164974678D01*
X115569657Y-165074098D01*
X115569661Y-165074100D01*
X115569664Y-165074102D01*
X115735000Y-165142587D01*
X115910516Y-165177499D01*
X115910520Y-165177500D01*
X115910521Y-165177500D01*
X116089480Y-165177500D01*
X116089481Y-165177499D01*
X116265000Y-165142587D01*
X116430336Y-165074102D01*
X116579135Y-164974678D01*
X116630993Y-164922820D01*
X116692316Y-164889334D01*
X116718675Y-164886500D01*
X128775325Y-164886500D01*
X128842364Y-164906185D01*
X128863007Y-164922820D01*
X128898861Y-164958675D01*
X128898865Y-164958678D01*
X129047657Y-165058098D01*
X129047661Y-165058100D01*
X129047664Y-165058102D01*
X129213000Y-165126587D01*
X129388516Y-165161499D01*
X129388520Y-165161500D01*
X129388521Y-165161500D01*
X129567480Y-165161500D01*
X129567481Y-165161499D01*
X129743000Y-165126587D01*
X129908336Y-165058102D01*
X130057135Y-164958678D01*
X130183678Y-164832135D01*
X130283102Y-164683336D01*
X130351587Y-164518000D01*
X130386500Y-164342479D01*
X130386500Y-164342478D01*
X130387178Y-164339070D01*
X130419562Y-164277159D01*
X130480278Y-164242585D01*
X130484571Y-164241650D01*
X130505000Y-164237587D01*
X130670336Y-164169102D01*
X130819135Y-164069678D01*
X130945678Y-163943135D01*
X131045102Y-163794336D01*
X131113587Y-163629000D01*
X131148500Y-163453479D01*
X131148500Y-163453478D01*
X131149178Y-163450070D01*
X131181562Y-163388159D01*
X131225947Y-163358655D01*
X131236010Y-163354750D01*
X131267000Y-163348587D01*
X131432336Y-163280102D01*
X131437736Y-163276493D01*
X131449652Y-163271871D01*
X131477293Y-163269530D01*
X131504449Y-163263877D01*
X131511620Y-163266624D01*
X131519273Y-163265977D01*
X131543790Y-163278951D01*
X131569693Y-163288877D01*
X131574240Y-163295066D01*
X131581028Y-163298658D01*
X131594637Y-163322826D01*
X131611064Y-163345182D01*
X131612805Y-163355089D01*
X131615311Y-163359538D01*
X131614881Y-163366894D01*
X131618500Y-163387477D01*
X131618500Y-168098519D01*
X131618305Y-168105472D01*
X131602425Y-168388228D01*
X131600868Y-168402046D01*
X131554015Y-168677804D01*
X131550921Y-168691360D01*
X131473486Y-168960144D01*
X131468893Y-168973270D01*
X131361852Y-169231690D01*
X131355818Y-169244219D01*
X131220514Y-169489031D01*
X131213117Y-169500804D01*
X131051256Y-169728927D01*
X131042586Y-169739799D01*
X130856199Y-169948366D01*
X130846366Y-169958199D01*
X130637799Y-170144586D01*
X130626927Y-170153256D01*
X130398804Y-170315117D01*
X130387031Y-170322514D01*
X130142219Y-170457818D01*
X130129690Y-170463852D01*
X129871270Y-170570893D01*
X129858144Y-170575486D01*
X129589360Y-170652921D01*
X129575804Y-170656015D01*
X129300046Y-170702868D01*
X129286228Y-170704425D01*
X129003472Y-170720305D01*
X128996519Y-170720500D01*
X101003481Y-170720500D01*
X100996528Y-170720305D01*
X100713771Y-170704425D01*
X100699953Y-170702868D01*
X100424195Y-170656015D01*
X100410639Y-170652921D01*
X100141855Y-170575486D01*
X100128729Y-170570893D01*
X99870309Y-170463852D01*
X99857780Y-170457818D01*
X99612968Y-170322514D01*
X99601195Y-170315117D01*
X99373072Y-170153256D01*
X99362200Y-170144586D01*
X99153633Y-169958199D01*
X99143800Y-169948366D01*
X98957413Y-169739799D01*
X98948743Y-169728927D01*
X98786882Y-169500804D01*
X98779485Y-169489031D01*
X98644181Y-169244219D01*
X98638150Y-169231697D01*
X98531105Y-168973269D01*
X98526513Y-168960144D01*
X98449078Y-168691360D01*
X98445984Y-168677804D01*
X98399129Y-168402033D01*
X98397575Y-168388239D01*
X98381695Y-168105472D01*
X98381500Y-168098519D01*
X98381500Y-152719477D01*
X98401185Y-152652438D01*
X98453989Y-152606683D01*
X98523147Y-152596739D01*
X98563954Y-152610119D01*
X98567658Y-152612098D01*
X98567664Y-152612102D01*
X98733000Y-152680587D01*
X98779697Y-152689875D01*
X98841607Y-152722258D01*
X98876182Y-152782973D01*
X98877123Y-152787300D01*
X98886411Y-152833994D01*
X98886413Y-152834000D01*
X98954896Y-152999332D01*
X98954901Y-152999342D01*
X99054321Y-153148134D01*
X99054324Y-153148138D01*
X99180861Y-153274675D01*
X99180865Y-153274678D01*
X99329657Y-153374098D01*
X99329661Y-153374100D01*
X99329664Y-153374102D01*
X99495000Y-153442587D01*
X99670516Y-153477499D01*
X99670520Y-153477500D01*
X99670521Y-153477500D01*
X99849480Y-153477500D01*
X99849481Y-153477499D01*
X100025000Y-153442587D01*
X100190336Y-153374102D01*
X100339135Y-153274678D01*
X100374993Y-153238820D01*
X100436315Y-153205334D01*
X100462675Y-153202500D01*
X110487325Y-153202500D01*
X110554364Y-153222185D01*
X110575007Y-153238820D01*
X110610861Y-153274675D01*
X110610865Y-153274678D01*
X110759657Y-153374098D01*
X110759661Y-153374100D01*
X110759664Y-153374102D01*
X110925000Y-153442587D01*
X111100516Y-153477499D01*
X111100520Y-153477500D01*
X111100521Y-153477500D01*
X111279480Y-153477500D01*
X111279481Y-153477499D01*
X111455000Y-153442587D01*
X111620336Y-153374102D01*
X111769135Y-153274678D01*
X111895678Y-153148135D01*
X111995102Y-152999336D01*
X112063587Y-152834000D01*
X112098500Y-152658479D01*
X112098500Y-152564500D01*
X112118185Y-152497461D01*
X112170989Y-152451706D01*
X112222500Y-152440500D01*
X118107325Y-152440500D01*
X118174364Y-152460185D01*
X118195007Y-152476820D01*
X118230861Y-152512675D01*
X118230865Y-152512678D01*
X118379657Y-152612098D01*
X118379661Y-152612100D01*
X118379664Y-152612102D01*
X118545000Y-152680587D01*
X118672957Y-152706039D01*
X118720516Y-152715499D01*
X118720520Y-152715500D01*
X118720521Y-152715500D01*
X118899480Y-152715500D01*
X118899481Y-152715499D01*
X119075000Y-152680587D01*
X119240336Y-152612102D01*
X119389135Y-152512678D01*
X119515678Y-152386135D01*
X119615102Y-152237336D01*
X119683587Y-152072000D01*
X119718500Y-151896479D01*
X119718500Y-151717521D01*
X119683587Y-151542000D01*
X119615102Y-151376664D01*
X119615100Y-151376661D01*
X119615098Y-151376657D01*
X119512294Y-151222800D01*
X119513819Y-151221780D01*
X119489868Y-151165384D01*
X119501661Y-151096517D01*
X119540150Y-151050714D01*
X119607335Y-151001901D01*
X119695004Y-150938206D01*
X119800184Y-150833025D01*
X119861503Y-150799543D01*
X119931195Y-150804527D01*
X119987129Y-150846398D01*
X120004043Y-150877375D01*
X120049110Y-150998203D01*
X120064021Y-151018121D01*
X120136739Y-151115261D01*
X120253796Y-151202889D01*
X120390799Y-151253989D01*
X120418050Y-151256918D01*
X120451345Y-151260499D01*
X120451362Y-151260500D01*
X122248638Y-151260500D01*
X122248654Y-151260499D01*
X122275692Y-151257591D01*
X122309201Y-151253989D01*
X122446204Y-151202889D01*
X122563261Y-151115261D01*
X122650889Y-150998204D01*
X122695957Y-150877371D01*
X122737827Y-150821442D01*
X122803291Y-150797025D01*
X122871564Y-150811877D01*
X122899818Y-150833028D01*
X123004996Y-150938206D01*
X123177991Y-151063894D01*
X123271438Y-151111507D01*
X123368516Y-151160972D01*
X123368519Y-151160973D01*
X123470200Y-151194010D01*
X123571884Y-151227049D01*
X123783084Y-151260500D01*
X123783085Y-151260500D01*
X123996915Y-151260500D01*
X123996916Y-151260500D01*
X124208116Y-151227049D01*
X124411483Y-151160972D01*
X124602009Y-151063894D01*
X124775004Y-150938206D01*
X124880184Y-150833025D01*
X124941503Y-150799543D01*
X125011195Y-150804527D01*
X125067129Y-150846398D01*
X125084043Y-150877375D01*
X125129110Y-150998203D01*
X125144021Y-151018121D01*
X125216739Y-151115261D01*
X125333796Y-151202889D01*
X125470799Y-151253989D01*
X125498050Y-151256918D01*
X125531345Y-151260499D01*
X125531362Y-151260500D01*
X127328638Y-151260500D01*
X127328654Y-151260499D01*
X127355692Y-151257591D01*
X127389201Y-151253989D01*
X127526204Y-151202889D01*
X127643261Y-151115261D01*
X127730889Y-150998204D01*
X127781989Y-150861201D01*
X127785591Y-150827692D01*
X127788499Y-150800654D01*
X127788500Y-150800637D01*
X127788500Y-149003362D01*
X127788499Y-149003345D01*
X127783580Y-148957600D01*
X127781989Y-148942799D01*
X127775956Y-148926625D01*
X127753267Y-148865793D01*
X127730889Y-148805796D01*
X127643261Y-148688739D01*
X127526204Y-148601111D01*
X127526202Y-148601110D01*
X127526204Y-148601110D01*
X127405375Y-148556043D01*
X127349441Y-148514172D01*
X127325025Y-148448707D01*
X127339877Y-148380434D01*
X127361022Y-148352187D01*
X127466206Y-148247004D01*
X127591894Y-148074009D01*
X127688972Y-147883483D01*
X127755049Y-147680116D01*
X127788500Y-147468916D01*
X127788500Y-147255084D01*
X127755049Y-147043884D01*
X127688972Y-146840517D01*
X127688972Y-146840516D01*
X127635044Y-146734678D01*
X127591894Y-146649991D01*
X127466206Y-146476996D01*
X127315004Y-146325794D01*
X127142009Y-146200106D01*
X127142005Y-146200103D01*
X127138132Y-146197730D01*
X127091254Y-146145920D01*
X127079829Y-146076991D01*
X127107483Y-146012827D01*
X127138132Y-145986270D01*
X127142005Y-145983896D01*
X127142004Y-145983896D01*
X127142009Y-145983894D01*
X127315004Y-145858206D01*
X127466206Y-145707004D01*
X127591894Y-145534009D01*
X127688972Y-145343483D01*
X127755049Y-145140116D01*
X127788500Y-144928916D01*
X127788500Y-144715084D01*
X127755049Y-144503884D01*
X127688972Y-144300517D01*
X127688972Y-144300516D01*
X127607796Y-144141201D01*
X127591894Y-144109991D01*
X127466206Y-143936996D01*
X127315004Y-143785794D01*
X127142009Y-143660106D01*
X127142005Y-143660103D01*
X127138132Y-143657730D01*
X127091254Y-143605920D01*
X127079829Y-143536991D01*
X127107483Y-143472827D01*
X127138132Y-143446270D01*
X127142005Y-143443896D01*
X127142004Y-143443896D01*
X127142009Y-143443894D01*
X127315004Y-143318206D01*
X127466206Y-143167004D01*
X127591894Y-142994009D01*
X127688972Y-142803483D01*
X127755049Y-142600116D01*
X127788500Y-142388916D01*
X127788500Y-142175084D01*
X127755049Y-141963884D01*
X127688972Y-141760517D01*
X127688972Y-141760516D01*
X127607796Y-141601201D01*
X127591894Y-141569991D01*
X127466206Y-141396996D01*
X127315004Y-141245794D01*
X127142009Y-141120106D01*
X127142005Y-141120103D01*
X127138132Y-141117730D01*
X127091254Y-141065920D01*
X127079829Y-140996991D01*
X127107483Y-140932827D01*
X127138132Y-140906270D01*
X127142005Y-140903896D01*
X127142004Y-140903896D01*
X127142009Y-140903894D01*
X127315004Y-140778206D01*
X127466206Y-140627004D01*
X127591894Y-140454009D01*
X127688972Y-140263483D01*
X127755049Y-140060116D01*
X127788500Y-139848916D01*
X127788500Y-139635084D01*
X127755049Y-139423884D01*
X127714306Y-139298489D01*
X127688973Y-139220519D01*
X127688972Y-139220516D01*
X127621866Y-139088815D01*
X127591894Y-139029991D01*
X127466206Y-138856996D01*
X127315004Y-138705794D01*
X127142009Y-138580106D01*
X127142005Y-138580103D01*
X127138132Y-138577730D01*
X127091254Y-138525920D01*
X127079829Y-138456991D01*
X127107483Y-138392827D01*
X127138132Y-138366270D01*
X127142005Y-138363896D01*
X127142004Y-138363896D01*
X127142009Y-138363894D01*
X127315004Y-138238206D01*
X127466206Y-138087004D01*
X127591894Y-137914009D01*
X127688972Y-137723483D01*
X127755049Y-137520116D01*
X127788500Y-137308916D01*
X127788500Y-137095084D01*
X127755049Y-136883884D01*
X127711602Y-136750167D01*
X127688973Y-136680519D01*
X127688972Y-136680516D01*
X127619067Y-136543321D01*
X127591894Y-136489991D01*
X127466206Y-136316996D01*
X127315004Y-136165794D01*
X127142009Y-136040106D01*
X127142005Y-136040103D01*
X127138132Y-136037730D01*
X127091254Y-135985920D01*
X127079829Y-135916991D01*
X127107483Y-135852827D01*
X127138132Y-135826270D01*
X127142005Y-135823896D01*
X127142004Y-135823896D01*
X127142009Y-135823894D01*
X127315004Y-135698206D01*
X127466206Y-135547004D01*
X127591894Y-135374009D01*
X127688972Y-135183483D01*
X127755049Y-134980116D01*
X127788500Y-134768916D01*
X127788500Y-134555084D01*
X127755049Y-134343884D01*
X127688972Y-134140517D01*
X127688972Y-134140516D01*
X127607796Y-133981201D01*
X127591894Y-133949991D01*
X127466206Y-133776996D01*
X127315004Y-133625794D01*
X127142009Y-133500106D01*
X127142005Y-133500103D01*
X127138132Y-133497730D01*
X127091254Y-133445920D01*
X127079829Y-133376991D01*
X127107483Y-133312827D01*
X127138132Y-133286270D01*
X127142005Y-133283896D01*
X127142004Y-133283896D01*
X127142009Y-133283894D01*
X127315004Y-133158206D01*
X127466206Y-133007004D01*
X127591894Y-132834009D01*
X127688972Y-132643483D01*
X127755049Y-132440116D01*
X127788500Y-132228916D01*
X127788500Y-132015084D01*
X127755049Y-131803884D01*
X127688972Y-131600517D01*
X127688972Y-131600516D01*
X127607796Y-131441201D01*
X127591894Y-131409991D01*
X127466206Y-131236996D01*
X127315004Y-131085794D01*
X127142009Y-130960106D01*
X127142005Y-130960103D01*
X127138132Y-130957730D01*
X127091254Y-130905920D01*
X127079829Y-130836991D01*
X127107483Y-130772827D01*
X127138132Y-130746270D01*
X127142005Y-130743896D01*
X127142004Y-130743896D01*
X127142009Y-130743894D01*
X127315004Y-130618206D01*
X127466206Y-130467004D01*
X127591894Y-130294009D01*
X127597398Y-130283205D01*
X127645371Y-130232410D01*
X127707883Y-130215500D01*
X128013325Y-130215500D01*
X128080364Y-130235185D01*
X128101007Y-130251820D01*
X128136861Y-130287675D01*
X128136865Y-130287678D01*
X128285657Y-130387098D01*
X128285661Y-130387100D01*
X128285664Y-130387102D01*
X128451000Y-130455587D01*
X128626516Y-130490499D01*
X128626520Y-130490500D01*
X128626521Y-130490500D01*
X128805480Y-130490500D01*
X128805481Y-130490499D01*
X128981000Y-130455587D01*
X129146336Y-130387102D01*
X129295135Y-130287678D01*
X129421678Y-130161135D01*
X129521102Y-130012336D01*
X129589587Y-129847000D01*
X129624500Y-129671479D01*
X129624500Y-129492521D01*
X129589587Y-129317000D01*
X129521102Y-129151664D01*
X129521100Y-129151661D01*
X129521098Y-129151657D01*
X129421678Y-129002865D01*
X129421675Y-129002861D01*
X129295138Y-128876324D01*
X129295134Y-128876321D01*
X129146342Y-128776901D01*
X129146332Y-128776896D01*
X128981000Y-128708413D01*
X128980992Y-128708411D01*
X128805483Y-128673500D01*
X128805479Y-128673500D01*
X128626521Y-128673500D01*
X128626516Y-128673500D01*
X128451007Y-128708411D01*
X128450999Y-128708413D01*
X128285667Y-128776896D01*
X128285657Y-128776901D01*
X128136865Y-128876321D01*
X128136861Y-128876324D01*
X128101007Y-128912180D01*
X128039685Y-128945666D01*
X128013325Y-128948500D01*
X127707883Y-128948500D01*
X127640844Y-128928815D01*
X127597398Y-128880795D01*
X127591894Y-128869991D01*
X127466206Y-128696996D01*
X127315004Y-128545794D01*
X127142009Y-128420106D01*
X127142005Y-128420103D01*
X127138132Y-128417730D01*
X127091254Y-128365920D01*
X127079829Y-128296991D01*
X127107483Y-128232827D01*
X127138132Y-128206270D01*
X127142005Y-128203896D01*
X127142004Y-128203896D01*
X127142009Y-128203894D01*
X127315004Y-128078206D01*
X127466206Y-127927004D01*
X127591894Y-127754009D01*
X127597398Y-127743205D01*
X127645371Y-127692410D01*
X127707883Y-127675500D01*
X128775325Y-127675500D01*
X128842364Y-127695185D01*
X128863007Y-127711820D01*
X128898861Y-127747675D01*
X128898865Y-127747678D01*
X129047657Y-127847098D01*
X129047661Y-127847100D01*
X129047664Y-127847102D01*
X129213000Y-127915587D01*
X129388516Y-127950499D01*
X129388520Y-127950500D01*
X129388521Y-127950500D01*
X129567480Y-127950500D01*
X129567481Y-127950499D01*
X129743000Y-127915587D01*
X129908336Y-127847102D01*
X130057135Y-127747678D01*
X130183678Y-127621135D01*
X130283102Y-127472336D01*
X130351587Y-127307000D01*
X130386500Y-127131479D01*
X130386500Y-126952521D01*
X130351587Y-126777000D01*
X130283102Y-126611664D01*
X130283100Y-126611661D01*
X130283098Y-126611657D01*
X130183678Y-126462865D01*
X130183675Y-126462861D01*
X130057138Y-126336324D01*
X130057134Y-126336321D01*
X129908342Y-126236901D01*
X129908332Y-126236896D01*
X129743000Y-126168413D01*
X129742992Y-126168411D01*
X129567483Y-126133500D01*
X129567479Y-126133500D01*
X129388521Y-126133500D01*
X129388516Y-126133500D01*
X129213007Y-126168411D01*
X129212999Y-126168413D01*
X129047667Y-126236896D01*
X129047657Y-126236901D01*
X128898865Y-126336321D01*
X128898861Y-126336324D01*
X128863007Y-126372180D01*
X128801685Y-126405666D01*
X128775325Y-126408500D01*
X127707883Y-126408500D01*
X127640844Y-126388815D01*
X127597398Y-126340795D01*
X127591894Y-126329991D01*
X127466206Y-126156996D01*
X127315004Y-126005794D01*
X127142009Y-125880106D01*
X127142005Y-125880103D01*
X127138132Y-125877730D01*
X127091254Y-125825920D01*
X127079829Y-125756991D01*
X127107483Y-125692827D01*
X127138132Y-125666270D01*
X127142005Y-125663896D01*
X127142004Y-125663896D01*
X127142009Y-125663894D01*
X127315004Y-125538206D01*
X127466206Y-125387004D01*
X127591894Y-125214009D01*
X127597398Y-125203205D01*
X127645371Y-125152410D01*
X127707883Y-125135500D01*
X129537325Y-125135500D01*
X129604364Y-125155185D01*
X129625007Y-125171820D01*
X129660861Y-125207675D01*
X129660865Y-125207678D01*
X129809657Y-125307098D01*
X129809661Y-125307100D01*
X129809664Y-125307102D01*
X129975000Y-125375587D01*
X130150516Y-125410499D01*
X130150520Y-125410500D01*
X130150521Y-125410500D01*
X130329480Y-125410500D01*
X130329481Y-125410499D01*
X130505000Y-125375587D01*
X130670336Y-125307102D01*
X130819135Y-125207678D01*
X130945678Y-125081135D01*
X131045102Y-124932336D01*
X131113587Y-124767000D01*
X131148500Y-124591479D01*
X131148500Y-124412521D01*
X131113587Y-124237000D01*
X131045102Y-124071664D01*
X131045100Y-124071661D01*
X131045098Y-124071657D01*
X130945678Y-123922865D01*
X130945675Y-123922861D01*
X130819138Y-123796324D01*
X130819134Y-123796321D01*
X130670342Y-123696901D01*
X130670332Y-123696896D01*
X130505000Y-123628413D01*
X130504992Y-123628411D01*
X130329483Y-123593500D01*
X130329479Y-123593500D01*
X130150521Y-123593500D01*
X130150516Y-123593500D01*
X129975007Y-123628411D01*
X129974999Y-123628413D01*
X129809667Y-123696896D01*
X129809657Y-123696901D01*
X129660865Y-123796321D01*
X129660861Y-123796324D01*
X129625007Y-123832180D01*
X129563685Y-123865666D01*
X129537325Y-123868500D01*
X127707883Y-123868500D01*
X127640844Y-123848815D01*
X127597398Y-123800795D01*
X127591894Y-123789991D01*
X127466206Y-123616996D01*
X127315004Y-123465794D01*
X127142009Y-123340106D01*
X127142010Y-123340106D01*
X127142008Y-123340105D01*
X127137311Y-123337712D01*
X127086517Y-123289735D01*
X127069724Y-123221914D01*
X127092264Y-123155780D01*
X127133790Y-123119801D01*
X127133402Y-123119168D01*
X127137229Y-123116822D01*
X127137327Y-123116738D01*
X127137556Y-123116621D01*
X127191716Y-123077270D01*
X127191717Y-123077270D01*
X126559408Y-122444962D01*
X126622993Y-122427925D01*
X126737007Y-122362099D01*
X126830099Y-122269007D01*
X126895925Y-122154993D01*
X126912962Y-122091408D01*
X127545270Y-122723717D01*
X127545270Y-122723716D01*
X127584622Y-122669554D01*
X127681095Y-122480217D01*
X127746757Y-122278130D01*
X127746757Y-122278127D01*
X127780000Y-122068246D01*
X127780000Y-121855753D01*
X127746757Y-121645872D01*
X127746757Y-121645869D01*
X127681095Y-121443782D01*
X127584624Y-121254449D01*
X127545270Y-121200282D01*
X127545269Y-121200282D01*
X126912962Y-121832590D01*
X126895925Y-121769007D01*
X126830099Y-121654993D01*
X126737007Y-121561901D01*
X126622993Y-121496075D01*
X126559409Y-121479037D01*
X127191716Y-120846728D01*
X127137547Y-120807373D01*
X127137545Y-120807371D01*
X127137308Y-120807251D01*
X127137234Y-120807181D01*
X127133396Y-120804829D01*
X127133890Y-120804022D01*
X127086515Y-120759274D01*
X127069724Y-120691451D01*
X127092266Y-120625318D01*
X127137319Y-120586283D01*
X127142009Y-120583894D01*
X127315004Y-120458206D01*
X127466206Y-120307004D01*
X127591894Y-120134009D01*
X127597398Y-120123205D01*
X127645371Y-120072410D01*
X127707883Y-120055500D01*
X130299325Y-120055500D01*
X130366364Y-120075185D01*
G37*
%TD.AperFunction*%
%TA.AperFunction,Conductor*%
G36*
X102306719Y-145459787D02*
G01*
X102321926Y-145459136D01*
X102339563Y-145469432D01*
X102359156Y-145475185D01*
X102370054Y-145487230D01*
X102382267Y-145494360D01*
X102402599Y-145523202D01*
X102408106Y-145534009D01*
X102533794Y-145707004D01*
X102684996Y-145858206D01*
X102857990Y-145983893D01*
X102857991Y-145983894D01*
X102861873Y-145986273D01*
X102908748Y-146038086D01*
X102920169Y-146107016D01*
X102892512Y-146171178D01*
X102861873Y-146197727D01*
X102857991Y-146200105D01*
X102684993Y-146325796D01*
X102533796Y-146476993D01*
X102408106Y-146649990D01*
X102311027Y-146840516D01*
X102311026Y-146840519D01*
X102244951Y-147043882D01*
X102211500Y-147255084D01*
X102211500Y-147468915D01*
X102244951Y-147680117D01*
X102311026Y-147883480D01*
X102311027Y-147883483D01*
X102386255Y-148031125D01*
X102408106Y-148074009D01*
X102533794Y-148247004D01*
X102533796Y-148247006D01*
X102638971Y-148352181D01*
X102672456Y-148413504D01*
X102667472Y-148483196D01*
X102625600Y-148539129D01*
X102594625Y-148556043D01*
X102473795Y-148601111D01*
X102356739Y-148688739D01*
X102269111Y-148805795D01*
X102218011Y-148942795D01*
X102218011Y-148942797D01*
X102211500Y-149003345D01*
X102211500Y-150800654D01*
X102218011Y-150861202D01*
X102218011Y-150861204D01*
X102246733Y-150938206D01*
X102269111Y-150998204D01*
X102269112Y-150998205D01*
X102272081Y-151006165D01*
X102277067Y-151075857D01*
X102243582Y-151137180D01*
X102182260Y-151170666D01*
X102155900Y-151173500D01*
X99700675Y-151173500D01*
X99633636Y-151153815D01*
X99612993Y-151137180D01*
X99577138Y-151101324D01*
X99577134Y-151101321D01*
X99428342Y-151001901D01*
X99428332Y-151001896D01*
X99263000Y-150933413D01*
X99262992Y-150933411D01*
X99087483Y-150898500D01*
X99087479Y-150898500D01*
X98908521Y-150898500D01*
X98908516Y-150898500D01*
X98733007Y-150933411D01*
X98732999Y-150933413D01*
X98567657Y-151001900D01*
X98563944Y-151003885D01*
X98495540Y-151018121D01*
X98430298Y-150993116D01*
X98388933Y-150936807D01*
X98381500Y-150894522D01*
X98381500Y-145734477D01*
X98401185Y-145667438D01*
X98453989Y-145621683D01*
X98523147Y-145611739D01*
X98563954Y-145625119D01*
X98567658Y-145627098D01*
X98567664Y-145627102D01*
X98733000Y-145695587D01*
X98908516Y-145730499D01*
X98908520Y-145730500D01*
X98908521Y-145730500D01*
X99087480Y-145730500D01*
X99087481Y-145730499D01*
X99263000Y-145695587D01*
X99428336Y-145627102D01*
X99577135Y-145527678D01*
X99612993Y-145491820D01*
X99674315Y-145458334D01*
X99700675Y-145455500D01*
X102292117Y-145455500D01*
X102306719Y-145459787D01*
G37*
%TD.AperFunction*%
%TA.AperFunction,Conductor*%
G36*
X102359156Y-135315185D02*
G01*
X102402601Y-135363204D01*
X102408106Y-135374009D01*
X102533794Y-135547004D01*
X102684996Y-135698206D01*
X102857990Y-135823893D01*
X102857991Y-135823894D01*
X102861873Y-135826273D01*
X102908748Y-135878086D01*
X102920169Y-135947016D01*
X102892512Y-136011178D01*
X102861873Y-136037727D01*
X102857991Y-136040105D01*
X102684993Y-136165796D01*
X102533796Y-136316993D01*
X102408109Y-136489986D01*
X102408107Y-136489989D01*
X102408106Y-136489991D01*
X102402601Y-136500794D01*
X102354629Y-136551590D01*
X102292117Y-136568500D01*
X101224675Y-136568500D01*
X101157636Y-136548815D01*
X101136993Y-136532180D01*
X101101138Y-136496324D01*
X101101134Y-136496321D01*
X100952342Y-136396901D01*
X100952332Y-136396896D01*
X100787000Y-136328413D01*
X100786992Y-136328411D01*
X100611483Y-136293500D01*
X100611479Y-136293500D01*
X100432521Y-136293500D01*
X100432516Y-136293500D01*
X100257007Y-136328411D01*
X100256999Y-136328413D01*
X100091667Y-136396896D01*
X100091657Y-136396901D01*
X99942865Y-136496321D01*
X99942861Y-136496324D01*
X99816324Y-136622861D01*
X99816321Y-136622865D01*
X99716901Y-136771657D01*
X99716896Y-136771667D01*
X99648413Y-136936999D01*
X99648411Y-136937007D01*
X99613500Y-137112516D01*
X99613500Y-137291483D01*
X99648411Y-137466992D01*
X99648413Y-137467000D01*
X99716896Y-137632332D01*
X99716901Y-137632342D01*
X99816321Y-137781134D01*
X99816324Y-137781138D01*
X99942861Y-137907675D01*
X99942865Y-137907678D01*
X100091657Y-138007098D01*
X100091661Y-138007100D01*
X100091664Y-138007102D01*
X100257000Y-138075587D01*
X100432516Y-138110499D01*
X100432520Y-138110500D01*
X100432521Y-138110500D01*
X100611480Y-138110500D01*
X100611481Y-138110499D01*
X100787000Y-138075587D01*
X100952336Y-138007102D01*
X101101135Y-137907678D01*
X101136993Y-137871820D01*
X101198315Y-137838334D01*
X101224675Y-137835500D01*
X102292117Y-137835500D01*
X102359156Y-137855185D01*
X102402601Y-137903204D01*
X102408106Y-137914009D01*
X102533794Y-138087004D01*
X102684996Y-138238206D01*
X102857991Y-138363894D01*
X102861873Y-138366273D01*
X102908748Y-138418086D01*
X102920169Y-138487016D01*
X102892512Y-138551178D01*
X102861873Y-138577727D01*
X102857991Y-138580105D01*
X102684993Y-138705796D01*
X102533796Y-138856993D01*
X102408109Y-139029986D01*
X102408107Y-139029989D01*
X102408106Y-139029991D01*
X102402601Y-139040794D01*
X102354629Y-139091590D01*
X102292117Y-139108500D01*
X100462675Y-139108500D01*
X100395636Y-139088815D01*
X100374993Y-139072180D01*
X100339138Y-139036324D01*
X100339134Y-139036321D01*
X100190342Y-138936901D01*
X100190332Y-138936896D01*
X100025000Y-138868413D01*
X100024992Y-138868411D01*
X99849483Y-138833500D01*
X99849479Y-138833500D01*
X99670521Y-138833500D01*
X99670516Y-138833500D01*
X99495007Y-138868411D01*
X99494999Y-138868413D01*
X99329667Y-138936896D01*
X99329657Y-138936901D01*
X99180865Y-139036321D01*
X99180861Y-139036324D01*
X99054324Y-139162861D01*
X99054321Y-139162865D01*
X98954901Y-139311657D01*
X98954896Y-139311667D01*
X98886413Y-139476999D01*
X98886411Y-139477007D01*
X98851500Y-139652516D01*
X98851500Y-139831483D01*
X98886411Y-140006992D01*
X98886413Y-140007000D01*
X98954896Y-140172332D01*
X98954901Y-140172342D01*
X99054321Y-140321134D01*
X99054324Y-140321138D01*
X99180861Y-140447675D01*
X99180865Y-140447678D01*
X99329657Y-140547098D01*
X99329661Y-140547100D01*
X99329664Y-140547102D01*
X99495000Y-140615587D01*
X99670516Y-140650499D01*
X99670520Y-140650500D01*
X99670521Y-140650500D01*
X99849480Y-140650500D01*
X99849481Y-140650499D01*
X100025000Y-140615587D01*
X100190336Y-140547102D01*
X100339135Y-140447678D01*
X100374993Y-140411820D01*
X100436315Y-140378334D01*
X100462675Y-140375500D01*
X102292117Y-140375500D01*
X102359156Y-140395185D01*
X102402601Y-140443204D01*
X102408106Y-140454009D01*
X102533794Y-140627004D01*
X102684996Y-140778206D01*
X102857991Y-140903894D01*
X102861873Y-140906273D01*
X102908748Y-140958086D01*
X102920169Y-141027016D01*
X102892512Y-141091178D01*
X102861873Y-141117727D01*
X102857991Y-141120105D01*
X102684993Y-141245796D01*
X102533796Y-141396993D01*
X102408109Y-141569986D01*
X102408107Y-141569989D01*
X102408106Y-141569991D01*
X102402601Y-141580794D01*
X102354629Y-141631590D01*
X102292117Y-141648500D01*
X100462675Y-141648500D01*
X100395636Y-141628815D01*
X100374993Y-141612180D01*
X100339138Y-141576324D01*
X100339134Y-141576321D01*
X100190342Y-141476901D01*
X100190332Y-141476896D01*
X100025000Y-141408413D01*
X100024992Y-141408411D01*
X99849483Y-141373500D01*
X99849479Y-141373500D01*
X99670521Y-141373500D01*
X99670516Y-141373500D01*
X99495007Y-141408411D01*
X99494999Y-141408413D01*
X99329667Y-141476896D01*
X99329657Y-141476901D01*
X99180865Y-141576321D01*
X99180861Y-141576324D01*
X99054324Y-141702861D01*
X99054321Y-141702865D01*
X98954901Y-141851657D01*
X98954896Y-141851667D01*
X98886413Y-142016999D01*
X98886411Y-142017007D01*
X98851500Y-142192516D01*
X98851500Y-142371483D01*
X98886411Y-142546992D01*
X98886413Y-142547000D01*
X98954896Y-142712332D01*
X98954901Y-142712342D01*
X99054321Y-142861134D01*
X99054324Y-142861138D01*
X99180861Y-142987675D01*
X99180865Y-142987678D01*
X99329657Y-143087098D01*
X99329661Y-143087100D01*
X99329664Y-143087102D01*
X99495000Y-143155587D01*
X99670516Y-143190499D01*
X99670520Y-143190500D01*
X99670521Y-143190500D01*
X99849480Y-143190500D01*
X99849481Y-143190499D01*
X100025000Y-143155587D01*
X100190336Y-143087102D01*
X100339135Y-142987678D01*
X100374993Y-142951820D01*
X100436315Y-142918334D01*
X100462675Y-142915500D01*
X102292117Y-142915500D01*
X102359156Y-142935185D01*
X102402601Y-142983204D01*
X102408106Y-142994009D01*
X102533794Y-143167004D01*
X102684996Y-143318206D01*
X102857991Y-143443894D01*
X102861873Y-143446273D01*
X102908748Y-143498086D01*
X102920169Y-143567016D01*
X102892512Y-143631178D01*
X102861873Y-143657727D01*
X102857991Y-143660105D01*
X102684993Y-143785796D01*
X102533796Y-143936993D01*
X102408109Y-144109986D01*
X102408107Y-144109989D01*
X102408106Y-144109991D01*
X102402601Y-144120794D01*
X102354629Y-144171590D01*
X102292117Y-144188500D01*
X99700675Y-144188500D01*
X99633636Y-144168815D01*
X99612993Y-144152180D01*
X99577138Y-144116324D01*
X99577134Y-144116321D01*
X99428342Y-144016901D01*
X99428332Y-144016896D01*
X99263000Y-143948413D01*
X99262992Y-143948411D01*
X99087483Y-143913500D01*
X99087479Y-143913500D01*
X98908521Y-143913500D01*
X98908516Y-143913500D01*
X98733007Y-143948411D01*
X98732999Y-143948413D01*
X98567657Y-144016900D01*
X98563944Y-144018885D01*
X98495540Y-144033121D01*
X98430298Y-144008116D01*
X98388933Y-143951807D01*
X98381500Y-143909522D01*
X98381500Y-135574477D01*
X98401185Y-135507438D01*
X98453989Y-135461683D01*
X98523147Y-135451739D01*
X98563954Y-135465119D01*
X98567658Y-135467098D01*
X98567664Y-135467102D01*
X98733000Y-135535587D01*
X98908516Y-135570499D01*
X98908520Y-135570500D01*
X98908521Y-135570500D01*
X99087480Y-135570500D01*
X99087481Y-135570499D01*
X99263000Y-135535587D01*
X99428336Y-135467102D01*
X99577135Y-135367678D01*
X99612993Y-135331820D01*
X99674315Y-135298334D01*
X99700675Y-135295500D01*
X102292117Y-135295500D01*
X102359156Y-135315185D01*
G37*
%TD.AperFunction*%
%TA.AperFunction,Conductor*%
G36*
X129003472Y-99483695D02*
G01*
X129286239Y-99499575D01*
X129300033Y-99501129D01*
X129575808Y-99547985D01*
X129589360Y-99551078D01*
X129858144Y-99628513D01*
X129871269Y-99633105D01*
X130129697Y-99740150D01*
X130142219Y-99746181D01*
X130387031Y-99881485D01*
X130398804Y-99888882D01*
X130626927Y-100050743D01*
X130637799Y-100059413D01*
X130846366Y-100245800D01*
X130856199Y-100255633D01*
X131042586Y-100464200D01*
X131051256Y-100475072D01*
X131213117Y-100703195D01*
X131220514Y-100714968D01*
X131355818Y-100959780D01*
X131361852Y-100972309D01*
X131468893Y-101230729D01*
X131473486Y-101243855D01*
X131550921Y-101512639D01*
X131554015Y-101526195D01*
X131600868Y-101801953D01*
X131602425Y-101815771D01*
X131618305Y-102098527D01*
X131618500Y-102105480D01*
X131618500Y-104746893D01*
X131598815Y-104813932D01*
X131546011Y-104859687D01*
X131476853Y-104869631D01*
X131413297Y-104840606D01*
X131376569Y-104785212D01*
X131359961Y-104734097D01*
X131359959Y-104734094D01*
X131359959Y-104734092D01*
X131314402Y-104644683D01*
X131273602Y-104564608D01*
X131161792Y-104410715D01*
X131027285Y-104276208D01*
X130873392Y-104164398D01*
X130703907Y-104078040D01*
X130522991Y-104019256D01*
X130335116Y-103989500D01*
X130335111Y-103989500D01*
X130144889Y-103989500D01*
X130144884Y-103989500D01*
X129957008Y-104019256D01*
X129776092Y-104078040D01*
X129606607Y-104164398D01*
X129518806Y-104228189D01*
X129452715Y-104276208D01*
X129452713Y-104276210D01*
X129452712Y-104276210D01*
X129318210Y-104410712D01*
X129318210Y-104410713D01*
X129318208Y-104410715D01*
X129303107Y-104431500D01*
X129206398Y-104564607D01*
X129120040Y-104734092D01*
X129061256Y-104915008D01*
X129031500Y-105102883D01*
X129031500Y-105293116D01*
X129061256Y-105480991D01*
X129120040Y-105661907D01*
X129206398Y-105831392D01*
X129318208Y-105985285D01*
X129452715Y-106119792D01*
X129606608Y-106231602D01*
X129686683Y-106272402D01*
X129776092Y-106317959D01*
X129776094Y-106317959D01*
X129776097Y-106317961D01*
X129873070Y-106349469D01*
X129957008Y-106376743D01*
X130144884Y-106406500D01*
X130144889Y-106406500D01*
X130335116Y-106406500D01*
X130522991Y-106376743D01*
X130703903Y-106317961D01*
X130873392Y-106231602D01*
X131027285Y-106119792D01*
X131161792Y-105985285D01*
X131273602Y-105831392D01*
X131359961Y-105661903D01*
X131376569Y-105610787D01*
X131416007Y-105553112D01*
X131480365Y-105525914D01*
X131549212Y-105537829D01*
X131600687Y-105585073D01*
X131618500Y-105649106D01*
X131618500Y-113175522D01*
X131598815Y-113242561D01*
X131546011Y-113288316D01*
X131476853Y-113298260D01*
X131436056Y-113284885D01*
X131432342Y-113282900D01*
X131267000Y-113214413D01*
X131266992Y-113214411D01*
X131091483Y-113179500D01*
X131091479Y-113179500D01*
X130912521Y-113179500D01*
X130912516Y-113179500D01*
X130737007Y-113214411D01*
X130736999Y-113214413D01*
X130571667Y-113282896D01*
X130571657Y-113282901D01*
X130422865Y-113382321D01*
X130422861Y-113382324D01*
X130387007Y-113418180D01*
X130325685Y-113451666D01*
X130299325Y-113454500D01*
X126624675Y-113454500D01*
X126557636Y-113434815D01*
X126536993Y-113418180D01*
X126501138Y-113382324D01*
X126501134Y-113382321D01*
X126352342Y-113282901D01*
X126352332Y-113282896D01*
X126187000Y-113214413D01*
X126186992Y-113214411D01*
X126011483Y-113179500D01*
X126011479Y-113179500D01*
X125832521Y-113179500D01*
X125832516Y-113179500D01*
X125657007Y-113214411D01*
X125656999Y-113214413D01*
X125491667Y-113282896D01*
X125491657Y-113282901D01*
X125342865Y-113382321D01*
X125342861Y-113382324D01*
X125216324Y-113508861D01*
X125216321Y-113508865D01*
X125116901Y-113657657D01*
X125116896Y-113657667D01*
X125048413Y-113822999D01*
X125048411Y-113823007D01*
X125013500Y-113998516D01*
X125013500Y-114177483D01*
X125048411Y-114352992D01*
X125048413Y-114353000D01*
X125116896Y-114518332D01*
X125116901Y-114518342D01*
X125216321Y-114667134D01*
X125216324Y-114667138D01*
X125342861Y-114793675D01*
X125342865Y-114793678D01*
X125491657Y-114893098D01*
X125491661Y-114893100D01*
X125491664Y-114893102D01*
X125657000Y-114961587D01*
X125832516Y-114996499D01*
X125832520Y-114996500D01*
X125832521Y-114996500D01*
X126011480Y-114996500D01*
X126011481Y-114996499D01*
X126187000Y-114961587D01*
X126352336Y-114893102D01*
X126501135Y-114793678D01*
X126536993Y-114757820D01*
X126598315Y-114724334D01*
X126624675Y-114721500D01*
X130299325Y-114721500D01*
X130366364Y-114741185D01*
X130387007Y-114757820D01*
X130422861Y-114793675D01*
X130422865Y-114793678D01*
X130571657Y-114893098D01*
X130571661Y-114893100D01*
X130571664Y-114893102D01*
X130737000Y-114961587D01*
X130912516Y-114996499D01*
X130912520Y-114996500D01*
X130912521Y-114996500D01*
X131091480Y-114996500D01*
X131091481Y-114996499D01*
X131267000Y-114961587D01*
X131432336Y-114893102D01*
X131432343Y-114893096D01*
X131436046Y-114891119D01*
X131504449Y-114876877D01*
X131569693Y-114901877D01*
X131611064Y-114958182D01*
X131618500Y-115000477D01*
X131618500Y-118509522D01*
X131598815Y-118576561D01*
X131546011Y-118622316D01*
X131476853Y-118632260D01*
X131436056Y-118618885D01*
X131432342Y-118616900D01*
X131267000Y-118548413D01*
X131266992Y-118548411D01*
X131091483Y-118513500D01*
X131091479Y-118513500D01*
X130912521Y-118513500D01*
X130912516Y-118513500D01*
X130737007Y-118548411D01*
X130736999Y-118548413D01*
X130571667Y-118616896D01*
X130571657Y-118616901D01*
X130422865Y-118716321D01*
X130422861Y-118716324D01*
X130387007Y-118752180D01*
X130325685Y-118785666D01*
X130299325Y-118788500D01*
X127707883Y-118788500D01*
X127640844Y-118768815D01*
X127597398Y-118720795D01*
X127591894Y-118709991D01*
X127466206Y-118536996D01*
X127315004Y-118385794D01*
X127142009Y-118260106D01*
X127142005Y-118260103D01*
X127138132Y-118257730D01*
X127091254Y-118205920D01*
X127079829Y-118136991D01*
X127107483Y-118072827D01*
X127138132Y-118046270D01*
X127142005Y-118043896D01*
X127142004Y-118043896D01*
X127142009Y-118043894D01*
X127315004Y-117918206D01*
X127466206Y-117767004D01*
X127591894Y-117594009D01*
X127688972Y-117403483D01*
X127755049Y-117200116D01*
X127788500Y-116988916D01*
X127788500Y-116775084D01*
X127755049Y-116563884D01*
X127688972Y-116360517D01*
X127688972Y-116360516D01*
X127591893Y-116169990D01*
X127466206Y-115996996D01*
X127315004Y-115845794D01*
X127142009Y-115720106D01*
X127137305Y-115717709D01*
X126951483Y-115623027D01*
X126951480Y-115623026D01*
X126748117Y-115556951D01*
X126614448Y-115535780D01*
X126536916Y-115523500D01*
X126323084Y-115523500D01*
X126252684Y-115534650D01*
X126111882Y-115556951D01*
X125908519Y-115623026D01*
X125908516Y-115623027D01*
X125717990Y-115720106D01*
X125544993Y-115845796D01*
X125393796Y-115996993D01*
X125268105Y-116169991D01*
X125265727Y-116173873D01*
X125213914Y-116220748D01*
X125144984Y-116232169D01*
X125080822Y-116204512D01*
X125054273Y-116173873D01*
X125051894Y-116169991D01*
X125051893Y-116169990D01*
X124926206Y-115996996D01*
X124775004Y-115845794D01*
X124602009Y-115720106D01*
X124597305Y-115717709D01*
X124411483Y-115623027D01*
X124411480Y-115623026D01*
X124208117Y-115556951D01*
X124074448Y-115535780D01*
X123996916Y-115523500D01*
X123783084Y-115523500D01*
X123712684Y-115534650D01*
X123571882Y-115556951D01*
X123368519Y-115623026D01*
X123368516Y-115623027D01*
X123177990Y-115720106D01*
X123004993Y-115845796D01*
X122853796Y-115996993D01*
X122728105Y-116169991D01*
X122725727Y-116173873D01*
X122673914Y-116220748D01*
X122604984Y-116232169D01*
X122540822Y-116204512D01*
X122514273Y-116173873D01*
X122511894Y-116169991D01*
X122511893Y-116169990D01*
X122386206Y-115996996D01*
X122235004Y-115845794D01*
X122062009Y-115720106D01*
X122057305Y-115717709D01*
X121871483Y-115623027D01*
X121871480Y-115623026D01*
X121668117Y-115556951D01*
X121534448Y-115535780D01*
X121456916Y-115523500D01*
X121243084Y-115523500D01*
X121172684Y-115534650D01*
X121031882Y-115556951D01*
X120828519Y-115623026D01*
X120828516Y-115623027D01*
X120637990Y-115720106D01*
X120464993Y-115845796D01*
X120313796Y-115996993D01*
X120188105Y-116169991D01*
X120185727Y-116173873D01*
X120133914Y-116220748D01*
X120064984Y-116232169D01*
X120000822Y-116204512D01*
X119974273Y-116173873D01*
X119971894Y-116169991D01*
X119971893Y-116169990D01*
X119846206Y-115996996D01*
X119695004Y-115845794D01*
X119522009Y-115720106D01*
X119517305Y-115717709D01*
X119331483Y-115623027D01*
X119331480Y-115623026D01*
X119128117Y-115556951D01*
X118994448Y-115535780D01*
X118916916Y-115523500D01*
X118703084Y-115523500D01*
X118632684Y-115534650D01*
X118491882Y-115556951D01*
X118288519Y-115623026D01*
X118288516Y-115623027D01*
X118097990Y-115720106D01*
X117924993Y-115845796D01*
X117773796Y-115996993D01*
X117648105Y-116169991D01*
X117645727Y-116173873D01*
X117593914Y-116220748D01*
X117524984Y-116232169D01*
X117460822Y-116204512D01*
X117434273Y-116173873D01*
X117431894Y-116169991D01*
X117431893Y-116169990D01*
X117306206Y-115996996D01*
X117155004Y-115845794D01*
X116982009Y-115720106D01*
X116977305Y-115717709D01*
X116791483Y-115623027D01*
X116791480Y-115623026D01*
X116588117Y-115556951D01*
X116454448Y-115535780D01*
X116376916Y-115523500D01*
X116163084Y-115523500D01*
X116092684Y-115534650D01*
X115951882Y-115556951D01*
X115748519Y-115623026D01*
X115748516Y-115623027D01*
X115557990Y-115720106D01*
X115384993Y-115845796D01*
X115233796Y-115996993D01*
X115108105Y-116169991D01*
X115105727Y-116173873D01*
X115053914Y-116220748D01*
X114984984Y-116232169D01*
X114920822Y-116204512D01*
X114894273Y-116173873D01*
X114891894Y-116169991D01*
X114891893Y-116169990D01*
X114766206Y-115996996D01*
X114615004Y-115845794D01*
X114442009Y-115720106D01*
X114437305Y-115717709D01*
X114251483Y-115623027D01*
X114251480Y-115623026D01*
X114048117Y-115556951D01*
X113914448Y-115535780D01*
X113836916Y-115523500D01*
X113623084Y-115523500D01*
X113552684Y-115534650D01*
X113411882Y-115556951D01*
X113208519Y-115623026D01*
X113208516Y-115623027D01*
X113017990Y-115720106D01*
X112844993Y-115845796D01*
X112693796Y-115996993D01*
X112568105Y-116169991D01*
X112565727Y-116173873D01*
X112513914Y-116220748D01*
X112444984Y-116232169D01*
X112380822Y-116204512D01*
X112354273Y-116173873D01*
X112351894Y-116169991D01*
X112351893Y-116169990D01*
X112226206Y-115996996D01*
X112075004Y-115845794D01*
X111902009Y-115720106D01*
X111897305Y-115717709D01*
X111711483Y-115623027D01*
X111711480Y-115623026D01*
X111508117Y-115556951D01*
X111374448Y-115535780D01*
X111296916Y-115523500D01*
X111083084Y-115523500D01*
X111012684Y-115534650D01*
X110871882Y-115556951D01*
X110668519Y-115623026D01*
X110668516Y-115623027D01*
X110477990Y-115720106D01*
X110304993Y-115845796D01*
X110153796Y-115996993D01*
X110028105Y-116169991D01*
X110025727Y-116173873D01*
X109973914Y-116220748D01*
X109904984Y-116232169D01*
X109840822Y-116204512D01*
X109814273Y-116173873D01*
X109811894Y-116169991D01*
X109811893Y-116169990D01*
X109686206Y-115996996D01*
X109535004Y-115845794D01*
X109362009Y-115720106D01*
X109357305Y-115717709D01*
X109171483Y-115623027D01*
X109171480Y-115623026D01*
X108968117Y-115556951D01*
X108834448Y-115535780D01*
X108756916Y-115523500D01*
X108543084Y-115523500D01*
X108472684Y-115534650D01*
X108331882Y-115556951D01*
X108128519Y-115623026D01*
X108128516Y-115623027D01*
X107937990Y-115720106D01*
X107764993Y-115845796D01*
X107613796Y-115996993D01*
X107488105Y-116169991D01*
X107485727Y-116173873D01*
X107433914Y-116220748D01*
X107364984Y-116232169D01*
X107300822Y-116204512D01*
X107274273Y-116173873D01*
X107271894Y-116169991D01*
X107271893Y-116169990D01*
X107146206Y-115996996D01*
X106995004Y-115845794D01*
X106822009Y-115720106D01*
X106817305Y-115717709D01*
X106631483Y-115623027D01*
X106631480Y-115623026D01*
X106428117Y-115556951D01*
X106294448Y-115535780D01*
X106216916Y-115523500D01*
X106003084Y-115523500D01*
X105932684Y-115534650D01*
X105791882Y-115556951D01*
X105588519Y-115623026D01*
X105588516Y-115623027D01*
X105397990Y-115720106D01*
X105224993Y-115845796D01*
X105073796Y-115996993D01*
X104948105Y-116169991D01*
X104945727Y-116173873D01*
X104893914Y-116220748D01*
X104824984Y-116232169D01*
X104760822Y-116204512D01*
X104734273Y-116173873D01*
X104731894Y-116169991D01*
X104731893Y-116169990D01*
X104606206Y-115996996D01*
X104455004Y-115845794D01*
X104282009Y-115720106D01*
X104282010Y-115720106D01*
X104282008Y-115720105D01*
X104277311Y-115717712D01*
X104226517Y-115669735D01*
X104209724Y-115601914D01*
X104232264Y-115535780D01*
X104273790Y-115499801D01*
X104273402Y-115499168D01*
X104277229Y-115496822D01*
X104277327Y-115496738D01*
X104277556Y-115496621D01*
X104331716Y-115457270D01*
X104331717Y-115457270D01*
X103699408Y-114824962D01*
X103762993Y-114807925D01*
X103877007Y-114742099D01*
X103970099Y-114649007D01*
X104035925Y-114534993D01*
X104052962Y-114471409D01*
X104685270Y-115103717D01*
X104685270Y-115103716D01*
X104724622Y-115049554D01*
X104821095Y-114860217D01*
X104886757Y-114658130D01*
X104886757Y-114658127D01*
X104920000Y-114448246D01*
X104920000Y-114235753D01*
X104886757Y-114025872D01*
X104886757Y-114025869D01*
X104821095Y-113823782D01*
X104724624Y-113634449D01*
X104685270Y-113580282D01*
X104685269Y-113580282D01*
X104052962Y-114212590D01*
X104035925Y-114149007D01*
X103970099Y-114034993D01*
X103877007Y-113941901D01*
X103762993Y-113876075D01*
X103699409Y-113859037D01*
X104331716Y-113226728D01*
X104277547Y-113187373D01*
X104277545Y-113187371D01*
X104277308Y-113187251D01*
X104277234Y-113187181D01*
X104273396Y-113184829D01*
X104273890Y-113184022D01*
X104226515Y-113139274D01*
X104209724Y-113071451D01*
X104232266Y-113005318D01*
X104277319Y-112966283D01*
X104282009Y-112963894D01*
X104455004Y-112838206D01*
X104606206Y-112687004D01*
X104731894Y-112514009D01*
X104828972Y-112323483D01*
X104895049Y-112120116D01*
X104928500Y-111908916D01*
X104928500Y-111695753D01*
X107300000Y-111695753D01*
X107300000Y-111908246D01*
X107333242Y-112118127D01*
X107333242Y-112118130D01*
X107398904Y-112320217D01*
X107495375Y-112509550D01*
X107534728Y-112563716D01*
X108167037Y-111931408D01*
X108184075Y-111994993D01*
X108249901Y-112109007D01*
X108342993Y-112202099D01*
X108457007Y-112267925D01*
X108520590Y-112284962D01*
X107888282Y-112917269D01*
X107888282Y-112917270D01*
X107942449Y-112956624D01*
X108131782Y-113053095D01*
X108333870Y-113118757D01*
X108543754Y-113152000D01*
X108756246Y-113152000D01*
X108966127Y-113118757D01*
X108966130Y-113118757D01*
X109168217Y-113053095D01*
X109357554Y-112956622D01*
X109411716Y-112917270D01*
X109411717Y-112917270D01*
X108779408Y-112284962D01*
X108842993Y-112267925D01*
X108957007Y-112202099D01*
X109050099Y-112109007D01*
X109115925Y-111994993D01*
X109132962Y-111931409D01*
X109765270Y-112563717D01*
X109765270Y-112563716D01*
X109804621Y-112509556D01*
X109804738Y-112509327D01*
X109804808Y-112509252D01*
X109807168Y-112505402D01*
X109807976Y-112505897D01*
X109852707Y-112458526D01*
X109920526Y-112441723D01*
X109986663Y-112464254D01*
X110025712Y-112509311D01*
X110028103Y-112514005D01*
X110028106Y-112514009D01*
X110153794Y-112687004D01*
X110304996Y-112838206D01*
X110477991Y-112963894D01*
X110559290Y-113005318D01*
X110668516Y-113060972D01*
X110668519Y-113060973D01*
X110733463Y-113082074D01*
X110871884Y-113127049D01*
X111083084Y-113160500D01*
X111083085Y-113160500D01*
X111296915Y-113160500D01*
X111296916Y-113160500D01*
X111508116Y-113127049D01*
X111711483Y-113060972D01*
X111902009Y-112963894D01*
X112075004Y-112838206D01*
X112226206Y-112687004D01*
X112351894Y-112514009D01*
X112351896Y-112514004D01*
X112354270Y-112510132D01*
X112406080Y-112463254D01*
X112475009Y-112451829D01*
X112539173Y-112479483D01*
X112565730Y-112510132D01*
X112568103Y-112514005D01*
X112568105Y-112514008D01*
X112568106Y-112514009D01*
X112693794Y-112687004D01*
X112844996Y-112838206D01*
X113017991Y-112963894D01*
X113099290Y-113005318D01*
X113208516Y-113060972D01*
X113208519Y-113060973D01*
X113273463Y-113082074D01*
X113411884Y-113127049D01*
X113623084Y-113160500D01*
X113623085Y-113160500D01*
X113836915Y-113160500D01*
X113836916Y-113160500D01*
X114048116Y-113127049D01*
X114251483Y-113060972D01*
X114442009Y-112963894D01*
X114615004Y-112838206D01*
X114766206Y-112687004D01*
X114891894Y-112514009D01*
X114891896Y-112514004D01*
X114894270Y-112510132D01*
X114946080Y-112463254D01*
X115015009Y-112451829D01*
X115079173Y-112479483D01*
X115105730Y-112510132D01*
X115108103Y-112514005D01*
X115108105Y-112514008D01*
X115108106Y-112514009D01*
X115233794Y-112687004D01*
X115384996Y-112838206D01*
X115557991Y-112963894D01*
X115639290Y-113005318D01*
X115748516Y-113060972D01*
X115748519Y-113060973D01*
X115813463Y-113082074D01*
X115951884Y-113127049D01*
X116163084Y-113160500D01*
X116163085Y-113160500D01*
X116376915Y-113160500D01*
X116376916Y-113160500D01*
X116588116Y-113127049D01*
X116791483Y-113060972D01*
X116982009Y-112963894D01*
X117155004Y-112838206D01*
X117306206Y-112687004D01*
X117431894Y-112514009D01*
X117431896Y-112514004D01*
X117434270Y-112510132D01*
X117486080Y-112463254D01*
X117555009Y-112451829D01*
X117619173Y-112479483D01*
X117645730Y-112510132D01*
X117648103Y-112514005D01*
X117648105Y-112514008D01*
X117648106Y-112514009D01*
X117773794Y-112687004D01*
X117924996Y-112838206D01*
X118097991Y-112963894D01*
X118179290Y-113005318D01*
X118288516Y-113060972D01*
X118288519Y-113060973D01*
X118353463Y-113082074D01*
X118491884Y-113127049D01*
X118703084Y-113160500D01*
X118703085Y-113160500D01*
X118916915Y-113160500D01*
X118916916Y-113160500D01*
X119128116Y-113127049D01*
X119331483Y-113060972D01*
X119522009Y-112963894D01*
X119695004Y-112838206D01*
X119800184Y-112733025D01*
X119861503Y-112699543D01*
X119931195Y-112704527D01*
X119987129Y-112746398D01*
X120004043Y-112777375D01*
X120049110Y-112898203D01*
X120049111Y-112898204D01*
X120136739Y-113015261D01*
X120253796Y-113102889D01*
X120390799Y-113153989D01*
X120418050Y-113156918D01*
X120451345Y-113160499D01*
X120451362Y-113160500D01*
X122248638Y-113160500D01*
X122248654Y-113160499D01*
X122275692Y-113157591D01*
X122309201Y-113153989D01*
X122446204Y-113102889D01*
X122563261Y-113015261D01*
X122650889Y-112898204D01*
X122701989Y-112761201D01*
X122705591Y-112727692D01*
X122708499Y-112700654D01*
X122708500Y-112700637D01*
X122708500Y-110903362D01*
X122708499Y-110903345D01*
X122705018Y-110870971D01*
X122701989Y-110842799D01*
X122695956Y-110826625D01*
X122652122Y-110709103D01*
X122650889Y-110705796D01*
X122563261Y-110588739D01*
X122446204Y-110501111D01*
X122309203Y-110450011D01*
X122248654Y-110443500D01*
X122248638Y-110443500D01*
X120451362Y-110443500D01*
X120451345Y-110443500D01*
X120390797Y-110450011D01*
X120390795Y-110450011D01*
X120253795Y-110501111D01*
X120136739Y-110588739D01*
X120049111Y-110705795D01*
X120004043Y-110826625D01*
X119962171Y-110882558D01*
X119896707Y-110906974D01*
X119828434Y-110892122D01*
X119800181Y-110870971D01*
X119695006Y-110765796D01*
X119695004Y-110765794D01*
X119522009Y-110640106D01*
X119462291Y-110609678D01*
X119331483Y-110543027D01*
X119331480Y-110543026D01*
X119128117Y-110476951D01*
X118975804Y-110452827D01*
X118916916Y-110443500D01*
X118703084Y-110443500D01*
X118644196Y-110452827D01*
X118491882Y-110476951D01*
X118288519Y-110543026D01*
X118288516Y-110543027D01*
X118097990Y-110640106D01*
X117924993Y-110765796D01*
X117773796Y-110916993D01*
X117648105Y-111089991D01*
X117645727Y-111093873D01*
X117593914Y-111140748D01*
X117524984Y-111152169D01*
X117460822Y-111124512D01*
X117434273Y-111093873D01*
X117431894Y-111089991D01*
X117395778Y-111040282D01*
X117306206Y-110916996D01*
X117155004Y-110765794D01*
X116982009Y-110640106D01*
X116922291Y-110609678D01*
X116791483Y-110543027D01*
X116791480Y-110543026D01*
X116588117Y-110476951D01*
X116435804Y-110452827D01*
X116376916Y-110443500D01*
X116163084Y-110443500D01*
X116104196Y-110452827D01*
X115951882Y-110476951D01*
X115748519Y-110543026D01*
X115748516Y-110543027D01*
X115557990Y-110640106D01*
X115384993Y-110765796D01*
X115233796Y-110916993D01*
X115108105Y-111089991D01*
X115105727Y-111093873D01*
X115053914Y-111140748D01*
X114984984Y-111152169D01*
X114920822Y-111124512D01*
X114894273Y-111093873D01*
X114891894Y-111089991D01*
X114855778Y-111040282D01*
X114766206Y-110916996D01*
X114615004Y-110765794D01*
X114442009Y-110640106D01*
X114382291Y-110609678D01*
X114251483Y-110543027D01*
X114251480Y-110543026D01*
X114048117Y-110476951D01*
X113895804Y-110452827D01*
X113836916Y-110443500D01*
X113623084Y-110443500D01*
X113564196Y-110452827D01*
X113411882Y-110476951D01*
X113208519Y-110543026D01*
X113208516Y-110543027D01*
X113017990Y-110640106D01*
X112844993Y-110765796D01*
X112693796Y-110916993D01*
X112568105Y-111089991D01*
X112565727Y-111093873D01*
X112513914Y-111140748D01*
X112444984Y-111152169D01*
X112380822Y-111124512D01*
X112354273Y-111093873D01*
X112351894Y-111089991D01*
X112315778Y-111040282D01*
X112226206Y-110916996D01*
X112075004Y-110765794D01*
X111902009Y-110640106D01*
X111842291Y-110609678D01*
X111711483Y-110543027D01*
X111711480Y-110543026D01*
X111508117Y-110476951D01*
X111355804Y-110452827D01*
X111296916Y-110443500D01*
X111083084Y-110443500D01*
X111024196Y-110452827D01*
X110871882Y-110476951D01*
X110668519Y-110543026D01*
X110668516Y-110543027D01*
X110477990Y-110640106D01*
X110304993Y-110765796D01*
X110153796Y-110916993D01*
X110028103Y-111089994D01*
X110025709Y-111094693D01*
X109977731Y-111145485D01*
X109909908Y-111162275D01*
X109843775Y-111139732D01*
X109807804Y-111098215D01*
X109807171Y-111098604D01*
X109804826Y-111094778D01*
X109804743Y-111094682D01*
X109804624Y-111094449D01*
X109765270Y-111040282D01*
X109765269Y-111040282D01*
X109132962Y-111672590D01*
X109115925Y-111609007D01*
X109050099Y-111494993D01*
X108957007Y-111401901D01*
X108842993Y-111336075D01*
X108779409Y-111319037D01*
X109411716Y-110686728D01*
X109357550Y-110647375D01*
X109168217Y-110550904D01*
X108966129Y-110485242D01*
X108756246Y-110452000D01*
X108543754Y-110452000D01*
X108333872Y-110485242D01*
X108333869Y-110485242D01*
X108131782Y-110550904D01*
X107942439Y-110647380D01*
X107888282Y-110686727D01*
X107888282Y-110686728D01*
X108520591Y-111319037D01*
X108457007Y-111336075D01*
X108342993Y-111401901D01*
X108249901Y-111494993D01*
X108184075Y-111609007D01*
X108167037Y-111672591D01*
X107534728Y-111040282D01*
X107534727Y-111040282D01*
X107495380Y-111094439D01*
X107398904Y-111283782D01*
X107333242Y-111485869D01*
X107333242Y-111485872D01*
X107300000Y-111695753D01*
X104928500Y-111695753D01*
X104928500Y-111695084D01*
X104895049Y-111483884D01*
X104828972Y-111280517D01*
X104828972Y-111280516D01*
X104779507Y-111183438D01*
X104731894Y-111089991D01*
X104606206Y-110916996D01*
X104455004Y-110765794D01*
X104282009Y-110640106D01*
X104282005Y-110640103D01*
X104278132Y-110637730D01*
X104231254Y-110585920D01*
X104219829Y-110516991D01*
X104247483Y-110452827D01*
X104278132Y-110426270D01*
X104282005Y-110423896D01*
X104282004Y-110423896D01*
X104282009Y-110423894D01*
X104455004Y-110298206D01*
X104606206Y-110147004D01*
X104731894Y-109974009D01*
X104813160Y-109814516D01*
X126276500Y-109814516D01*
X126276500Y-109993483D01*
X126311411Y-110168992D01*
X126311413Y-110169000D01*
X126379896Y-110334332D01*
X126379901Y-110334342D01*
X126479321Y-110483134D01*
X126479324Y-110483138D01*
X126605861Y-110609675D01*
X126605865Y-110609678D01*
X126754657Y-110709098D01*
X126754661Y-110709100D01*
X126754664Y-110709102D01*
X126920000Y-110777587D01*
X127095516Y-110812499D01*
X127095520Y-110812500D01*
X127095521Y-110812500D01*
X127274480Y-110812500D01*
X127274481Y-110812499D01*
X127450000Y-110777587D01*
X127615336Y-110709102D01*
X127764135Y-110609678D01*
X127806993Y-110566820D01*
X127868316Y-110533334D01*
X127894675Y-110530500D01*
X129537325Y-110530500D01*
X129604364Y-110550185D01*
X129625007Y-110566820D01*
X129660861Y-110602675D01*
X129660865Y-110602678D01*
X129809657Y-110702098D01*
X129809661Y-110702100D01*
X129809664Y-110702102D01*
X129975000Y-110770587D01*
X130150516Y-110805499D01*
X130150520Y-110805500D01*
X130150521Y-110805500D01*
X130329480Y-110805500D01*
X130329481Y-110805499D01*
X130505000Y-110770587D01*
X130670336Y-110702102D01*
X130819135Y-110602678D01*
X130945678Y-110476135D01*
X131045102Y-110327336D01*
X131113587Y-110162000D01*
X131148500Y-109986479D01*
X131148500Y-109807521D01*
X131113587Y-109632000D01*
X131045102Y-109466664D01*
X131045100Y-109466661D01*
X131045098Y-109466657D01*
X130945678Y-109317865D01*
X130945675Y-109317861D01*
X130819138Y-109191324D01*
X130819134Y-109191321D01*
X130670342Y-109091901D01*
X130670332Y-109091896D01*
X130505000Y-109023413D01*
X130504992Y-109023411D01*
X130329483Y-108988500D01*
X130329479Y-108988500D01*
X130150521Y-108988500D01*
X130150516Y-108988500D01*
X129975007Y-109023411D01*
X129974999Y-109023413D01*
X129809667Y-109091896D01*
X129809657Y-109091901D01*
X129660865Y-109191321D01*
X129660861Y-109191324D01*
X129625007Y-109227180D01*
X129563685Y-109260666D01*
X129537325Y-109263500D01*
X127880676Y-109263500D01*
X127813637Y-109243815D01*
X127792995Y-109227181D01*
X127764138Y-109198324D01*
X127764134Y-109198321D01*
X127615342Y-109098901D01*
X127615332Y-109098896D01*
X127450000Y-109030413D01*
X127449992Y-109030411D01*
X127274483Y-108995500D01*
X127274479Y-108995500D01*
X127095521Y-108995500D01*
X127095516Y-108995500D01*
X126920007Y-109030411D01*
X126919999Y-109030413D01*
X126754667Y-109098896D01*
X126754657Y-109098901D01*
X126605865Y-109198321D01*
X126605861Y-109198324D01*
X126479324Y-109324861D01*
X126479321Y-109324865D01*
X126379901Y-109473657D01*
X126379896Y-109473667D01*
X126311413Y-109638999D01*
X126311411Y-109639007D01*
X126276500Y-109814516D01*
X104813160Y-109814516D01*
X104828972Y-109783483D01*
X104828974Y-109783477D01*
X104833317Y-109770112D01*
X104833317Y-109770111D01*
X104875914Y-109639007D01*
X104895049Y-109580116D01*
X104928500Y-109368916D01*
X104928500Y-109155084D01*
X104895049Y-108943884D01*
X104828972Y-108740517D01*
X104828972Y-108740516D01*
X104731893Y-108549990D01*
X104606206Y-108376996D01*
X104455004Y-108225794D01*
X104282009Y-108100106D01*
X104282005Y-108100103D01*
X104278132Y-108097730D01*
X104231254Y-108045920D01*
X104219829Y-107976991D01*
X104247483Y-107912827D01*
X104278132Y-107886270D01*
X104282005Y-107883896D01*
X104282004Y-107883896D01*
X104282009Y-107883894D01*
X104455004Y-107758206D01*
X104606206Y-107607004D01*
X104731894Y-107434009D01*
X104828972Y-107243483D01*
X104895049Y-107040116D01*
X104928500Y-106828916D01*
X104928500Y-106615084D01*
X104895049Y-106403884D01*
X104828972Y-106200517D01*
X104828972Y-106200516D01*
X104731893Y-106009990D01*
X104606206Y-105836996D01*
X104455004Y-105685794D01*
X104282009Y-105560106D01*
X104214904Y-105525914D01*
X104091483Y-105463027D01*
X104091480Y-105463026D01*
X103888117Y-105396951D01*
X103782516Y-105380225D01*
X103676916Y-105363500D01*
X103463084Y-105363500D01*
X103392684Y-105374650D01*
X103251882Y-105396951D01*
X103048519Y-105463026D01*
X103048516Y-105463027D01*
X102857990Y-105560106D01*
X102684993Y-105685796D01*
X102533796Y-105836993D01*
X102408106Y-106009990D01*
X102311027Y-106200516D01*
X102311026Y-106200519D01*
X102244951Y-106403882D01*
X102211500Y-106615084D01*
X102211500Y-106828915D01*
X102244951Y-107040117D01*
X102311026Y-107243480D01*
X102311027Y-107243483D01*
X102408106Y-107434009D01*
X102533794Y-107607004D01*
X102684996Y-107758206D01*
X102857991Y-107883894D01*
X102861873Y-107886273D01*
X102908748Y-107938086D01*
X102920169Y-108007016D01*
X102892512Y-108071178D01*
X102861873Y-108097727D01*
X102857991Y-108100105D01*
X102684993Y-108225796D01*
X102533796Y-108376993D01*
X102408106Y-108549990D01*
X102311027Y-108740516D01*
X102311026Y-108740519D01*
X102244951Y-108943882D01*
X102211500Y-109155084D01*
X102211500Y-109368915D01*
X102244951Y-109580117D01*
X102311026Y-109783480D01*
X102311027Y-109783483D01*
X102408106Y-109974009D01*
X102533794Y-110147004D01*
X102684996Y-110298206D01*
X102857991Y-110423894D01*
X102861873Y-110426273D01*
X102908748Y-110478086D01*
X102920169Y-110547016D01*
X102892512Y-110611178D01*
X102861873Y-110637727D01*
X102857991Y-110640105D01*
X102684993Y-110765796D01*
X102533796Y-110916993D01*
X102408106Y-111089990D01*
X102311027Y-111280516D01*
X102311026Y-111280519D01*
X102244951Y-111483882D01*
X102211500Y-111695084D01*
X102211500Y-111908915D01*
X102244951Y-112120117D01*
X102311026Y-112323480D01*
X102311027Y-112323483D01*
X102403973Y-112505897D01*
X102408106Y-112514009D01*
X102533794Y-112687004D01*
X102684996Y-112838206D01*
X102857991Y-112963894D01*
X102862680Y-112966283D01*
X102913478Y-113014254D01*
X102930276Y-113082074D01*
X102907742Y-113148210D01*
X102866205Y-113184209D01*
X102866590Y-113184838D01*
X102862804Y-113187157D01*
X102862702Y-113187246D01*
X102862449Y-113187374D01*
X102862440Y-113187380D01*
X102808282Y-113226727D01*
X102808282Y-113226728D01*
X103440591Y-113859037D01*
X103377007Y-113876075D01*
X103262993Y-113941901D01*
X103169901Y-114034993D01*
X103104075Y-114149007D01*
X103087037Y-114212591D01*
X102454728Y-113580282D01*
X102454727Y-113580282D01*
X102415380Y-113634439D01*
X102318904Y-113823782D01*
X102253242Y-114025869D01*
X102253242Y-114025872D01*
X102220000Y-114235753D01*
X102220000Y-114448246D01*
X102253242Y-114658127D01*
X102253242Y-114658130D01*
X102318904Y-114860217D01*
X102415375Y-115049550D01*
X102454728Y-115103716D01*
X103087037Y-114471408D01*
X103104075Y-114534993D01*
X103169901Y-114649007D01*
X103262993Y-114742099D01*
X103377007Y-114807925D01*
X103440590Y-114824962D01*
X102808282Y-115457269D01*
X102808282Y-115457270D01*
X102862449Y-115496624D01*
X102862682Y-115496743D01*
X102862755Y-115496812D01*
X102866604Y-115499171D01*
X102866108Y-115499979D01*
X102913479Y-115544716D01*
X102930275Y-115612537D01*
X102907739Y-115678672D01*
X102862693Y-115717709D01*
X102857994Y-115720103D01*
X102684993Y-115845796D01*
X102533796Y-115996993D01*
X102408106Y-116169990D01*
X102311027Y-116360516D01*
X102311026Y-116360519D01*
X102244951Y-116563882D01*
X102211500Y-116775084D01*
X102211500Y-116988915D01*
X102244951Y-117200117D01*
X102311026Y-117403480D01*
X102311027Y-117403483D01*
X102382245Y-117543254D01*
X102408106Y-117594009D01*
X102533794Y-117767004D01*
X102684996Y-117918206D01*
X102857990Y-118043893D01*
X102857991Y-118043894D01*
X102861873Y-118046273D01*
X102908748Y-118098086D01*
X102920169Y-118167016D01*
X102892512Y-118231178D01*
X102861873Y-118257727D01*
X102857991Y-118260105D01*
X102684993Y-118385796D01*
X102533796Y-118536993D01*
X102408109Y-118709986D01*
X102408107Y-118709989D01*
X102408106Y-118709991D01*
X102402601Y-118720794D01*
X102354629Y-118771590D01*
X102292117Y-118788500D01*
X101986675Y-118788500D01*
X101919636Y-118768815D01*
X101898993Y-118752180D01*
X101863138Y-118716324D01*
X101863134Y-118716321D01*
X101714342Y-118616901D01*
X101714332Y-118616896D01*
X101549000Y-118548413D01*
X101548992Y-118548411D01*
X101373483Y-118513500D01*
X101373479Y-118513500D01*
X101194521Y-118513500D01*
X101194516Y-118513500D01*
X101019007Y-118548411D01*
X101018999Y-118548413D01*
X100853667Y-118616896D01*
X100853657Y-118616901D01*
X100704865Y-118716321D01*
X100704861Y-118716324D01*
X100578324Y-118842861D01*
X100578321Y-118842865D01*
X100478901Y-118991657D01*
X100478896Y-118991667D01*
X100410413Y-119156999D01*
X100410411Y-119157007D01*
X100375500Y-119332516D01*
X100375500Y-119511483D01*
X100410411Y-119686992D01*
X100410413Y-119687000D01*
X100478896Y-119852332D01*
X100478901Y-119852342D01*
X100578321Y-120001134D01*
X100578324Y-120001138D01*
X100704861Y-120127675D01*
X100704865Y-120127678D01*
X100853657Y-120227098D01*
X100853661Y-120227100D01*
X100853664Y-120227102D01*
X101019000Y-120295587D01*
X101194516Y-120330499D01*
X101194520Y-120330500D01*
X101194521Y-120330500D01*
X101373480Y-120330500D01*
X101373481Y-120330499D01*
X101549000Y-120295587D01*
X101714336Y-120227102D01*
X101863135Y-120127678D01*
X101898993Y-120091820D01*
X101960315Y-120058334D01*
X101986675Y-120055500D01*
X102292117Y-120055500D01*
X102359156Y-120075185D01*
X102402601Y-120123204D01*
X102408106Y-120134009D01*
X102533794Y-120307004D01*
X102684996Y-120458206D01*
X102857988Y-120583892D01*
X102857991Y-120583894D01*
X102861873Y-120586273D01*
X102908748Y-120638086D01*
X102920169Y-120707016D01*
X102892512Y-120771178D01*
X102861873Y-120797727D01*
X102857991Y-120800105D01*
X102684993Y-120925796D01*
X102533796Y-121076993D01*
X102408109Y-121249986D01*
X102408107Y-121249989D01*
X102408106Y-121249991D01*
X102402601Y-121260794D01*
X102354629Y-121311590D01*
X102292117Y-121328500D01*
X101224675Y-121328500D01*
X101157636Y-121308815D01*
X101136993Y-121292180D01*
X101101138Y-121256324D01*
X101101134Y-121256321D01*
X100952342Y-121156901D01*
X100952332Y-121156896D01*
X100787000Y-121088413D01*
X100786992Y-121088411D01*
X100611483Y-121053500D01*
X100611479Y-121053500D01*
X100432521Y-121053500D01*
X100432516Y-121053500D01*
X100257007Y-121088411D01*
X100256999Y-121088413D01*
X100091667Y-121156896D01*
X100091657Y-121156901D01*
X99942865Y-121256321D01*
X99942861Y-121256324D01*
X99816324Y-121382861D01*
X99816321Y-121382865D01*
X99716901Y-121531657D01*
X99716896Y-121531667D01*
X99648413Y-121696999D01*
X99648411Y-121697007D01*
X99613500Y-121872516D01*
X99613500Y-122051483D01*
X99648411Y-122226992D01*
X99648413Y-122227000D01*
X99716896Y-122392332D01*
X99716901Y-122392342D01*
X99816321Y-122541134D01*
X99816324Y-122541138D01*
X99942861Y-122667675D01*
X99942865Y-122667678D01*
X100091657Y-122767098D01*
X100091661Y-122767100D01*
X100091664Y-122767102D01*
X100257000Y-122835587D01*
X100432516Y-122870499D01*
X100432520Y-122870500D01*
X100432521Y-122870500D01*
X100611480Y-122870500D01*
X100611481Y-122870499D01*
X100787000Y-122835587D01*
X100952336Y-122767102D01*
X101101135Y-122667678D01*
X101136993Y-122631820D01*
X101198315Y-122598334D01*
X101224675Y-122595500D01*
X102292117Y-122595500D01*
X102359156Y-122615185D01*
X102402601Y-122663204D01*
X102408106Y-122674009D01*
X102533794Y-122847004D01*
X102684996Y-122998206D01*
X102848257Y-123116822D01*
X102857991Y-123123894D01*
X102861873Y-123126273D01*
X102908748Y-123178086D01*
X102920169Y-123247016D01*
X102892512Y-123311178D01*
X102861873Y-123337727D01*
X102857991Y-123340105D01*
X102684993Y-123465796D01*
X102533796Y-123616993D01*
X102408109Y-123789986D01*
X102408107Y-123789989D01*
X102408106Y-123789991D01*
X102402601Y-123800794D01*
X102354629Y-123851590D01*
X102292117Y-123868500D01*
X100462675Y-123868500D01*
X100395636Y-123848815D01*
X100374993Y-123832180D01*
X100339138Y-123796324D01*
X100339134Y-123796321D01*
X100190342Y-123696901D01*
X100190332Y-123696896D01*
X100025000Y-123628413D01*
X100024992Y-123628411D01*
X99849483Y-123593500D01*
X99849479Y-123593500D01*
X99670521Y-123593500D01*
X99670516Y-123593500D01*
X99495007Y-123628411D01*
X99494999Y-123628413D01*
X99329667Y-123696896D01*
X99329657Y-123696901D01*
X99180865Y-123796321D01*
X99180861Y-123796324D01*
X99054324Y-123922861D01*
X99054321Y-123922865D01*
X98954901Y-124071657D01*
X98954896Y-124071667D01*
X98886413Y-124236999D01*
X98886411Y-124237007D01*
X98851500Y-124412516D01*
X98851500Y-124591483D01*
X98886411Y-124766992D01*
X98886413Y-124767000D01*
X98954896Y-124932332D01*
X98954901Y-124932342D01*
X99054321Y-125081134D01*
X99054324Y-125081138D01*
X99180861Y-125207675D01*
X99180865Y-125207678D01*
X99329657Y-125307098D01*
X99329661Y-125307100D01*
X99329664Y-125307102D01*
X99495000Y-125375587D01*
X99670516Y-125410499D01*
X99670520Y-125410500D01*
X99670521Y-125410500D01*
X99849480Y-125410500D01*
X99849481Y-125410499D01*
X100025000Y-125375587D01*
X100190336Y-125307102D01*
X100339135Y-125207678D01*
X100374993Y-125171820D01*
X100436315Y-125138334D01*
X100462675Y-125135500D01*
X102292117Y-125135500D01*
X102359156Y-125155185D01*
X102402601Y-125203204D01*
X102408106Y-125214009D01*
X102533794Y-125387004D01*
X102684996Y-125538206D01*
X102782919Y-125609351D01*
X102857991Y-125663894D01*
X102861873Y-125666273D01*
X102908748Y-125718086D01*
X102920169Y-125787016D01*
X102892512Y-125851178D01*
X102861873Y-125877727D01*
X102857991Y-125880105D01*
X102684993Y-126005796D01*
X102533796Y-126156993D01*
X102408109Y-126329986D01*
X102408107Y-126329989D01*
X102408106Y-126329991D01*
X102402601Y-126340794D01*
X102354629Y-126391590D01*
X102292117Y-126408500D01*
X100462675Y-126408500D01*
X100395636Y-126388815D01*
X100374993Y-126372180D01*
X100339138Y-126336324D01*
X100339134Y-126336321D01*
X100190342Y-126236901D01*
X100190332Y-126236896D01*
X100025000Y-126168413D01*
X100024992Y-126168411D01*
X99849483Y-126133500D01*
X99849479Y-126133500D01*
X99670521Y-126133500D01*
X99670516Y-126133500D01*
X99495007Y-126168411D01*
X99494999Y-126168413D01*
X99329667Y-126236896D01*
X99329657Y-126236901D01*
X99180865Y-126336321D01*
X99180861Y-126336324D01*
X99054324Y-126462861D01*
X99054321Y-126462865D01*
X98954901Y-126611657D01*
X98954896Y-126611667D01*
X98886413Y-126776999D01*
X98886411Y-126777007D01*
X98851500Y-126952516D01*
X98851500Y-127131483D01*
X98886411Y-127306992D01*
X98886413Y-127307000D01*
X98954896Y-127472332D01*
X98954901Y-127472342D01*
X99054321Y-127621134D01*
X99054324Y-127621138D01*
X99180861Y-127747675D01*
X99180865Y-127747678D01*
X99329657Y-127847098D01*
X99329661Y-127847100D01*
X99329664Y-127847102D01*
X99495000Y-127915587D01*
X99670516Y-127950499D01*
X99670520Y-127950500D01*
X99670521Y-127950500D01*
X99849480Y-127950500D01*
X99849481Y-127950499D01*
X100025000Y-127915587D01*
X100190336Y-127847102D01*
X100339135Y-127747678D01*
X100374993Y-127711820D01*
X100436315Y-127678334D01*
X100462675Y-127675500D01*
X102292117Y-127675500D01*
X102359156Y-127695185D01*
X102402601Y-127743204D01*
X102408106Y-127754009D01*
X102533794Y-127927004D01*
X102684996Y-128078206D01*
X102852342Y-128199790D01*
X102857991Y-128203894D01*
X102861873Y-128206273D01*
X102908748Y-128258086D01*
X102920169Y-128327016D01*
X102892512Y-128391178D01*
X102861873Y-128417727D01*
X102857991Y-128420105D01*
X102684993Y-128545796D01*
X102533796Y-128696993D01*
X102408109Y-128869986D01*
X102408107Y-128869989D01*
X102408106Y-128869991D01*
X102402601Y-128880794D01*
X102354629Y-128931590D01*
X102292117Y-128948500D01*
X101224675Y-128948500D01*
X101157636Y-128928815D01*
X101136993Y-128912180D01*
X101101138Y-128876324D01*
X101101134Y-128876321D01*
X100952342Y-128776901D01*
X100952332Y-128776896D01*
X100787000Y-128708413D01*
X100786992Y-128708411D01*
X100611483Y-128673500D01*
X100611479Y-128673500D01*
X100432521Y-128673500D01*
X100432516Y-128673500D01*
X100257007Y-128708411D01*
X100256999Y-128708413D01*
X100091667Y-128776896D01*
X100091657Y-128776901D01*
X99942865Y-128876321D01*
X99942861Y-128876324D01*
X99816324Y-129002861D01*
X99816321Y-129002865D01*
X99716901Y-129151657D01*
X99716896Y-129151667D01*
X99648413Y-129316999D01*
X99648411Y-129317007D01*
X99613500Y-129492516D01*
X99613500Y-129671483D01*
X99648411Y-129846992D01*
X99648413Y-129847000D01*
X99716896Y-130012332D01*
X99716901Y-130012342D01*
X99816321Y-130161134D01*
X99816324Y-130161138D01*
X99942861Y-130287675D01*
X99942865Y-130287678D01*
X100091657Y-130387098D01*
X100091661Y-130387100D01*
X100091664Y-130387102D01*
X100257000Y-130455587D01*
X100432516Y-130490499D01*
X100432520Y-130490500D01*
X100432521Y-130490500D01*
X100611480Y-130490500D01*
X100611481Y-130490499D01*
X100787000Y-130455587D01*
X100952336Y-130387102D01*
X101101135Y-130287678D01*
X101136993Y-130251820D01*
X101198315Y-130218334D01*
X101224675Y-130215500D01*
X102292117Y-130215500D01*
X102359156Y-130235185D01*
X102402601Y-130283204D01*
X102408106Y-130294009D01*
X102533794Y-130467004D01*
X102684996Y-130618206D01*
X102857991Y-130743894D01*
X102861873Y-130746273D01*
X102908748Y-130798086D01*
X102920169Y-130867016D01*
X102892512Y-130931178D01*
X102861873Y-130957727D01*
X102857991Y-130960105D01*
X102684993Y-131085796D01*
X102533796Y-131236993D01*
X102408106Y-131409990D01*
X102311027Y-131600516D01*
X102311026Y-131600519D01*
X102244951Y-131803882D01*
X102211500Y-132015084D01*
X102211500Y-132228915D01*
X102244951Y-132440117D01*
X102311026Y-132643480D01*
X102311027Y-132643483D01*
X102382245Y-132783254D01*
X102408106Y-132834009D01*
X102533794Y-133007004D01*
X102684996Y-133158206D01*
X102857991Y-133283894D01*
X102861873Y-133286273D01*
X102908748Y-133338086D01*
X102920169Y-133407016D01*
X102892512Y-133471178D01*
X102861873Y-133497727D01*
X102857991Y-133500105D01*
X102684993Y-133625796D01*
X102533796Y-133776993D01*
X102408109Y-133949986D01*
X102408107Y-133949989D01*
X102408106Y-133949991D01*
X102402601Y-133960794D01*
X102354629Y-134011590D01*
X102292117Y-134028500D01*
X99700675Y-134028500D01*
X99633636Y-134008815D01*
X99612993Y-133992180D01*
X99577138Y-133956324D01*
X99577134Y-133956321D01*
X99428342Y-133856901D01*
X99428332Y-133856896D01*
X99263000Y-133788413D01*
X99262992Y-133788411D01*
X99087483Y-133753500D01*
X99087479Y-133753500D01*
X98908521Y-133753500D01*
X98908516Y-133753500D01*
X98733007Y-133788411D01*
X98732999Y-133788413D01*
X98567657Y-133856900D01*
X98563944Y-133858885D01*
X98495540Y-133873121D01*
X98430298Y-133848116D01*
X98388933Y-133791807D01*
X98381500Y-133749522D01*
X98381500Y-103062477D01*
X98401185Y-102995438D01*
X98453989Y-102949683D01*
X98523147Y-102939739D01*
X98563954Y-102953119D01*
X98567658Y-102955098D01*
X98567664Y-102955102D01*
X98733000Y-103023587D01*
X98779697Y-103032875D01*
X98841607Y-103065258D01*
X98876182Y-103125973D01*
X98877123Y-103130300D01*
X98886411Y-103176994D01*
X98886413Y-103177000D01*
X98954896Y-103342332D01*
X98954901Y-103342342D01*
X99054321Y-103491134D01*
X99054324Y-103491138D01*
X99180861Y-103617675D01*
X99180865Y-103617678D01*
X99329657Y-103717098D01*
X99329661Y-103717100D01*
X99329664Y-103717102D01*
X99495000Y-103785587D01*
X99541697Y-103794875D01*
X99603607Y-103827258D01*
X99638182Y-103887973D01*
X99639123Y-103892300D01*
X99648411Y-103938994D01*
X99648413Y-103939000D01*
X99716896Y-104104332D01*
X99716901Y-104104342D01*
X99816321Y-104253134D01*
X99816324Y-104253138D01*
X99942861Y-104379675D01*
X99942865Y-104379678D01*
X100091657Y-104479098D01*
X100091661Y-104479100D01*
X100091664Y-104479102D01*
X100257000Y-104547587D01*
X100303697Y-104556875D01*
X100365607Y-104589258D01*
X100400182Y-104649973D01*
X100401123Y-104654300D01*
X100410411Y-104700994D01*
X100410413Y-104701000D01*
X100478896Y-104866332D01*
X100478901Y-104866342D01*
X100578321Y-105015134D01*
X100578324Y-105015138D01*
X100704861Y-105141675D01*
X100704865Y-105141678D01*
X100853657Y-105241098D01*
X100853661Y-105241100D01*
X100853664Y-105241102D01*
X101019000Y-105309587D01*
X101194516Y-105344499D01*
X101194520Y-105344500D01*
X101194521Y-105344500D01*
X101373480Y-105344500D01*
X101373481Y-105344499D01*
X101549000Y-105309587D01*
X101714336Y-105241102D01*
X101863135Y-105141678D01*
X101898993Y-105105820D01*
X101960315Y-105072334D01*
X101986675Y-105069500D01*
X113027325Y-105069500D01*
X113094364Y-105089185D01*
X113115007Y-105105820D01*
X113150861Y-105141675D01*
X113150865Y-105141678D01*
X113299657Y-105241098D01*
X113299661Y-105241100D01*
X113299664Y-105241102D01*
X113465000Y-105309587D01*
X113640516Y-105344499D01*
X113640520Y-105344500D01*
X113640521Y-105344500D01*
X113819480Y-105344500D01*
X113819481Y-105344499D01*
X113995000Y-105309587D01*
X114160336Y-105241102D01*
X114309135Y-105141678D01*
X114347930Y-105102883D01*
X121411500Y-105102883D01*
X121411500Y-105293116D01*
X121441256Y-105480991D01*
X121500040Y-105661907D01*
X121586398Y-105831392D01*
X121698208Y-105985285D01*
X121832715Y-106119792D01*
X121986608Y-106231602D01*
X122066683Y-106272402D01*
X122156092Y-106317959D01*
X122156094Y-106317959D01*
X122156097Y-106317961D01*
X122253070Y-106349469D01*
X122337008Y-106376743D01*
X122524884Y-106406500D01*
X122524889Y-106406500D01*
X122715116Y-106406500D01*
X122902991Y-106376743D01*
X123083903Y-106317961D01*
X123253392Y-106231602D01*
X123407285Y-106119792D01*
X123541792Y-105985285D01*
X123653602Y-105831392D01*
X123739961Y-105661903D01*
X123798743Y-105480991D01*
X123820361Y-105344500D01*
X123828500Y-105293116D01*
X123828500Y-105102883D01*
X123798743Y-104915008D01*
X123756569Y-104785212D01*
X123739961Y-104734097D01*
X123739959Y-104734094D01*
X123739959Y-104734092D01*
X123694402Y-104644683D01*
X123653602Y-104564608D01*
X123541792Y-104410715D01*
X123407285Y-104276208D01*
X123253392Y-104164398D01*
X123083907Y-104078040D01*
X122902991Y-104019256D01*
X122715116Y-103989500D01*
X122715111Y-103989500D01*
X122524889Y-103989500D01*
X122524884Y-103989500D01*
X122337008Y-104019256D01*
X122156092Y-104078040D01*
X121986607Y-104164398D01*
X121898806Y-104228189D01*
X121832715Y-104276208D01*
X121832713Y-104276210D01*
X121832712Y-104276210D01*
X121698210Y-104410712D01*
X121698210Y-104410713D01*
X121698208Y-104410715D01*
X121683107Y-104431500D01*
X121586398Y-104564607D01*
X121500040Y-104734092D01*
X121441256Y-104915008D01*
X121411500Y-105102883D01*
X114347930Y-105102883D01*
X114435678Y-105015135D01*
X114535102Y-104866336D01*
X114603587Y-104701000D01*
X114638500Y-104525479D01*
X114638500Y-104431500D01*
X114658185Y-104364461D01*
X114710989Y-104318706D01*
X114762500Y-104307500D01*
X115567325Y-104307500D01*
X115634364Y-104327185D01*
X115655007Y-104343820D01*
X115690861Y-104379675D01*
X115690865Y-104379678D01*
X115839657Y-104479098D01*
X115839661Y-104479100D01*
X115839664Y-104479102D01*
X116005000Y-104547587D01*
X116132957Y-104573039D01*
X116180516Y-104582499D01*
X116180520Y-104582500D01*
X116180521Y-104582500D01*
X116359480Y-104582500D01*
X116359481Y-104582499D01*
X116535000Y-104547587D01*
X116700336Y-104479102D01*
X116849135Y-104379678D01*
X116975678Y-104253135D01*
X117075102Y-104104336D01*
X117143587Y-103939000D01*
X117178500Y-103763479D01*
X117178500Y-103584521D01*
X117143587Y-103409000D01*
X117075102Y-103243664D01*
X117075100Y-103243661D01*
X117075098Y-103243657D01*
X116975678Y-103094865D01*
X116975675Y-103094861D01*
X116875995Y-102995181D01*
X116842510Y-102933858D01*
X116847494Y-102864166D01*
X116889366Y-102808233D01*
X116954830Y-102783816D01*
X116963676Y-102783500D01*
X118107325Y-102783500D01*
X118174364Y-102803185D01*
X118195007Y-102819820D01*
X118230861Y-102855675D01*
X118230865Y-102855678D01*
X118379657Y-102955098D01*
X118379661Y-102955100D01*
X118379664Y-102955102D01*
X118545000Y-103023587D01*
X118672957Y-103049039D01*
X118720516Y-103058499D01*
X118720520Y-103058500D01*
X118720521Y-103058500D01*
X118899480Y-103058500D01*
X118899481Y-103058499D01*
X119075000Y-103023587D01*
X119240336Y-102955102D01*
X119389135Y-102855678D01*
X119515678Y-102729135D01*
X119615102Y-102580336D01*
X119683587Y-102415000D01*
X119718500Y-102239479D01*
X119718500Y-102060521D01*
X119683587Y-101885000D01*
X119615102Y-101719664D01*
X119615100Y-101719661D01*
X119615098Y-101719657D01*
X119515678Y-101570865D01*
X119515675Y-101570861D01*
X119389138Y-101444324D01*
X119389134Y-101444321D01*
X119240342Y-101344901D01*
X119240332Y-101344896D01*
X119075000Y-101276413D01*
X119074992Y-101276411D01*
X118899483Y-101241500D01*
X118899479Y-101241500D01*
X118720521Y-101241500D01*
X118720516Y-101241500D01*
X118545007Y-101276411D01*
X118544999Y-101276413D01*
X118379667Y-101344896D01*
X118379657Y-101344901D01*
X118230865Y-101444321D01*
X118230861Y-101444324D01*
X118195007Y-101480180D01*
X118133685Y-101513666D01*
X118107325Y-101516500D01*
X99700675Y-101516500D01*
X99633636Y-101496815D01*
X99612993Y-101480180D01*
X99577138Y-101444324D01*
X99577134Y-101444321D01*
X99428342Y-101344901D01*
X99428332Y-101344896D01*
X99263000Y-101276413D01*
X99262992Y-101276411D01*
X99087483Y-101241500D01*
X99087479Y-101241500D01*
X98908521Y-101241500D01*
X98908516Y-101241500D01*
X98733004Y-101276411D01*
X98731328Y-101276920D01*
X98730407Y-101276928D01*
X98727025Y-101277601D01*
X98726897Y-101276959D01*
X98715132Y-101277063D01*
X98699768Y-101282177D01*
X98680915Y-101277365D01*
X98661461Y-101277537D01*
X98647761Y-101268903D01*
X98632069Y-101264898D01*
X98618809Y-101250656D01*
X98602351Y-101240284D01*
X98595494Y-101225614D01*
X98584458Y-101213761D01*
X98581003Y-101194612D01*
X98572765Y-101176988D01*
X98574796Y-101160213D01*
X98572052Y-101145001D01*
X98580779Y-101110806D01*
X98638153Y-100972295D01*
X98644176Y-100959788D01*
X98779485Y-100714968D01*
X98786882Y-100703195D01*
X98948750Y-100475062D01*
X98957405Y-100464208D01*
X99143810Y-100255622D01*
X99153622Y-100245810D01*
X99362208Y-100059405D01*
X99373062Y-100050750D01*
X99601200Y-99888878D01*
X99612968Y-99881485D01*
X99631153Y-99871434D01*
X99857788Y-99746176D01*
X99870295Y-99740153D01*
X100128736Y-99633103D01*
X100141849Y-99628515D01*
X100410644Y-99551076D01*
X100424187Y-99547985D01*
X100699968Y-99501129D01*
X100713758Y-99499575D01*
X100996528Y-99483695D01*
X101003481Y-99483500D01*
X101054851Y-99483500D01*
X128945149Y-99483500D01*
X128996519Y-99483500D01*
X129003472Y-99483695D01*
G37*
%TD.AperFunction*%
%TA.AperFunction,Conductor*%
G36*
X125964075Y-122154993D02*
G01*
X126029901Y-122269007D01*
X126122993Y-122362099D01*
X126237007Y-122427925D01*
X126300590Y-122444962D01*
X125668282Y-123077269D01*
X125668282Y-123077270D01*
X125722449Y-123116624D01*
X125722682Y-123116743D01*
X125722755Y-123116812D01*
X125726604Y-123119171D01*
X125726108Y-123119979D01*
X125773479Y-123164716D01*
X125790275Y-123232537D01*
X125767739Y-123298672D01*
X125722693Y-123337709D01*
X125717994Y-123340103D01*
X125544993Y-123465796D01*
X125393796Y-123616993D01*
X125268104Y-123789992D01*
X125223030Y-123878455D01*
X125175056Y-123929250D01*
X125107234Y-123946045D01*
X125041100Y-123923507D01*
X125002062Y-123878455D01*
X124993237Y-123861135D01*
X124941544Y-123789986D01*
X124867548Y-123688139D01*
X124716346Y-123536937D01*
X124618426Y-123465794D01*
X124543349Y-123411247D01*
X124478206Y-123378055D01*
X124427411Y-123330081D01*
X124410616Y-123262260D01*
X124433154Y-123196125D01*
X124478208Y-123157086D01*
X124543349Y-123123895D01*
X124543348Y-123123895D01*
X124543351Y-123123894D01*
X124716346Y-122998206D01*
X124867548Y-122847004D01*
X124993236Y-122674009D01*
X125024957Y-122611752D01*
X125072929Y-122560958D01*
X125140750Y-122544162D01*
X125206885Y-122566699D01*
X125245926Y-122611753D01*
X125275375Y-122669550D01*
X125314728Y-122723716D01*
X125947037Y-122091408D01*
X125964075Y-122154993D01*
G37*
%TD.AperFunction*%
%TA.AperFunction,Conductor*%
G36*
X125202116Y-120036062D02*
G01*
X125241155Y-120081114D01*
X125268106Y-120134009D01*
X125393794Y-120307004D01*
X125544996Y-120458206D01*
X125717991Y-120583894D01*
X125722680Y-120586283D01*
X125773478Y-120634254D01*
X125790276Y-120702074D01*
X125767742Y-120768210D01*
X125726205Y-120804209D01*
X125726590Y-120804838D01*
X125722804Y-120807157D01*
X125722702Y-120807246D01*
X125722449Y-120807374D01*
X125722440Y-120807380D01*
X125668282Y-120846727D01*
X125668282Y-120846728D01*
X126300591Y-121479037D01*
X126237007Y-121496075D01*
X126122993Y-121561901D01*
X126029901Y-121654993D01*
X125964075Y-121769007D01*
X125947037Y-121832591D01*
X125314728Y-121200282D01*
X125314727Y-121200282D01*
X125275380Y-121254440D01*
X125275378Y-121254443D01*
X125245925Y-121312247D01*
X125197950Y-121363043D01*
X125130129Y-121379837D01*
X125063994Y-121357299D01*
X125024956Y-121312245D01*
X124993237Y-121249992D01*
X124925600Y-121156898D01*
X124867548Y-121076996D01*
X124716346Y-120925794D01*
X124553353Y-120807373D01*
X124543347Y-120800103D01*
X124539474Y-120797730D01*
X124492596Y-120745920D01*
X124481171Y-120676991D01*
X124508825Y-120612827D01*
X124539474Y-120586270D01*
X124543347Y-120583896D01*
X124543346Y-120583896D01*
X124543351Y-120583894D01*
X124716346Y-120458206D01*
X124867548Y-120307004D01*
X124993236Y-120134009D01*
X125020186Y-120081115D01*
X125068160Y-120030320D01*
X125135981Y-120013525D01*
X125202116Y-120036062D01*
G37*
%TD.AperFunction*%
%TD*%
M02*
