M48
; DRILL file {KiCad 9.0.1} date 2025-04-20T13:23:19-0400
; FORMAT={-:-/ absolute / metric / decimal}
; #@! TF.CreationDate,2025-04-20T13:23:19-04:00
; #@! TF.GenerationSoftware,Kicad,Pcbnew,9.0.1
; #@! TF.FileFunction,Plated,1,2,PTH
FMAT,2
METRIC
; #@! TA.AperFunction,Plated,PTH,ViaDrill
T1C0.400
; #@! TA.AperFunction,Plated,PTH,ComponentDrill
T2C0.700
; #@! TA.AperFunction,Plated,PTH,ComponentDrill
T3C0.750
; #@! TA.AperFunction,Plated,PTH,ComponentDrill
T4C1.000
%
G90
G05
T1
X98.998Y-102.15
X98.998Y-134.662
X98.998Y-144.822
X98.998Y-151.807
X99.76Y-102.912
X99.76Y-124.502
X99.76Y-127.042
X99.76Y-139.742
X99.76Y-142.282
X99.76Y-152.569
X100.522Y-103.674
X100.522Y-121.962
X100.522Y-129.582
X100.522Y-137.202
X100.522Y-160.062
X101.284Y-104.436
X101.284Y-119.422
X101.284Y-141.012
X101.284Y-148.632
X111.19Y-102.912
X111.19Y-152.569
X113.73Y-104.436
X114.0Y-162.491
X115.0Y-114.952
X116.0Y-164.269
X116.27Y-103.674
X118.0Y-163.412
X118.81Y-102.15
X118.81Y-151.807
X125.922Y-114.088
X126.176Y-156.379
X127.185Y-109.904
X128.716Y-129.582
X129.478Y-127.042
X129.478Y-164.253
X129.732Y-112.691
X130.24Y-109.897
X130.24Y-124.502
X130.24Y-163.364
X131.002Y-114.088
X131.002Y-119.422
X131.002Y-162.475
T2
X102.935Y-160.697
X102.935Y-168.317
X105.475Y-160.697
X105.475Y-168.317
X122.62Y-105.198
X130.24Y-105.198
T3
X112.0Y-167.102
X114.0Y-167.102
X116.0Y-167.102
X118.0Y-167.102
T4
X103.57Y-106.722
X103.57Y-109.262
X103.57Y-111.802
X103.57Y-114.342
X103.57Y-116.882
X103.57Y-119.422
X103.57Y-121.962
X103.57Y-124.502
X103.57Y-127.042
X103.57Y-129.582
X103.57Y-132.122
X103.57Y-134.662
X103.57Y-137.202
X103.57Y-139.742
X103.57Y-142.282
X103.57Y-144.822
X103.57Y-147.362
X103.57Y-149.902
X106.051Y-119.422
X106.051Y-121.962
X106.051Y-124.573
X106.069Y-129.582
X106.069Y-132.122
X106.069Y-134.662
X106.069Y-137.238
X106.069Y-139.786
X106.069Y-142.282
X106.069Y-144.822
X106.069Y-147.37
X106.11Y-116.882
X106.11Y-127.042
X106.11Y-149.902
X108.591Y-119.422
X108.591Y-121.962
X108.591Y-124.573
X108.609Y-129.582
X108.609Y-132.122
X108.609Y-134.662
X108.609Y-137.238
X108.609Y-139.786
X108.609Y-142.282
X108.609Y-144.822
X108.609Y-147.37
X108.65Y-111.802
X108.65Y-116.882
X108.65Y-127.042
X108.65Y-149.902
X108.65Y-160.062
X111.131Y-119.422
X111.131Y-121.962
X111.131Y-124.573
X111.149Y-129.582
X111.149Y-132.122
X111.149Y-134.662
X111.149Y-137.238
X111.149Y-139.786
X111.149Y-142.282
X111.149Y-144.822
X111.149Y-147.37
X111.19Y-111.802
X111.19Y-116.882
X111.19Y-127.042
X111.19Y-149.902
X111.19Y-160.062
X113.671Y-119.422
X113.671Y-121.962
X113.671Y-124.573
X113.689Y-129.582
X113.689Y-132.122
X113.689Y-134.662
X113.689Y-137.238
X113.689Y-139.786
X113.689Y-142.282
X113.689Y-144.822
X113.689Y-147.37
X113.73Y-111.802
X113.73Y-116.882
X113.73Y-127.042
X113.73Y-149.902
X113.73Y-160.062
X116.211Y-119.422
X116.211Y-121.962
X116.211Y-124.573
X116.229Y-129.582
X116.229Y-132.122
X116.229Y-134.662
X116.229Y-137.238
X116.229Y-139.786
X116.229Y-142.282
X116.229Y-144.822
X116.229Y-147.37
X116.27Y-111.802
X116.27Y-116.882
X116.27Y-127.042
X116.27Y-149.902
X116.27Y-160.062
X118.751Y-119.422
X118.751Y-121.962
X118.751Y-124.573
X118.769Y-129.582
X118.769Y-132.122
X118.769Y-134.662
X118.769Y-137.238
X118.769Y-139.786
X118.769Y-142.282
X118.769Y-144.822
X118.769Y-147.37
X118.81Y-111.802
X118.81Y-116.882
X118.81Y-127.042
X118.81Y-149.902
X118.81Y-160.062
X121.291Y-119.422
X121.291Y-121.962
X121.291Y-124.573
X121.309Y-129.582
X121.309Y-132.122
X121.309Y-134.662
X121.309Y-137.238
X121.309Y-139.786
X121.309Y-142.282
X121.309Y-144.822
X121.309Y-147.37
X121.35Y-111.802
X121.35Y-116.882
X121.35Y-127.042
X121.35Y-149.902
X121.35Y-160.062
X123.831Y-119.422
X123.831Y-121.962
X123.831Y-124.573
X123.849Y-129.582
X123.849Y-132.122
X123.849Y-134.662
X123.849Y-137.238
X123.849Y-139.786
X123.849Y-142.282
X123.849Y-144.822
X123.849Y-147.37
X123.89Y-116.882
X123.89Y-127.042
X123.89Y-149.902
X126.43Y-116.882
X126.43Y-119.422
X126.43Y-121.962
X126.43Y-124.502
X126.43Y-127.042
X126.43Y-129.582
X126.43Y-132.122
X126.43Y-134.662
X126.43Y-137.202
X126.43Y-139.742
X126.43Y-142.282
X126.43Y-144.822
X126.43Y-147.362
X126.43Y-149.902
M30
