%TF.GenerationSoftware,KiCad,Pcbnew,(6.0.8)*%
%TF.CreationDate,2022-10-15T11:30:47-04:00*%
%TF.ProjectId,firebeetle-shield,66697265-6265-4657-946c-652d73686965,v2*%
%TF.SameCoordinates,Original*%
%TF.FileFunction,Legend,Bot*%
%TF.FilePolarity,Positive*%
%FSLAX46Y46*%
G04 Gerber Fmt 4.6, Leading zero omitted, Abs format (unit mm)*
G04 Created by KiCad (PCBNEW (6.0.8)) date 2022-10-15 11:30:47*
%MOMM*%
%LPD*%
G01*
G04 APERTURE LIST*
%ADD10C,0.150000*%
%ADD11C,0.120000*%
G04 APERTURE END LIST*
D10*
X128929095Y-100824380D02*
X128929095Y-99824380D01*
X128691000Y-99824380D01*
X128548142Y-99872000D01*
X128452904Y-99967238D01*
X128405285Y-100062476D01*
X128357666Y-100252952D01*
X128357666Y-100395809D01*
X128405285Y-100586285D01*
X128452904Y-100681523D01*
X128548142Y-100776761D01*
X128691000Y-100824380D01*
X128929095Y-100824380D01*
X127929095Y-100824380D02*
X127929095Y-99824380D01*
X127262428Y-100348190D02*
X127262428Y-100824380D01*
X127595761Y-99824380D02*
X127262428Y-100348190D01*
X126929095Y-99824380D01*
X126691000Y-99824380D02*
X126071952Y-99824380D01*
X126405285Y-100205333D01*
X126262428Y-100205333D01*
X126167190Y-100252952D01*
X126119571Y-100300571D01*
X126071952Y-100395809D01*
X126071952Y-100633904D01*
X126119571Y-100729142D01*
X126167190Y-100776761D01*
X126262428Y-100824380D01*
X126548142Y-100824380D01*
X126643380Y-100776761D01*
X126691000Y-100729142D01*
X125643380Y-100729142D02*
X125595761Y-100776761D01*
X125643380Y-100824380D01*
X125691000Y-100776761D01*
X125643380Y-100729142D01*
X125643380Y-100824380D01*
X125643380Y-100205333D02*
X125595761Y-100252952D01*
X125643380Y-100300571D01*
X125691000Y-100252952D01*
X125643380Y-100205333D01*
X125643380Y-100300571D01*
X124071952Y-100300571D02*
X124405285Y-100300571D01*
X124405285Y-100824380D02*
X124405285Y-99824380D01*
X123929095Y-99824380D01*
X123548142Y-100824380D02*
X123548142Y-100157714D01*
X123548142Y-99824380D02*
X123595761Y-99872000D01*
X123548142Y-99919619D01*
X123500523Y-99872000D01*
X123548142Y-99824380D01*
X123548142Y-99919619D01*
X123071952Y-100824380D02*
X123071952Y-100157714D01*
X123071952Y-100348190D02*
X123024333Y-100252952D01*
X122976714Y-100205333D01*
X122881476Y-100157714D01*
X122786238Y-100157714D01*
X122071952Y-100776761D02*
X122167190Y-100824380D01*
X122357666Y-100824380D01*
X122452904Y-100776761D01*
X122500523Y-100681523D01*
X122500523Y-100300571D01*
X122452904Y-100205333D01*
X122357666Y-100157714D01*
X122167190Y-100157714D01*
X122071952Y-100205333D01*
X122024333Y-100300571D01*
X122024333Y-100395809D01*
X122500523Y-100491047D01*
X121262428Y-100300571D02*
X121119571Y-100348190D01*
X121071952Y-100395809D01*
X121024333Y-100491047D01*
X121024333Y-100633904D01*
X121071952Y-100729142D01*
X121119571Y-100776761D01*
X121214809Y-100824380D01*
X121595761Y-100824380D01*
X121595761Y-99824380D01*
X121262428Y-99824380D01*
X121167190Y-99872000D01*
X121119571Y-99919619D01*
X121071952Y-100014857D01*
X121071952Y-100110095D01*
X121119571Y-100205333D01*
X121167190Y-100252952D01*
X121262428Y-100300571D01*
X121595761Y-100300571D01*
X120214809Y-100776761D02*
X120310047Y-100824380D01*
X120500523Y-100824380D01*
X120595761Y-100776761D01*
X120643380Y-100681523D01*
X120643380Y-100300571D01*
X120595761Y-100205333D01*
X120500523Y-100157714D01*
X120310047Y-100157714D01*
X120214809Y-100205333D01*
X120167190Y-100300571D01*
X120167190Y-100395809D01*
X120643380Y-100491047D01*
X119357666Y-100776761D02*
X119452904Y-100824380D01*
X119643380Y-100824380D01*
X119738619Y-100776761D01*
X119786238Y-100681523D01*
X119786238Y-100300571D01*
X119738619Y-100205333D01*
X119643380Y-100157714D01*
X119452904Y-100157714D01*
X119357666Y-100205333D01*
X119310047Y-100300571D01*
X119310047Y-100395809D01*
X119786238Y-100491047D01*
X119024333Y-100157714D02*
X118643380Y-100157714D01*
X118881476Y-99824380D02*
X118881476Y-100681523D01*
X118833857Y-100776761D01*
X118738619Y-100824380D01*
X118643380Y-100824380D01*
X118167190Y-100824380D02*
X118262428Y-100776761D01*
X118310047Y-100681523D01*
X118310047Y-99824380D01*
X117405285Y-100776761D02*
X117500523Y-100824380D01*
X117691000Y-100824380D01*
X117786238Y-100776761D01*
X117833857Y-100681523D01*
X117833857Y-100300571D01*
X117786238Y-100205333D01*
X117691000Y-100157714D01*
X117500523Y-100157714D01*
X117405285Y-100205333D01*
X117357666Y-100300571D01*
X117357666Y-100395809D01*
X117833857Y-100491047D01*
X116214809Y-100776761D02*
X116071952Y-100824380D01*
X115833857Y-100824380D01*
X115738619Y-100776761D01*
X115691000Y-100729142D01*
X115643380Y-100633904D01*
X115643380Y-100538666D01*
X115691000Y-100443428D01*
X115738619Y-100395809D01*
X115833857Y-100348190D01*
X116024333Y-100300571D01*
X116119571Y-100252952D01*
X116167190Y-100205333D01*
X116214809Y-100110095D01*
X116214809Y-100014857D01*
X116167190Y-99919619D01*
X116119571Y-99872000D01*
X116024333Y-99824380D01*
X115786238Y-99824380D01*
X115643380Y-99872000D01*
X115214809Y-100824380D02*
X115214809Y-99824380D01*
X114786238Y-100824380D02*
X114786238Y-100300571D01*
X114833857Y-100205333D01*
X114929095Y-100157714D01*
X115071952Y-100157714D01*
X115167190Y-100205333D01*
X115214809Y-100252952D01*
X114310047Y-100824380D02*
X114310047Y-100157714D01*
X114310047Y-99824380D02*
X114357666Y-99872000D01*
X114310047Y-99919619D01*
X114262428Y-99872000D01*
X114310047Y-99824380D01*
X114310047Y-99919619D01*
X113452904Y-100776761D02*
X113548142Y-100824380D01*
X113738619Y-100824380D01*
X113833857Y-100776761D01*
X113881476Y-100681523D01*
X113881476Y-100300571D01*
X113833857Y-100205333D01*
X113738619Y-100157714D01*
X113548142Y-100157714D01*
X113452904Y-100205333D01*
X113405285Y-100300571D01*
X113405285Y-100395809D01*
X113881476Y-100491047D01*
X112833857Y-100824380D02*
X112929095Y-100776761D01*
X112976714Y-100681523D01*
X112976714Y-99824380D01*
X112024333Y-100824380D02*
X112024333Y-99824380D01*
X112024333Y-100776761D02*
X112119571Y-100824380D01*
X112310047Y-100824380D01*
X112405285Y-100776761D01*
X112452904Y-100729142D01*
X112500523Y-100633904D01*
X112500523Y-100348190D01*
X112452904Y-100252952D01*
X112405285Y-100205333D01*
X112310047Y-100157714D01*
X112119571Y-100157714D01*
X112024333Y-100205333D01*
X110929095Y-99824380D02*
X110595761Y-100824380D01*
X110262428Y-99824380D01*
X109976714Y-99919619D02*
X109929095Y-99872000D01*
X109833857Y-99824380D01*
X109595761Y-99824380D01*
X109500523Y-99872000D01*
X109452904Y-99919619D01*
X109405285Y-100014857D01*
X109405285Y-100110095D01*
X109452904Y-100252952D01*
X110024333Y-100824380D01*
X109405285Y-100824380D01*
%TO.C,Q1*%
X125950238Y-106539619D02*
X126045476Y-106492000D01*
X126140714Y-106396761D01*
X126283571Y-106253904D01*
X126378809Y-106206285D01*
X126474047Y-106206285D01*
X126426428Y-106444380D02*
X126521666Y-106396761D01*
X126616904Y-106301523D01*
X126664523Y-106111047D01*
X126664523Y-105777714D01*
X126616904Y-105587238D01*
X126521666Y-105492000D01*
X126426428Y-105444380D01*
X126235952Y-105444380D01*
X126140714Y-105492000D01*
X126045476Y-105587238D01*
X125997857Y-105777714D01*
X125997857Y-106111047D01*
X126045476Y-106301523D01*
X126140714Y-106396761D01*
X126235952Y-106444380D01*
X126426428Y-106444380D01*
X125045476Y-106444380D02*
X125616904Y-106444380D01*
X125331190Y-106444380D02*
X125331190Y-105444380D01*
X125426428Y-105587238D01*
X125521666Y-105682476D01*
X125616904Y-105730095D01*
%TO.C,J2*%
X103903333Y-151684380D02*
X103903333Y-152398666D01*
X103950952Y-152541523D01*
X104046190Y-152636761D01*
X104189047Y-152684380D01*
X104284285Y-152684380D01*
X103474761Y-151779619D02*
X103427142Y-151732000D01*
X103331904Y-151684380D01*
X103093809Y-151684380D01*
X102998571Y-151732000D01*
X102950952Y-151779619D01*
X102903333Y-151874857D01*
X102903333Y-151970095D01*
X102950952Y-152112952D01*
X103522380Y-152684380D01*
X102903333Y-152684380D01*
%TO.C,JP2*%
X130438333Y-110873380D02*
X130438333Y-111587666D01*
X130485952Y-111730523D01*
X130581190Y-111825761D01*
X130724047Y-111873380D01*
X130819285Y-111873380D01*
X129962142Y-111873380D02*
X129962142Y-110873380D01*
X129581190Y-110873380D01*
X129485952Y-110921000D01*
X129438333Y-110968619D01*
X129390714Y-111063857D01*
X129390714Y-111206714D01*
X129438333Y-111301952D01*
X129485952Y-111349571D01*
X129581190Y-111397190D01*
X129962142Y-111397190D01*
X129009761Y-110968619D02*
X128962142Y-110921000D01*
X128866904Y-110873380D01*
X128628809Y-110873380D01*
X128533571Y-110921000D01*
X128485952Y-110968619D01*
X128438333Y-111063857D01*
X128438333Y-111159095D01*
X128485952Y-111301952D01*
X129057380Y-111873380D01*
X128438333Y-111873380D01*
%TO.C,J1*%
X126763333Y-151684380D02*
X126763333Y-152398666D01*
X126810952Y-152541523D01*
X126906190Y-152636761D01*
X127049047Y-152684380D01*
X127144285Y-152684380D01*
X125763333Y-152684380D02*
X126334761Y-152684380D01*
X126049047Y-152684380D02*
X126049047Y-151684380D01*
X126144285Y-151827238D01*
X126239523Y-151922476D01*
X126334761Y-151970095D01*
%TO.C,JP1*%
X122707380Y-152878666D02*
X123421666Y-152878666D01*
X123564523Y-152831047D01*
X123659761Y-152735809D01*
X123707380Y-152592952D01*
X123707380Y-152497714D01*
X123707380Y-153354857D02*
X122707380Y-153354857D01*
X122707380Y-153735809D01*
X122755000Y-153831047D01*
X122802619Y-153878666D01*
X122897857Y-153926285D01*
X123040714Y-153926285D01*
X123135952Y-153878666D01*
X123183571Y-153831047D01*
X123231190Y-153735809D01*
X123231190Y-153354857D01*
X123707380Y-154878666D02*
X123707380Y-154307238D01*
X123707380Y-154592952D02*
X122707380Y-154592952D01*
X122850238Y-154497714D01*
X122945476Y-154402476D01*
X122993095Y-154307238D01*
D11*
%TO.C,Q1*%
X125120000Y-108492000D02*
X125120000Y-109152000D01*
X125120000Y-106822000D02*
X125120000Y-107492000D01*
X126530000Y-109152000D02*
X125120000Y-109152000D01*
X125120000Y-106832000D02*
X127855000Y-106832000D01*
%TO.C,J2*%
X102240000Y-149902000D02*
X102240000Y-151232000D01*
X102240000Y-148632000D02*
X102240000Y-105392000D01*
X102240000Y-148632000D02*
X104900000Y-148632000D01*
X104900000Y-148632000D02*
X104900000Y-105392000D01*
X102240000Y-151232000D02*
X103570000Y-151232000D01*
X102240000Y-105392000D02*
X104900000Y-105392000D01*
%TO.C,JP2*%
X127322000Y-110802000D02*
X124522000Y-110802000D01*
X127122000Y-113002000D02*
X127422000Y-113302000D01*
X127972000Y-112102000D02*
X127972000Y-111502000D01*
X123872000Y-111502000D02*
X123872000Y-112102000D01*
X124522000Y-112802000D02*
X127322000Y-112802000D01*
X127422000Y-113302000D02*
X126822000Y-113302000D01*
X127122000Y-113002000D02*
X126822000Y-113302000D01*
X127972000Y-111502000D02*
G75*
G03*
X127272000Y-110802000I-699999J1D01*
G01*
X124572000Y-110802000D02*
G75*
G03*
X123872000Y-111502000I0J-700000D01*
G01*
X127272000Y-112802000D02*
G75*
G03*
X127972000Y-112102000I1J699999D01*
G01*
X123872000Y-112102000D02*
G75*
G03*
X124572000Y-112802000I700000J0D01*
G01*
%TO.C,J1*%
X127760000Y-148632000D02*
X127760000Y-115552000D01*
X125100000Y-149902000D02*
X125100000Y-151232000D01*
X125100000Y-148632000D02*
X127760000Y-148632000D01*
X125100000Y-151232000D02*
X126430000Y-151232000D01*
X125100000Y-148632000D02*
X125100000Y-115552000D01*
X125100000Y-115552000D02*
X127760000Y-115552000D01*
%TO.C,JP1*%
X121650000Y-152312000D02*
X121050000Y-152312000D01*
X121050000Y-155112000D02*
X121650000Y-155112000D01*
X122350000Y-154412000D02*
X122350000Y-153012000D01*
X120350000Y-153012000D02*
X120350000Y-154412000D01*
X122350000Y-153012000D02*
G75*
G03*
X121650000Y-152312000I-700000J0D01*
G01*
X121650000Y-155112000D02*
G75*
G03*
X122350000Y-154412000I1J699999D01*
G01*
X120350000Y-154412000D02*
G75*
G03*
X121050000Y-155112000I699999J-1D01*
G01*
X121050000Y-152312000D02*
G75*
G03*
X120350000Y-153012000I0J-700000D01*
G01*
%TD*%
M02*
