%TF.GenerationSoftware,KiCad,Pcbnew,(6.0.8)*%
%TF.CreationDate,2022-10-21T13:47:49-04:00*%
%TF.ProjectId,firebeetle-shield,66697265-6265-4657-946c-652d73686965,v2*%
%TF.SameCoordinates,Original*%
%TF.FileFunction,Soldermask,Bot*%
%TF.FilePolarity,Negative*%
%FSLAX46Y46*%
G04 Gerber Fmt 4.6, Leading zero omitted, Abs format (unit mm)*
G04 Created by KiCad (PCBNEW (6.0.8)) date 2022-10-21 13:47:49*
%MOMM*%
%LPD*%
G01*
G04 APERTURE LIST*
G04 Aperture macros list*
%AMRoundRect*
0 Rectangle with rounded corners*
0 $1 Rounding radius*
0 $2 $3 $4 $5 $6 $7 $8 $9 X,Y pos of 4 corners*
0 Add a 4 corners polygon primitive as box body*
4,1,4,$2,$3,$4,$5,$6,$7,$8,$9,$2,$3,0*
0 Add four circle primitives for the rounded corners*
1,1,$1+$1,$2,$3*
1,1,$1+$1,$4,$5*
1,1,$1+$1,$6,$7*
1,1,$1+$1,$8,$9*
0 Add four rect primitives between the rounded corners*
20,1,$1+$1,$2,$3,$4,$5,0*
20,1,$1+$1,$4,$5,$6,$7,0*
20,1,$1+$1,$6,$7,$8,$9,0*
20,1,$1+$1,$8,$9,$2,$3,0*%
%AMFreePoly0*
4,1,37,0.585921,0.785921,0.600800,0.750000,0.600800,-0.750000,0.585921,-0.785921,0.550000,-0.800800,0.000000,-0.800800,-0.012526,-0.795612,-0.080872,-0.794359,-0.095090,-0.792057,-0.230405,-0.749782,-0.243405,-0.743581,-0.361415,-0.665026,-0.372153,-0.655426,-0.463373,-0.546907,-0.470984,-0.534678,-0.528079,-0.404919,-0.531952,-0.391047,-0.549535,-0.256587,-0.548147,-0.256405,-0.550800,-0.250000,
-0.550800,0.250000,-0.550314,0.251174,-0.550158,0.263925,-0.528347,0.404002,-0.524136,0.417775,-0.463888,0.546100,-0.455980,0.558139,-0.362136,0.664397,-0.351168,0.673732,-0.231273,0.749380,-0.218125,0.755261,-0.081818,0.794218,-0.067547,0.796173,-0.011991,0.795833,0.000000,0.800800,0.550000,0.800800,0.585921,0.785921,0.585921,0.785921,$1*%
%AMFreePoly1*
4,1,37,0.012350,0.795685,0.074215,0.795307,0.088460,0.793178,0.224281,0.752559,0.237356,0.746518,0.356318,0.669411,0.367173,0.659942,0.459711,0.552545,0.467470,0.540411,0.526147,0.411359,0.530190,0.397535,0.550287,0.257202,0.550800,0.250000,0.550800,-0.250000,0.550796,-0.250620,0.550647,-0.262836,0.549947,-0.270644,0.526427,-0.410445,0.522048,-0.424167,0.460236,-0.551746,
0.452182,-0.563686,0.357047,-0.668790,0.345965,-0.677991,0.225155,-0.752168,0.211936,-0.757888,0.075163,-0.795177,0.060870,-0.796957,0.011464,-0.796051,0.000000,-0.800800,-0.550000,-0.800800,-0.585921,-0.785921,-0.600800,-0.750000,-0.600800,0.750000,-0.585921,0.785921,-0.550000,0.800800,0.000000,0.800800,0.012350,0.795685,0.012350,0.795685,$1*%
%AMFreePoly2*
4,1,37,0.535921,0.785921,0.550800,0.750000,0.550800,-0.750000,0.535921,-0.785921,0.500000,-0.800800,0.000000,-0.800800,-0.012526,-0.795612,-0.080872,-0.794359,-0.095090,-0.792057,-0.230405,-0.749782,-0.243405,-0.743581,-0.361415,-0.665026,-0.372153,-0.655426,-0.463373,-0.546907,-0.470984,-0.534678,-0.528079,-0.404919,-0.531952,-0.391047,-0.549535,-0.256587,-0.548147,-0.256405,-0.550800,-0.250000,
-0.550800,0.250000,-0.550314,0.251174,-0.550158,0.263925,-0.528347,0.404002,-0.524136,0.417775,-0.463888,0.546100,-0.455980,0.558139,-0.362136,0.664397,-0.351168,0.673732,-0.231273,0.749380,-0.218125,0.755261,-0.081818,0.794218,-0.067547,0.796173,-0.011991,0.795833,0.000000,0.800800,0.500000,0.800800,0.535921,0.785921,0.535921,0.785921,$1*%
%AMFreePoly3*
4,1,37,0.012350,0.795685,0.074215,0.795307,0.088460,0.793178,0.224281,0.752559,0.237356,0.746518,0.356318,0.669411,0.367173,0.659942,0.459711,0.552545,0.467470,0.540411,0.526147,0.411359,0.530190,0.397535,0.550287,0.257202,0.550800,0.250000,0.550800,-0.250000,0.550796,-0.250620,0.550647,-0.262836,0.549947,-0.270644,0.526427,-0.410445,0.522048,-0.424167,0.460236,-0.551746,
0.452182,-0.563686,0.357047,-0.668790,0.345965,-0.677991,0.225155,-0.752168,0.211936,-0.757888,0.075163,-0.795177,0.060870,-0.796957,0.011464,-0.796051,0.000000,-0.800800,-0.500000,-0.800800,-0.535921,-0.785921,-0.550800,-0.750000,-0.550800,0.750000,-0.535921,0.785921,-0.500000,0.800800,0.000000,0.800800,0.012350,0.795685,0.012350,0.795685,$1*%
G04 Aperture macros list end*
%ADD10RoundRect,0.300800X-0.350000X-0.625000X0.350000X-0.625000X0.350000X0.625000X-0.350000X0.625000X0*%
%ADD11O,1.301600X1.851600*%
%ADD12C,1.501600*%
%ADD13O,1.501600X1.501600*%
%ADD14C,1.801600*%
%ADD15O,1.801600X1.801600*%
%ADD16RoundRect,0.050800X0.850000X-0.850000X0.850000X0.850000X-0.850000X0.850000X-0.850000X-0.850000X0*%
%ADD17RoundRect,0.050800X-0.850000X0.850000X-0.850000X-0.850000X0.850000X-0.850000X0.850000X0.850000X0*%
%ADD18RoundRect,0.050800X-0.750000X0.225000X-0.750000X-0.225000X0.750000X-0.225000X0.750000X0.225000X0*%
%ADD19RoundRect,0.050800X-0.850000X-0.850000X0.850000X-0.850000X0.850000X0.850000X-0.850000X0.850000X0*%
%ADD20FreePoly0,180.000000*%
%ADD21RoundRect,0.050800X0.500000X0.750000X-0.500000X0.750000X-0.500000X-0.750000X0.500000X-0.750000X0*%
%ADD22FreePoly1,180.000000*%
%ADD23FreePoly2,90.000000*%
%ADD24FreePoly3,90.000000*%
G04 APERTURE END LIST*
D10*
%TO.C,J4*%
X112000000Y-167102000D03*
D11*
X114000000Y-167102000D03*
X116000000Y-167102000D03*
X118000000Y-167102000D03*
%TD*%
D12*
%TO.C,R1*%
X122620000Y-105198000D03*
D13*
X130240000Y-105198000D03*
%TD*%
D14*
%TO.C,REF\u002A\u002A*%
X106051342Y-119422000D03*
X106051342Y-124573143D03*
X106110000Y-127042000D03*
X106051342Y-121962000D03*
X106069092Y-129582000D03*
X106069092Y-139786031D03*
X106069092Y-144822000D03*
X106069092Y-147370322D03*
X106069092Y-137237709D03*
X106110000Y-116882000D03*
X106110000Y-149902000D03*
X106069092Y-142282000D03*
X106069092Y-134662000D03*
X106069092Y-132122000D03*
D15*
X108609092Y-144822000D03*
X108609092Y-139786031D03*
X108650000Y-127042000D03*
X108609092Y-132122000D03*
X108591342Y-121962000D03*
X108609092Y-134662000D03*
X108609092Y-129582000D03*
X108609092Y-147370322D03*
X108591342Y-124573143D03*
X108609092Y-142282000D03*
X108650000Y-116882000D03*
X108609092Y-137237709D03*
X108650000Y-149902000D03*
X108591342Y-119422000D03*
X111149092Y-132122000D03*
X111149092Y-142282000D03*
X111149092Y-139786031D03*
X111131342Y-124573143D03*
X111131342Y-121962000D03*
X111149092Y-137237709D03*
X111131342Y-119422000D03*
X111190000Y-127042000D03*
X111190000Y-149902000D03*
X111149092Y-129582000D03*
X111149092Y-134662000D03*
X111149092Y-144822000D03*
X111149092Y-147370322D03*
X111190000Y-116882000D03*
X113730000Y-116882000D03*
X113671342Y-121962000D03*
X113671342Y-119422000D03*
X113730000Y-127042000D03*
X113689092Y-129582000D03*
X113689092Y-144822000D03*
X113689092Y-134662000D03*
X113671342Y-124573143D03*
X113730000Y-149902000D03*
X113689092Y-139786031D03*
X113689092Y-137237709D03*
X113689092Y-132122000D03*
X113689092Y-142282000D03*
X113689092Y-147370322D03*
X116229092Y-132122000D03*
X116229092Y-144822000D03*
X116211342Y-124573143D03*
X116270000Y-116882000D03*
X116270000Y-127042000D03*
X116270000Y-149902000D03*
X116229092Y-129582000D03*
X116229092Y-137237709D03*
X116229092Y-142282000D03*
X116229092Y-134662000D03*
X116211342Y-119422000D03*
X116229092Y-139786031D03*
X116229092Y-147370322D03*
X116211342Y-121962000D03*
X118769092Y-129582000D03*
X118769092Y-147370322D03*
X118769092Y-132122000D03*
X118751342Y-119422000D03*
X118769092Y-134662000D03*
X118769092Y-139786031D03*
X118751342Y-124573143D03*
X118769092Y-137237709D03*
X118810000Y-127042000D03*
X118751342Y-121962000D03*
X118769092Y-144822000D03*
X118810000Y-116882000D03*
X118810000Y-149902000D03*
X118769092Y-142282000D03*
X121309092Y-144822000D03*
X121309092Y-142282000D03*
D16*
X121350000Y-149902000D03*
D15*
X121291342Y-121962000D03*
X121350000Y-116882000D03*
X121309092Y-132122000D03*
X121309092Y-134662000D03*
X121291342Y-124573143D03*
X121309092Y-129582000D03*
X121291342Y-119422000D03*
X121309092Y-139786031D03*
X121350000Y-127042000D03*
X121309092Y-137237709D03*
X121309092Y-147370322D03*
X123849092Y-129582000D03*
X123890000Y-127042000D03*
X123849092Y-144822000D03*
X123849092Y-142282000D03*
X123831342Y-124573143D03*
X123890000Y-116882000D03*
X123849092Y-134662000D03*
X123849092Y-132122000D03*
X123849092Y-139786031D03*
X123849092Y-137237709D03*
X123831342Y-119422000D03*
X123849092Y-147370322D03*
X123831342Y-121962000D03*
X123890000Y-149902000D03*
%TD*%
D17*
%TO.C,J3*%
X121350000Y-111802000D03*
D15*
X118810000Y-111802000D03*
X116270000Y-111802000D03*
X113730000Y-111802000D03*
X111190000Y-111802000D03*
X108650000Y-111802000D03*
%TD*%
D12*
%TO.C,R2*%
X105475000Y-168317000D03*
D13*
X105475000Y-160697000D03*
%TD*%
D12*
%TO.C,R3*%
X102935000Y-168317000D03*
D13*
X102935000Y-160697000D03*
%TD*%
D17*
%TO.C,J5*%
X121350000Y-160062000D03*
D15*
X118810000Y-160062000D03*
X116270000Y-160062000D03*
X113730000Y-160062000D03*
X111190000Y-160062000D03*
X108650000Y-160062000D03*
%TD*%
D18*
%TO.C,Q1*%
X127185000Y-107342000D03*
X127185000Y-108642000D03*
X124525000Y-107992000D03*
%TD*%
D19*
%TO.C,J2*%
X103570000Y-149902000D03*
D15*
X103570000Y-147362000D03*
X103570000Y-144822000D03*
X103570000Y-142282000D03*
X103570000Y-139742000D03*
X103570000Y-137202000D03*
X103570000Y-134662000D03*
X103570000Y-132122000D03*
X103570000Y-129582000D03*
X103570000Y-127042000D03*
X103570000Y-124502000D03*
X103570000Y-121962000D03*
X103570000Y-119422000D03*
X103570000Y-116882000D03*
X103570000Y-114342000D03*
X103570000Y-111802000D03*
X103570000Y-109262000D03*
X103570000Y-106722000D03*
%TD*%
D20*
%TO.C,JP2*%
X127222000Y-111802000D03*
D21*
X125922000Y-111802000D03*
D22*
X124622000Y-111802000D03*
%TD*%
D19*
%TO.C,J1*%
X126430000Y-149902000D03*
D15*
X126430000Y-147362000D03*
X126430000Y-144822000D03*
X126430000Y-142282000D03*
X126430000Y-139742000D03*
X126430000Y-137202000D03*
X126430000Y-134662000D03*
X126430000Y-132122000D03*
X126430000Y-129582000D03*
X126430000Y-127042000D03*
X126430000Y-124502000D03*
X126430000Y-121962000D03*
X126430000Y-119422000D03*
X126430000Y-116882000D03*
%TD*%
D23*
%TO.C,JP1*%
X121350000Y-154362000D03*
D24*
X121350000Y-153062000D03*
%TD*%
M02*
