%TF.GenerationSoftware,KiCad,Pcbnew,(6.0.8)*%
%TF.CreationDate,2022-10-15T11:30:47-04:00*%
%TF.ProjectId,firebeetle-shield,66697265-6265-4657-946c-652d73686965,v2*%
%TF.SameCoordinates,Original*%
%TF.FileFunction,Copper,L2,Bot*%
%TF.FilePolarity,Positive*%
%FSLAX46Y46*%
G04 Gerber Fmt 4.6, Leading zero omitted, Abs format (unit mm)*
G04 Created by KiCad (PCBNEW (6.0.8)) date 2022-10-15 11:30:47*
%MOMM*%
%LPD*%
G01*
G04 APERTURE LIST*
G04 Aperture macros list*
%AMRoundRect*
0 Rectangle with rounded corners*
0 $1 Rounding radius*
0 $2 $3 $4 $5 $6 $7 $8 $9 X,Y pos of 4 corners*
0 Add a 4 corners polygon primitive as box body*
4,1,4,$2,$3,$4,$5,$6,$7,$8,$9,$2,$3,0*
0 Add four circle primitives for the rounded corners*
1,1,$1+$1,$2,$3*
1,1,$1+$1,$4,$5*
1,1,$1+$1,$6,$7*
1,1,$1+$1,$8,$9*
0 Add four rect primitives between the rounded corners*
20,1,$1+$1,$2,$3,$4,$5,0*
20,1,$1+$1,$4,$5,$6,$7,0*
20,1,$1+$1,$6,$7,$8,$9,0*
20,1,$1+$1,$8,$9,$2,$3,0*%
%AMFreePoly0*
4,1,22,0.550000,-0.750000,0.000000,-0.750000,0.000000,-0.745033,-0.079941,-0.743568,-0.215256,-0.701293,-0.333266,-0.622738,-0.424486,-0.514219,-0.481581,-0.384460,-0.499164,-0.250000,-0.500000,-0.250000,-0.500000,0.250000,-0.499164,0.250000,-0.499963,0.256109,-0.478152,0.396186,-0.417904,0.524511,-0.324060,0.630769,-0.204165,0.706417,-0.067858,0.745374,0.000000,0.744959,0.000000,0.750000,
0.550000,0.750000,0.550000,-0.750000,0.550000,-0.750000,$1*%
%AMFreePoly1*
4,1,20,0.000000,0.744959,0.073905,0.744508,0.209726,0.703889,0.328688,0.626782,0.421226,0.519385,0.479903,0.390333,0.500000,0.250000,0.500000,-0.250000,0.499851,-0.262216,0.476331,-0.402017,0.414519,-0.529596,0.319384,-0.634700,0.198574,-0.708877,0.061801,-0.746166,0.000000,-0.745033,0.000000,-0.750000,-0.550000,-0.750000,-0.550000,0.750000,0.000000,0.750000,0.000000,0.744959,
0.000000,0.744959,$1*%
%AMFreePoly2*
4,1,22,0.500000,-0.750000,0.000000,-0.750000,0.000000,-0.745033,-0.079941,-0.743568,-0.215256,-0.701293,-0.333266,-0.622738,-0.424486,-0.514219,-0.481581,-0.384460,-0.499164,-0.250000,-0.500000,-0.250000,-0.500000,0.250000,-0.499164,0.250000,-0.499963,0.256109,-0.478152,0.396186,-0.417904,0.524511,-0.324060,0.630769,-0.204165,0.706417,-0.067858,0.745374,0.000000,0.744959,0.000000,0.750000,
0.500000,0.750000,0.500000,-0.750000,0.500000,-0.750000,$1*%
%AMFreePoly3*
4,1,20,0.000000,0.744959,0.073905,0.744508,0.209726,0.703889,0.328688,0.626782,0.421226,0.519385,0.479903,0.390333,0.500000,0.250000,0.500000,-0.250000,0.499851,-0.262216,0.476331,-0.402017,0.414519,-0.529596,0.319384,-0.634700,0.198574,-0.708877,0.061801,-0.746166,0.000000,-0.745033,0.000000,-0.750000,-0.500000,-0.750000,-0.500000,0.750000,0.000000,0.750000,0.000000,0.744959,
0.000000,0.744959,$1*%
G04 Aperture macros list end*
%TA.AperFunction,ComponentPad*%
%ADD10RoundRect,0.250000X-0.350000X-0.625000X0.350000X-0.625000X0.350000X0.625000X-0.350000X0.625000X0*%
%TD*%
%TA.AperFunction,ComponentPad*%
%ADD11O,1.200000X1.750000*%
%TD*%
%TA.AperFunction,ComponentPad*%
%ADD12C,1.400000*%
%TD*%
%TA.AperFunction,ComponentPad*%
%ADD13O,1.400000X1.400000*%
%TD*%
%TA.AperFunction,ComponentPad*%
%ADD14C,1.700000*%
%TD*%
%TA.AperFunction,ComponentPad*%
%ADD15O,1.700000X1.700000*%
%TD*%
%TA.AperFunction,ComponentPad*%
%ADD16R,1.700000X1.700000*%
%TD*%
%TA.AperFunction,SMDPad,CuDef*%
%ADD17R,1.500000X0.450000*%
%TD*%
%TA.AperFunction,SMDPad,CuDef*%
%ADD18FreePoly0,180.000000*%
%TD*%
%TA.AperFunction,SMDPad,CuDef*%
%ADD19R,1.000000X1.500000*%
%TD*%
%TA.AperFunction,SMDPad,CuDef*%
%ADD20FreePoly1,180.000000*%
%TD*%
%TA.AperFunction,SMDPad,CuDef*%
%ADD21FreePoly2,90.000000*%
%TD*%
%TA.AperFunction,SMDPad,CuDef*%
%ADD22FreePoly3,90.000000*%
%TD*%
%TA.AperFunction,ViaPad*%
%ADD23C,0.800000*%
%TD*%
%TA.AperFunction,Conductor*%
%ADD24C,0.250000*%
%TD*%
G04 APERTURE END LIST*
%TO.C,JP1*%
G36*
X121650000Y-153962000D02*
G01*
X121050000Y-153962000D01*
X121050000Y-153462000D01*
X121650000Y-153462000D01*
X121650000Y-153962000D01*
G37*
%TD*%
D10*
%TO.P,J4,1,Pin_1*%
%TO.N,GND*%
X112000000Y-167102000D03*
D11*
%TO.P,J4,2,Pin_2*%
%TO.N,3V3*%
X114000000Y-167102000D03*
%TO.P,J4,3,Pin_3*%
%TO.N,SDA1*%
X116000000Y-167102000D03*
%TO.P,J4,4,Pin_4*%
%TO.N,SCL1*%
X118000000Y-167102000D03*
%TD*%
D12*
%TO.P,R1,1*%
%TO.N,SD Switch*%
X122620000Y-105198000D03*
D13*
%TO.P,R1,2*%
%TO.N,Net-(JP2-Pad1)*%
X130240000Y-105198000D03*
%TD*%
D14*
%TO.P,REF\u002A\u002A,1*%
%TO.N,N/C*%
X106051342Y-119422000D03*
X106051342Y-124573143D03*
X106110000Y-127042000D03*
X106051342Y-121962000D03*
X106069092Y-129582000D03*
X106069092Y-139786031D03*
X106069092Y-144822000D03*
X106069092Y-147370322D03*
X106069092Y-137237709D03*
X106110000Y-116882000D03*
X106110000Y-149902000D03*
X106069092Y-142282000D03*
X106069092Y-134662000D03*
X106069092Y-132122000D03*
D15*
%TO.P,REF\u002A\u002A,2*%
X108609092Y-144822000D03*
X108609092Y-139786031D03*
X108650000Y-127042000D03*
X108609092Y-132122000D03*
X108591342Y-121962000D03*
X108609092Y-134662000D03*
X108609092Y-129582000D03*
X108609092Y-147370322D03*
X108591342Y-124573143D03*
X108609092Y-142282000D03*
X108650000Y-116882000D03*
X108609092Y-137237709D03*
X108650000Y-149902000D03*
X108591342Y-119422000D03*
%TO.P,REF\u002A\u002A,3*%
X111149092Y-132122000D03*
X111149092Y-142282000D03*
X111149092Y-139786031D03*
X111131342Y-124573143D03*
X111131342Y-121962000D03*
X111149092Y-137237709D03*
X111131342Y-119422000D03*
X111190000Y-127042000D03*
X111190000Y-149902000D03*
X111149092Y-129582000D03*
X111149092Y-134662000D03*
X111149092Y-144822000D03*
X111149092Y-147370322D03*
X111190000Y-116882000D03*
%TO.P,REF\u002A\u002A,4*%
X113730000Y-116882000D03*
X113671342Y-121962000D03*
X113671342Y-119422000D03*
X113730000Y-127042000D03*
X113689092Y-129582000D03*
X113689092Y-144822000D03*
X113689092Y-134662000D03*
X113671342Y-124573143D03*
X113730000Y-149902000D03*
X113689092Y-139786031D03*
X113689092Y-137237709D03*
X113689092Y-132122000D03*
X113689092Y-142282000D03*
X113689092Y-147370322D03*
%TO.P,REF\u002A\u002A,5*%
X116229092Y-132122000D03*
X116229092Y-144822000D03*
X116211342Y-124573143D03*
X116270000Y-116882000D03*
X116270000Y-127042000D03*
X116270000Y-149902000D03*
X116229092Y-129582000D03*
X116229092Y-137237709D03*
X116229092Y-142282000D03*
X116229092Y-134662000D03*
X116211342Y-119422000D03*
X116229092Y-139786031D03*
X116229092Y-147370322D03*
X116211342Y-121962000D03*
%TO.P,REF\u002A\u002A,6*%
X118769092Y-129582000D03*
X118769092Y-147370322D03*
X118769092Y-132122000D03*
X118751342Y-119422000D03*
X118769092Y-134662000D03*
X118769092Y-139786031D03*
X118751342Y-124573143D03*
X118769092Y-137237709D03*
X118810000Y-127042000D03*
X118751342Y-121962000D03*
X118769092Y-144822000D03*
X118810000Y-116882000D03*
X118810000Y-149902000D03*
X118769092Y-142282000D03*
%TO.P,REF\u002A\u002A,7*%
X121309092Y-144822000D03*
X121309092Y-142282000D03*
D16*
%TO.N,32K*%
X121350000Y-149902000D03*
D15*
%TO.N,N/C*%
X121291342Y-121962000D03*
X121350000Y-116882000D03*
X121309092Y-132122000D03*
X121309092Y-134662000D03*
X121291342Y-124573143D03*
X121309092Y-129582000D03*
X121291342Y-119422000D03*
X121309092Y-139786031D03*
X121350000Y-127042000D03*
X121309092Y-137237709D03*
X121309092Y-147370322D03*
%TO.P,REF\u002A\u002A,8*%
X123849092Y-129582000D03*
X123890000Y-127042000D03*
X123849092Y-144822000D03*
X123849092Y-142282000D03*
X123831342Y-124573143D03*
X123890000Y-116882000D03*
X123849092Y-134662000D03*
X123849092Y-132122000D03*
X123849092Y-139786031D03*
X123849092Y-137237709D03*
X123831342Y-119422000D03*
X123849092Y-147370322D03*
X123831342Y-121962000D03*
X123890000Y-149902000D03*
%TD*%
D16*
%TO.P,J3,1,Pin_1*%
%TO.N,Net-(J3-Pad1)*%
X121350000Y-111802000D03*
D15*
%TO.P,J3,2,Pin_2*%
%TO.N,CS*%
X118810000Y-111802000D03*
%TO.P,J3,3,Pin_3*%
%TO.N,MOSI*%
X116270000Y-111802000D03*
%TO.P,J3,4,Pin_4*%
%TO.N,SCK*%
X113730000Y-111802000D03*
%TO.P,J3,5,Pin_5*%
%TO.N,MISO*%
X111190000Y-111802000D03*
%TO.P,J3,6,Pin_6*%
%TO.N,GND*%
X108650000Y-111802000D03*
%TD*%
D12*
%TO.P,R2,1*%
%TO.N,SDA1*%
X105475000Y-168317000D03*
D13*
%TO.P,R2,2*%
%TO.N,3V3*%
X105475000Y-160697000D03*
%TD*%
D12*
%TO.P,R3,1*%
%TO.N,SCL1*%
X102935000Y-168317000D03*
D13*
%TO.P,R3,2*%
%TO.N,3V3*%
X102935000Y-160697000D03*
%TD*%
D16*
%TO.P,J5,1,Pin_1*%
%TO.N,Net-(J5-Pad1)*%
X121350000Y-160062000D03*
D15*
%TO.P,J5,2,Pin_2*%
%TO.N,SQW*%
X118810000Y-160062000D03*
%TO.P,J5,3,Pin_3*%
%TO.N,SCL1*%
X116270000Y-160062000D03*
%TO.P,J5,4,Pin_4*%
%TO.N,SDA1*%
X113730000Y-160062000D03*
%TO.P,J5,5,Pin_5*%
%TO.N,RTC VCC*%
X111190000Y-160062000D03*
%TO.P,J5,6,Pin_6*%
%TO.N,GND*%
X108650000Y-160062000D03*
%TD*%
D17*
%TO.P,Q1,1,G*%
%TO.N,SD Switch*%
X127185000Y-107342000D03*
%TO.P,Q1,2,S*%
%TO.N,Net-(JP2-Pad1)*%
X127185000Y-108642000D03*
%TO.P,Q1,3,D*%
%TO.N,Net-(J3-Pad1)*%
X124525000Y-107992000D03*
%TD*%
D16*
%TO.P,J2,1,RX*%
%TO.N,unconnected-(J2-Pad1)*%
X103570000Y-149902000D03*
D15*
%TO.P,J2,2,TX*%
%TO.N,unconnected-(J2-Pad2)*%
X103570000Y-147362000D03*
%TO.P,J2,3,D2*%
%TO.N,SQW*%
X103570000Y-144822000D03*
%TO.P,J2,4,D3*%
%TO.N,RTC VCC*%
X103570000Y-142282000D03*
%TO.P,J2,5,D5*%
%TO.N,SCL2*%
X103570000Y-139742000D03*
%TO.P,J2,6,D6*%
%TO.N,SDA2*%
X103570000Y-137202000D03*
%TO.P,J2,7,D7*%
%TO.N,CS*%
X103570000Y-134662000D03*
%TO.P,J2,8,D9*%
%TO.N,unconnected-(J2-Pad8)*%
X103570000Y-132122000D03*
%TO.P,J2,9,SDA*%
%TO.N,SDA2*%
X103570000Y-129582000D03*
%TO.P,J2,10,SCL*%
%TO.N,SCL2*%
X103570000Y-127042000D03*
%TO.P,J2,11,MISO*%
%TO.N,MISO*%
X103570000Y-124502000D03*
%TO.P,J2,12,MOSI*%
%TO.N,MOSI*%
X103570000Y-121962000D03*
%TO.P,J2,13,SCK*%
%TO.N,SCK*%
X103570000Y-119422000D03*
%TO.P,J2,14,EN*%
%TO.N,unconnected-(J2-Pad14)*%
X103570000Y-116882000D03*
%TO.P,J2,15,GND*%
%TO.N,GND*%
X103570000Y-114342000D03*
%TO.P,J2,16,NC*%
%TO.N,unconnected-(J2-Pad16)*%
X103570000Y-111802000D03*
%TO.P,J2,17,3V3*%
%TO.N,unconnected-(J2-Pad17)*%
X103570000Y-109262000D03*
%TO.P,J2,18,RST*%
%TO.N,unconnected-(J2-Pad18)*%
X103570000Y-106722000D03*
%TD*%
D18*
%TO.P,JP2,1,A*%
%TO.N,Net-(JP2-Pad1)*%
X127222000Y-111802000D03*
D19*
%TO.P,JP2,2,C*%
%TO.N,3V3*%
X125922000Y-111802000D03*
D20*
%TO.P,JP2,3,B*%
%TO.N,Net-(J3-Pad1)*%
X124622000Y-111802000D03*
%TD*%
D16*
%TO.P,J1,1,D10*%
%TO.N,unconnected-(J1-Pad1)*%
X126430000Y-149902000D03*
D15*
%TO.P,J1,2,D11*%
%TO.N,unconnected-(J1-Pad2)*%
X126430000Y-147362000D03*
%TO.P,J1,3,D12*%
%TO.N,unconnected-(J1-Pad3)*%
X126430000Y-144822000D03*
%TO.P,J1,4,D13*%
%TO.N,unconnected-(J1-Pad4)*%
X126430000Y-142282000D03*
%TO.P,J1,5,A0*%
%TO.N,unconnected-(J1-Pad5)*%
X126430000Y-139742000D03*
%TO.P,J1,6,A1*%
%TO.N,unconnected-(J1-Pad6)*%
X126430000Y-137202000D03*
%TO.P,J1,7,A2*%
%TO.N,unconnected-(J1-Pad7)*%
X126430000Y-134662000D03*
%TO.P,J1,8,A3*%
%TO.N,unconnected-(J1-Pad8)*%
X126430000Y-132122000D03*
%TO.P,J1,9,A4*%
%TO.N,SD Switch*%
X126430000Y-129582000D03*
%TO.P,J1,10,SDA*%
%TO.N,SDA1*%
X126430000Y-127042000D03*
%TO.P,J1,11,SCL*%
%TO.N,SCL1*%
X126430000Y-124502000D03*
%TO.P,J1,12,GND*%
%TO.N,GND*%
X126430000Y-121962000D03*
%TO.P,J1,13,3V3*%
%TO.N,3V3*%
X126430000Y-119422000D03*
%TO.P,J1,14,VCC*%
%TO.N,unconnected-(J1-Pad14)*%
X126430000Y-116882000D03*
%TD*%
D21*
%TO.P,JP1,1,A*%
%TO.N,Net-(J5-Pad1)*%
X121350000Y-154362000D03*
D22*
%TO.P,JP1,2,B*%
%TO.N,32K*%
X121350000Y-153062000D03*
%TD*%
D23*
%TO.N,SDA1*%
X129478000Y-164253000D03*
%TO.N,SDA2*%
X100522000Y-129582000D03*
X100522000Y-137202000D03*
%TO.N,SDA1*%
X129478000Y-127042000D03*
X116000000Y-164269000D03*
%TO.N,SCL2*%
X99760000Y-127042000D03*
X99760000Y-139742000D03*
%TO.N,SCL1*%
X118000000Y-163412000D03*
X130240000Y-163364000D03*
X130240000Y-124502000D03*
%TO.N,MOSI*%
X100522000Y-121962000D03*
X116270000Y-103674000D03*
X100522000Y-103674000D03*
%TO.N,MISO*%
X99760000Y-102912000D03*
X99760000Y-124502000D03*
X111190000Y-102912000D03*
%TO.N,GND*%
X115000000Y-114596000D03*
X129732000Y-112691000D03*
X126176000Y-156379000D03*
X101284000Y-148632000D03*
X101284000Y-141012000D03*
X100522000Y-160062000D03*
%TO.N,3V3*%
X131002000Y-119422000D03*
X114000000Y-162491000D03*
X131002000Y-162475000D03*
X125922000Y-114088000D03*
X131002000Y-114088000D03*
%TO.N,SCK*%
X101284000Y-119422000D03*
X101284000Y-104436000D03*
X113730000Y-104436000D03*
%TO.N,CS*%
X118810000Y-102150000D03*
X98998000Y-134662000D03*
X98998000Y-102150000D03*
%TO.N,SD Switch*%
X128716000Y-129582000D03*
%TO.N,SQW*%
X98998000Y-151807000D03*
X118810000Y-151807000D03*
X98998000Y-144822000D03*
%TO.N,RTC VCC*%
X111190000Y-152569000D03*
X99760000Y-142282000D03*
X99760000Y-152569000D03*
%TO.N,Net-(JP2-Pad1)*%
X130240000Y-109897000D03*
X127185000Y-109904000D03*
%TD*%
D24*
%TO.N,SDA1*%
X116000000Y-162332000D02*
X113730000Y-160062000D01*
X116000000Y-167102000D02*
X116000000Y-164269000D01*
%TO.N,SDA2*%
X100522000Y-137202000D02*
X100522000Y-129582000D01*
%TO.N,SDA1*%
X129478000Y-127042000D02*
X129478000Y-164253000D01*
X116000000Y-164269000D02*
X116000000Y-162332000D01*
%TO.N,SCL1*%
X130240000Y-124502000D02*
X130240000Y-163364000D01*
X118000000Y-161792000D02*
X116270000Y-160062000D01*
%TO.N,SCL2*%
X99760000Y-139742000D02*
X99760000Y-127042000D01*
%TO.N,SCL1*%
X118000000Y-163412000D02*
X118000000Y-161792000D01*
X118000000Y-167102000D02*
X118000000Y-163412000D01*
%TO.N,32K*%
X121350000Y-153062000D02*
X121350000Y-149902000D01*
%TO.N,MOSI*%
X100522000Y-121962000D02*
X100522000Y-103674000D01*
X116270000Y-103674000D02*
X116270000Y-111802000D01*
%TO.N,MISO*%
X111190000Y-102912000D02*
X111190000Y-111802000D01*
X99760000Y-124502000D02*
X99760000Y-102912000D01*
%TO.N,3V3*%
X131002000Y-119422000D02*
X131002000Y-114088000D01*
X114000000Y-167102000D02*
X114000000Y-162491000D01*
X131002000Y-119422000D02*
X131002000Y-162475000D01*
X125922000Y-114088000D02*
X125922000Y-111802000D01*
%TO.N,SCK*%
X113730000Y-104436000D02*
X113730000Y-111802000D01*
X101284000Y-119422000D02*
X101284000Y-104563000D01*
%TO.N,CS*%
X118810000Y-102150000D02*
X118810000Y-111802000D01*
X98998000Y-134662000D02*
X98998000Y-102150000D01*
%TO.N,SD Switch*%
X128716000Y-107738000D02*
X128320000Y-107342000D01*
X124764000Y-107342000D02*
X122620000Y-105198000D01*
X127185000Y-107342000D02*
X124764000Y-107342000D01*
X128320000Y-107342000D02*
X127185000Y-107342000D01*
X128716000Y-129582000D02*
X128716000Y-107738000D01*
%TO.N,SQW*%
X118810000Y-151807000D02*
X118810000Y-160062000D01*
X98998000Y-151807000D02*
X98998000Y-144822000D01*
%TO.N,RTC VCC*%
X111190000Y-160062000D02*
X111190000Y-152569000D01*
X99760000Y-142282000D02*
X99760000Y-152569000D01*
%TO.N,Net-(J3-Pad1)*%
X123509000Y-110024000D02*
X124525000Y-109008000D01*
X124622000Y-111802000D02*
X121350000Y-111802000D01*
X121350000Y-110405000D02*
X121731000Y-110024000D01*
X124525000Y-109008000D02*
X124525000Y-107992000D01*
X121731000Y-110024000D02*
X123509000Y-110024000D01*
X121350000Y-111802000D02*
X121350000Y-110405000D01*
%TO.N,Net-(J5-Pad1)*%
X121350000Y-160062000D02*
X121350000Y-154362000D01*
%TO.N,Net-(JP2-Pad1)*%
X130240000Y-109897000D02*
X130240000Y-105198000D01*
X127185000Y-109904000D02*
X127185000Y-108642000D01*
X127185000Y-111765000D02*
X127185000Y-109904000D01*
%TD*%
%TA.AperFunction,Conductor*%
%TO.N,GND*%
G36*
X102256520Y-119842409D02*
G01*
X102295375Y-119894047D01*
X102353266Y-120036616D01*
X102392638Y-120100866D01*
X102467291Y-120222688D01*
X102469987Y-120227088D01*
X102616250Y-120395938D01*
X102788126Y-120538632D01*
X102858595Y-120579811D01*
X102861445Y-120581476D01*
X102910169Y-120633114D01*
X102923240Y-120702897D01*
X102896509Y-120768669D01*
X102856055Y-120802027D01*
X102843607Y-120808507D01*
X102839474Y-120811610D01*
X102839471Y-120811612D01*
X102815247Y-120829800D01*
X102664965Y-120942635D01*
X102510629Y-121104138D01*
X102507720Y-121108403D01*
X102507714Y-121108411D01*
X102495404Y-121126457D01*
X102384743Y-121288680D01*
X102368899Y-121322814D01*
X102323716Y-121420153D01*
X102290688Y-121491305D01*
X102230989Y-121706570D01*
X102207251Y-121928695D01*
X102220110Y-122151715D01*
X102221247Y-122156761D01*
X102221248Y-122156767D01*
X102234597Y-122216000D01*
X102269222Y-122369639D01*
X102353266Y-122576616D01*
X102392638Y-122640866D01*
X102467291Y-122762688D01*
X102469987Y-122767088D01*
X102616250Y-122935938D01*
X102788126Y-123078632D01*
X102858595Y-123119811D01*
X102861445Y-123121476D01*
X102910169Y-123173114D01*
X102923240Y-123242897D01*
X102896509Y-123308669D01*
X102856055Y-123342027D01*
X102843607Y-123348507D01*
X102839474Y-123351610D01*
X102839471Y-123351612D01*
X102669100Y-123479530D01*
X102664965Y-123482635D01*
X102510629Y-123644138D01*
X102507715Y-123648410D01*
X102507714Y-123648411D01*
X102459189Y-123719546D01*
X102384743Y-123828680D01*
X102351720Y-123899823D01*
X102312233Y-123984891D01*
X102290688Y-124031305D01*
X102230989Y-124246570D01*
X102207251Y-124468695D01*
X102207548Y-124473848D01*
X102207548Y-124473851D01*
X102213011Y-124568590D01*
X102220110Y-124691715D01*
X102221247Y-124696761D01*
X102221248Y-124696767D01*
X102241119Y-124784939D01*
X102269222Y-124909639D01*
X102353266Y-125116616D01*
X102355965Y-125121020D01*
X102467291Y-125302688D01*
X102469987Y-125307088D01*
X102616250Y-125475938D01*
X102788126Y-125618632D01*
X102858595Y-125659811D01*
X102861445Y-125661476D01*
X102910169Y-125713114D01*
X102923240Y-125782897D01*
X102896509Y-125848669D01*
X102856055Y-125882027D01*
X102843607Y-125888507D01*
X102839474Y-125891610D01*
X102839471Y-125891612D01*
X102669100Y-126019530D01*
X102664965Y-126022635D01*
X102510629Y-126184138D01*
X102384743Y-126368680D01*
X102290688Y-126571305D01*
X102230989Y-126786570D01*
X102207251Y-127008695D01*
X102207548Y-127013848D01*
X102207548Y-127013851D01*
X102213011Y-127108590D01*
X102220110Y-127231715D01*
X102221247Y-127236761D01*
X102221248Y-127236767D01*
X102241119Y-127324939D01*
X102269222Y-127449639D01*
X102353266Y-127656616D01*
X102404019Y-127739438D01*
X102467291Y-127842688D01*
X102469987Y-127847088D01*
X102616250Y-128015938D01*
X102788126Y-128158632D01*
X102842172Y-128190214D01*
X102861445Y-128201476D01*
X102910169Y-128253114D01*
X102923240Y-128322897D01*
X102896509Y-128388669D01*
X102856055Y-128422027D01*
X102843607Y-128428507D01*
X102839474Y-128431610D01*
X102839471Y-128431612D01*
X102669100Y-128559530D01*
X102664965Y-128562635D01*
X102510629Y-128724138D01*
X102384743Y-128908680D01*
X102359163Y-128963787D01*
X102320119Y-129047902D01*
X102290688Y-129111305D01*
X102230989Y-129326570D01*
X102207251Y-129548695D01*
X102220110Y-129771715D01*
X102221247Y-129776761D01*
X102221248Y-129776767D01*
X102242275Y-129870069D01*
X102269222Y-129989639D01*
X102353266Y-130196616D01*
X102392638Y-130260866D01*
X102467291Y-130382688D01*
X102469987Y-130387088D01*
X102616250Y-130555938D01*
X102788126Y-130698632D01*
X102858595Y-130739811D01*
X102861445Y-130741476D01*
X102910169Y-130793114D01*
X102923240Y-130862897D01*
X102896509Y-130928669D01*
X102856055Y-130962027D01*
X102843607Y-130968507D01*
X102839474Y-130971610D01*
X102839471Y-130971612D01*
X102815247Y-130989800D01*
X102664965Y-131102635D01*
X102510629Y-131264138D01*
X102384743Y-131448680D01*
X102357555Y-131507252D01*
X102320119Y-131587902D01*
X102290688Y-131651305D01*
X102230989Y-131866570D01*
X102207251Y-132088695D01*
X102207548Y-132093848D01*
X102207548Y-132093851D01*
X102213011Y-132188590D01*
X102220110Y-132311715D01*
X102221247Y-132316761D01*
X102221248Y-132316767D01*
X102241119Y-132404939D01*
X102269222Y-132529639D01*
X102353266Y-132736616D01*
X102393444Y-132802181D01*
X102467291Y-132922688D01*
X102469987Y-132927088D01*
X102616250Y-133095938D01*
X102788126Y-133238632D01*
X102858595Y-133279811D01*
X102861445Y-133281476D01*
X102910169Y-133333114D01*
X102923240Y-133402897D01*
X102896509Y-133468669D01*
X102856055Y-133502027D01*
X102843607Y-133508507D01*
X102839474Y-133511610D01*
X102839471Y-133511612D01*
X102815247Y-133529800D01*
X102664965Y-133642635D01*
X102510629Y-133804138D01*
X102384743Y-133988680D01*
X102357555Y-134047252D01*
X102320119Y-134127902D01*
X102290688Y-134191305D01*
X102230989Y-134406570D01*
X102207251Y-134628695D01*
X102207548Y-134633848D01*
X102207548Y-134633851D01*
X102213011Y-134728590D01*
X102220110Y-134851715D01*
X102221247Y-134856761D01*
X102221248Y-134856767D01*
X102241119Y-134944939D01*
X102269222Y-135069639D01*
X102353266Y-135276616D01*
X102393444Y-135342181D01*
X102467291Y-135462688D01*
X102469987Y-135467088D01*
X102616250Y-135635938D01*
X102788126Y-135778632D01*
X102858595Y-135819811D01*
X102861445Y-135821476D01*
X102910169Y-135873114D01*
X102923240Y-135942897D01*
X102896509Y-136008669D01*
X102856055Y-136042027D01*
X102843607Y-136048507D01*
X102839474Y-136051610D01*
X102839471Y-136051612D01*
X102771952Y-136102307D01*
X102664965Y-136182635D01*
X102510629Y-136344138D01*
X102507715Y-136348410D01*
X102507714Y-136348411D01*
X102471045Y-136402166D01*
X102384743Y-136528680D01*
X102369003Y-136562590D01*
X102323716Y-136660153D01*
X102290688Y-136731305D01*
X102230989Y-136946570D01*
X102207251Y-137168695D01*
X102207548Y-137173848D01*
X102207548Y-137173851D01*
X102213011Y-137268590D01*
X102220110Y-137391715D01*
X102221247Y-137396761D01*
X102221248Y-137396767D01*
X102241119Y-137484939D01*
X102269222Y-137609639D01*
X102353266Y-137816616D01*
X102389629Y-137875955D01*
X102463072Y-137995803D01*
X102469987Y-138007088D01*
X102616250Y-138175938D01*
X102788126Y-138318632D01*
X102843579Y-138351036D01*
X102861445Y-138361476D01*
X102910169Y-138413114D01*
X102923240Y-138482897D01*
X102896509Y-138548669D01*
X102856055Y-138582027D01*
X102843607Y-138588507D01*
X102839474Y-138591610D01*
X102839471Y-138591612D01*
X102760868Y-138650629D01*
X102664965Y-138722635D01*
X102510629Y-138884138D01*
X102384743Y-139068680D01*
X102364305Y-139112711D01*
X102323716Y-139200153D01*
X102290688Y-139271305D01*
X102230989Y-139486570D01*
X102207251Y-139708695D01*
X102207548Y-139713848D01*
X102207548Y-139713851D01*
X102213011Y-139808590D01*
X102220110Y-139931715D01*
X102221247Y-139936761D01*
X102221248Y-139936767D01*
X102241119Y-140024939D01*
X102269222Y-140149639D01*
X102353266Y-140356616D01*
X102376854Y-140395108D01*
X102467291Y-140542688D01*
X102469987Y-140547088D01*
X102616250Y-140715938D01*
X102788126Y-140858632D01*
X102857820Y-140899358D01*
X102861445Y-140901476D01*
X102910169Y-140953114D01*
X102923240Y-141022897D01*
X102896509Y-141088669D01*
X102856055Y-141122027D01*
X102843607Y-141128507D01*
X102839474Y-141131610D01*
X102839471Y-141131612D01*
X102815247Y-141149800D01*
X102664965Y-141262635D01*
X102510629Y-141424138D01*
X102384743Y-141608680D01*
X102357555Y-141667252D01*
X102320119Y-141747902D01*
X102290688Y-141811305D01*
X102230989Y-142026570D01*
X102207251Y-142248695D01*
X102207548Y-142253848D01*
X102207548Y-142253851D01*
X102213011Y-142348590D01*
X102220110Y-142471715D01*
X102221247Y-142476761D01*
X102221248Y-142476767D01*
X102241119Y-142564939D01*
X102269222Y-142689639D01*
X102353266Y-142896616D01*
X102393444Y-142962181D01*
X102467291Y-143082688D01*
X102469987Y-143087088D01*
X102616250Y-143255938D01*
X102788126Y-143398632D01*
X102858595Y-143439811D01*
X102861445Y-143441476D01*
X102910169Y-143493114D01*
X102923240Y-143562897D01*
X102896509Y-143628669D01*
X102856055Y-143662027D01*
X102843607Y-143668507D01*
X102839474Y-143671610D01*
X102839471Y-143671612D01*
X102669100Y-143799530D01*
X102664965Y-143802635D01*
X102510629Y-143964138D01*
X102384743Y-144148680D01*
X102357555Y-144207252D01*
X102320119Y-144287902D01*
X102290688Y-144351305D01*
X102230989Y-144566570D01*
X102207251Y-144788695D01*
X102207548Y-144793848D01*
X102207548Y-144793851D01*
X102213011Y-144888590D01*
X102220110Y-145011715D01*
X102221247Y-145016761D01*
X102221248Y-145016767D01*
X102241119Y-145104939D01*
X102269222Y-145229639D01*
X102353266Y-145436616D01*
X102393444Y-145502181D01*
X102467291Y-145622688D01*
X102469987Y-145627088D01*
X102616250Y-145795938D01*
X102788126Y-145938632D01*
X102858595Y-145979811D01*
X102861445Y-145981476D01*
X102910169Y-146033114D01*
X102923240Y-146102897D01*
X102896509Y-146168669D01*
X102856055Y-146202027D01*
X102843607Y-146208507D01*
X102839474Y-146211610D01*
X102839471Y-146211612D01*
X102808428Y-146234920D01*
X102664965Y-146342635D01*
X102510629Y-146504138D01*
X102384743Y-146688680D01*
X102290688Y-146891305D01*
X102230989Y-147106570D01*
X102207251Y-147328695D01*
X102207548Y-147333848D01*
X102207548Y-147333851D01*
X102213011Y-147428590D01*
X102220110Y-147551715D01*
X102221247Y-147556761D01*
X102221248Y-147556767D01*
X102241119Y-147644939D01*
X102269222Y-147769639D01*
X102353266Y-147976616D01*
X102355965Y-147981020D01*
X102467291Y-148162688D01*
X102469987Y-148167088D01*
X102616250Y-148335938D01*
X102620230Y-148339242D01*
X102624981Y-148343187D01*
X102664616Y-148402090D01*
X102666113Y-148473071D01*
X102628997Y-148533593D01*
X102588724Y-148558112D01*
X102473295Y-148601385D01*
X102356739Y-148688739D01*
X102269385Y-148805295D01*
X102218255Y-148941684D01*
X102211500Y-149003866D01*
X102211500Y-150800134D01*
X102218255Y-150862316D01*
X102269385Y-150998705D01*
X102356739Y-151115261D01*
X102473295Y-151202615D01*
X102609684Y-151253745D01*
X102671866Y-151260500D01*
X104468134Y-151260500D01*
X104530316Y-151253745D01*
X104666705Y-151202615D01*
X104783261Y-151115261D01*
X104870615Y-150998705D01*
X104892799Y-150939529D01*
X104914598Y-150881382D01*
X104957240Y-150824618D01*
X105023802Y-150799918D01*
X105093150Y-150815126D01*
X105127817Y-150843114D01*
X105156250Y-150875938D01*
X105328126Y-151018632D01*
X105521000Y-151131338D01*
X105729692Y-151211030D01*
X105734760Y-151212061D01*
X105734763Y-151212062D01*
X105826987Y-151230825D01*
X105948597Y-151255567D01*
X105953772Y-151255757D01*
X105953774Y-151255757D01*
X106166673Y-151263564D01*
X106166677Y-151263564D01*
X106171837Y-151263753D01*
X106176957Y-151263097D01*
X106176959Y-151263097D01*
X106388288Y-151236025D01*
X106388289Y-151236025D01*
X106393416Y-151235368D01*
X106398366Y-151233883D01*
X106602429Y-151172661D01*
X106602434Y-151172659D01*
X106607384Y-151171174D01*
X106807994Y-151072896D01*
X106989860Y-150943173D01*
X107148096Y-150785489D01*
X107278453Y-150604077D01*
X107279776Y-150605028D01*
X107326645Y-150561857D01*
X107396580Y-150549625D01*
X107462026Y-150577144D01*
X107489875Y-150608994D01*
X107549987Y-150707088D01*
X107696250Y-150875938D01*
X107868126Y-151018632D01*
X108061000Y-151131338D01*
X108269692Y-151211030D01*
X108274760Y-151212061D01*
X108274763Y-151212062D01*
X108366987Y-151230825D01*
X108488597Y-151255567D01*
X108493772Y-151255757D01*
X108493774Y-151255757D01*
X108706673Y-151263564D01*
X108706677Y-151263564D01*
X108711837Y-151263753D01*
X108716957Y-151263097D01*
X108716959Y-151263097D01*
X108928288Y-151236025D01*
X108928289Y-151236025D01*
X108933416Y-151235368D01*
X108938366Y-151233883D01*
X109142429Y-151172661D01*
X109142434Y-151172659D01*
X109147384Y-151171174D01*
X109347994Y-151072896D01*
X109529860Y-150943173D01*
X109688096Y-150785489D01*
X109818453Y-150604077D01*
X109819776Y-150605028D01*
X109866645Y-150561857D01*
X109936580Y-150549625D01*
X110002026Y-150577144D01*
X110029875Y-150608994D01*
X110089987Y-150707088D01*
X110236250Y-150875938D01*
X110408126Y-151018632D01*
X110601000Y-151131338D01*
X110809692Y-151211030D01*
X110814760Y-151212061D01*
X110814763Y-151212062D01*
X110906987Y-151230825D01*
X111028597Y-151255567D01*
X111033772Y-151255757D01*
X111033774Y-151255757D01*
X111246673Y-151263564D01*
X111246677Y-151263564D01*
X111251837Y-151263753D01*
X111256957Y-151263097D01*
X111256959Y-151263097D01*
X111468288Y-151236025D01*
X111468289Y-151236025D01*
X111473416Y-151235368D01*
X111478366Y-151233883D01*
X111682429Y-151172661D01*
X111682434Y-151172659D01*
X111687384Y-151171174D01*
X111887994Y-151072896D01*
X112069860Y-150943173D01*
X112228096Y-150785489D01*
X112358453Y-150604077D01*
X112359776Y-150605028D01*
X112406645Y-150561857D01*
X112476580Y-150549625D01*
X112542026Y-150577144D01*
X112569875Y-150608994D01*
X112629987Y-150707088D01*
X112776250Y-150875938D01*
X112948126Y-151018632D01*
X113141000Y-151131338D01*
X113349692Y-151211030D01*
X113354760Y-151212061D01*
X113354763Y-151212062D01*
X113446987Y-151230825D01*
X113568597Y-151255567D01*
X113573772Y-151255757D01*
X113573774Y-151255757D01*
X113786673Y-151263564D01*
X113786677Y-151263564D01*
X113791837Y-151263753D01*
X113796957Y-151263097D01*
X113796959Y-151263097D01*
X114008288Y-151236025D01*
X114008289Y-151236025D01*
X114013416Y-151235368D01*
X114018366Y-151233883D01*
X114222429Y-151172661D01*
X114222434Y-151172659D01*
X114227384Y-151171174D01*
X114427994Y-151072896D01*
X114609860Y-150943173D01*
X114768096Y-150785489D01*
X114898453Y-150604077D01*
X114899776Y-150605028D01*
X114946645Y-150561857D01*
X115016580Y-150549625D01*
X115082026Y-150577144D01*
X115109875Y-150608994D01*
X115169987Y-150707088D01*
X115316250Y-150875938D01*
X115488126Y-151018632D01*
X115681000Y-151131338D01*
X115889692Y-151211030D01*
X115894760Y-151212061D01*
X115894763Y-151212062D01*
X115986987Y-151230825D01*
X116108597Y-151255567D01*
X116113772Y-151255757D01*
X116113774Y-151255757D01*
X116326673Y-151263564D01*
X116326677Y-151263564D01*
X116331837Y-151263753D01*
X116336957Y-151263097D01*
X116336959Y-151263097D01*
X116548288Y-151236025D01*
X116548289Y-151236025D01*
X116553416Y-151235368D01*
X116558366Y-151233883D01*
X116762429Y-151172661D01*
X116762434Y-151172659D01*
X116767384Y-151171174D01*
X116967994Y-151072896D01*
X117149860Y-150943173D01*
X117308096Y-150785489D01*
X117438453Y-150604077D01*
X117439776Y-150605028D01*
X117486645Y-150561857D01*
X117556580Y-150549625D01*
X117622026Y-150577144D01*
X117649875Y-150608994D01*
X117709987Y-150707088D01*
X117856250Y-150875938D01*
X118028126Y-151018632D01*
X118032585Y-151021238D01*
X118032587Y-151021239D01*
X118070905Y-151043631D01*
X118119628Y-151095270D01*
X118132698Y-151165053D01*
X118105966Y-151230825D01*
X118100989Y-151236706D01*
X118070960Y-151270056D01*
X117975473Y-151435444D01*
X117916458Y-151617072D01*
X117915768Y-151623633D01*
X117915768Y-151623635D01*
X117907720Y-151700206D01*
X117896496Y-151807000D01*
X117897186Y-151813565D01*
X117907831Y-151914842D01*
X117916458Y-151996928D01*
X117975473Y-152178556D01*
X118070960Y-152343944D01*
X118144137Y-152425215D01*
X118174853Y-152489221D01*
X118176500Y-152509524D01*
X118176500Y-158783692D01*
X118156498Y-158851813D01*
X118108683Y-158895453D01*
X118083607Y-158908507D01*
X118079474Y-158911610D01*
X118079471Y-158911612D01*
X117909100Y-159039530D01*
X117904965Y-159042635D01*
X117879541Y-159069240D01*
X117811280Y-159140671D01*
X117750629Y-159204138D01*
X117643201Y-159361621D01*
X117588293Y-159406621D01*
X117517768Y-159414792D01*
X117454021Y-159383538D01*
X117433324Y-159359054D01*
X117352822Y-159234617D01*
X117352820Y-159234614D01*
X117350014Y-159230277D01*
X117199670Y-159065051D01*
X117195619Y-159061852D01*
X117195615Y-159061848D01*
X117028414Y-158929800D01*
X117028410Y-158929798D01*
X117024359Y-158926598D01*
X117019831Y-158924098D01*
X116903988Y-158860150D01*
X116828789Y-158818638D01*
X116823920Y-158816914D01*
X116823916Y-158816912D01*
X116623087Y-158745795D01*
X116623083Y-158745794D01*
X116618212Y-158744069D01*
X116613119Y-158743162D01*
X116613116Y-158743161D01*
X116403373Y-158705800D01*
X116403367Y-158705799D01*
X116398284Y-158704894D01*
X116324452Y-158703992D01*
X116180081Y-158702228D01*
X116180079Y-158702228D01*
X116174911Y-158702165D01*
X115954091Y-158735955D01*
X115741756Y-158805357D01*
X115668757Y-158843358D01*
X115567975Y-158895822D01*
X115543607Y-158908507D01*
X115539474Y-158911610D01*
X115539471Y-158911612D01*
X115369100Y-159039530D01*
X115364965Y-159042635D01*
X115339541Y-159069240D01*
X115271280Y-159140671D01*
X115210629Y-159204138D01*
X115103201Y-159361621D01*
X115048293Y-159406621D01*
X114977768Y-159414792D01*
X114914021Y-159383538D01*
X114893324Y-159359054D01*
X114812822Y-159234617D01*
X114812820Y-159234614D01*
X114810014Y-159230277D01*
X114659670Y-159065051D01*
X114655619Y-159061852D01*
X114655615Y-159061848D01*
X114488414Y-158929800D01*
X114488410Y-158929798D01*
X114484359Y-158926598D01*
X114479831Y-158924098D01*
X114363988Y-158860150D01*
X114288789Y-158818638D01*
X114283920Y-158816914D01*
X114283916Y-158816912D01*
X114083087Y-158745795D01*
X114083083Y-158745794D01*
X114078212Y-158744069D01*
X114073119Y-158743162D01*
X114073116Y-158743161D01*
X113863373Y-158705800D01*
X113863367Y-158705799D01*
X113858284Y-158704894D01*
X113784452Y-158703992D01*
X113640081Y-158702228D01*
X113640079Y-158702228D01*
X113634911Y-158702165D01*
X113414091Y-158735955D01*
X113201756Y-158805357D01*
X113128757Y-158843358D01*
X113027975Y-158895822D01*
X113003607Y-158908507D01*
X112999474Y-158911610D01*
X112999471Y-158911612D01*
X112829100Y-159039530D01*
X112824965Y-159042635D01*
X112799541Y-159069240D01*
X112731280Y-159140671D01*
X112670629Y-159204138D01*
X112563201Y-159361621D01*
X112508293Y-159406621D01*
X112437768Y-159414792D01*
X112374021Y-159383538D01*
X112353324Y-159359054D01*
X112272822Y-159234617D01*
X112272820Y-159234614D01*
X112270014Y-159230277D01*
X112119670Y-159065051D01*
X112115619Y-159061852D01*
X112115615Y-159061848D01*
X111948414Y-158929800D01*
X111948410Y-158929798D01*
X111944359Y-158926598D01*
X111939835Y-158924101D01*
X111939831Y-158924098D01*
X111888608Y-158895822D01*
X111838636Y-158845390D01*
X111823500Y-158785513D01*
X111823500Y-153271524D01*
X111843502Y-153203403D01*
X111855858Y-153187221D01*
X111929040Y-153105944D01*
X112024527Y-152940556D01*
X112083542Y-152758928D01*
X112088977Y-152707222D01*
X112102814Y-152575565D01*
X112103504Y-152569000D01*
X112092792Y-152467078D01*
X112084232Y-152385635D01*
X112084232Y-152385633D01*
X112083542Y-152379072D01*
X112024527Y-152197444D01*
X112013846Y-152178943D01*
X111934986Y-152042355D01*
X111929040Y-152032056D01*
X111903064Y-152003206D01*
X111805675Y-151895045D01*
X111805674Y-151895044D01*
X111801253Y-151890134D01*
X111686829Y-151807000D01*
X111652094Y-151781763D01*
X111652093Y-151781762D01*
X111646752Y-151777882D01*
X111640724Y-151775198D01*
X111640722Y-151775197D01*
X111478319Y-151702891D01*
X111478318Y-151702891D01*
X111472288Y-151700206D01*
X111378888Y-151680353D01*
X111291944Y-151661872D01*
X111291939Y-151661872D01*
X111285487Y-151660500D01*
X111094513Y-151660500D01*
X111088061Y-151661872D01*
X111088056Y-151661872D01*
X111001112Y-151680353D01*
X110907712Y-151700206D01*
X110901682Y-151702891D01*
X110901681Y-151702891D01*
X110739278Y-151775197D01*
X110739276Y-151775198D01*
X110733248Y-151777882D01*
X110727907Y-151781762D01*
X110727906Y-151781763D01*
X110693171Y-151807000D01*
X110578747Y-151890134D01*
X110574326Y-151895044D01*
X110574325Y-151895045D01*
X110476937Y-152003206D01*
X110450960Y-152032056D01*
X110445014Y-152042355D01*
X110366155Y-152178943D01*
X110355473Y-152197444D01*
X110296458Y-152379072D01*
X110295768Y-152385633D01*
X110295768Y-152385635D01*
X110287208Y-152467078D01*
X110276496Y-152569000D01*
X110277186Y-152575565D01*
X110291024Y-152707222D01*
X110296458Y-152758928D01*
X110355473Y-152940556D01*
X110450960Y-153105944D01*
X110524137Y-153187215D01*
X110554853Y-153251221D01*
X110556500Y-153271524D01*
X110556500Y-158783692D01*
X110536498Y-158851813D01*
X110488683Y-158895453D01*
X110463607Y-158908507D01*
X110459474Y-158911610D01*
X110459471Y-158911612D01*
X110289100Y-159039530D01*
X110284965Y-159042635D01*
X110259541Y-159069240D01*
X110191280Y-159140671D01*
X110130629Y-159204138D01*
X110127720Y-159208403D01*
X110127714Y-159208411D01*
X110115404Y-159226457D01*
X110023204Y-159361618D01*
X110022898Y-159362066D01*
X109967987Y-159407069D01*
X109897462Y-159415240D01*
X109833715Y-159383986D01*
X109813018Y-159359502D01*
X109732426Y-159234926D01*
X109726136Y-159226757D01*
X109582806Y-159069240D01*
X109575273Y-159062215D01*
X109408139Y-158930222D01*
X109399552Y-158924517D01*
X109213117Y-158821599D01*
X109203705Y-158817369D01*
X109002959Y-158746280D01*
X108992988Y-158743646D01*
X108921837Y-158730972D01*
X108908540Y-158732432D01*
X108904000Y-158746989D01*
X108904000Y-161380517D01*
X108908064Y-161394359D01*
X108921478Y-161396393D01*
X108928184Y-161395534D01*
X108938262Y-161393392D01*
X109142255Y-161332191D01*
X109151842Y-161328433D01*
X109343095Y-161234739D01*
X109351945Y-161229464D01*
X109525328Y-161105792D01*
X109533200Y-161099139D01*
X109684052Y-160948812D01*
X109690730Y-160940965D01*
X109818022Y-160763819D01*
X109819279Y-160764722D01*
X109866373Y-160721362D01*
X109936311Y-160709145D01*
X110001751Y-160736678D01*
X110029579Y-160768511D01*
X110089987Y-160867088D01*
X110236250Y-161035938D01*
X110408126Y-161178632D01*
X110601000Y-161291338D01*
X110809692Y-161371030D01*
X110814760Y-161372061D01*
X110814763Y-161372062D01*
X110909862Y-161391410D01*
X111028597Y-161415567D01*
X111033772Y-161415757D01*
X111033774Y-161415757D01*
X111246673Y-161423564D01*
X111246677Y-161423564D01*
X111251837Y-161423753D01*
X111256957Y-161423097D01*
X111256959Y-161423097D01*
X111468288Y-161396025D01*
X111468289Y-161396025D01*
X111473416Y-161395368D01*
X111478369Y-161393882D01*
X111682429Y-161332661D01*
X111682434Y-161332659D01*
X111687384Y-161331174D01*
X111887994Y-161232896D01*
X112069860Y-161103173D01*
X112092316Y-161080796D01*
X112175823Y-160997580D01*
X112228096Y-160945489D01*
X112358453Y-160764077D01*
X112359776Y-160765028D01*
X112406645Y-160721857D01*
X112476580Y-160709625D01*
X112542026Y-160737144D01*
X112569875Y-160768994D01*
X112629987Y-160867088D01*
X112776250Y-161035938D01*
X112948126Y-161178632D01*
X113141000Y-161291338D01*
X113349692Y-161371030D01*
X113354760Y-161372061D01*
X113354763Y-161372062D01*
X113449862Y-161391410D01*
X113568597Y-161415567D01*
X113573772Y-161415757D01*
X113573774Y-161415757D01*
X113591934Y-161416423D01*
X113659276Y-161438909D01*
X113703770Y-161494232D01*
X113711291Y-161564830D01*
X113679451Y-161628286D01*
X113638563Y-161657445D01*
X113549281Y-161697195D01*
X113549274Y-161697199D01*
X113543248Y-161699882D01*
X113388747Y-161812134D01*
X113384326Y-161817044D01*
X113384325Y-161817045D01*
X113266895Y-161947465D01*
X113260960Y-161954056D01*
X113165473Y-162119444D01*
X113106458Y-162301072D01*
X113105768Y-162307633D01*
X113105768Y-162307635D01*
X113087186Y-162484433D01*
X113086496Y-162491000D01*
X113087186Y-162497565D01*
X113100035Y-162619812D01*
X113106458Y-162680928D01*
X113165473Y-162862556D01*
X113260960Y-163027944D01*
X113334137Y-163109215D01*
X113364853Y-163173221D01*
X113366500Y-163193524D01*
X113366500Y-165852193D01*
X113346498Y-165920314D01*
X113313399Y-165954963D01*
X113277280Y-165980584D01*
X113277276Y-165980587D01*
X113272389Y-165984054D01*
X113268251Y-165988377D01*
X113268246Y-165988381D01*
X113180836Y-166079691D01*
X113119280Y-166115067D01*
X113048371Y-166111548D01*
X112990621Y-166070251D01*
X112982674Y-166058863D01*
X112951937Y-166009193D01*
X112942901Y-165997792D01*
X112828171Y-165883261D01*
X112816760Y-165874249D01*
X112678757Y-165789184D01*
X112665576Y-165783037D01*
X112511290Y-165731862D01*
X112497914Y-165728995D01*
X112403562Y-165719328D01*
X112397145Y-165719000D01*
X112272115Y-165719000D01*
X112256876Y-165723475D01*
X112255671Y-165724865D01*
X112254000Y-165732548D01*
X112254000Y-168466884D01*
X112258475Y-168482123D01*
X112259865Y-168483328D01*
X112267548Y-168484999D01*
X112397095Y-168484999D01*
X112403614Y-168484662D01*
X112499206Y-168474743D01*
X112512600Y-168471851D01*
X112666784Y-168420412D01*
X112679962Y-168414239D01*
X112817807Y-168328937D01*
X112829208Y-168319901D01*
X112943739Y-168205171D01*
X112952751Y-168193760D01*
X112980745Y-168148345D01*
X113033517Y-168100852D01*
X113103589Y-168089428D01*
X113168713Y-168117702D01*
X113187088Y-168136625D01*
X113193604Y-168144920D01*
X113198135Y-168148852D01*
X113198138Y-168148855D01*
X113284058Y-168223412D01*
X113353363Y-168283552D01*
X113358549Y-168286552D01*
X113358553Y-168286555D01*
X113454957Y-168342326D01*
X113536454Y-168389473D01*
X113736271Y-168458861D01*
X113742206Y-168459722D01*
X113742208Y-168459722D01*
X113939664Y-168488352D01*
X113939667Y-168488352D01*
X113945604Y-168489213D01*
X114156899Y-168479433D01*
X114294347Y-168446308D01*
X114356701Y-168431281D01*
X114356703Y-168431280D01*
X114362534Y-168429875D01*
X114367992Y-168427393D01*
X114367996Y-168427392D01*
X114483041Y-168375084D01*
X114555087Y-168342326D01*
X114727611Y-168219946D01*
X114873881Y-168067150D01*
X114883255Y-168052633D01*
X114894746Y-168034837D01*
X114948501Y-167988460D01*
X115018797Y-167978507D01*
X115083314Y-168008139D01*
X115099681Y-168025351D01*
X115193604Y-168144920D01*
X115198135Y-168148852D01*
X115198138Y-168148855D01*
X115284058Y-168223412D01*
X115353363Y-168283552D01*
X115358549Y-168286552D01*
X115358553Y-168286555D01*
X115454957Y-168342326D01*
X115536454Y-168389473D01*
X115736271Y-168458861D01*
X115742206Y-168459722D01*
X115742208Y-168459722D01*
X115939664Y-168488352D01*
X115939667Y-168488352D01*
X115945604Y-168489213D01*
X116156899Y-168479433D01*
X116294347Y-168446308D01*
X116356701Y-168431281D01*
X116356703Y-168431280D01*
X116362534Y-168429875D01*
X116367992Y-168427393D01*
X116367996Y-168427392D01*
X116483041Y-168375084D01*
X116555087Y-168342326D01*
X116727611Y-168219946D01*
X116873881Y-168067150D01*
X116883255Y-168052633D01*
X116894746Y-168034837D01*
X116948501Y-167988460D01*
X117018797Y-167978507D01*
X117083314Y-168008139D01*
X117099681Y-168025351D01*
X117193604Y-168144920D01*
X117198135Y-168148852D01*
X117198138Y-168148855D01*
X117284058Y-168223412D01*
X117353363Y-168283552D01*
X117358549Y-168286552D01*
X117358553Y-168286555D01*
X117454957Y-168342326D01*
X117536454Y-168389473D01*
X117736271Y-168458861D01*
X117742206Y-168459722D01*
X117742208Y-168459722D01*
X117939664Y-168488352D01*
X117939667Y-168488352D01*
X117945604Y-168489213D01*
X118156899Y-168479433D01*
X118294347Y-168446308D01*
X118356701Y-168431281D01*
X118356703Y-168431280D01*
X118362534Y-168429875D01*
X118367992Y-168427393D01*
X118367996Y-168427392D01*
X118483041Y-168375084D01*
X118555087Y-168342326D01*
X118727611Y-168219946D01*
X118873881Y-168067150D01*
X118988620Y-167889452D01*
X119035110Y-167774095D01*
X119065442Y-167698832D01*
X119065443Y-167698829D01*
X119067686Y-167693263D01*
X119108228Y-167485663D01*
X119108500Y-167480101D01*
X119108500Y-166774154D01*
X119093452Y-166616434D01*
X119033908Y-166413466D01*
X118998905Y-166345503D01*
X118939804Y-166230751D01*
X118939802Y-166230748D01*
X118937058Y-166225420D01*
X118806396Y-166059080D01*
X118676918Y-165946725D01*
X118638579Y-165886973D01*
X118633500Y-165851561D01*
X118633500Y-164114524D01*
X118653502Y-164046403D01*
X118665858Y-164030221D01*
X118739040Y-163948944D01*
X118834527Y-163783556D01*
X118893542Y-163601928D01*
X118913504Y-163412000D01*
X118903942Y-163321020D01*
X118894232Y-163228635D01*
X118894232Y-163228633D01*
X118893542Y-163222072D01*
X118834527Y-163040444D01*
X118739040Y-162875056D01*
X118665863Y-162793785D01*
X118635147Y-162729779D01*
X118633500Y-162709476D01*
X118633500Y-161870763D01*
X118634027Y-161859579D01*
X118635701Y-161852091D01*
X118633562Y-161784032D01*
X118633500Y-161780075D01*
X118633500Y-161752144D01*
X118632994Y-161748138D01*
X118632061Y-161736292D01*
X118630922Y-161700037D01*
X118630673Y-161692110D01*
X118625022Y-161672658D01*
X118621014Y-161653306D01*
X118619468Y-161641068D01*
X118619467Y-161641066D01*
X118618474Y-161633203D01*
X118602194Y-161592086D01*
X118598350Y-161580856D01*
X118597919Y-161579372D01*
X118598128Y-161508376D01*
X118636687Y-161448763D01*
X118701355Y-161419460D01*
X118723536Y-161418315D01*
X118866673Y-161423564D01*
X118866677Y-161423564D01*
X118871837Y-161423753D01*
X118876957Y-161423097D01*
X118876959Y-161423097D01*
X119088288Y-161396025D01*
X119088289Y-161396025D01*
X119093416Y-161395368D01*
X119098369Y-161393882D01*
X119302429Y-161332661D01*
X119302434Y-161332659D01*
X119307384Y-161331174D01*
X119507994Y-161232896D01*
X119689860Y-161103173D01*
X119798091Y-160995319D01*
X119860462Y-160961404D01*
X119931268Y-160966592D01*
X119988030Y-161009238D01*
X120005012Y-161040341D01*
X120020178Y-161080796D01*
X120049385Y-161158705D01*
X120136739Y-161275261D01*
X120253295Y-161362615D01*
X120389684Y-161413745D01*
X120451866Y-161420500D01*
X122248134Y-161420500D01*
X122310316Y-161413745D01*
X122446705Y-161362615D01*
X122563261Y-161275261D01*
X122650615Y-161158705D01*
X122701745Y-161022316D01*
X122708500Y-160960134D01*
X122708500Y-159163866D01*
X122701745Y-159101684D01*
X122650615Y-158965295D01*
X122563261Y-158848739D01*
X122446705Y-158761385D01*
X122310316Y-158710255D01*
X122248134Y-158703500D01*
X122109500Y-158703500D01*
X122041379Y-158683498D01*
X121994886Y-158629842D01*
X121983500Y-158577500D01*
X121983500Y-155383039D01*
X122003502Y-155314918D01*
X122058757Y-155267709D01*
X122073841Y-155261072D01*
X122113763Y-155236223D01*
X122193694Y-155186470D01*
X122193698Y-155186467D01*
X122197496Y-155184103D01*
X122307131Y-155091946D01*
X122404218Y-154983361D01*
X122415151Y-154966938D01*
X122481099Y-154867865D01*
X122481100Y-154867863D01*
X122483581Y-154864136D01*
X122546289Y-154732667D01*
X122588999Y-154595961D01*
X122592225Y-154576047D01*
X122611570Y-154456604D01*
X122612287Y-154452179D01*
X122614912Y-154308980D01*
X122614359Y-154304535D01*
X122614122Y-154300056D01*
X122614249Y-154300049D01*
X122613729Y-154291661D01*
X122613729Y-153862000D01*
X122608500Y-153788889D01*
X122597833Y-153752560D01*
X122594012Y-153699131D01*
X122613087Y-153566463D01*
X122613729Y-153562000D01*
X122613729Y-153074678D01*
X122613750Y-153072369D01*
X122614830Y-153013453D01*
X122614912Y-153008980D01*
X122596907Y-152864435D01*
X122559234Y-152726255D01*
X122550998Y-152707222D01*
X122503173Y-152596704D01*
X122503171Y-152596699D01*
X122501388Y-152592580D01*
X122426448Y-152470528D01*
X122409830Y-152450511D01*
X122336270Y-152361907D01*
X122336268Y-152361905D01*
X122333408Y-152358460D01*
X122227224Y-152262346D01*
X122201275Y-152244843D01*
X122110183Y-152183401D01*
X122110178Y-152183398D01*
X122106464Y-152180893D01*
X122054559Y-152155746D01*
X122001979Y-152108045D01*
X121983500Y-152042355D01*
X121983500Y-151386500D01*
X122003502Y-151318379D01*
X122057158Y-151271886D01*
X122109500Y-151260500D01*
X122248134Y-151260500D01*
X122310316Y-151253745D01*
X122446705Y-151202615D01*
X122563261Y-151115261D01*
X122650615Y-150998705D01*
X122672799Y-150939529D01*
X122694598Y-150881382D01*
X122737240Y-150824618D01*
X122803802Y-150799918D01*
X122873150Y-150815126D01*
X122907817Y-150843114D01*
X122936250Y-150875938D01*
X123108126Y-151018632D01*
X123301000Y-151131338D01*
X123509692Y-151211030D01*
X123514760Y-151212061D01*
X123514763Y-151212062D01*
X123606987Y-151230825D01*
X123728597Y-151255567D01*
X123733772Y-151255757D01*
X123733774Y-151255757D01*
X123946673Y-151263564D01*
X123946677Y-151263564D01*
X123951837Y-151263753D01*
X123956957Y-151263097D01*
X123956959Y-151263097D01*
X124168288Y-151236025D01*
X124168289Y-151236025D01*
X124173416Y-151235368D01*
X124178366Y-151233883D01*
X124382429Y-151172661D01*
X124382434Y-151172659D01*
X124387384Y-151171174D01*
X124587994Y-151072896D01*
X124769860Y-150943173D01*
X124878091Y-150835319D01*
X124940462Y-150801404D01*
X125011268Y-150806592D01*
X125068030Y-150849238D01*
X125085012Y-150880341D01*
X125107201Y-150939529D01*
X125129385Y-150998705D01*
X125216739Y-151115261D01*
X125333295Y-151202615D01*
X125469684Y-151253745D01*
X125531866Y-151260500D01*
X127328134Y-151260500D01*
X127390316Y-151253745D01*
X127526705Y-151202615D01*
X127643261Y-151115261D01*
X127730615Y-150998705D01*
X127781745Y-150862316D01*
X127788500Y-150800134D01*
X127788500Y-149003866D01*
X127781745Y-148941684D01*
X127730615Y-148805295D01*
X127643261Y-148688739D01*
X127526705Y-148601385D01*
X127494135Y-148589175D01*
X127408203Y-148556960D01*
X127351439Y-148514318D01*
X127326739Y-148447756D01*
X127341947Y-148378408D01*
X127363493Y-148349727D01*
X127459745Y-148253811D01*
X127468096Y-148245489D01*
X127527594Y-148162689D01*
X127595435Y-148068277D01*
X127598453Y-148064077D01*
X127611740Y-148037194D01*
X127695136Y-147868453D01*
X127695137Y-147868451D01*
X127697430Y-147863811D01*
X127762370Y-147650069D01*
X127791529Y-147428590D01*
X127793156Y-147362000D01*
X127774852Y-147139361D01*
X127720431Y-146922702D01*
X127631354Y-146717840D01*
X127576175Y-146632546D01*
X127512822Y-146534617D01*
X127512820Y-146534614D01*
X127510014Y-146530277D01*
X127359670Y-146365051D01*
X127355619Y-146361852D01*
X127355615Y-146361848D01*
X127188414Y-146229800D01*
X127188410Y-146229798D01*
X127184359Y-146226598D01*
X127143053Y-146203796D01*
X127093084Y-146153364D01*
X127078312Y-146083921D01*
X127103428Y-146017516D01*
X127130780Y-145990909D01*
X127174603Y-145959650D01*
X127309860Y-145863173D01*
X127468096Y-145705489D01*
X127527594Y-145622689D01*
X127595435Y-145528277D01*
X127598453Y-145524077D01*
X127613576Y-145493479D01*
X127695136Y-145328453D01*
X127695137Y-145328451D01*
X127697430Y-145323811D01*
X127762370Y-145110069D01*
X127791529Y-144888590D01*
X127793156Y-144822000D01*
X127774852Y-144599361D01*
X127720431Y-144382702D01*
X127631354Y-144177840D01*
X127510014Y-143990277D01*
X127359670Y-143825051D01*
X127355619Y-143821852D01*
X127355615Y-143821848D01*
X127188414Y-143689800D01*
X127188410Y-143689798D01*
X127184359Y-143686598D01*
X127143053Y-143663796D01*
X127093084Y-143613364D01*
X127078312Y-143543921D01*
X127103428Y-143477516D01*
X127130780Y-143450909D01*
X127174603Y-143419650D01*
X127309860Y-143323173D01*
X127468096Y-143165489D01*
X127527594Y-143082689D01*
X127595435Y-142988277D01*
X127598453Y-142984077D01*
X127608267Y-142964221D01*
X127695136Y-142788453D01*
X127695137Y-142788451D01*
X127697430Y-142783811D01*
X127762370Y-142570069D01*
X127791529Y-142348590D01*
X127793156Y-142282000D01*
X127774852Y-142059361D01*
X127720431Y-141842702D01*
X127631354Y-141637840D01*
X127573412Y-141548275D01*
X127512822Y-141454617D01*
X127512820Y-141454614D01*
X127510014Y-141450277D01*
X127359670Y-141285051D01*
X127355619Y-141281852D01*
X127355615Y-141281848D01*
X127188414Y-141149800D01*
X127188410Y-141149798D01*
X127184359Y-141146598D01*
X127143053Y-141123796D01*
X127093084Y-141073364D01*
X127078312Y-141003921D01*
X127103428Y-140937516D01*
X127130780Y-140910909D01*
X127174603Y-140879650D01*
X127309860Y-140783173D01*
X127468096Y-140625489D01*
X127477670Y-140612166D01*
X127595435Y-140448277D01*
X127598453Y-140444077D01*
X127603604Y-140433656D01*
X127695136Y-140248453D01*
X127695137Y-140248451D01*
X127697430Y-140243811D01*
X127762370Y-140030069D01*
X127791529Y-139808590D01*
X127793156Y-139742000D01*
X127774852Y-139519361D01*
X127720431Y-139302702D01*
X127631354Y-139097840D01*
X127521589Y-138928169D01*
X127512822Y-138914617D01*
X127512820Y-138914614D01*
X127510014Y-138910277D01*
X127359670Y-138745051D01*
X127355619Y-138741852D01*
X127355615Y-138741848D01*
X127188414Y-138609800D01*
X127188410Y-138609798D01*
X127184359Y-138606598D01*
X127143053Y-138583796D01*
X127093084Y-138533364D01*
X127078312Y-138463921D01*
X127103428Y-138397516D01*
X127130780Y-138370909D01*
X127174603Y-138339650D01*
X127309860Y-138243173D01*
X127316557Y-138236500D01*
X127428601Y-138124846D01*
X127468096Y-138085489D01*
X127477670Y-138072166D01*
X127595435Y-137908277D01*
X127598453Y-137904077D01*
X127601152Y-137898617D01*
X127695136Y-137708453D01*
X127695137Y-137708451D01*
X127697430Y-137703811D01*
X127762370Y-137490069D01*
X127791529Y-137268590D01*
X127793156Y-137202000D01*
X127774852Y-136979361D01*
X127720431Y-136762702D01*
X127631354Y-136557840D01*
X127530644Y-136402166D01*
X127512822Y-136374617D01*
X127512820Y-136374614D01*
X127510014Y-136370277D01*
X127359670Y-136205051D01*
X127355619Y-136201852D01*
X127355615Y-136201848D01*
X127188414Y-136069800D01*
X127188410Y-136069798D01*
X127184359Y-136066598D01*
X127143053Y-136043796D01*
X127093084Y-135993364D01*
X127078312Y-135923921D01*
X127103428Y-135857516D01*
X127130780Y-135830909D01*
X127174603Y-135799650D01*
X127309860Y-135703173D01*
X127316557Y-135696500D01*
X127444374Y-135569128D01*
X127468096Y-135545489D01*
X127477670Y-135532166D01*
X127595435Y-135368277D01*
X127598453Y-135364077D01*
X127613576Y-135333479D01*
X127695136Y-135168453D01*
X127695137Y-135168451D01*
X127697430Y-135163811D01*
X127762370Y-134950069D01*
X127791529Y-134728590D01*
X127793156Y-134662000D01*
X127774852Y-134439361D01*
X127720431Y-134222702D01*
X127631354Y-134017840D01*
X127510014Y-133830277D01*
X127359670Y-133665051D01*
X127355619Y-133661852D01*
X127355615Y-133661848D01*
X127188414Y-133529800D01*
X127188410Y-133529798D01*
X127184359Y-133526598D01*
X127143053Y-133503796D01*
X127093084Y-133453364D01*
X127078312Y-133383921D01*
X127103428Y-133317516D01*
X127130780Y-133290909D01*
X127174603Y-133259650D01*
X127309860Y-133163173D01*
X127468096Y-133005489D01*
X127527594Y-132922689D01*
X127595435Y-132828277D01*
X127598453Y-132824077D01*
X127613576Y-132793479D01*
X127695136Y-132628453D01*
X127695137Y-132628451D01*
X127697430Y-132623811D01*
X127762370Y-132410069D01*
X127791529Y-132188590D01*
X127793156Y-132122000D01*
X127774852Y-131899361D01*
X127720431Y-131682702D01*
X127631354Y-131477840D01*
X127510014Y-131290277D01*
X127359670Y-131125051D01*
X127355619Y-131121852D01*
X127355615Y-131121848D01*
X127188414Y-130989800D01*
X127188410Y-130989798D01*
X127184359Y-130986598D01*
X127143053Y-130963796D01*
X127093084Y-130913364D01*
X127078312Y-130843921D01*
X127103428Y-130777516D01*
X127130780Y-130750909D01*
X127174603Y-130719650D01*
X127309860Y-130623173D01*
X127316557Y-130616500D01*
X127464435Y-130469137D01*
X127468096Y-130465489D01*
X127477670Y-130452166D01*
X127595435Y-130288277D01*
X127598453Y-130284077D01*
X127608006Y-130264749D01*
X127695136Y-130088453D01*
X127695137Y-130088451D01*
X127697430Y-130083811D01*
X127702376Y-130067530D01*
X127741319Y-130008168D01*
X127806173Y-129979282D01*
X127876349Y-129990044D01*
X127932052Y-130041161D01*
X127976960Y-130118944D01*
X127981375Y-130123847D01*
X127981379Y-130123852D01*
X128082500Y-130236158D01*
X128104747Y-130260866D01*
X128259248Y-130373118D01*
X128265276Y-130375802D01*
X128265278Y-130375803D01*
X128290625Y-130387088D01*
X128433712Y-130450794D01*
X128520009Y-130469137D01*
X128614056Y-130489128D01*
X128614061Y-130489128D01*
X128620513Y-130490500D01*
X128718500Y-130490500D01*
X128786621Y-130510502D01*
X128833114Y-130564158D01*
X128844500Y-130616500D01*
X128844500Y-163550476D01*
X128824498Y-163618597D01*
X128812142Y-163634779D01*
X128738960Y-163716056D01*
X128643473Y-163881444D01*
X128584458Y-164063072D01*
X128583768Y-164069633D01*
X128583768Y-164069635D01*
X128574784Y-164155118D01*
X128564496Y-164253000D01*
X128584458Y-164442928D01*
X128643473Y-164624556D01*
X128646776Y-164630278D01*
X128646777Y-164630279D01*
X128656015Y-164646279D01*
X128738960Y-164789944D01*
X128866747Y-164931866D01*
X129021248Y-165044118D01*
X129027276Y-165046802D01*
X129027278Y-165046803D01*
X129189681Y-165119109D01*
X129195712Y-165121794D01*
X129289112Y-165141647D01*
X129376056Y-165160128D01*
X129376061Y-165160128D01*
X129382513Y-165161500D01*
X129573487Y-165161500D01*
X129579939Y-165160128D01*
X129579944Y-165160128D01*
X129666888Y-165141647D01*
X129760288Y-165121794D01*
X129766319Y-165119109D01*
X129928722Y-165046803D01*
X129928724Y-165046802D01*
X129934752Y-165044118D01*
X130089253Y-164931866D01*
X130217040Y-164789944D01*
X130299985Y-164646279D01*
X130309223Y-164630279D01*
X130309224Y-164630278D01*
X130312527Y-164624556D01*
X130337766Y-164546880D01*
X130369502Y-164449207D01*
X130369502Y-164449205D01*
X130371542Y-164442928D01*
X130381119Y-164351809D01*
X130408132Y-164286152D01*
X130466354Y-164245522D01*
X130480212Y-164241738D01*
X130522288Y-164232794D01*
X130590122Y-164202593D01*
X130690722Y-164157803D01*
X130690724Y-164157802D01*
X130696752Y-164155118D01*
X130851253Y-164042866D01*
X130979040Y-163900944D01*
X131074527Y-163735556D01*
X131117946Y-163601928D01*
X131131502Y-163560207D01*
X131131502Y-163560205D01*
X131133542Y-163553928D01*
X131143119Y-163462809D01*
X131170132Y-163397152D01*
X131228354Y-163356522D01*
X131242212Y-163352738D01*
X131284288Y-163343794D01*
X131290315Y-163341111D01*
X131290320Y-163341109D01*
X131314252Y-163330454D01*
X131384619Y-163321020D01*
X131448916Y-163351127D01*
X131486729Y-163411217D01*
X131491500Y-163445561D01*
X131491500Y-168052633D01*
X131490000Y-168072018D01*
X131487690Y-168086851D01*
X131487690Y-168086855D01*
X131486309Y-168095724D01*
X131488415Y-168111825D01*
X131488558Y-168112919D01*
X131489391Y-168136863D01*
X131473794Y-168394710D01*
X131471960Y-168409814D01*
X131462972Y-168458861D01*
X131425603Y-168662783D01*
X131420477Y-168690754D01*
X131416836Y-168705526D01*
X131348895Y-168923558D01*
X131331859Y-168978227D01*
X131326466Y-168992445D01*
X131210794Y-169249460D01*
X131209243Y-169252906D01*
X131202172Y-169266379D01*
X131054405Y-169510813D01*
X131045762Y-169523334D01*
X130869615Y-169748171D01*
X130859525Y-169759560D01*
X130657560Y-169961525D01*
X130646171Y-169971615D01*
X130421334Y-170147762D01*
X130408813Y-170156405D01*
X130164379Y-170304172D01*
X130150908Y-170311242D01*
X129890445Y-170428466D01*
X129876231Y-170433858D01*
X129603527Y-170518836D01*
X129588760Y-170522475D01*
X129379786Y-170560771D01*
X129307814Y-170573960D01*
X129292710Y-170575794D01*
X129042096Y-170590953D01*
X129015284Y-170589692D01*
X129015148Y-170589690D01*
X129006276Y-170588309D01*
X128997374Y-170589473D01*
X128997372Y-170589473D01*
X128982707Y-170591391D01*
X128974714Y-170592436D01*
X128958379Y-170593500D01*
X101049367Y-170593500D01*
X101029982Y-170592000D01*
X101015149Y-170589690D01*
X101015145Y-170589690D01*
X101006276Y-170588309D01*
X100989077Y-170590558D01*
X100965137Y-170591391D01*
X100707290Y-170575794D01*
X100692186Y-170573960D01*
X100620214Y-170560771D01*
X100411240Y-170522475D01*
X100396473Y-170518836D01*
X100123769Y-170433858D01*
X100109555Y-170428466D01*
X99849092Y-170311242D01*
X99835621Y-170304172D01*
X99591187Y-170156405D01*
X99578666Y-170147762D01*
X99353829Y-169971615D01*
X99342440Y-169961525D01*
X99140475Y-169759560D01*
X99130385Y-169748171D01*
X98954238Y-169523334D01*
X98945595Y-169510813D01*
X98797828Y-169266379D01*
X98790757Y-169252906D01*
X98789206Y-169249460D01*
X98673534Y-168992445D01*
X98668141Y-168978227D01*
X98651106Y-168923558D01*
X98583164Y-168705526D01*
X98579523Y-168690754D01*
X98574398Y-168662783D01*
X98537028Y-168458861D01*
X98528040Y-168409814D01*
X98526206Y-168394710D01*
X98521505Y-168317000D01*
X101721884Y-168317000D01*
X101740314Y-168527655D01*
X101795044Y-168731910D01*
X101884411Y-168923558D01*
X102005699Y-169096776D01*
X102155224Y-169246301D01*
X102328442Y-169367589D01*
X102333420Y-169369910D01*
X102333423Y-169369912D01*
X102497161Y-169446264D01*
X102520090Y-169456956D01*
X102525398Y-169458378D01*
X102525400Y-169458379D01*
X102719030Y-169510262D01*
X102719032Y-169510262D01*
X102724345Y-169511686D01*
X102935000Y-169530116D01*
X103145655Y-169511686D01*
X103150968Y-169510262D01*
X103150970Y-169510262D01*
X103344600Y-169458379D01*
X103344602Y-169458378D01*
X103349910Y-169456956D01*
X103372839Y-169446264D01*
X103536577Y-169369912D01*
X103536580Y-169369910D01*
X103541558Y-169367589D01*
X103714776Y-169246301D01*
X103864301Y-169096776D01*
X103985589Y-168923558D01*
X104074956Y-168731910D01*
X104083293Y-168700796D01*
X104120245Y-168640173D01*
X104184106Y-168609152D01*
X104254600Y-168617580D01*
X104309347Y-168662783D01*
X104326707Y-168700796D01*
X104335044Y-168731910D01*
X104424411Y-168923558D01*
X104545699Y-169096776D01*
X104695224Y-169246301D01*
X104868442Y-169367589D01*
X104873420Y-169369910D01*
X104873423Y-169369912D01*
X105037161Y-169446264D01*
X105060090Y-169456956D01*
X105065398Y-169458378D01*
X105065400Y-169458379D01*
X105259030Y-169510262D01*
X105259032Y-169510262D01*
X105264345Y-169511686D01*
X105475000Y-169530116D01*
X105685655Y-169511686D01*
X105690968Y-169510262D01*
X105690970Y-169510262D01*
X105884600Y-169458379D01*
X105884602Y-169458378D01*
X105889910Y-169456956D01*
X105912839Y-169446264D01*
X106076577Y-169369912D01*
X106076580Y-169369910D01*
X106081558Y-169367589D01*
X106254776Y-169246301D01*
X106404301Y-169096776D01*
X106525589Y-168923558D01*
X106614956Y-168731910D01*
X106669686Y-168527655D01*
X106688116Y-168317000D01*
X106669686Y-168106345D01*
X106652923Y-168043784D01*
X106616379Y-167907400D01*
X106616378Y-167907398D01*
X106614956Y-167902090D01*
X106555271Y-167774095D01*
X110892001Y-167774095D01*
X110892338Y-167780614D01*
X110902257Y-167876206D01*
X110905149Y-167889600D01*
X110956588Y-168043784D01*
X110962761Y-168056962D01*
X111048063Y-168194807D01*
X111057099Y-168206208D01*
X111171829Y-168320739D01*
X111183240Y-168329751D01*
X111321243Y-168414816D01*
X111334424Y-168420963D01*
X111488710Y-168472138D01*
X111502086Y-168475005D01*
X111596438Y-168484672D01*
X111602854Y-168485000D01*
X111727885Y-168485000D01*
X111743124Y-168480525D01*
X111744329Y-168479135D01*
X111746000Y-168471452D01*
X111746000Y-167374115D01*
X111741525Y-167358876D01*
X111740135Y-167357671D01*
X111732452Y-167356000D01*
X110910116Y-167356000D01*
X110894877Y-167360475D01*
X110893672Y-167361865D01*
X110892001Y-167369548D01*
X110892001Y-167774095D01*
X106555271Y-167774095D01*
X106525589Y-167710442D01*
X106404301Y-167537224D01*
X106254776Y-167387699D01*
X106081558Y-167266411D01*
X106076580Y-167264090D01*
X106076577Y-167264088D01*
X105894892Y-167179367D01*
X105894891Y-167179366D01*
X105889910Y-167177044D01*
X105884602Y-167175622D01*
X105884600Y-167175621D01*
X105690970Y-167123738D01*
X105690968Y-167123738D01*
X105685655Y-167122314D01*
X105475000Y-167103884D01*
X105264345Y-167122314D01*
X105259032Y-167123738D01*
X105259030Y-167123738D01*
X105065400Y-167175621D01*
X105065398Y-167175622D01*
X105060090Y-167177044D01*
X105055109Y-167179366D01*
X105055108Y-167179367D01*
X104873423Y-167264088D01*
X104873420Y-167264090D01*
X104868442Y-167266411D01*
X104695224Y-167387699D01*
X104545699Y-167537224D01*
X104424411Y-167710442D01*
X104335044Y-167902090D01*
X104333622Y-167907398D01*
X104333621Y-167907400D01*
X104326707Y-167933204D01*
X104289755Y-167993827D01*
X104225894Y-168024848D01*
X104155400Y-168016420D01*
X104100653Y-167971217D01*
X104083293Y-167933204D01*
X104076379Y-167907400D01*
X104076378Y-167907398D01*
X104074956Y-167902090D01*
X103985589Y-167710442D01*
X103864301Y-167537224D01*
X103714776Y-167387699D01*
X103541558Y-167266411D01*
X103536580Y-167264090D01*
X103536577Y-167264088D01*
X103354892Y-167179367D01*
X103354891Y-167179366D01*
X103349910Y-167177044D01*
X103344602Y-167175622D01*
X103344600Y-167175621D01*
X103150970Y-167123738D01*
X103150968Y-167123738D01*
X103145655Y-167122314D01*
X102935000Y-167103884D01*
X102724345Y-167122314D01*
X102719032Y-167123738D01*
X102719030Y-167123738D01*
X102525400Y-167175621D01*
X102525398Y-167175622D01*
X102520090Y-167177044D01*
X102515109Y-167179366D01*
X102515108Y-167179367D01*
X102333423Y-167264088D01*
X102333420Y-167264090D01*
X102328442Y-167266411D01*
X102155224Y-167387699D01*
X102005699Y-167537224D01*
X101884411Y-167710442D01*
X101795044Y-167902090D01*
X101793622Y-167907398D01*
X101793621Y-167907400D01*
X101757077Y-168043784D01*
X101740314Y-168106345D01*
X101721884Y-168317000D01*
X98521505Y-168317000D01*
X98511269Y-168147768D01*
X98512520Y-168124216D01*
X98512334Y-168124199D01*
X98512769Y-168119350D01*
X98513576Y-168114552D01*
X98513729Y-168102000D01*
X98509773Y-168074376D01*
X98508500Y-168056514D01*
X98508500Y-166829885D01*
X110892000Y-166829885D01*
X110896475Y-166845124D01*
X110897865Y-166846329D01*
X110905548Y-166848000D01*
X111727885Y-166848000D01*
X111743124Y-166843525D01*
X111744329Y-166842135D01*
X111746000Y-166834452D01*
X111746000Y-165737116D01*
X111741525Y-165721877D01*
X111740135Y-165720672D01*
X111732452Y-165719001D01*
X111602905Y-165719001D01*
X111596386Y-165719338D01*
X111500794Y-165729257D01*
X111487400Y-165732149D01*
X111333216Y-165783588D01*
X111320038Y-165789761D01*
X111182193Y-165875063D01*
X111170792Y-165884099D01*
X111056261Y-165998829D01*
X111047249Y-166010240D01*
X110962184Y-166148243D01*
X110956037Y-166161424D01*
X110904862Y-166315710D01*
X110901995Y-166329086D01*
X110892328Y-166423438D01*
X110892000Y-166429855D01*
X110892000Y-166829885D01*
X98508500Y-166829885D01*
X98508500Y-160697000D01*
X101721884Y-160697000D01*
X101740314Y-160907655D01*
X101741738Y-160912968D01*
X101741738Y-160912970D01*
X101793405Y-161105792D01*
X101795044Y-161111910D01*
X101797366Y-161116891D01*
X101797367Y-161116892D01*
X101878713Y-161291338D01*
X101884411Y-161303558D01*
X102005699Y-161476776D01*
X102155224Y-161626301D01*
X102328442Y-161747589D01*
X102333420Y-161749910D01*
X102333423Y-161749912D01*
X102515108Y-161834633D01*
X102520090Y-161836956D01*
X102525398Y-161838378D01*
X102525400Y-161838379D01*
X102719030Y-161890262D01*
X102719032Y-161890262D01*
X102724345Y-161891686D01*
X102935000Y-161910116D01*
X103145655Y-161891686D01*
X103150968Y-161890262D01*
X103150970Y-161890262D01*
X103344600Y-161838379D01*
X103344602Y-161838378D01*
X103349910Y-161836956D01*
X103354892Y-161834633D01*
X103536577Y-161749912D01*
X103536580Y-161749910D01*
X103541558Y-161747589D01*
X103714776Y-161626301D01*
X103864301Y-161476776D01*
X103985589Y-161303558D01*
X103991288Y-161291338D01*
X104072633Y-161116892D01*
X104072634Y-161116891D01*
X104074956Y-161111910D01*
X104078274Y-161099529D01*
X104083293Y-161080796D01*
X104120245Y-161020173D01*
X104184106Y-160989152D01*
X104254600Y-160997580D01*
X104309347Y-161042783D01*
X104326707Y-161080796D01*
X104331727Y-161099529D01*
X104335044Y-161111910D01*
X104337366Y-161116891D01*
X104337367Y-161116892D01*
X104418713Y-161291338D01*
X104424411Y-161303558D01*
X104545699Y-161476776D01*
X104695224Y-161626301D01*
X104868442Y-161747589D01*
X104873420Y-161749910D01*
X104873423Y-161749912D01*
X105055108Y-161834633D01*
X105060090Y-161836956D01*
X105065398Y-161838378D01*
X105065400Y-161838379D01*
X105259030Y-161890262D01*
X105259032Y-161890262D01*
X105264345Y-161891686D01*
X105475000Y-161910116D01*
X105685655Y-161891686D01*
X105690968Y-161890262D01*
X105690970Y-161890262D01*
X105884600Y-161838379D01*
X105884602Y-161838378D01*
X105889910Y-161836956D01*
X105894892Y-161834633D01*
X106076577Y-161749912D01*
X106076580Y-161749910D01*
X106081558Y-161747589D01*
X106254776Y-161626301D01*
X106404301Y-161476776D01*
X106525589Y-161303558D01*
X106531288Y-161291338D01*
X106612633Y-161116892D01*
X106612634Y-161116891D01*
X106614956Y-161111910D01*
X106616596Y-161105792D01*
X106668262Y-160912970D01*
X106668262Y-160912968D01*
X106669686Y-160907655D01*
X106688116Y-160697000D01*
X106669686Y-160486345D01*
X106628896Y-160334115D01*
X106627784Y-160329966D01*
X107318257Y-160329966D01*
X107348565Y-160464446D01*
X107351645Y-160474275D01*
X107431770Y-160671603D01*
X107436413Y-160680794D01*
X107547694Y-160862388D01*
X107553777Y-160870699D01*
X107693213Y-161031667D01*
X107700580Y-161038883D01*
X107864434Y-161174916D01*
X107872881Y-161180831D01*
X108056756Y-161288279D01*
X108066042Y-161292729D01*
X108265001Y-161368703D01*
X108274899Y-161371579D01*
X108378250Y-161392606D01*
X108392299Y-161391410D01*
X108396000Y-161381065D01*
X108396000Y-160334115D01*
X108391525Y-160318876D01*
X108390135Y-160317671D01*
X108382452Y-160316000D01*
X107333225Y-160316000D01*
X107319694Y-160319973D01*
X107318257Y-160329966D01*
X106627784Y-160329966D01*
X106616379Y-160287400D01*
X106616378Y-160287398D01*
X106614956Y-160282090D01*
X106525589Y-160090442D01*
X106404301Y-159917224D01*
X106283260Y-159796183D01*
X107314389Y-159796183D01*
X107315912Y-159804607D01*
X107328292Y-159808000D01*
X108377885Y-159808000D01*
X108393124Y-159803525D01*
X108394329Y-159802135D01*
X108396000Y-159794452D01*
X108396000Y-158745102D01*
X108392082Y-158731758D01*
X108377806Y-158729771D01*
X108339324Y-158735660D01*
X108329288Y-158738051D01*
X108126868Y-158804212D01*
X108117359Y-158808209D01*
X107928463Y-158906542D01*
X107919738Y-158912036D01*
X107749433Y-159039905D01*
X107741726Y-159046748D01*
X107594590Y-159200717D01*
X107588104Y-159208727D01*
X107468098Y-159384649D01*
X107463000Y-159393623D01*
X107373338Y-159586783D01*
X107369775Y-159596470D01*
X107314389Y-159796183D01*
X106283260Y-159796183D01*
X106254776Y-159767699D01*
X106081558Y-159646411D01*
X106076580Y-159644090D01*
X106076577Y-159644088D01*
X105894892Y-159559367D01*
X105894891Y-159559366D01*
X105889910Y-159557044D01*
X105884602Y-159555622D01*
X105884600Y-159555621D01*
X105690970Y-159503738D01*
X105690968Y-159503738D01*
X105685655Y-159502314D01*
X105475000Y-159483884D01*
X105264345Y-159502314D01*
X105259032Y-159503738D01*
X105259030Y-159503738D01*
X105065400Y-159555621D01*
X105065398Y-159555622D01*
X105060090Y-159557044D01*
X105055109Y-159559366D01*
X105055108Y-159559367D01*
X104873423Y-159644088D01*
X104873420Y-159644090D01*
X104868442Y-159646411D01*
X104695224Y-159767699D01*
X104545699Y-159917224D01*
X104424411Y-160090442D01*
X104335044Y-160282090D01*
X104333622Y-160287398D01*
X104333621Y-160287400D01*
X104326707Y-160313204D01*
X104289755Y-160373827D01*
X104225894Y-160404848D01*
X104155400Y-160396420D01*
X104100653Y-160351217D01*
X104083293Y-160313204D01*
X104076379Y-160287400D01*
X104076378Y-160287398D01*
X104074956Y-160282090D01*
X103985589Y-160090442D01*
X103864301Y-159917224D01*
X103714776Y-159767699D01*
X103541558Y-159646411D01*
X103536580Y-159644090D01*
X103536577Y-159644088D01*
X103354892Y-159559367D01*
X103354891Y-159559366D01*
X103349910Y-159557044D01*
X103344602Y-159555622D01*
X103344600Y-159555621D01*
X103150970Y-159503738D01*
X103150968Y-159503738D01*
X103145655Y-159502314D01*
X102935000Y-159483884D01*
X102724345Y-159502314D01*
X102719032Y-159503738D01*
X102719030Y-159503738D01*
X102525400Y-159555621D01*
X102525398Y-159555622D01*
X102520090Y-159557044D01*
X102515109Y-159559366D01*
X102515108Y-159559367D01*
X102333423Y-159644088D01*
X102333420Y-159644090D01*
X102328442Y-159646411D01*
X102155224Y-159767699D01*
X102005699Y-159917224D01*
X101884411Y-160090442D01*
X101795044Y-160282090D01*
X101793622Y-160287398D01*
X101793621Y-160287400D01*
X101781104Y-160334115D01*
X101740314Y-160486345D01*
X101721884Y-160697000D01*
X98508500Y-160697000D01*
X98508500Y-152777561D01*
X98528502Y-152709440D01*
X98582158Y-152662947D01*
X98652432Y-152652843D01*
X98685748Y-152662454D01*
X98707997Y-152672359D01*
X98715712Y-152675794D01*
X98777471Y-152688921D01*
X98839943Y-152722649D01*
X98871105Y-152773231D01*
X98925473Y-152940556D01*
X99020960Y-153105944D01*
X99025375Y-153110847D01*
X99025379Y-153110852D01*
X99045912Y-153133656D01*
X99148747Y-153247866D01*
X99303248Y-153360118D01*
X99309276Y-153362802D01*
X99309278Y-153362803D01*
X99471681Y-153435109D01*
X99477712Y-153437794D01*
X99571112Y-153457647D01*
X99658056Y-153476128D01*
X99658061Y-153476128D01*
X99664513Y-153477500D01*
X99855487Y-153477500D01*
X99861939Y-153476128D01*
X99861944Y-153476128D01*
X99948888Y-153457647D01*
X100042288Y-153437794D01*
X100048319Y-153435109D01*
X100210722Y-153362803D01*
X100210724Y-153362802D01*
X100216752Y-153360118D01*
X100371253Y-153247866D01*
X100474088Y-153133656D01*
X100494621Y-153110852D01*
X100494625Y-153110847D01*
X100499040Y-153105944D01*
X100594527Y-152940556D01*
X100653542Y-152758928D01*
X100658977Y-152707222D01*
X100672814Y-152575565D01*
X100673504Y-152569000D01*
X100662792Y-152467078D01*
X100654232Y-152385635D01*
X100654232Y-152385633D01*
X100653542Y-152379072D01*
X100594527Y-152197444D01*
X100583846Y-152178943D01*
X100504986Y-152042355D01*
X100499040Y-152032056D01*
X100425863Y-151950785D01*
X100395147Y-151886779D01*
X100393500Y-151866476D01*
X100393500Y-142984524D01*
X100413502Y-142916403D01*
X100425858Y-142900221D01*
X100499040Y-142818944D01*
X100570931Y-142694425D01*
X100591223Y-142659279D01*
X100591224Y-142659278D01*
X100594527Y-142653556D01*
X100653542Y-142471928D01*
X100666157Y-142351908D01*
X100672814Y-142288565D01*
X100673504Y-142282000D01*
X100653542Y-142092072D01*
X100594527Y-141910444D01*
X100499040Y-141745056D01*
X100416452Y-141653332D01*
X100375675Y-141608045D01*
X100375674Y-141608044D01*
X100371253Y-141603134D01*
X100216752Y-141490882D01*
X100210724Y-141488198D01*
X100210722Y-141488197D01*
X100048319Y-141415891D01*
X100048318Y-141415891D01*
X100042288Y-141413206D01*
X99948888Y-141393353D01*
X99861944Y-141374872D01*
X99861939Y-141374872D01*
X99855487Y-141373500D01*
X99664513Y-141373500D01*
X99658061Y-141374872D01*
X99658056Y-141374872D01*
X99571112Y-141393353D01*
X99477712Y-141413206D01*
X99471682Y-141415891D01*
X99471681Y-141415891D01*
X99309278Y-141488197D01*
X99309276Y-141488198D01*
X99303248Y-141490882D01*
X99148747Y-141603134D01*
X99144326Y-141608044D01*
X99144325Y-141608045D01*
X99103549Y-141653332D01*
X99020960Y-141745056D01*
X98925473Y-141910444D01*
X98866458Y-142092072D01*
X98846496Y-142282000D01*
X98847186Y-142288565D01*
X98853844Y-142351908D01*
X98866458Y-142471928D01*
X98925473Y-142653556D01*
X98928776Y-142659278D01*
X98928777Y-142659279D01*
X98949069Y-142694425D01*
X99020960Y-142818944D01*
X99094137Y-142900215D01*
X99124853Y-142964221D01*
X99126500Y-142984524D01*
X99126500Y-143787500D01*
X99106498Y-143855621D01*
X99052842Y-143902114D01*
X99000500Y-143913500D01*
X98902513Y-143913500D01*
X98896061Y-143914872D01*
X98896056Y-143914872D01*
X98809113Y-143933353D01*
X98715712Y-143953206D01*
X98709677Y-143955893D01*
X98685748Y-143966546D01*
X98615381Y-143975980D01*
X98551084Y-143945873D01*
X98513271Y-143885783D01*
X98508500Y-143851439D01*
X98508500Y-135632561D01*
X98528502Y-135564440D01*
X98582158Y-135517947D01*
X98652432Y-135507843D01*
X98685748Y-135517454D01*
X98707997Y-135527359D01*
X98715712Y-135530794D01*
X98802009Y-135549137D01*
X98896056Y-135569128D01*
X98896061Y-135569128D01*
X98902513Y-135570500D01*
X99000500Y-135570500D01*
X99068621Y-135590502D01*
X99115114Y-135644158D01*
X99126500Y-135696500D01*
X99126500Y-139039476D01*
X99106498Y-139107597D01*
X99094142Y-139123779D01*
X99020960Y-139205056D01*
X98925473Y-139370444D01*
X98866458Y-139552072D01*
X98846496Y-139742000D01*
X98847186Y-139748565D01*
X98853844Y-139811908D01*
X98866458Y-139931928D01*
X98925473Y-140113556D01*
X98928776Y-140119278D01*
X98928777Y-140119279D01*
X98949069Y-140154425D01*
X99020960Y-140278944D01*
X99148747Y-140420866D01*
X99303248Y-140533118D01*
X99309276Y-140535802D01*
X99309278Y-140535803D01*
X99334625Y-140547088D01*
X99477712Y-140610794D01*
X99564009Y-140629137D01*
X99658056Y-140649128D01*
X99658061Y-140649128D01*
X99664513Y-140650500D01*
X99855487Y-140650500D01*
X99861939Y-140649128D01*
X99861944Y-140649128D01*
X99955991Y-140629137D01*
X100042288Y-140610794D01*
X100185375Y-140547088D01*
X100210722Y-140535803D01*
X100210724Y-140535802D01*
X100216752Y-140533118D01*
X100371253Y-140420866D01*
X100499040Y-140278944D01*
X100570931Y-140154425D01*
X100591223Y-140119279D01*
X100591224Y-140119278D01*
X100594527Y-140113556D01*
X100653542Y-139931928D01*
X100666157Y-139811908D01*
X100672814Y-139748565D01*
X100673504Y-139742000D01*
X100653542Y-139552072D01*
X100594527Y-139370444D01*
X100499040Y-139205056D01*
X100425863Y-139123785D01*
X100395147Y-139059779D01*
X100393500Y-139039476D01*
X100393500Y-138236500D01*
X100413502Y-138168379D01*
X100467158Y-138121886D01*
X100519500Y-138110500D01*
X100617487Y-138110500D01*
X100623939Y-138109128D01*
X100623944Y-138109128D01*
X100717991Y-138089137D01*
X100804288Y-138070794D01*
X100867171Y-138042797D01*
X100972722Y-137995803D01*
X100972724Y-137995802D01*
X100978752Y-137993118D01*
X101133253Y-137880866D01*
X101137675Y-137875955D01*
X101256621Y-137743852D01*
X101256622Y-137743851D01*
X101261040Y-137738944D01*
X101332931Y-137614425D01*
X101353223Y-137579279D01*
X101353224Y-137579278D01*
X101356527Y-137573556D01*
X101415542Y-137391928D01*
X101428157Y-137271908D01*
X101434814Y-137208565D01*
X101435504Y-137202000D01*
X101415542Y-137012072D01*
X101356527Y-136830444D01*
X101331997Y-136787956D01*
X101264341Y-136670774D01*
X101261040Y-136665056D01*
X101187863Y-136583785D01*
X101157147Y-136519779D01*
X101155500Y-136499476D01*
X101155500Y-130284524D01*
X101175502Y-130216403D01*
X101187858Y-130200221D01*
X101261040Y-130118944D01*
X101335461Y-129990044D01*
X101353223Y-129959279D01*
X101353224Y-129959278D01*
X101356527Y-129953556D01*
X101415542Y-129771928D01*
X101435504Y-129582000D01*
X101415542Y-129392072D01*
X101356527Y-129210444D01*
X101261040Y-129045056D01*
X101178452Y-128953332D01*
X101137675Y-128908045D01*
X101137674Y-128908044D01*
X101133253Y-128903134D01*
X100978752Y-128790882D01*
X100972724Y-128788198D01*
X100972722Y-128788197D01*
X100810319Y-128715891D01*
X100810318Y-128715891D01*
X100804288Y-128713206D01*
X100710888Y-128693353D01*
X100623944Y-128674872D01*
X100623939Y-128674872D01*
X100617487Y-128673500D01*
X100519500Y-128673500D01*
X100451379Y-128653498D01*
X100404886Y-128599842D01*
X100393500Y-128547500D01*
X100393500Y-127744524D01*
X100413502Y-127676403D01*
X100425858Y-127660221D01*
X100499040Y-127578944D01*
X100570931Y-127454425D01*
X100591223Y-127419279D01*
X100591224Y-127419278D01*
X100594527Y-127413556D01*
X100653542Y-127231928D01*
X100666157Y-127111908D01*
X100672814Y-127048565D01*
X100673504Y-127042000D01*
X100653542Y-126852072D01*
X100594527Y-126670444D01*
X100499040Y-126505056D01*
X100402503Y-126397840D01*
X100375675Y-126368045D01*
X100375674Y-126368044D01*
X100371253Y-126363134D01*
X100216752Y-126250882D01*
X100210724Y-126248198D01*
X100210722Y-126248197D01*
X100048319Y-126175891D01*
X100048318Y-126175891D01*
X100042288Y-126173206D01*
X99948887Y-126153353D01*
X99861944Y-126134872D01*
X99861939Y-126134872D01*
X99855487Y-126133500D01*
X99757500Y-126133500D01*
X99689379Y-126113498D01*
X99642886Y-126059842D01*
X99631500Y-126007500D01*
X99631500Y-125536500D01*
X99651502Y-125468379D01*
X99705158Y-125421886D01*
X99757500Y-125410500D01*
X99855487Y-125410500D01*
X99861939Y-125409128D01*
X99861944Y-125409128D01*
X99955991Y-125389137D01*
X100042288Y-125370794D01*
X100185375Y-125307088D01*
X100210722Y-125295803D01*
X100210724Y-125295802D01*
X100216752Y-125293118D01*
X100226489Y-125286044D01*
X100333525Y-125208277D01*
X100371253Y-125180866D01*
X100458150Y-125084357D01*
X100494621Y-125043852D01*
X100494622Y-125043851D01*
X100499040Y-125038944D01*
X100570931Y-124914425D01*
X100591223Y-124879279D01*
X100591224Y-124879278D01*
X100594527Y-124873556D01*
X100653542Y-124691928D01*
X100666157Y-124571908D01*
X100672814Y-124508565D01*
X100673504Y-124502000D01*
X100653542Y-124312072D01*
X100594527Y-124130444D01*
X100568030Y-124084549D01*
X100502341Y-123970774D01*
X100499040Y-123965056D01*
X100425863Y-123883785D01*
X100395147Y-123819779D01*
X100393500Y-123799476D01*
X100393500Y-122996500D01*
X100413502Y-122928379D01*
X100467158Y-122881886D01*
X100519500Y-122870500D01*
X100617487Y-122870500D01*
X100623939Y-122869128D01*
X100623944Y-122869128D01*
X100719520Y-122848812D01*
X100804288Y-122830794D01*
X100938611Y-122770990D01*
X100972722Y-122755803D01*
X100972724Y-122755802D01*
X100978752Y-122753118D01*
X101133253Y-122640866D01*
X101154819Y-122616915D01*
X101256621Y-122503852D01*
X101256622Y-122503851D01*
X101261040Y-122498944D01*
X101332931Y-122374425D01*
X101353223Y-122339279D01*
X101353224Y-122339278D01*
X101356527Y-122333556D01*
X101415542Y-122151928D01*
X101435504Y-121962000D01*
X101415542Y-121772072D01*
X101356527Y-121590444D01*
X101261040Y-121425056D01*
X101187863Y-121343785D01*
X101157147Y-121279779D01*
X101155500Y-121259476D01*
X101155500Y-120456500D01*
X101175502Y-120388379D01*
X101229158Y-120341886D01*
X101281500Y-120330500D01*
X101379487Y-120330500D01*
X101385939Y-120329128D01*
X101385944Y-120329128D01*
X101479991Y-120309137D01*
X101566288Y-120290794D01*
X101709375Y-120227088D01*
X101734722Y-120215803D01*
X101734724Y-120215802D01*
X101740752Y-120213118D01*
X101895253Y-120100866D01*
X101917500Y-120076158D01*
X102018621Y-119963852D01*
X102018625Y-119963847D01*
X102023040Y-119958944D01*
X102026339Y-119953231D01*
X102026342Y-119953226D01*
X102069513Y-119878451D01*
X102120896Y-119829458D01*
X102190609Y-119816022D01*
X102256520Y-119842409D01*
G37*
%TD.AperFunction*%
%TA.AperFunction,Conductor*%
G36*
X128970018Y-99612000D02*
G01*
X128984851Y-99614310D01*
X128984855Y-99614310D01*
X128993724Y-99615691D01*
X129010923Y-99613442D01*
X129034863Y-99612609D01*
X129292710Y-99628206D01*
X129307814Y-99630040D01*
X129379786Y-99643229D01*
X129588760Y-99681525D01*
X129603526Y-99685164D01*
X129876231Y-99770142D01*
X129890445Y-99775534D01*
X130108223Y-99873547D01*
X130150906Y-99892757D01*
X130164379Y-99899828D01*
X130408813Y-100047595D01*
X130421334Y-100056238D01*
X130646171Y-100232385D01*
X130657560Y-100242475D01*
X130859525Y-100444440D01*
X130869615Y-100455829D01*
X131045762Y-100680666D01*
X131054405Y-100693187D01*
X131202172Y-100937621D01*
X131209242Y-100951092D01*
X131326466Y-101211555D01*
X131331858Y-101225769D01*
X131374547Y-101362763D01*
X131416836Y-101498473D01*
X131420477Y-101513246D01*
X131471960Y-101794186D01*
X131473794Y-101809290D01*
X131488953Y-102059904D01*
X131487692Y-102086716D01*
X131487690Y-102086852D01*
X131486309Y-102095724D01*
X131487473Y-102104626D01*
X131487473Y-102104628D01*
X131490436Y-102127283D01*
X131491500Y-102143621D01*
X131491500Y-104478752D01*
X131471498Y-104546873D01*
X131417842Y-104593366D01*
X131347568Y-104603470D01*
X131282988Y-104573976D01*
X131262287Y-104551023D01*
X131169301Y-104418224D01*
X131019776Y-104268699D01*
X130846558Y-104147411D01*
X130841580Y-104145090D01*
X130841577Y-104145088D01*
X130659892Y-104060367D01*
X130659891Y-104060366D01*
X130654910Y-104058044D01*
X130649602Y-104056622D01*
X130649600Y-104056621D01*
X130455970Y-104004738D01*
X130455968Y-104004738D01*
X130450655Y-104003314D01*
X130240000Y-103984884D01*
X130029345Y-104003314D01*
X130024032Y-104004738D01*
X130024030Y-104004738D01*
X129830400Y-104056621D01*
X129830398Y-104056622D01*
X129825090Y-104058044D01*
X129820109Y-104060366D01*
X129820108Y-104060367D01*
X129638423Y-104145088D01*
X129638420Y-104145090D01*
X129633442Y-104147411D01*
X129460224Y-104268699D01*
X129310699Y-104418224D01*
X129189411Y-104591442D01*
X129100044Y-104783090D01*
X129045314Y-104987345D01*
X129026884Y-105198000D01*
X129045314Y-105408655D01*
X129046738Y-105413968D01*
X129046738Y-105413970D01*
X129092325Y-105584101D01*
X129100044Y-105612910D01*
X129102366Y-105617891D01*
X129102367Y-105617892D01*
X129150843Y-105721848D01*
X129189411Y-105804558D01*
X129310699Y-105977776D01*
X129460224Y-106127301D01*
X129464736Y-106130460D01*
X129552770Y-106192102D01*
X129597099Y-106247559D01*
X129606500Y-106295315D01*
X129606500Y-109194476D01*
X129586498Y-109262597D01*
X129574142Y-109278779D01*
X129569134Y-109284341D01*
X129508689Y-109321579D01*
X129437706Y-109320227D01*
X129378721Y-109280713D01*
X129350464Y-109215582D01*
X129349500Y-109200029D01*
X129349500Y-107816768D01*
X129350027Y-107805585D01*
X129351702Y-107798092D01*
X129349562Y-107730001D01*
X129349500Y-107726044D01*
X129349500Y-107698144D01*
X129348996Y-107694153D01*
X129348063Y-107682311D01*
X129346923Y-107646036D01*
X129346674Y-107638111D01*
X129341021Y-107618652D01*
X129337012Y-107599293D01*
X129336846Y-107597983D01*
X129334474Y-107579203D01*
X129331558Y-107571837D01*
X129331556Y-107571831D01*
X129318200Y-107538098D01*
X129314355Y-107526868D01*
X129304230Y-107492017D01*
X129304230Y-107492016D01*
X129302019Y-107484407D01*
X129291705Y-107466966D01*
X129283008Y-107449213D01*
X129278472Y-107437758D01*
X129275552Y-107430383D01*
X129256194Y-107403739D01*
X129249563Y-107394612D01*
X129243047Y-107384692D01*
X129220542Y-107346638D01*
X129214938Y-107341033D01*
X129206220Y-107332315D01*
X129193379Y-107317281D01*
X129186131Y-107307305D01*
X129186130Y-107307304D01*
X129181472Y-107300893D01*
X129147407Y-107272712D01*
X129138626Y-107264722D01*
X128823647Y-106949742D01*
X128816113Y-106941463D01*
X128812000Y-106934982D01*
X128762347Y-106888355D01*
X128759506Y-106885601D01*
X128739770Y-106865865D01*
X128736573Y-106863385D01*
X128727551Y-106855680D01*
X128701100Y-106830841D01*
X128695321Y-106825414D01*
X128688375Y-106821595D01*
X128688372Y-106821593D01*
X128677566Y-106815652D01*
X128661047Y-106804801D01*
X128660583Y-106804441D01*
X128645041Y-106792386D01*
X128637772Y-106789241D01*
X128637768Y-106789238D01*
X128604463Y-106774826D01*
X128593813Y-106769609D01*
X128555060Y-106748305D01*
X128535437Y-106743267D01*
X128516734Y-106736863D01*
X128505420Y-106731967D01*
X128505419Y-106731967D01*
X128498145Y-106728819D01*
X128490322Y-106727580D01*
X128490312Y-106727577D01*
X128454476Y-106721901D01*
X128442856Y-106719495D01*
X128407711Y-106710472D01*
X128407710Y-106710472D01*
X128400030Y-106708500D01*
X128379776Y-106708500D01*
X128360065Y-106706949D01*
X128347886Y-106705020D01*
X128340057Y-106703780D01*
X128332165Y-106704526D01*
X128296039Y-106707941D01*
X128284181Y-106708500D01*
X128279874Y-106708500D01*
X128211753Y-106688498D01*
X128204327Y-106683339D01*
X128181705Y-106666385D01*
X128045316Y-106615255D01*
X127983134Y-106608500D01*
X126386866Y-106608500D01*
X126324684Y-106615255D01*
X126188295Y-106666385D01*
X126165689Y-106683327D01*
X126099185Y-106708174D01*
X126090126Y-106708500D01*
X125078594Y-106708500D01*
X125010473Y-106688498D01*
X124989499Y-106671595D01*
X123847443Y-105529538D01*
X123813417Y-105467226D01*
X123812453Y-105418561D01*
X123813264Y-105413961D01*
X123814686Y-105408655D01*
X123815166Y-105403175D01*
X123832637Y-105203475D01*
X123833116Y-105198000D01*
X123814686Y-104987345D01*
X123759956Y-104783090D01*
X123670589Y-104591442D01*
X123549301Y-104418224D01*
X123399776Y-104268699D01*
X123226558Y-104147411D01*
X123221580Y-104145090D01*
X123221577Y-104145088D01*
X123039892Y-104060367D01*
X123039891Y-104060366D01*
X123034910Y-104058044D01*
X123029602Y-104056622D01*
X123029600Y-104056621D01*
X122835970Y-104004738D01*
X122835968Y-104004738D01*
X122830655Y-104003314D01*
X122620000Y-103984884D01*
X122409345Y-104003314D01*
X122404032Y-104004738D01*
X122404030Y-104004738D01*
X122210400Y-104056621D01*
X122210398Y-104056622D01*
X122205090Y-104058044D01*
X122200109Y-104060366D01*
X122200108Y-104060367D01*
X122018423Y-104145088D01*
X122018420Y-104145090D01*
X122013442Y-104147411D01*
X121840224Y-104268699D01*
X121690699Y-104418224D01*
X121569411Y-104591442D01*
X121480044Y-104783090D01*
X121425314Y-104987345D01*
X121406884Y-105198000D01*
X121425314Y-105408655D01*
X121426738Y-105413968D01*
X121426738Y-105413970D01*
X121472325Y-105584101D01*
X121480044Y-105612910D01*
X121482366Y-105617891D01*
X121482367Y-105617892D01*
X121530843Y-105721848D01*
X121569411Y-105804558D01*
X121690699Y-105977776D01*
X121840224Y-106127301D01*
X122013442Y-106248589D01*
X122018420Y-106250910D01*
X122018423Y-106250912D01*
X122113646Y-106295315D01*
X122205090Y-106337956D01*
X122210398Y-106339378D01*
X122210400Y-106339379D01*
X122404030Y-106391262D01*
X122404032Y-106391262D01*
X122409345Y-106392686D01*
X122620000Y-106411116D01*
X122625475Y-106410637D01*
X122825184Y-106393165D01*
X122825188Y-106393164D01*
X122830655Y-106392686D01*
X122835961Y-106391264D01*
X122840561Y-106390453D01*
X122911121Y-106398321D01*
X122951538Y-106425443D01*
X123618431Y-107092336D01*
X123652457Y-107154648D01*
X123647392Y-107225463D01*
X123604845Y-107282299D01*
X123573567Y-107299412D01*
X123536707Y-107313231D01*
X123536704Y-107313233D01*
X123528295Y-107316385D01*
X123411739Y-107403739D01*
X123324385Y-107520295D01*
X123273255Y-107656684D01*
X123266500Y-107718866D01*
X123266500Y-108265134D01*
X123273255Y-108327316D01*
X123324385Y-108463705D01*
X123411739Y-108580261D01*
X123528295Y-108667615D01*
X123536703Y-108670767D01*
X123664684Y-108718745D01*
X123663586Y-108721673D01*
X123712627Y-108749680D01*
X123745456Y-108812630D01*
X123739041Y-108883336D01*
X123710943Y-108926153D01*
X123494619Y-109142476D01*
X123283499Y-109353596D01*
X123221187Y-109387621D01*
X123194404Y-109390500D01*
X121809763Y-109390500D01*
X121798579Y-109389973D01*
X121791091Y-109388299D01*
X121783168Y-109388548D01*
X121723033Y-109390438D01*
X121719075Y-109390500D01*
X121691144Y-109390500D01*
X121687229Y-109390995D01*
X121687225Y-109390995D01*
X121687167Y-109391003D01*
X121687138Y-109391006D01*
X121675296Y-109391939D01*
X121631110Y-109393327D01*
X121613744Y-109398372D01*
X121611658Y-109398978D01*
X121592306Y-109402986D01*
X121580068Y-109404532D01*
X121580066Y-109404533D01*
X121572203Y-109405526D01*
X121531086Y-109421806D01*
X121519885Y-109425641D01*
X121477406Y-109437982D01*
X121470587Y-109442015D01*
X121470582Y-109442017D01*
X121459971Y-109448293D01*
X121442221Y-109456990D01*
X121423383Y-109464448D01*
X121416967Y-109469109D01*
X121416966Y-109469110D01*
X121387625Y-109490428D01*
X121377701Y-109496947D01*
X121346460Y-109515422D01*
X121346455Y-109515426D01*
X121339637Y-109519458D01*
X121325313Y-109533782D01*
X121310281Y-109546621D01*
X121293893Y-109558528D01*
X121265712Y-109592593D01*
X121257722Y-109601373D01*
X120957746Y-109901349D01*
X120949464Y-109908886D01*
X120942982Y-109913000D01*
X120899374Y-109959438D01*
X120896374Y-109962633D01*
X120893619Y-109965476D01*
X120873865Y-109985230D01*
X120871385Y-109988427D01*
X120863682Y-109997447D01*
X120833414Y-110029679D01*
X120829595Y-110036625D01*
X120829593Y-110036628D01*
X120823652Y-110047434D01*
X120812801Y-110063953D01*
X120800386Y-110079959D01*
X120797241Y-110087228D01*
X120797238Y-110087232D01*
X120782826Y-110120537D01*
X120777609Y-110131187D01*
X120756305Y-110169940D01*
X120754334Y-110177615D01*
X120754334Y-110177616D01*
X120751267Y-110189562D01*
X120744863Y-110208266D01*
X120736819Y-110226855D01*
X120735580Y-110234678D01*
X120735577Y-110234688D01*
X120729901Y-110270524D01*
X120727495Y-110282144D01*
X120716500Y-110324970D01*
X120716500Y-110332900D01*
X120716451Y-110333288D01*
X120688071Y-110398366D01*
X120629012Y-110437769D01*
X120591444Y-110443500D01*
X120451866Y-110443500D01*
X120389684Y-110450255D01*
X120253295Y-110501385D01*
X120136739Y-110588739D01*
X120049385Y-110705295D01*
X120046233Y-110713703D01*
X120004919Y-110823907D01*
X119962277Y-110880671D01*
X119895716Y-110905371D01*
X119826367Y-110890163D01*
X119793743Y-110864476D01*
X119743151Y-110808875D01*
X119743142Y-110808866D01*
X119739670Y-110805051D01*
X119735619Y-110801852D01*
X119735615Y-110801848D01*
X119568414Y-110669800D01*
X119568410Y-110669798D01*
X119564359Y-110666598D01*
X119559835Y-110664101D01*
X119559831Y-110664098D01*
X119508608Y-110635822D01*
X119458636Y-110585390D01*
X119443500Y-110525513D01*
X119443500Y-102852524D01*
X119463502Y-102784403D01*
X119475858Y-102768221D01*
X119549040Y-102686944D01*
X119644527Y-102521556D01*
X119703542Y-102339928D01*
X119715175Y-102229251D01*
X119722814Y-102156565D01*
X119723504Y-102150000D01*
X119712280Y-102043206D01*
X119704232Y-101966635D01*
X119704232Y-101966633D01*
X119703542Y-101960072D01*
X119644527Y-101778444D01*
X119549040Y-101613056D01*
X119421253Y-101471134D01*
X119266752Y-101358882D01*
X119260724Y-101356198D01*
X119260722Y-101356197D01*
X119098319Y-101283891D01*
X119098318Y-101283891D01*
X119092288Y-101281206D01*
X118998888Y-101261353D01*
X118911944Y-101242872D01*
X118911939Y-101242872D01*
X118905487Y-101241500D01*
X118714513Y-101241500D01*
X118708061Y-101242872D01*
X118708056Y-101242872D01*
X118621113Y-101261353D01*
X118527712Y-101281206D01*
X118521682Y-101283891D01*
X118521681Y-101283891D01*
X118359278Y-101356197D01*
X118359276Y-101356198D01*
X118353248Y-101358882D01*
X118198747Y-101471134D01*
X118070960Y-101613056D01*
X117975473Y-101778444D01*
X117916458Y-101960072D01*
X117915768Y-101966633D01*
X117915768Y-101966635D01*
X117907720Y-102043206D01*
X117896496Y-102150000D01*
X117897186Y-102156565D01*
X117904826Y-102229251D01*
X117916458Y-102339928D01*
X117975473Y-102521556D01*
X118070960Y-102686944D01*
X118144137Y-102768215D01*
X118174853Y-102832221D01*
X118176500Y-102852524D01*
X118176500Y-110523692D01*
X118156498Y-110591813D01*
X118108683Y-110635453D01*
X118083607Y-110648507D01*
X118079474Y-110651610D01*
X118079471Y-110651612D01*
X117909100Y-110779530D01*
X117904965Y-110782635D01*
X117879541Y-110809240D01*
X117811280Y-110880671D01*
X117750629Y-110944138D01*
X117643201Y-111101621D01*
X117588293Y-111146621D01*
X117517768Y-111154792D01*
X117454021Y-111123538D01*
X117433324Y-111099054D01*
X117352822Y-110974617D01*
X117352820Y-110974614D01*
X117350014Y-110970277D01*
X117199670Y-110805051D01*
X117195619Y-110801852D01*
X117195615Y-110801848D01*
X117028414Y-110669800D01*
X117028410Y-110669798D01*
X117024359Y-110666598D01*
X117019835Y-110664101D01*
X117019831Y-110664098D01*
X116968608Y-110635822D01*
X116918636Y-110585390D01*
X116903500Y-110525513D01*
X116903500Y-104376524D01*
X116923502Y-104308403D01*
X116935858Y-104292221D01*
X117009040Y-104210944D01*
X117104527Y-104045556D01*
X117163542Y-103863928D01*
X117175175Y-103753251D01*
X117182814Y-103680565D01*
X117183504Y-103674000D01*
X117172280Y-103567206D01*
X117164232Y-103490635D01*
X117164232Y-103490633D01*
X117163542Y-103484072D01*
X117104527Y-103302444D01*
X117009040Y-103137056D01*
X116983064Y-103108206D01*
X116885675Y-103000045D01*
X116885674Y-103000044D01*
X116881253Y-102995134D01*
X116766829Y-102912000D01*
X116732094Y-102886763D01*
X116732093Y-102886762D01*
X116726752Y-102882882D01*
X116720724Y-102880198D01*
X116720722Y-102880197D01*
X116558319Y-102807891D01*
X116558318Y-102807891D01*
X116552288Y-102805206D01*
X116454418Y-102784403D01*
X116371944Y-102766872D01*
X116371939Y-102766872D01*
X116365487Y-102765500D01*
X116174513Y-102765500D01*
X116168061Y-102766872D01*
X116168056Y-102766872D01*
X116085582Y-102784403D01*
X115987712Y-102805206D01*
X115981682Y-102807891D01*
X115981681Y-102807891D01*
X115819278Y-102880197D01*
X115819276Y-102880198D01*
X115813248Y-102882882D01*
X115807907Y-102886762D01*
X115807906Y-102886763D01*
X115773171Y-102912000D01*
X115658747Y-102995134D01*
X115654326Y-103000044D01*
X115654325Y-103000045D01*
X115556937Y-103108206D01*
X115530960Y-103137056D01*
X115435473Y-103302444D01*
X115376458Y-103484072D01*
X115375768Y-103490633D01*
X115375768Y-103490635D01*
X115367720Y-103567206D01*
X115356496Y-103674000D01*
X115357186Y-103680565D01*
X115364826Y-103753251D01*
X115376458Y-103863928D01*
X115435473Y-104045556D01*
X115530960Y-104210944D01*
X115604137Y-104292215D01*
X115634853Y-104356221D01*
X115636500Y-104376524D01*
X115636500Y-110523692D01*
X115616498Y-110591813D01*
X115568683Y-110635453D01*
X115543607Y-110648507D01*
X115539474Y-110651610D01*
X115539471Y-110651612D01*
X115369100Y-110779530D01*
X115364965Y-110782635D01*
X115339541Y-110809240D01*
X115271280Y-110880671D01*
X115210629Y-110944138D01*
X115103201Y-111101621D01*
X115048293Y-111146621D01*
X114977768Y-111154792D01*
X114914021Y-111123538D01*
X114893324Y-111099054D01*
X114812822Y-110974617D01*
X114812820Y-110974614D01*
X114810014Y-110970277D01*
X114659670Y-110805051D01*
X114655619Y-110801852D01*
X114655615Y-110801848D01*
X114488414Y-110669800D01*
X114488410Y-110669798D01*
X114484359Y-110666598D01*
X114479835Y-110664101D01*
X114479831Y-110664098D01*
X114428608Y-110635822D01*
X114378636Y-110585390D01*
X114363500Y-110525513D01*
X114363500Y-105138524D01*
X114383502Y-105070403D01*
X114395858Y-105054221D01*
X114469040Y-104972944D01*
X114564527Y-104807556D01*
X114623542Y-104625928D01*
X114625903Y-104603470D01*
X114642814Y-104442565D01*
X114643504Y-104436000D01*
X114635119Y-104356221D01*
X114624232Y-104252635D01*
X114624232Y-104252633D01*
X114623542Y-104246072D01*
X114564527Y-104064444D01*
X114560011Y-104056621D01*
X114472341Y-103904774D01*
X114469040Y-103899056D01*
X114443064Y-103870206D01*
X114345675Y-103762045D01*
X114345674Y-103762044D01*
X114341253Y-103757134D01*
X114226829Y-103674000D01*
X114192094Y-103648763D01*
X114192093Y-103648762D01*
X114186752Y-103644882D01*
X114180724Y-103642198D01*
X114180722Y-103642197D01*
X114018319Y-103569891D01*
X114018318Y-103569891D01*
X114012288Y-103567206D01*
X113914418Y-103546403D01*
X113831944Y-103528872D01*
X113831939Y-103528872D01*
X113825487Y-103527500D01*
X113634513Y-103527500D01*
X113628061Y-103528872D01*
X113628056Y-103528872D01*
X113545582Y-103546403D01*
X113447712Y-103567206D01*
X113441682Y-103569891D01*
X113441681Y-103569891D01*
X113279278Y-103642197D01*
X113279276Y-103642198D01*
X113273248Y-103644882D01*
X113267907Y-103648762D01*
X113267906Y-103648763D01*
X113233171Y-103674000D01*
X113118747Y-103757134D01*
X113114326Y-103762044D01*
X113114325Y-103762045D01*
X113016937Y-103870206D01*
X112990960Y-103899056D01*
X112987659Y-103904774D01*
X112899990Y-104056621D01*
X112895473Y-104064444D01*
X112836458Y-104246072D01*
X112835768Y-104252633D01*
X112835768Y-104252635D01*
X112824881Y-104356221D01*
X112816496Y-104436000D01*
X112817186Y-104442565D01*
X112834098Y-104603470D01*
X112836458Y-104625928D01*
X112895473Y-104807556D01*
X112990960Y-104972944D01*
X113064137Y-105054215D01*
X113094853Y-105118221D01*
X113096500Y-105138524D01*
X113096500Y-110523692D01*
X113076498Y-110591813D01*
X113028683Y-110635453D01*
X113003607Y-110648507D01*
X112999474Y-110651610D01*
X112999471Y-110651612D01*
X112829100Y-110779530D01*
X112824965Y-110782635D01*
X112799541Y-110809240D01*
X112731280Y-110880671D01*
X112670629Y-110944138D01*
X112563201Y-111101621D01*
X112508293Y-111146621D01*
X112437768Y-111154792D01*
X112374021Y-111123538D01*
X112353324Y-111099054D01*
X112272822Y-110974617D01*
X112272820Y-110974614D01*
X112270014Y-110970277D01*
X112119670Y-110805051D01*
X112115619Y-110801852D01*
X112115615Y-110801848D01*
X111948414Y-110669800D01*
X111948410Y-110669798D01*
X111944359Y-110666598D01*
X111939835Y-110664101D01*
X111939831Y-110664098D01*
X111888608Y-110635822D01*
X111838636Y-110585390D01*
X111823500Y-110525513D01*
X111823500Y-103614524D01*
X111843502Y-103546403D01*
X111855858Y-103530221D01*
X111929040Y-103448944D01*
X112024527Y-103283556D01*
X112083542Y-103101928D01*
X112095175Y-102991251D01*
X112102814Y-102918565D01*
X112103504Y-102912000D01*
X112092280Y-102805206D01*
X112084232Y-102728635D01*
X112084232Y-102728633D01*
X112083542Y-102722072D01*
X112024527Y-102540444D01*
X111929040Y-102375056D01*
X111903064Y-102346206D01*
X111805675Y-102238045D01*
X111805674Y-102238044D01*
X111801253Y-102233134D01*
X111679566Y-102144723D01*
X111652094Y-102124763D01*
X111652093Y-102124762D01*
X111646752Y-102120882D01*
X111640724Y-102118198D01*
X111640722Y-102118197D01*
X111478319Y-102045891D01*
X111478318Y-102045891D01*
X111472288Y-102043206D01*
X111378888Y-102023353D01*
X111291944Y-102004872D01*
X111291939Y-102004872D01*
X111285487Y-102003500D01*
X111094513Y-102003500D01*
X111088061Y-102004872D01*
X111088056Y-102004872D01*
X111001112Y-102023353D01*
X110907712Y-102043206D01*
X110901682Y-102045891D01*
X110901681Y-102045891D01*
X110739278Y-102118197D01*
X110739276Y-102118198D01*
X110733248Y-102120882D01*
X110727907Y-102124762D01*
X110727906Y-102124763D01*
X110700434Y-102144723D01*
X110578747Y-102233134D01*
X110574326Y-102238044D01*
X110574325Y-102238045D01*
X110476937Y-102346206D01*
X110450960Y-102375056D01*
X110355473Y-102540444D01*
X110296458Y-102722072D01*
X110295768Y-102728633D01*
X110295768Y-102728635D01*
X110287720Y-102805206D01*
X110276496Y-102912000D01*
X110277186Y-102918565D01*
X110284826Y-102991251D01*
X110296458Y-103101928D01*
X110355473Y-103283556D01*
X110450960Y-103448944D01*
X110524137Y-103530215D01*
X110554853Y-103594221D01*
X110556500Y-103614524D01*
X110556500Y-110523692D01*
X110536498Y-110591813D01*
X110488683Y-110635453D01*
X110463607Y-110648507D01*
X110459474Y-110651610D01*
X110459471Y-110651612D01*
X110289100Y-110779530D01*
X110284965Y-110782635D01*
X110259541Y-110809240D01*
X110191280Y-110880671D01*
X110130629Y-110944138D01*
X110127720Y-110948403D01*
X110127714Y-110948411D01*
X110123558Y-110954504D01*
X110023204Y-111101618D01*
X110022898Y-111102066D01*
X109967987Y-111147069D01*
X109897462Y-111155240D01*
X109833715Y-111123986D01*
X109813018Y-111099502D01*
X109732426Y-110974926D01*
X109726136Y-110966757D01*
X109582806Y-110809240D01*
X109575273Y-110802215D01*
X109408139Y-110670222D01*
X109399552Y-110664517D01*
X109213117Y-110561599D01*
X109203705Y-110557369D01*
X109002959Y-110486280D01*
X108992988Y-110483646D01*
X108921837Y-110470972D01*
X108908540Y-110472432D01*
X108904000Y-110486989D01*
X108904000Y-113120517D01*
X108908064Y-113134359D01*
X108921478Y-113136393D01*
X108928184Y-113135534D01*
X108938262Y-113133392D01*
X109142255Y-113072191D01*
X109151842Y-113068433D01*
X109343095Y-112974739D01*
X109351945Y-112969464D01*
X109525328Y-112845792D01*
X109533200Y-112839139D01*
X109684052Y-112688812D01*
X109690730Y-112680965D01*
X109818022Y-112503819D01*
X109819279Y-112504722D01*
X109866373Y-112461362D01*
X109936311Y-112449145D01*
X110001751Y-112476678D01*
X110029579Y-112508511D01*
X110089987Y-112607088D01*
X110236250Y-112775938D01*
X110408126Y-112918632D01*
X110601000Y-113031338D01*
X110605825Y-113033180D01*
X110605826Y-113033181D01*
X110640496Y-113046420D01*
X110809692Y-113111030D01*
X110814760Y-113112061D01*
X110814763Y-113112062D01*
X110871514Y-113123608D01*
X111028597Y-113155567D01*
X111033772Y-113155757D01*
X111033774Y-113155757D01*
X111246673Y-113163564D01*
X111246677Y-113163564D01*
X111251837Y-113163753D01*
X111256957Y-113163097D01*
X111256959Y-113163097D01*
X111468288Y-113136025D01*
X111468289Y-113136025D01*
X111473416Y-113135368D01*
X111479019Y-113133687D01*
X111682429Y-113072661D01*
X111682434Y-113072659D01*
X111687384Y-113071174D01*
X111887994Y-112972896D01*
X112069860Y-112843173D01*
X112228096Y-112685489D01*
X112244334Y-112662892D01*
X112358453Y-112504077D01*
X112359776Y-112505028D01*
X112406645Y-112461857D01*
X112476580Y-112449625D01*
X112542026Y-112477144D01*
X112569875Y-112508994D01*
X112629987Y-112607088D01*
X112776250Y-112775938D01*
X112948126Y-112918632D01*
X113141000Y-113031338D01*
X113145825Y-113033180D01*
X113145826Y-113033181D01*
X113180496Y-113046420D01*
X113349692Y-113111030D01*
X113354760Y-113112061D01*
X113354763Y-113112062D01*
X113411514Y-113123608D01*
X113568597Y-113155567D01*
X113573772Y-113155757D01*
X113573774Y-113155757D01*
X113786673Y-113163564D01*
X113786677Y-113163564D01*
X113791837Y-113163753D01*
X113796957Y-113163097D01*
X113796959Y-113163097D01*
X114008288Y-113136025D01*
X114008289Y-113136025D01*
X114013416Y-113135368D01*
X114019019Y-113133687D01*
X114222429Y-113072661D01*
X114222434Y-113072659D01*
X114227384Y-113071174D01*
X114427994Y-112972896D01*
X114609860Y-112843173D01*
X114768096Y-112685489D01*
X114784334Y-112662892D01*
X114898453Y-112504077D01*
X114899776Y-112505028D01*
X114946645Y-112461857D01*
X115016580Y-112449625D01*
X115082026Y-112477144D01*
X115109875Y-112508994D01*
X115169987Y-112607088D01*
X115316250Y-112775938D01*
X115488126Y-112918632D01*
X115681000Y-113031338D01*
X115685825Y-113033180D01*
X115685826Y-113033181D01*
X115720496Y-113046420D01*
X115889692Y-113111030D01*
X115894760Y-113112061D01*
X115894763Y-113112062D01*
X115951514Y-113123608D01*
X116108597Y-113155567D01*
X116113772Y-113155757D01*
X116113774Y-113155757D01*
X116326673Y-113163564D01*
X116326677Y-113163564D01*
X116331837Y-113163753D01*
X116336957Y-113163097D01*
X116336959Y-113163097D01*
X116548288Y-113136025D01*
X116548289Y-113136025D01*
X116553416Y-113135368D01*
X116559019Y-113133687D01*
X116762429Y-113072661D01*
X116762434Y-113072659D01*
X116767384Y-113071174D01*
X116967994Y-112972896D01*
X117149860Y-112843173D01*
X117308096Y-112685489D01*
X117324334Y-112662892D01*
X117438453Y-112504077D01*
X117439776Y-112505028D01*
X117486645Y-112461857D01*
X117556580Y-112449625D01*
X117622026Y-112477144D01*
X117649875Y-112508994D01*
X117709987Y-112607088D01*
X117856250Y-112775938D01*
X118028126Y-112918632D01*
X118221000Y-113031338D01*
X118225825Y-113033180D01*
X118225826Y-113033181D01*
X118260496Y-113046420D01*
X118429692Y-113111030D01*
X118434760Y-113112061D01*
X118434763Y-113112062D01*
X118491514Y-113123608D01*
X118648597Y-113155567D01*
X118653772Y-113155757D01*
X118653774Y-113155757D01*
X118866673Y-113163564D01*
X118866677Y-113163564D01*
X118871837Y-113163753D01*
X118876957Y-113163097D01*
X118876959Y-113163097D01*
X119088288Y-113136025D01*
X119088289Y-113136025D01*
X119093416Y-113135368D01*
X119099019Y-113133687D01*
X119302429Y-113072661D01*
X119302434Y-113072659D01*
X119307384Y-113071174D01*
X119507994Y-112972896D01*
X119689860Y-112843173D01*
X119798091Y-112735319D01*
X119860462Y-112701404D01*
X119931268Y-112706592D01*
X119988030Y-112749238D01*
X120005012Y-112780341D01*
X120049385Y-112898705D01*
X120136739Y-113015261D01*
X120253295Y-113102615D01*
X120389684Y-113153745D01*
X120451866Y-113160500D01*
X122248134Y-113160500D01*
X122310316Y-113153745D01*
X122446705Y-113102615D01*
X122563261Y-113015261D01*
X122650615Y-112898705D01*
X122701745Y-112762316D01*
X122708500Y-112700134D01*
X122708500Y-112561500D01*
X122728502Y-112493379D01*
X122782158Y-112446886D01*
X122834500Y-112435500D01*
X123601606Y-112435500D01*
X123669727Y-112455502D01*
X123716306Y-112509348D01*
X123728783Y-112536789D01*
X123807258Y-112659497D01*
X123900748Y-112767998D01*
X124010511Y-112863750D01*
X124014272Y-112866188D01*
X124014275Y-112866190D01*
X124021943Y-112871160D01*
X124130696Y-112941650D01*
X124134757Y-112943526D01*
X124134758Y-112943527D01*
X124143543Y-112947586D01*
X124262924Y-113002748D01*
X124298583Y-113013412D01*
X124395844Y-113042499D01*
X124395849Y-113042500D01*
X124400142Y-113043784D01*
X124404574Y-113044446D01*
X124404577Y-113044447D01*
X124539765Y-113064650D01*
X124539768Y-113064650D01*
X124544196Y-113065312D01*
X124618855Y-113065768D01*
X124682945Y-113066160D01*
X124682950Y-113066160D01*
X124687417Y-113066187D01*
X124689861Y-113065852D01*
X124693656Y-113065729D01*
X125162500Y-113065729D01*
X125230621Y-113085731D01*
X125277114Y-113139387D01*
X125288500Y-113191729D01*
X125288500Y-113385476D01*
X125268498Y-113453597D01*
X125256142Y-113469779D01*
X125182960Y-113551056D01*
X125087473Y-113716444D01*
X125028458Y-113898072D01*
X125027768Y-113904633D01*
X125027768Y-113904635D01*
X125009868Y-114074947D01*
X125008496Y-114088000D01*
X125028458Y-114277928D01*
X125087473Y-114459556D01*
X125182960Y-114624944D01*
X125310747Y-114766866D01*
X125465248Y-114879118D01*
X125471276Y-114881802D01*
X125471278Y-114881803D01*
X125633681Y-114954109D01*
X125639712Y-114956794D01*
X125733112Y-114976647D01*
X125820056Y-114995128D01*
X125820061Y-114995128D01*
X125826513Y-114996500D01*
X126017487Y-114996500D01*
X126023939Y-114995128D01*
X126023944Y-114995128D01*
X126110888Y-114976647D01*
X126204288Y-114956794D01*
X126210319Y-114954109D01*
X126372722Y-114881803D01*
X126372724Y-114881802D01*
X126378752Y-114879118D01*
X126533253Y-114766866D01*
X126661040Y-114624944D01*
X126756527Y-114459556D01*
X126815542Y-114277928D01*
X126835504Y-114088000D01*
X126834132Y-114074947D01*
X126816232Y-113904635D01*
X126816232Y-113904633D01*
X126815542Y-113898072D01*
X126756527Y-113716444D01*
X126661040Y-113551056D01*
X126587863Y-113469785D01*
X126557147Y-113405779D01*
X126555500Y-113385476D01*
X126555500Y-113191729D01*
X126575502Y-113123608D01*
X126629158Y-113077115D01*
X126681500Y-113065729D01*
X127212008Y-113065729D01*
X127212778Y-113065731D01*
X127282931Y-113066160D01*
X127282937Y-113066160D01*
X127287417Y-113066187D01*
X127371507Y-113054669D01*
X127427276Y-113047030D01*
X127427280Y-113047029D01*
X127431727Y-113046420D01*
X127569436Y-113007063D01*
X127702398Y-112947586D01*
X127706180Y-112945200D01*
X127706187Y-112945196D01*
X127819736Y-112873551D01*
X127823526Y-112871160D01*
X127853333Y-112845792D01*
X127874837Y-112827491D01*
X127939677Y-112798573D01*
X128009859Y-112809301D01*
X128063099Y-112856269D01*
X128082500Y-112923445D01*
X128082500Y-128879476D01*
X128062498Y-128947597D01*
X128050142Y-128963779D01*
X127976960Y-129045056D01*
X127938712Y-129111305D01*
X127931404Y-129123962D01*
X127880022Y-129172955D01*
X127810308Y-129186392D01*
X127744397Y-129160005D01*
X127706736Y-129111205D01*
X127633419Y-128942590D01*
X127631354Y-128937840D01*
X127573412Y-128848275D01*
X127512822Y-128754617D01*
X127512820Y-128754614D01*
X127510014Y-128750277D01*
X127359670Y-128585051D01*
X127355619Y-128581852D01*
X127355615Y-128581848D01*
X127188414Y-128449800D01*
X127188410Y-128449798D01*
X127184359Y-128446598D01*
X127143053Y-128423796D01*
X127093084Y-128373364D01*
X127078312Y-128303921D01*
X127103428Y-128237516D01*
X127130780Y-128210909D01*
X127174603Y-128179650D01*
X127309860Y-128083173D01*
X127468096Y-127925489D01*
X127527594Y-127842689D01*
X127595435Y-127748277D01*
X127598453Y-127744077D01*
X127619320Y-127701857D01*
X127695136Y-127548453D01*
X127695137Y-127548451D01*
X127697430Y-127543811D01*
X127762370Y-127330069D01*
X127791529Y-127108590D01*
X127793156Y-127042000D01*
X127774852Y-126819361D01*
X127720431Y-126602702D01*
X127631354Y-126397840D01*
X127591906Y-126336862D01*
X127512822Y-126214617D01*
X127512820Y-126214614D01*
X127510014Y-126210277D01*
X127359670Y-126045051D01*
X127355619Y-126041852D01*
X127355615Y-126041848D01*
X127188414Y-125909800D01*
X127188410Y-125909798D01*
X127184359Y-125906598D01*
X127143053Y-125883796D01*
X127093084Y-125833364D01*
X127078312Y-125763921D01*
X127103428Y-125697516D01*
X127130780Y-125670909D01*
X127174603Y-125639650D01*
X127309860Y-125543173D01*
X127316557Y-125536500D01*
X127400916Y-125452435D01*
X127468096Y-125385489D01*
X127473312Y-125378231D01*
X127595435Y-125208277D01*
X127598453Y-125204077D01*
X127608006Y-125184749D01*
X127695136Y-125008453D01*
X127695137Y-125008451D01*
X127697430Y-125003811D01*
X127762370Y-124790069D01*
X127791529Y-124568590D01*
X127793156Y-124502000D01*
X127774852Y-124279361D01*
X127720431Y-124062702D01*
X127631354Y-123857840D01*
X127558846Y-123745760D01*
X127512822Y-123674617D01*
X127512820Y-123674614D01*
X127510014Y-123670277D01*
X127359670Y-123505051D01*
X127355619Y-123501852D01*
X127355615Y-123501848D01*
X127188414Y-123369800D01*
X127188410Y-123369798D01*
X127184359Y-123366598D01*
X127142569Y-123343529D01*
X127092598Y-123293097D01*
X127077826Y-123223654D01*
X127102942Y-123157248D01*
X127130294Y-123130641D01*
X127305328Y-123005792D01*
X127313200Y-122999139D01*
X127464052Y-122848812D01*
X127470730Y-122840965D01*
X127595003Y-122668020D01*
X127600313Y-122659183D01*
X127694670Y-122468267D01*
X127698469Y-122458672D01*
X127760377Y-122254910D01*
X127762555Y-122244837D01*
X127763986Y-122233962D01*
X127761775Y-122219778D01*
X127748617Y-122216000D01*
X126302000Y-122216000D01*
X126233879Y-122195998D01*
X126187386Y-122142342D01*
X126176000Y-122090000D01*
X126176000Y-121834000D01*
X126196002Y-121765879D01*
X126249658Y-121719386D01*
X126302000Y-121708000D01*
X127748344Y-121708000D01*
X127761875Y-121704027D01*
X127763180Y-121694947D01*
X127721214Y-121527875D01*
X127717894Y-121518124D01*
X127632972Y-121322814D01*
X127628105Y-121313739D01*
X127512426Y-121134926D01*
X127506136Y-121126757D01*
X127362806Y-120969240D01*
X127355273Y-120962215D01*
X127188139Y-120830222D01*
X127179556Y-120824520D01*
X127142602Y-120804120D01*
X127092631Y-120753687D01*
X127077859Y-120684245D01*
X127102975Y-120617839D01*
X127130327Y-120591232D01*
X127153797Y-120574491D01*
X127309860Y-120463173D01*
X127316557Y-120456500D01*
X127391209Y-120382107D01*
X127468096Y-120305489D01*
X127477670Y-120292166D01*
X127595435Y-120128277D01*
X127598453Y-120124077D01*
X127608006Y-120104749D01*
X127695136Y-119928453D01*
X127695137Y-119928451D01*
X127697430Y-119923811D01*
X127762370Y-119710069D01*
X127791529Y-119488590D01*
X127793156Y-119422000D01*
X127774852Y-119199361D01*
X127720431Y-118982702D01*
X127631354Y-118777840D01*
X127591906Y-118716862D01*
X127512822Y-118594617D01*
X127512820Y-118594614D01*
X127510014Y-118590277D01*
X127359670Y-118425051D01*
X127355619Y-118421852D01*
X127355615Y-118421848D01*
X127188414Y-118289800D01*
X127188410Y-118289798D01*
X127184359Y-118286598D01*
X127143053Y-118263796D01*
X127093084Y-118213364D01*
X127078312Y-118143921D01*
X127103428Y-118077516D01*
X127130780Y-118050909D01*
X127174603Y-118019650D01*
X127309860Y-117923173D01*
X127468096Y-117765489D01*
X127527594Y-117682689D01*
X127595435Y-117588277D01*
X127598453Y-117584077D01*
X127619320Y-117541857D01*
X127695136Y-117388453D01*
X127695137Y-117388451D01*
X127697430Y-117383811D01*
X127762370Y-117170069D01*
X127791529Y-116948590D01*
X127793156Y-116882000D01*
X127774852Y-116659361D01*
X127720431Y-116442702D01*
X127631354Y-116237840D01*
X127510014Y-116050277D01*
X127359670Y-115885051D01*
X127355619Y-115881852D01*
X127355615Y-115881848D01*
X127188414Y-115749800D01*
X127188410Y-115749798D01*
X127184359Y-115746598D01*
X126988789Y-115638638D01*
X126983920Y-115636914D01*
X126983916Y-115636912D01*
X126783087Y-115565795D01*
X126783083Y-115565794D01*
X126778212Y-115564069D01*
X126773119Y-115563162D01*
X126773116Y-115563161D01*
X126563373Y-115525800D01*
X126563367Y-115525799D01*
X126558284Y-115524894D01*
X126484452Y-115523992D01*
X126340081Y-115522228D01*
X126340079Y-115522228D01*
X126334911Y-115522165D01*
X126114091Y-115555955D01*
X125901756Y-115625357D01*
X125871443Y-115641137D01*
X125713170Y-115723529D01*
X125703607Y-115728507D01*
X125699474Y-115731610D01*
X125699471Y-115731612D01*
X125675247Y-115749800D01*
X125524965Y-115862635D01*
X125370629Y-116024138D01*
X125263201Y-116181621D01*
X125208293Y-116226621D01*
X125137768Y-116234792D01*
X125074021Y-116203538D01*
X125053324Y-116179054D01*
X124972822Y-116054617D01*
X124972820Y-116054614D01*
X124970014Y-116050277D01*
X124819670Y-115885051D01*
X124815619Y-115881852D01*
X124815615Y-115881848D01*
X124648414Y-115749800D01*
X124648410Y-115749798D01*
X124644359Y-115746598D01*
X124448789Y-115638638D01*
X124443920Y-115636914D01*
X124443916Y-115636912D01*
X124243087Y-115565795D01*
X124243083Y-115565794D01*
X124238212Y-115564069D01*
X124233119Y-115563162D01*
X124233116Y-115563161D01*
X124023373Y-115525800D01*
X124023367Y-115525799D01*
X124018284Y-115524894D01*
X123944452Y-115523992D01*
X123800081Y-115522228D01*
X123800079Y-115522228D01*
X123794911Y-115522165D01*
X123574091Y-115555955D01*
X123361756Y-115625357D01*
X123331443Y-115641137D01*
X123173170Y-115723529D01*
X123163607Y-115728507D01*
X123159474Y-115731610D01*
X123159471Y-115731612D01*
X123135247Y-115749800D01*
X122984965Y-115862635D01*
X122830629Y-116024138D01*
X122723201Y-116181621D01*
X122668293Y-116226621D01*
X122597768Y-116234792D01*
X122534021Y-116203538D01*
X122513324Y-116179054D01*
X122432822Y-116054617D01*
X122432820Y-116054614D01*
X122430014Y-116050277D01*
X122279670Y-115885051D01*
X122275619Y-115881852D01*
X122275615Y-115881848D01*
X122108414Y-115749800D01*
X122108410Y-115749798D01*
X122104359Y-115746598D01*
X121908789Y-115638638D01*
X121903920Y-115636914D01*
X121903916Y-115636912D01*
X121703087Y-115565795D01*
X121703083Y-115565794D01*
X121698212Y-115564069D01*
X121693119Y-115563162D01*
X121693116Y-115563161D01*
X121483373Y-115525800D01*
X121483367Y-115525799D01*
X121478284Y-115524894D01*
X121404452Y-115523992D01*
X121260081Y-115522228D01*
X121260079Y-115522228D01*
X121254911Y-115522165D01*
X121034091Y-115555955D01*
X120821756Y-115625357D01*
X120791443Y-115641137D01*
X120633170Y-115723529D01*
X120623607Y-115728507D01*
X120619474Y-115731610D01*
X120619471Y-115731612D01*
X120595247Y-115749800D01*
X120444965Y-115862635D01*
X120290629Y-116024138D01*
X120183201Y-116181621D01*
X120128293Y-116226621D01*
X120057768Y-116234792D01*
X119994021Y-116203538D01*
X119973324Y-116179054D01*
X119892822Y-116054617D01*
X119892820Y-116054614D01*
X119890014Y-116050277D01*
X119739670Y-115885051D01*
X119735619Y-115881852D01*
X119735615Y-115881848D01*
X119568414Y-115749800D01*
X119568410Y-115749798D01*
X119564359Y-115746598D01*
X119368789Y-115638638D01*
X119363920Y-115636914D01*
X119363916Y-115636912D01*
X119163087Y-115565795D01*
X119163083Y-115565794D01*
X119158212Y-115564069D01*
X119153119Y-115563162D01*
X119153116Y-115563161D01*
X118943373Y-115525800D01*
X118943367Y-115525799D01*
X118938284Y-115524894D01*
X118864452Y-115523992D01*
X118720081Y-115522228D01*
X118720079Y-115522228D01*
X118714911Y-115522165D01*
X118494091Y-115555955D01*
X118281756Y-115625357D01*
X118251443Y-115641137D01*
X118093170Y-115723529D01*
X118083607Y-115728507D01*
X118079474Y-115731610D01*
X118079471Y-115731612D01*
X118055247Y-115749800D01*
X117904965Y-115862635D01*
X117750629Y-116024138D01*
X117643201Y-116181621D01*
X117588293Y-116226621D01*
X117517768Y-116234792D01*
X117454021Y-116203538D01*
X117433324Y-116179054D01*
X117352822Y-116054617D01*
X117352820Y-116054614D01*
X117350014Y-116050277D01*
X117199670Y-115885051D01*
X117195619Y-115881852D01*
X117195615Y-115881848D01*
X117028414Y-115749800D01*
X117028410Y-115749798D01*
X117024359Y-115746598D01*
X116828789Y-115638638D01*
X116823920Y-115636914D01*
X116823916Y-115636912D01*
X116623087Y-115565795D01*
X116623083Y-115565794D01*
X116618212Y-115564069D01*
X116613119Y-115563162D01*
X116613116Y-115563161D01*
X116403373Y-115525800D01*
X116403367Y-115525799D01*
X116398284Y-115524894D01*
X116324452Y-115523992D01*
X116180081Y-115522228D01*
X116180079Y-115522228D01*
X116174911Y-115522165D01*
X115954091Y-115555955D01*
X115741756Y-115625357D01*
X115711443Y-115641137D01*
X115553170Y-115723529D01*
X115543607Y-115728507D01*
X115539474Y-115731610D01*
X115539471Y-115731612D01*
X115515247Y-115749800D01*
X115364965Y-115862635D01*
X115210629Y-116024138D01*
X115103201Y-116181621D01*
X115048293Y-116226621D01*
X114977768Y-116234792D01*
X114914021Y-116203538D01*
X114893324Y-116179054D01*
X114812822Y-116054617D01*
X114812820Y-116054614D01*
X114810014Y-116050277D01*
X114659670Y-115885051D01*
X114655619Y-115881852D01*
X114655615Y-115881848D01*
X114488414Y-115749800D01*
X114488410Y-115749798D01*
X114484359Y-115746598D01*
X114288789Y-115638638D01*
X114283920Y-115636914D01*
X114283916Y-115636912D01*
X114083087Y-115565795D01*
X114083083Y-115565794D01*
X114078212Y-115564069D01*
X114073119Y-115563162D01*
X114073116Y-115563161D01*
X113863373Y-115525800D01*
X113863367Y-115525799D01*
X113858284Y-115524894D01*
X113784452Y-115523992D01*
X113640081Y-115522228D01*
X113640079Y-115522228D01*
X113634911Y-115522165D01*
X113414091Y-115555955D01*
X113201756Y-115625357D01*
X113171443Y-115641137D01*
X113013170Y-115723529D01*
X113003607Y-115728507D01*
X112999474Y-115731610D01*
X112999471Y-115731612D01*
X112975247Y-115749800D01*
X112824965Y-115862635D01*
X112670629Y-116024138D01*
X112563201Y-116181621D01*
X112508293Y-116226621D01*
X112437768Y-116234792D01*
X112374021Y-116203538D01*
X112353324Y-116179054D01*
X112272822Y-116054617D01*
X112272820Y-116054614D01*
X112270014Y-116050277D01*
X112119670Y-115885051D01*
X112115619Y-115881852D01*
X112115615Y-115881848D01*
X111948414Y-115749800D01*
X111948410Y-115749798D01*
X111944359Y-115746598D01*
X111748789Y-115638638D01*
X111743920Y-115636914D01*
X111743916Y-115636912D01*
X111543087Y-115565795D01*
X111543083Y-115565794D01*
X111538212Y-115564069D01*
X111533119Y-115563162D01*
X111533116Y-115563161D01*
X111323373Y-115525800D01*
X111323367Y-115525799D01*
X111318284Y-115524894D01*
X111244452Y-115523992D01*
X111100081Y-115522228D01*
X111100079Y-115522228D01*
X111094911Y-115522165D01*
X110874091Y-115555955D01*
X110661756Y-115625357D01*
X110631443Y-115641137D01*
X110473170Y-115723529D01*
X110463607Y-115728507D01*
X110459474Y-115731610D01*
X110459471Y-115731612D01*
X110435247Y-115749800D01*
X110284965Y-115862635D01*
X110130629Y-116024138D01*
X110023201Y-116181621D01*
X109968293Y-116226621D01*
X109897768Y-116234792D01*
X109834021Y-116203538D01*
X109813324Y-116179054D01*
X109732822Y-116054617D01*
X109732820Y-116054614D01*
X109730014Y-116050277D01*
X109579670Y-115885051D01*
X109575619Y-115881852D01*
X109575615Y-115881848D01*
X109408414Y-115749800D01*
X109408410Y-115749798D01*
X109404359Y-115746598D01*
X109208789Y-115638638D01*
X109203920Y-115636914D01*
X109203916Y-115636912D01*
X109003087Y-115565795D01*
X109003083Y-115565794D01*
X108998212Y-115564069D01*
X108993119Y-115563162D01*
X108993116Y-115563161D01*
X108783373Y-115525800D01*
X108783367Y-115525799D01*
X108778284Y-115524894D01*
X108704452Y-115523992D01*
X108560081Y-115522228D01*
X108560079Y-115522228D01*
X108554911Y-115522165D01*
X108334091Y-115555955D01*
X108121756Y-115625357D01*
X108091443Y-115641137D01*
X107933170Y-115723529D01*
X107923607Y-115728507D01*
X107919474Y-115731610D01*
X107919471Y-115731612D01*
X107895247Y-115749800D01*
X107744965Y-115862635D01*
X107590629Y-116024138D01*
X107483201Y-116181621D01*
X107428293Y-116226621D01*
X107357768Y-116234792D01*
X107294021Y-116203538D01*
X107273324Y-116179054D01*
X107192822Y-116054617D01*
X107192820Y-116054614D01*
X107190014Y-116050277D01*
X107039670Y-115885051D01*
X107035619Y-115881852D01*
X107035615Y-115881848D01*
X106868414Y-115749800D01*
X106868410Y-115749798D01*
X106864359Y-115746598D01*
X106668789Y-115638638D01*
X106663920Y-115636914D01*
X106663916Y-115636912D01*
X106463087Y-115565795D01*
X106463083Y-115565794D01*
X106458212Y-115564069D01*
X106453119Y-115563162D01*
X106453116Y-115563161D01*
X106243373Y-115525800D01*
X106243367Y-115525799D01*
X106238284Y-115524894D01*
X106164452Y-115523992D01*
X106020081Y-115522228D01*
X106020079Y-115522228D01*
X106014911Y-115522165D01*
X105794091Y-115555955D01*
X105581756Y-115625357D01*
X105551443Y-115641137D01*
X105393170Y-115723529D01*
X105383607Y-115728507D01*
X105379474Y-115731610D01*
X105379471Y-115731612D01*
X105355247Y-115749800D01*
X105204965Y-115862635D01*
X105050629Y-116024138D01*
X104943201Y-116181621D01*
X104888293Y-116226621D01*
X104817768Y-116234792D01*
X104754021Y-116203538D01*
X104733324Y-116179054D01*
X104652822Y-116054617D01*
X104652820Y-116054614D01*
X104650014Y-116050277D01*
X104499670Y-115885051D01*
X104495619Y-115881852D01*
X104495615Y-115881848D01*
X104328414Y-115749800D01*
X104328410Y-115749798D01*
X104324359Y-115746598D01*
X104282569Y-115723529D01*
X104232598Y-115673097D01*
X104217826Y-115603654D01*
X104242942Y-115537248D01*
X104270294Y-115510641D01*
X104445328Y-115385792D01*
X104453200Y-115379139D01*
X104604052Y-115228812D01*
X104610730Y-115220965D01*
X104735003Y-115048020D01*
X104740313Y-115039183D01*
X104834670Y-114848267D01*
X104838469Y-114838672D01*
X104900377Y-114634910D01*
X104902555Y-114624837D01*
X104903986Y-114613962D01*
X104901775Y-114599778D01*
X104888617Y-114596000D01*
X102253225Y-114596000D01*
X102239694Y-114599973D01*
X102238257Y-114609966D01*
X102268565Y-114744446D01*
X102271645Y-114754275D01*
X102351770Y-114951603D01*
X102356413Y-114960794D01*
X102467694Y-115142388D01*
X102473777Y-115150699D01*
X102613213Y-115311667D01*
X102620580Y-115318883D01*
X102784434Y-115454916D01*
X102792881Y-115460831D01*
X102861969Y-115501203D01*
X102910693Y-115552842D01*
X102923764Y-115622625D01*
X102897033Y-115688396D01*
X102856584Y-115721752D01*
X102843607Y-115728507D01*
X102839474Y-115731610D01*
X102839471Y-115731612D01*
X102815247Y-115749800D01*
X102664965Y-115862635D01*
X102510629Y-116024138D01*
X102384743Y-116208680D01*
X102290688Y-116411305D01*
X102230989Y-116626570D01*
X102207251Y-116848695D01*
X102207548Y-116853848D01*
X102207548Y-116853851D01*
X102213011Y-116948590D01*
X102220110Y-117071715D01*
X102221247Y-117076761D01*
X102221248Y-117076767D01*
X102241119Y-117164939D01*
X102269222Y-117289639D01*
X102353266Y-117496616D01*
X102404019Y-117579438D01*
X102467291Y-117682688D01*
X102469987Y-117687088D01*
X102616250Y-117855938D01*
X102788126Y-117998632D01*
X102833809Y-118025327D01*
X102861445Y-118041476D01*
X102910169Y-118093114D01*
X102923240Y-118162897D01*
X102896509Y-118228669D01*
X102856055Y-118262027D01*
X102843607Y-118268507D01*
X102839474Y-118271610D01*
X102839471Y-118271612D01*
X102815247Y-118289800D01*
X102664965Y-118402635D01*
X102510629Y-118564138D01*
X102384743Y-118748680D01*
X102290688Y-118951305D01*
X102288413Y-118950249D01*
X102252395Y-118998947D01*
X102186019Y-119024142D01*
X102116559Y-119009452D01*
X102067185Y-118961517D01*
X102026341Y-118890774D01*
X102023040Y-118885056D01*
X101949863Y-118803785D01*
X101919147Y-118739779D01*
X101917500Y-118719476D01*
X101917500Y-111768695D01*
X102207251Y-111768695D01*
X102207548Y-111773848D01*
X102207548Y-111773851D01*
X102213011Y-111868590D01*
X102220110Y-111991715D01*
X102221247Y-111996761D01*
X102221248Y-111996767D01*
X102235493Y-112059973D01*
X102269222Y-112209639D01*
X102353266Y-112416616D01*
X102390685Y-112477678D01*
X102467291Y-112602688D01*
X102469987Y-112607088D01*
X102616250Y-112775938D01*
X102788126Y-112918632D01*
X102823348Y-112939214D01*
X102861955Y-112961774D01*
X102910679Y-113013412D01*
X102923750Y-113083195D01*
X102897019Y-113148967D01*
X102856562Y-113182327D01*
X102848457Y-113186546D01*
X102839738Y-113192036D01*
X102669433Y-113319905D01*
X102661726Y-113326748D01*
X102514590Y-113480717D01*
X102508104Y-113488727D01*
X102388098Y-113664649D01*
X102383000Y-113673623D01*
X102293338Y-113866783D01*
X102289775Y-113876470D01*
X102234389Y-114076183D01*
X102235912Y-114084607D01*
X102248292Y-114088000D01*
X104888344Y-114088000D01*
X104901875Y-114084027D01*
X104903180Y-114074947D01*
X104861214Y-113907875D01*
X104857894Y-113898124D01*
X104772972Y-113702814D01*
X104768105Y-113693739D01*
X104652426Y-113514926D01*
X104646136Y-113506757D01*
X104502806Y-113349240D01*
X104495273Y-113342215D01*
X104328139Y-113210222D01*
X104319556Y-113204520D01*
X104282602Y-113184120D01*
X104232631Y-113133687D01*
X104217859Y-113064245D01*
X104242975Y-112997839D01*
X104270327Y-112971232D01*
X104300913Y-112949415D01*
X104449860Y-112843173D01*
X104608096Y-112685489D01*
X104624334Y-112662892D01*
X104735435Y-112508277D01*
X104738453Y-112504077D01*
X104743741Y-112493379D01*
X104835136Y-112308453D01*
X104835137Y-112308451D01*
X104837430Y-112303811D01*
X104902370Y-112090069D01*
X104905017Y-112069966D01*
X107318257Y-112069966D01*
X107348565Y-112204446D01*
X107351645Y-112214275D01*
X107431770Y-112411603D01*
X107436413Y-112420794D01*
X107547694Y-112602388D01*
X107553777Y-112610699D01*
X107693213Y-112771667D01*
X107700580Y-112778883D01*
X107864434Y-112914916D01*
X107872881Y-112920831D01*
X108056756Y-113028279D01*
X108066042Y-113032729D01*
X108265001Y-113108703D01*
X108274899Y-113111579D01*
X108378250Y-113132606D01*
X108392299Y-113131410D01*
X108396000Y-113121065D01*
X108396000Y-112074115D01*
X108391525Y-112058876D01*
X108390135Y-112057671D01*
X108382452Y-112056000D01*
X107333225Y-112056000D01*
X107319694Y-112059973D01*
X107318257Y-112069966D01*
X104905017Y-112069966D01*
X104931529Y-111868590D01*
X104933156Y-111802000D01*
X104914852Y-111579361D01*
X104904006Y-111536183D01*
X107314389Y-111536183D01*
X107315912Y-111544607D01*
X107328292Y-111548000D01*
X108377885Y-111548000D01*
X108393124Y-111543525D01*
X108394329Y-111542135D01*
X108396000Y-111534452D01*
X108396000Y-110485102D01*
X108392082Y-110471758D01*
X108377806Y-110469771D01*
X108339324Y-110475660D01*
X108329288Y-110478051D01*
X108126868Y-110544212D01*
X108117359Y-110548209D01*
X107928463Y-110646542D01*
X107919738Y-110652036D01*
X107749433Y-110779905D01*
X107741726Y-110786748D01*
X107594590Y-110940717D01*
X107588104Y-110948727D01*
X107468098Y-111124649D01*
X107463000Y-111133623D01*
X107373338Y-111326783D01*
X107369775Y-111336470D01*
X107314389Y-111536183D01*
X104904006Y-111536183D01*
X104860431Y-111362702D01*
X104771354Y-111157840D01*
X104650014Y-110970277D01*
X104499670Y-110805051D01*
X104495619Y-110801852D01*
X104495615Y-110801848D01*
X104328414Y-110669800D01*
X104328410Y-110669798D01*
X104324359Y-110666598D01*
X104283053Y-110643796D01*
X104233084Y-110593364D01*
X104218312Y-110523921D01*
X104243428Y-110457516D01*
X104270780Y-110430909D01*
X104335222Y-110384943D01*
X104449860Y-110303173D01*
X104608096Y-110145489D01*
X104667594Y-110062689D01*
X104735435Y-109968277D01*
X104738453Y-109964077D01*
X104771390Y-109897435D01*
X104835136Y-109768453D01*
X104835137Y-109768451D01*
X104837430Y-109763811D01*
X104886783Y-109601373D01*
X104900865Y-109555023D01*
X104900865Y-109555021D01*
X104902370Y-109550069D01*
X104931529Y-109328590D01*
X104933156Y-109262000D01*
X104914852Y-109039361D01*
X104860431Y-108822702D01*
X104771354Y-108617840D01*
X104694032Y-108498318D01*
X104652822Y-108434617D01*
X104652820Y-108434614D01*
X104650014Y-108430277D01*
X104499670Y-108265051D01*
X104495619Y-108261852D01*
X104495615Y-108261848D01*
X104328414Y-108129800D01*
X104328410Y-108129798D01*
X104324359Y-108126598D01*
X104283053Y-108103796D01*
X104233084Y-108053364D01*
X104218312Y-107983921D01*
X104243428Y-107917516D01*
X104270780Y-107890909D01*
X104314603Y-107859650D01*
X104449860Y-107763173D01*
X104608096Y-107605489D01*
X104667594Y-107522689D01*
X104735435Y-107428277D01*
X104738453Y-107424077D01*
X104753016Y-107394612D01*
X104835136Y-107228453D01*
X104835137Y-107228451D01*
X104837430Y-107223811D01*
X104902370Y-107010069D01*
X104931529Y-106788590D01*
X104932513Y-106748305D01*
X104933074Y-106725365D01*
X104933074Y-106725361D01*
X104933156Y-106722000D01*
X104914852Y-106499361D01*
X104860431Y-106282702D01*
X104771354Y-106077840D01*
X104731906Y-106016862D01*
X104652822Y-105894617D01*
X104652820Y-105894614D01*
X104650014Y-105890277D01*
X104499670Y-105725051D01*
X104495619Y-105721852D01*
X104495615Y-105721848D01*
X104328414Y-105589800D01*
X104328410Y-105589798D01*
X104324359Y-105586598D01*
X104128789Y-105478638D01*
X104123920Y-105476914D01*
X104123916Y-105476912D01*
X103923087Y-105405795D01*
X103923083Y-105405794D01*
X103918212Y-105404069D01*
X103913119Y-105403162D01*
X103913116Y-105403161D01*
X103703373Y-105365800D01*
X103703367Y-105365799D01*
X103698284Y-105364894D01*
X103624452Y-105363992D01*
X103480081Y-105362228D01*
X103480079Y-105362228D01*
X103474911Y-105362165D01*
X103254091Y-105395955D01*
X103041756Y-105465357D01*
X102843607Y-105568507D01*
X102839474Y-105571610D01*
X102839471Y-105571612D01*
X102777832Y-105617892D01*
X102664965Y-105702635D01*
X102510629Y-105864138D01*
X102507715Y-105868410D01*
X102507714Y-105868411D01*
X102492798Y-105890277D01*
X102384743Y-106048680D01*
X102346782Y-106130460D01*
X102300706Y-106229724D01*
X102290688Y-106251305D01*
X102230989Y-106466570D01*
X102207251Y-106688695D01*
X102207548Y-106693848D01*
X102207548Y-106693851D01*
X102213011Y-106788590D01*
X102220110Y-106911715D01*
X102221247Y-106916761D01*
X102221248Y-106916767D01*
X102228680Y-106949742D01*
X102269222Y-107129639D01*
X102330673Y-107280976D01*
X102338761Y-107300893D01*
X102353266Y-107336616D01*
X102363588Y-107353460D01*
X102461421Y-107513109D01*
X102469987Y-107527088D01*
X102616250Y-107695938D01*
X102788126Y-107838632D01*
X102858595Y-107879811D01*
X102861445Y-107881476D01*
X102910169Y-107933114D01*
X102923240Y-108002897D01*
X102896509Y-108068669D01*
X102856055Y-108102027D01*
X102843607Y-108108507D01*
X102839474Y-108111610D01*
X102839471Y-108111612D01*
X102669100Y-108239530D01*
X102664965Y-108242635D01*
X102510629Y-108404138D01*
X102507715Y-108408410D01*
X102507714Y-108408411D01*
X102469995Y-108463705D01*
X102384743Y-108588680D01*
X102369003Y-108622590D01*
X102310010Y-108749680D01*
X102290688Y-108791305D01*
X102230989Y-109006570D01*
X102207251Y-109228695D01*
X102207548Y-109233848D01*
X102207548Y-109233851D01*
X102216468Y-109388548D01*
X102220110Y-109451715D01*
X102221247Y-109456761D01*
X102221248Y-109456767D01*
X102241119Y-109544939D01*
X102269222Y-109669639D01*
X102353266Y-109876616D01*
X102369780Y-109903565D01*
X102463358Y-110056270D01*
X102469987Y-110067088D01*
X102616250Y-110235938D01*
X102788126Y-110378632D01*
X102798926Y-110384943D01*
X102861445Y-110421476D01*
X102910169Y-110473114D01*
X102923240Y-110542897D01*
X102896509Y-110608669D01*
X102856055Y-110642027D01*
X102843607Y-110648507D01*
X102839474Y-110651610D01*
X102839471Y-110651612D01*
X102669100Y-110779530D01*
X102664965Y-110782635D01*
X102639541Y-110809240D01*
X102571280Y-110880671D01*
X102510629Y-110944138D01*
X102507720Y-110948403D01*
X102507714Y-110948411D01*
X102503558Y-110954504D01*
X102384743Y-111128680D01*
X102290688Y-111331305D01*
X102230989Y-111546570D01*
X102207251Y-111768695D01*
X101917500Y-111768695D01*
X101917500Y-105138524D01*
X101937502Y-105070403D01*
X101949858Y-105054221D01*
X102023040Y-104972944D01*
X102118527Y-104807556D01*
X102177542Y-104625928D01*
X102179903Y-104603470D01*
X102196814Y-104442565D01*
X102197504Y-104436000D01*
X102189119Y-104356221D01*
X102178232Y-104252635D01*
X102178232Y-104252633D01*
X102177542Y-104246072D01*
X102118527Y-104064444D01*
X102114011Y-104056621D01*
X102026341Y-103904774D01*
X102023040Y-103899056D01*
X101997064Y-103870206D01*
X101899675Y-103762045D01*
X101899674Y-103762044D01*
X101895253Y-103757134D01*
X101780829Y-103674000D01*
X101746094Y-103648763D01*
X101746093Y-103648762D01*
X101740752Y-103644882D01*
X101734724Y-103642198D01*
X101734722Y-103642197D01*
X101572319Y-103569891D01*
X101572318Y-103569891D01*
X101566288Y-103567206D01*
X101504529Y-103554079D01*
X101442057Y-103520351D01*
X101410894Y-103469768D01*
X101358569Y-103308729D01*
X101356527Y-103302444D01*
X101261040Y-103137056D01*
X101235064Y-103108206D01*
X101137675Y-103000045D01*
X101137674Y-103000044D01*
X101133253Y-102995134D01*
X101018829Y-102912000D01*
X100984094Y-102886763D01*
X100984093Y-102886762D01*
X100978752Y-102882882D01*
X100972724Y-102880198D01*
X100972722Y-102880197D01*
X100810319Y-102807891D01*
X100810318Y-102807891D01*
X100804288Y-102805206D01*
X100742529Y-102792079D01*
X100680057Y-102758351D01*
X100648894Y-102707768D01*
X100596569Y-102546729D01*
X100594527Y-102540444D01*
X100499040Y-102375056D01*
X100473064Y-102346206D01*
X100375675Y-102238045D01*
X100375674Y-102238044D01*
X100371253Y-102233134D01*
X100249566Y-102144723D01*
X100222094Y-102124763D01*
X100222093Y-102124762D01*
X100216752Y-102120882D01*
X100210724Y-102118198D01*
X100210722Y-102118197D01*
X100048319Y-102045891D01*
X100048318Y-102045891D01*
X100042288Y-102043206D01*
X99980529Y-102030079D01*
X99918057Y-101996351D01*
X99886894Y-101945768D01*
X99842550Y-101809290D01*
X99832527Y-101778444D01*
X99737040Y-101613056D01*
X99609253Y-101471134D01*
X99454752Y-101358882D01*
X99448724Y-101356198D01*
X99448722Y-101356197D01*
X99286319Y-101283891D01*
X99286318Y-101283891D01*
X99280288Y-101281206D01*
X99186888Y-101261353D01*
X99099944Y-101242872D01*
X99099939Y-101242872D01*
X99093487Y-101241500D01*
X98902513Y-101241500D01*
X98896053Y-101242873D01*
X98896054Y-101242873D01*
X98877501Y-101246816D01*
X98806710Y-101241413D01*
X98750078Y-101198596D01*
X98725585Y-101131958D01*
X98736406Y-101071857D01*
X98790757Y-100951094D01*
X98797828Y-100937621D01*
X98945595Y-100693187D01*
X98954238Y-100680666D01*
X99130385Y-100455829D01*
X99140475Y-100444440D01*
X99342440Y-100242475D01*
X99353829Y-100232385D01*
X99578666Y-100056238D01*
X99591187Y-100047595D01*
X99835621Y-99899828D01*
X99849094Y-99892757D01*
X99891777Y-99873547D01*
X100109555Y-99775534D01*
X100123769Y-99770142D01*
X100396474Y-99685164D01*
X100411240Y-99681525D01*
X100620214Y-99643229D01*
X100692186Y-99630040D01*
X100707290Y-99628206D01*
X100957904Y-99613047D01*
X100984716Y-99614308D01*
X100984852Y-99614310D01*
X100993724Y-99615691D01*
X101002626Y-99614527D01*
X101002628Y-99614527D01*
X101017677Y-99612559D01*
X101025286Y-99611564D01*
X101041621Y-99610500D01*
X128950633Y-99610500D01*
X128970018Y-99612000D01*
G37*
%TD.AperFunction*%
%TA.AperFunction,Conductor*%
G36*
X131451724Y-105825371D02*
G01*
X131487709Y-105886572D01*
X131491500Y-105917248D01*
X131491500Y-113117439D01*
X131471498Y-113185560D01*
X131417842Y-113232053D01*
X131347568Y-113242157D01*
X131314252Y-113232546D01*
X131290323Y-113221893D01*
X131284288Y-113219206D01*
X131190888Y-113199353D01*
X131103944Y-113180872D01*
X131103939Y-113180872D01*
X131097487Y-113179500D01*
X130906513Y-113179500D01*
X130900061Y-113180872D01*
X130900056Y-113180872D01*
X130813113Y-113199353D01*
X130719712Y-113219206D01*
X130713682Y-113221891D01*
X130713681Y-113221891D01*
X130551278Y-113294197D01*
X130551276Y-113294198D01*
X130545248Y-113296882D01*
X130390747Y-113409134D01*
X130386326Y-113414044D01*
X130386325Y-113414045D01*
X130295492Y-113514926D01*
X130262960Y-113551056D01*
X130167473Y-113716444D01*
X130108458Y-113898072D01*
X130107768Y-113904633D01*
X130107768Y-113904635D01*
X130089868Y-114074947D01*
X130088496Y-114088000D01*
X130108458Y-114277928D01*
X130167473Y-114459556D01*
X130262960Y-114624944D01*
X130336137Y-114706215D01*
X130366853Y-114770221D01*
X130368500Y-114790524D01*
X130368500Y-118719476D01*
X130348498Y-118787597D01*
X130336142Y-118803779D01*
X130262960Y-118885056D01*
X130167473Y-119050444D01*
X130108458Y-119232072D01*
X130088496Y-119422000D01*
X130089186Y-119428565D01*
X130095844Y-119491908D01*
X130108458Y-119611928D01*
X130167473Y-119793556D01*
X130170776Y-119799278D01*
X130170777Y-119799279D01*
X130195678Y-119842409D01*
X130262960Y-119958944D01*
X130336137Y-120040215D01*
X130366853Y-120104221D01*
X130368500Y-120124524D01*
X130368500Y-123467500D01*
X130348498Y-123535621D01*
X130294842Y-123582114D01*
X130242500Y-123593500D01*
X130144513Y-123593500D01*
X130138061Y-123594872D01*
X130138056Y-123594872D01*
X130051113Y-123613353D01*
X129957712Y-123633206D01*
X129951682Y-123635891D01*
X129951681Y-123635891D01*
X129789278Y-123708197D01*
X129789276Y-123708198D01*
X129783248Y-123710882D01*
X129628747Y-123823134D01*
X129624326Y-123828044D01*
X129624325Y-123828045D01*
X129569136Y-123889339D01*
X129508690Y-123926579D01*
X129437707Y-123925227D01*
X129378722Y-123885714D01*
X129350464Y-123820583D01*
X129349500Y-123805029D01*
X129349500Y-110593971D01*
X129369502Y-110525850D01*
X129423158Y-110479357D01*
X129493432Y-110469253D01*
X129558012Y-110498747D01*
X129569134Y-110509659D01*
X129586136Y-110528542D01*
X129609125Y-110554073D01*
X129628747Y-110575866D01*
X129675753Y-110610018D01*
X129758036Y-110669800D01*
X129783248Y-110688118D01*
X129789276Y-110690802D01*
X129789278Y-110690803D01*
X129951681Y-110763109D01*
X129957712Y-110765794D01*
X130051113Y-110785647D01*
X130138056Y-110804128D01*
X130138061Y-110804128D01*
X130144513Y-110805500D01*
X130335487Y-110805500D01*
X130341939Y-110804128D01*
X130341944Y-110804128D01*
X130428888Y-110785647D01*
X130522288Y-110765794D01*
X130528319Y-110763109D01*
X130690722Y-110690803D01*
X130690724Y-110690802D01*
X130696752Y-110688118D01*
X130721965Y-110669800D01*
X130804247Y-110610018D01*
X130851253Y-110575866D01*
X130870455Y-110554540D01*
X130974621Y-110438852D01*
X130974622Y-110438851D01*
X130979040Y-110433944D01*
X131066682Y-110282144D01*
X131071223Y-110274279D01*
X131071224Y-110274278D01*
X131074527Y-110268556D01*
X131133542Y-110086928D01*
X131134275Y-110079959D01*
X131152814Y-109903565D01*
X131153504Y-109897000D01*
X131139993Y-109768453D01*
X131134232Y-109713635D01*
X131134232Y-109713633D01*
X131133542Y-109707072D01*
X131074527Y-109525444D01*
X131061950Y-109503659D01*
X131016330Y-109424644D01*
X130979040Y-109360056D01*
X130905863Y-109278785D01*
X130875147Y-109214779D01*
X130873500Y-109194476D01*
X130873500Y-106295315D01*
X130893502Y-106227194D01*
X130927230Y-106192102D01*
X131015264Y-106130460D01*
X131019776Y-106127301D01*
X131169301Y-105977776D01*
X131262288Y-105844976D01*
X131317744Y-105800649D01*
X131388363Y-105793340D01*
X131451724Y-105825371D01*
G37*
%TD.AperFunction*%
%TD*%
M02*
