%TF.GenerationSoftware,KiCad,Pcbnew,(6.0.8)*%
%TF.CreationDate,2022-10-18T12:17:07-04:00*%
%TF.ProjectId,firebeetle-shield,66697265-6265-4657-946c-652d73686965,v2*%
%TF.SameCoordinates,Original*%
%TF.FileFunction,Legend,Bot*%
%TF.FilePolarity,Positive*%
%FSLAX46Y46*%
G04 Gerber Fmt 4.6, Leading zero omitted, Abs format (unit mm)*
G04 Created by KiCad (PCBNEW (6.0.8)) date 2022-10-18 12:17:07*
%MOMM*%
%LPD*%
G01*
G04 APERTURE LIST*
%ADD10C,0.150000*%
%ADD11C,0.120000*%
G04 APERTURE END LIST*
D10*
X125071523Y-113432419D02*
X124881047Y-113289561D01*
X124690571Y-113432419D01*
X124023904Y-113813371D02*
X123881047Y-113860990D01*
X123833428Y-113908609D01*
X123785809Y-114003847D01*
X123785809Y-114146704D01*
X123833428Y-114241942D01*
X123881047Y-114289561D01*
X123976285Y-114337180D01*
X124357238Y-114337180D01*
X124357238Y-113337180D01*
X124023904Y-113337180D01*
X123928666Y-113384800D01*
X123881047Y-113432419D01*
X123833428Y-113527657D01*
X123833428Y-113622895D01*
X123881047Y-113718133D01*
X123928666Y-113765752D01*
X124023904Y-113813371D01*
X124357238Y-113813371D01*
X123452476Y-113670514D02*
X123214380Y-114337180D01*
X122976285Y-113670514D02*
X123214380Y-114337180D01*
X123309619Y-114575276D01*
X123357238Y-114622895D01*
X123452476Y-114670514D01*
X122595333Y-113670514D02*
X122595333Y-114670514D01*
X122595333Y-113718133D02*
X122500095Y-113670514D01*
X122309619Y-113670514D01*
X122214380Y-113718133D01*
X122166761Y-113765752D01*
X122119142Y-113860990D01*
X122119142Y-114146704D01*
X122166761Y-114241942D01*
X122214380Y-114289561D01*
X122309619Y-114337180D01*
X122500095Y-114337180D01*
X122595333Y-114289561D01*
X121262000Y-114337180D02*
X121262000Y-113813371D01*
X121309619Y-113718133D01*
X121404857Y-113670514D01*
X121595333Y-113670514D01*
X121690571Y-113718133D01*
X121262000Y-114289561D02*
X121357238Y-114337180D01*
X121595333Y-114337180D01*
X121690571Y-114289561D01*
X121738190Y-114194323D01*
X121738190Y-114099085D01*
X121690571Y-114003847D01*
X121595333Y-113956228D01*
X121357238Y-113956228D01*
X121262000Y-113908609D01*
X120833428Y-114289561D02*
X120738190Y-114337180D01*
X120547714Y-114337180D01*
X120452476Y-114289561D01*
X120404857Y-114194323D01*
X120404857Y-114146704D01*
X120452476Y-114051466D01*
X120547714Y-114003847D01*
X120690571Y-114003847D01*
X120785809Y-113956228D01*
X120833428Y-113860990D01*
X120833428Y-113813371D01*
X120785809Y-113718133D01*
X120690571Y-113670514D01*
X120547714Y-113670514D01*
X120452476Y-113718133D01*
X120023904Y-114289561D02*
X119928666Y-114337180D01*
X119738190Y-114337180D01*
X119642952Y-114289561D01*
X119595333Y-114194323D01*
X119595333Y-114146704D01*
X119642952Y-114051466D01*
X119738190Y-114003847D01*
X119881047Y-114003847D01*
X119976285Y-113956228D01*
X120023904Y-113860990D01*
X120023904Y-113813371D01*
X119976285Y-113718133D01*
X119881047Y-113670514D01*
X119738190Y-113670514D01*
X119642952Y-113718133D01*
X118119142Y-114718133D02*
X118166761Y-114670514D01*
X118262000Y-114527657D01*
X118309619Y-114432419D01*
X118357238Y-114289561D01*
X118404857Y-114051466D01*
X118404857Y-113860990D01*
X118357238Y-113622895D01*
X118309619Y-113480038D01*
X118262000Y-113384800D01*
X118166761Y-113241942D01*
X118119142Y-113194323D01*
X117166761Y-114241942D02*
X117214380Y-114289561D01*
X117357238Y-114337180D01*
X117452476Y-114337180D01*
X117595333Y-114289561D01*
X117690571Y-114194323D01*
X117738190Y-114099085D01*
X117785809Y-113908609D01*
X117785809Y-113765752D01*
X117738190Y-113575276D01*
X117690571Y-113480038D01*
X117595333Y-113384800D01*
X117452476Y-113337180D01*
X117357238Y-113337180D01*
X117214380Y-113384800D01*
X117166761Y-113432419D01*
X116738190Y-114337180D02*
X116738190Y-113337180D01*
X116309619Y-114337180D02*
X116309619Y-113813371D01*
X116357238Y-113718133D01*
X116452476Y-113670514D01*
X116595333Y-113670514D01*
X116690571Y-113718133D01*
X116738190Y-113765752D01*
X115690571Y-114337180D02*
X115785809Y-114289561D01*
X115833428Y-114241942D01*
X115881047Y-114146704D01*
X115881047Y-113860990D01*
X115833428Y-113765752D01*
X115785809Y-113718133D01*
X115690571Y-113670514D01*
X115547714Y-113670514D01*
X115452476Y-113718133D01*
X115404857Y-113765752D01*
X115357238Y-113860990D01*
X115357238Y-114146704D01*
X115404857Y-114241942D01*
X115452476Y-114289561D01*
X115547714Y-114337180D01*
X115690571Y-114337180D01*
X114785809Y-114337180D02*
X114881047Y-114289561D01*
X114928666Y-114241942D01*
X114976285Y-114146704D01*
X114976285Y-113860990D01*
X114928666Y-113765752D01*
X114881047Y-113718133D01*
X114785809Y-113670514D01*
X114642952Y-113670514D01*
X114547714Y-113718133D01*
X114500095Y-113765752D01*
X114452476Y-113860990D01*
X114452476Y-114146704D01*
X114500095Y-114241942D01*
X114547714Y-114289561D01*
X114642952Y-114337180D01*
X114785809Y-114337180D01*
X114071523Y-114289561D02*
X113976285Y-114337180D01*
X113785809Y-114337180D01*
X113690571Y-114289561D01*
X113642952Y-114194323D01*
X113642952Y-114146704D01*
X113690571Y-114051466D01*
X113785809Y-114003847D01*
X113928666Y-114003847D01*
X114023904Y-113956228D01*
X114071523Y-113860990D01*
X114071523Y-113813371D01*
X114023904Y-113718133D01*
X113928666Y-113670514D01*
X113785809Y-113670514D01*
X113690571Y-113718133D01*
X112833428Y-114289561D02*
X112928666Y-114337180D01*
X113119142Y-114337180D01*
X113214380Y-114289561D01*
X113262000Y-114194323D01*
X113262000Y-113813371D01*
X113214380Y-113718133D01*
X113119142Y-113670514D01*
X112928666Y-113670514D01*
X112833428Y-113718133D01*
X112785809Y-113813371D01*
X112785809Y-113908609D01*
X113262000Y-114003847D01*
X111452476Y-114337180D02*
X111547714Y-114289561D01*
X111595333Y-114241942D01*
X111642952Y-114146704D01*
X111642952Y-113860990D01*
X111595333Y-113765752D01*
X111547714Y-113718133D01*
X111452476Y-113670514D01*
X111309619Y-113670514D01*
X111214380Y-113718133D01*
X111166761Y-113765752D01*
X111119142Y-113860990D01*
X111119142Y-114146704D01*
X111166761Y-114241942D01*
X111214380Y-114289561D01*
X111309619Y-114337180D01*
X111452476Y-114337180D01*
X110690571Y-113670514D02*
X110690571Y-114337180D01*
X110690571Y-113765752D02*
X110642952Y-113718133D01*
X110547714Y-113670514D01*
X110404857Y-113670514D01*
X110309619Y-113718133D01*
X110262000Y-113813371D01*
X110262000Y-114337180D01*
X109642952Y-114337180D02*
X109738190Y-114289561D01*
X109785809Y-114194323D01*
X109785809Y-113337180D01*
X109357238Y-113670514D02*
X109119142Y-114337180D01*
X108881047Y-113670514D02*
X109119142Y-114337180D01*
X109214380Y-114575276D01*
X109262000Y-114622895D01*
X109357238Y-114670514D01*
X107214380Y-114337180D02*
X107785809Y-114337180D01*
X107500095Y-114337180D02*
X107500095Y-113337180D01*
X107595333Y-113480038D01*
X107690571Y-113575276D01*
X107785809Y-113622895D01*
X106881047Y-114718133D02*
X106833428Y-114670514D01*
X106738190Y-114527657D01*
X106690571Y-114432419D01*
X106642952Y-114289561D01*
X106595333Y-114051466D01*
X106595333Y-113860990D01*
X106642952Y-113622895D01*
X106690571Y-113480038D01*
X106738190Y-113384800D01*
X106833428Y-113241942D01*
X106881047Y-113194323D01*
X129765161Y-113337180D02*
X129765161Y-114146704D01*
X129717542Y-114241942D01*
X129669923Y-114289561D01*
X129574685Y-114337180D01*
X129384209Y-114337180D01*
X129288971Y-114289561D01*
X129241352Y-114241942D01*
X129193733Y-114146704D01*
X129193733Y-113337180D01*
X128765161Y-114289561D02*
X128669923Y-114337180D01*
X128479447Y-114337180D01*
X128384209Y-114289561D01*
X128336590Y-114194323D01*
X128336590Y-114146704D01*
X128384209Y-114051466D01*
X128479447Y-114003847D01*
X128622304Y-114003847D01*
X128717542Y-113956228D01*
X128765161Y-113860990D01*
X128765161Y-113813371D01*
X128717542Y-113718133D01*
X128622304Y-113670514D01*
X128479447Y-113670514D01*
X128384209Y-113718133D01*
X127527066Y-114289561D02*
X127622304Y-114337180D01*
X127812780Y-114337180D01*
X127908019Y-114289561D01*
X127955638Y-114194323D01*
X127955638Y-113813371D01*
X127908019Y-113718133D01*
X127812780Y-113670514D01*
X127622304Y-113670514D01*
X127527066Y-113718133D01*
X127479447Y-113813371D01*
X127479447Y-113908609D01*
X127955638Y-114003847D01*
X127193733Y-113432419D02*
X127003257Y-113289561D01*
X126812780Y-113432419D01*
X129341028Y-110428761D02*
X129198171Y-110476380D01*
X128960076Y-110476380D01*
X128864838Y-110428761D01*
X128817219Y-110381142D01*
X128769600Y-110285904D01*
X128769600Y-110190666D01*
X128817219Y-110095428D01*
X128864838Y-110047809D01*
X128960076Y-110000190D01*
X129150552Y-109952571D01*
X129245790Y-109904952D01*
X129293409Y-109857333D01*
X129341028Y-109762095D01*
X129341028Y-109666857D01*
X129293409Y-109571619D01*
X129245790Y-109524000D01*
X129150552Y-109476380D01*
X128912457Y-109476380D01*
X128769600Y-109524000D01*
X128341028Y-110476380D02*
X128341028Y-109476380D01*
X128102933Y-109476380D01*
X127960076Y-109524000D01*
X127864838Y-109619238D01*
X127817219Y-109714476D01*
X127769600Y-109904952D01*
X127769600Y-110047809D01*
X127817219Y-110238285D01*
X127864838Y-110333523D01*
X127960076Y-110428761D01*
X128102933Y-110476380D01*
X128341028Y-110476380D01*
X126626742Y-110428761D02*
X126483885Y-110476380D01*
X126245790Y-110476380D01*
X126150552Y-110428761D01*
X126102933Y-110381142D01*
X126055314Y-110285904D01*
X126055314Y-110190666D01*
X126102933Y-110095428D01*
X126150552Y-110047809D01*
X126245790Y-110000190D01*
X126436266Y-109952571D01*
X126531504Y-109904952D01*
X126579123Y-109857333D01*
X126626742Y-109762095D01*
X126626742Y-109666857D01*
X126579123Y-109571619D01*
X126531504Y-109524000D01*
X126436266Y-109476380D01*
X126198171Y-109476380D01*
X126055314Y-109524000D01*
X125721980Y-109809714D02*
X125531504Y-110476380D01*
X125341028Y-110000190D01*
X125150552Y-110476380D01*
X124960076Y-109809714D01*
X124579123Y-110476380D02*
X124579123Y-109809714D01*
X124579123Y-109476380D02*
X124626742Y-109524000D01*
X124579123Y-109571619D01*
X124531504Y-109524000D01*
X124579123Y-109476380D01*
X124579123Y-109571619D01*
X124245790Y-109809714D02*
X123864838Y-109809714D01*
X124102933Y-109476380D02*
X124102933Y-110333523D01*
X124055314Y-110428761D01*
X123960076Y-110476380D01*
X123864838Y-110476380D01*
X123102933Y-110428761D02*
X123198171Y-110476380D01*
X123388647Y-110476380D01*
X123483885Y-110428761D01*
X123531504Y-110381142D01*
X123579123Y-110285904D01*
X123579123Y-110000190D01*
X123531504Y-109904952D01*
X123483885Y-109857333D01*
X123388647Y-109809714D01*
X123198171Y-109809714D01*
X123102933Y-109857333D01*
X122674361Y-110476380D02*
X122674361Y-109476380D01*
X122245790Y-110476380D02*
X122245790Y-109952571D01*
X122293409Y-109857333D01*
X122388647Y-109809714D01*
X122531504Y-109809714D01*
X122626742Y-109857333D01*
X122674361Y-109904952D01*
X128929095Y-100824380D02*
X128929095Y-99824380D01*
X128691000Y-99824380D01*
X128548142Y-99872000D01*
X128452904Y-99967238D01*
X128405285Y-100062476D01*
X128357666Y-100252952D01*
X128357666Y-100395809D01*
X128405285Y-100586285D01*
X128452904Y-100681523D01*
X128548142Y-100776761D01*
X128691000Y-100824380D01*
X128929095Y-100824380D01*
X127929095Y-100824380D02*
X127929095Y-99824380D01*
X127262428Y-100348190D02*
X127262428Y-100824380D01*
X127595761Y-99824380D02*
X127262428Y-100348190D01*
X126929095Y-99824380D01*
X126167190Y-100157714D02*
X126167190Y-100824380D01*
X126405285Y-99776761D02*
X126643380Y-100491047D01*
X126024333Y-100491047D01*
X125643380Y-100729142D02*
X125595761Y-100776761D01*
X125643380Y-100824380D01*
X125691000Y-100776761D01*
X125643380Y-100729142D01*
X125643380Y-100824380D01*
X125643380Y-100205333D02*
X125595761Y-100252952D01*
X125643380Y-100300571D01*
X125691000Y-100252952D01*
X125643380Y-100205333D01*
X125643380Y-100300571D01*
X124071952Y-100300571D02*
X124405285Y-100300571D01*
X124405285Y-100824380D02*
X124405285Y-99824380D01*
X123929095Y-99824380D01*
X123548142Y-100824380D02*
X123548142Y-100157714D01*
X123548142Y-99824380D02*
X123595761Y-99872000D01*
X123548142Y-99919619D01*
X123500523Y-99872000D01*
X123548142Y-99824380D01*
X123548142Y-99919619D01*
X123071952Y-100824380D02*
X123071952Y-100157714D01*
X123071952Y-100348190D02*
X123024333Y-100252952D01*
X122976714Y-100205333D01*
X122881476Y-100157714D01*
X122786238Y-100157714D01*
X122071952Y-100776761D02*
X122167190Y-100824380D01*
X122357666Y-100824380D01*
X122452904Y-100776761D01*
X122500523Y-100681523D01*
X122500523Y-100300571D01*
X122452904Y-100205333D01*
X122357666Y-100157714D01*
X122167190Y-100157714D01*
X122071952Y-100205333D01*
X122024333Y-100300571D01*
X122024333Y-100395809D01*
X122500523Y-100491047D01*
X121262428Y-100300571D02*
X121119571Y-100348190D01*
X121071952Y-100395809D01*
X121024333Y-100491047D01*
X121024333Y-100633904D01*
X121071952Y-100729142D01*
X121119571Y-100776761D01*
X121214809Y-100824380D01*
X121595761Y-100824380D01*
X121595761Y-99824380D01*
X121262428Y-99824380D01*
X121167190Y-99872000D01*
X121119571Y-99919619D01*
X121071952Y-100014857D01*
X121071952Y-100110095D01*
X121119571Y-100205333D01*
X121167190Y-100252952D01*
X121262428Y-100300571D01*
X121595761Y-100300571D01*
X120214809Y-100776761D02*
X120310047Y-100824380D01*
X120500523Y-100824380D01*
X120595761Y-100776761D01*
X120643380Y-100681523D01*
X120643380Y-100300571D01*
X120595761Y-100205333D01*
X120500523Y-100157714D01*
X120310047Y-100157714D01*
X120214809Y-100205333D01*
X120167190Y-100300571D01*
X120167190Y-100395809D01*
X120643380Y-100491047D01*
X119357666Y-100776761D02*
X119452904Y-100824380D01*
X119643380Y-100824380D01*
X119738619Y-100776761D01*
X119786238Y-100681523D01*
X119786238Y-100300571D01*
X119738619Y-100205333D01*
X119643380Y-100157714D01*
X119452904Y-100157714D01*
X119357666Y-100205333D01*
X119310047Y-100300571D01*
X119310047Y-100395809D01*
X119786238Y-100491047D01*
X119024333Y-100157714D02*
X118643380Y-100157714D01*
X118881476Y-99824380D02*
X118881476Y-100681523D01*
X118833857Y-100776761D01*
X118738619Y-100824380D01*
X118643380Y-100824380D01*
X118167190Y-100824380D02*
X118262428Y-100776761D01*
X118310047Y-100681523D01*
X118310047Y-99824380D01*
X117405285Y-100776761D02*
X117500523Y-100824380D01*
X117691000Y-100824380D01*
X117786238Y-100776761D01*
X117833857Y-100681523D01*
X117833857Y-100300571D01*
X117786238Y-100205333D01*
X117691000Y-100157714D01*
X117500523Y-100157714D01*
X117405285Y-100205333D01*
X117357666Y-100300571D01*
X117357666Y-100395809D01*
X117833857Y-100491047D01*
X116214809Y-100776761D02*
X116071952Y-100824380D01*
X115833857Y-100824380D01*
X115738619Y-100776761D01*
X115691000Y-100729142D01*
X115643380Y-100633904D01*
X115643380Y-100538666D01*
X115691000Y-100443428D01*
X115738619Y-100395809D01*
X115833857Y-100348190D01*
X116024333Y-100300571D01*
X116119571Y-100252952D01*
X116167190Y-100205333D01*
X116214809Y-100110095D01*
X116214809Y-100014857D01*
X116167190Y-99919619D01*
X116119571Y-99872000D01*
X116024333Y-99824380D01*
X115786238Y-99824380D01*
X115643380Y-99872000D01*
X115214809Y-100824380D02*
X115214809Y-99824380D01*
X114786238Y-100824380D02*
X114786238Y-100300571D01*
X114833857Y-100205333D01*
X114929095Y-100157714D01*
X115071952Y-100157714D01*
X115167190Y-100205333D01*
X115214809Y-100252952D01*
X114310047Y-100824380D02*
X114310047Y-100157714D01*
X114310047Y-99824380D02*
X114357666Y-99872000D01*
X114310047Y-99919619D01*
X114262428Y-99872000D01*
X114310047Y-99824380D01*
X114310047Y-99919619D01*
X113452904Y-100776761D02*
X113548142Y-100824380D01*
X113738619Y-100824380D01*
X113833857Y-100776761D01*
X113881476Y-100681523D01*
X113881476Y-100300571D01*
X113833857Y-100205333D01*
X113738619Y-100157714D01*
X113548142Y-100157714D01*
X113452904Y-100205333D01*
X113405285Y-100300571D01*
X113405285Y-100395809D01*
X113881476Y-100491047D01*
X112833857Y-100824380D02*
X112929095Y-100776761D01*
X112976714Y-100681523D01*
X112976714Y-99824380D01*
X112024333Y-100824380D02*
X112024333Y-99824380D01*
X112024333Y-100776761D02*
X112119571Y-100824380D01*
X112310047Y-100824380D01*
X112405285Y-100776761D01*
X112452904Y-100729142D01*
X112500523Y-100633904D01*
X112500523Y-100348190D01*
X112452904Y-100252952D01*
X112405285Y-100205333D01*
X112310047Y-100157714D01*
X112119571Y-100157714D01*
X112024333Y-100205333D01*
X110929095Y-99824380D02*
X110595761Y-100824380D01*
X110262428Y-99824380D01*
X109976714Y-99919619D02*
X109929095Y-99872000D01*
X109833857Y-99824380D01*
X109595761Y-99824380D01*
X109500523Y-99872000D01*
X109452904Y-99919619D01*
X109405285Y-100014857D01*
X109405285Y-100110095D01*
X109452904Y-100252952D01*
X110024333Y-100824380D01*
X109405285Y-100824380D01*
%TO.C,JP2*%
X130438333Y-111254380D02*
X130438333Y-111968666D01*
X130485952Y-112111523D01*
X130581190Y-112206761D01*
X130724047Y-112254380D01*
X130819285Y-112254380D01*
X129962142Y-112254380D02*
X129962142Y-111254380D01*
X129581190Y-111254380D01*
X129485952Y-111302000D01*
X129438333Y-111349619D01*
X129390714Y-111444857D01*
X129390714Y-111587714D01*
X129438333Y-111682952D01*
X129485952Y-111730571D01*
X129581190Y-111778190D01*
X129962142Y-111778190D01*
X129009761Y-111349619D02*
X128962142Y-111302000D01*
X128866904Y-111254380D01*
X128628809Y-111254380D01*
X128533571Y-111302000D01*
X128485952Y-111349619D01*
X128438333Y-111444857D01*
X128438333Y-111540095D01*
X128485952Y-111682952D01*
X129057380Y-112254380D01*
X128438333Y-112254380D01*
%TO.C,Q1*%
X125950238Y-106539619D02*
X126045476Y-106492000D01*
X126140714Y-106396761D01*
X126283571Y-106253904D01*
X126378809Y-106206285D01*
X126474047Y-106206285D01*
X126426428Y-106444380D02*
X126521666Y-106396761D01*
X126616904Y-106301523D01*
X126664523Y-106111047D01*
X126664523Y-105777714D01*
X126616904Y-105587238D01*
X126521666Y-105492000D01*
X126426428Y-105444380D01*
X126235952Y-105444380D01*
X126140714Y-105492000D01*
X126045476Y-105587238D01*
X125997857Y-105777714D01*
X125997857Y-106111047D01*
X126045476Y-106301523D01*
X126140714Y-106396761D01*
X126235952Y-106444380D01*
X126426428Y-106444380D01*
X125045476Y-106444380D02*
X125616904Y-106444380D01*
X125331190Y-106444380D02*
X125331190Y-105444380D01*
X125426428Y-105587238D01*
X125521666Y-105682476D01*
X125616904Y-105730095D01*
%TO.C,J2*%
X103903333Y-151684380D02*
X103903333Y-152398666D01*
X103950952Y-152541523D01*
X104046190Y-152636761D01*
X104189047Y-152684380D01*
X104284285Y-152684380D01*
X103474761Y-151779619D02*
X103427142Y-151732000D01*
X103331904Y-151684380D01*
X103093809Y-151684380D01*
X102998571Y-151732000D01*
X102950952Y-151779619D01*
X102903333Y-151874857D01*
X102903333Y-151970095D01*
X102950952Y-152112952D01*
X103522380Y-152684380D01*
X102903333Y-152684380D01*
%TO.C,J1*%
X126763333Y-151684380D02*
X126763333Y-152398666D01*
X126810952Y-152541523D01*
X126906190Y-152636761D01*
X127049047Y-152684380D01*
X127144285Y-152684380D01*
X125763333Y-152684380D02*
X126334761Y-152684380D01*
X126049047Y-152684380D02*
X126049047Y-151684380D01*
X126144285Y-151827238D01*
X126239523Y-151922476D01*
X126334761Y-151970095D01*
%TO.C,JP1*%
X124723333Y-153164380D02*
X124723333Y-153878666D01*
X124770952Y-154021523D01*
X124866190Y-154116761D01*
X125009047Y-154164380D01*
X125104285Y-154164380D01*
X124247142Y-154164380D02*
X124247142Y-153164380D01*
X123866190Y-153164380D01*
X123770952Y-153212000D01*
X123723333Y-153259619D01*
X123675714Y-153354857D01*
X123675714Y-153497714D01*
X123723333Y-153592952D01*
X123770952Y-153640571D01*
X123866190Y-153688190D01*
X124247142Y-153688190D01*
X122723333Y-154164380D02*
X123294761Y-154164380D01*
X123009047Y-154164380D02*
X123009047Y-153164380D01*
X123104285Y-153307238D01*
X123199523Y-153402476D01*
X123294761Y-153450095D01*
D11*
%TO.C,JP2*%
X127322000Y-110802000D02*
X124522000Y-110802000D01*
X127972000Y-112102000D02*
X127972000Y-111502000D01*
X123872000Y-111502000D02*
X123872000Y-112102000D01*
X124522000Y-112802000D02*
X127322000Y-112802000D01*
X127972000Y-111502000D02*
G75*
G03*
X127272000Y-110802000I-699999J1D01*
G01*
X124572000Y-110802000D02*
G75*
G03*
X123872000Y-111502000I0J-700000D01*
G01*
X127272000Y-112802000D02*
G75*
G03*
X127972000Y-112102000I1J699999D01*
G01*
X123872000Y-112102000D02*
G75*
G03*
X124572000Y-112802000I700000J0D01*
G01*
%TO.C,Q1*%
X125120000Y-108492000D02*
X125120000Y-109152000D01*
X125120000Y-106822000D02*
X125120000Y-107492000D01*
X126530000Y-109152000D02*
X125120000Y-109152000D01*
X125120000Y-106832000D02*
X127855000Y-106832000D01*
%TO.C,J2*%
X102240000Y-149902000D02*
X102240000Y-151232000D01*
X102240000Y-148632000D02*
X102240000Y-105392000D01*
X102240000Y-148632000D02*
X104900000Y-148632000D01*
X104900000Y-148632000D02*
X104900000Y-105392000D01*
X102240000Y-151232000D02*
X103570000Y-151232000D01*
X102240000Y-105392000D02*
X104900000Y-105392000D01*
%TO.C,J1*%
X127760000Y-148632000D02*
X127760000Y-115552000D01*
X125100000Y-149902000D02*
X125100000Y-151232000D01*
X125100000Y-148632000D02*
X127760000Y-148632000D01*
X125100000Y-151232000D02*
X126430000Y-151232000D01*
X125100000Y-148632000D02*
X125100000Y-115552000D01*
X125100000Y-115552000D02*
X127760000Y-115552000D01*
%TO.C,JP1*%
X121650000Y-152312000D02*
X121050000Y-152312000D01*
X121050000Y-155112000D02*
X121650000Y-155112000D01*
X122350000Y-154412000D02*
X122350000Y-153012000D01*
X120350000Y-153012000D02*
X120350000Y-154412000D01*
X122350000Y-153012000D02*
G75*
G03*
X121650000Y-152312000I-700000J0D01*
G01*
X121650000Y-155112000D02*
G75*
G03*
X122350000Y-154412000I1J699999D01*
G01*
X120350000Y-154412000D02*
G75*
G03*
X121050000Y-155112000I699999J-1D01*
G01*
X121050000Y-152312000D02*
G75*
G03*
X120350000Y-153012000I0J-700000D01*
G01*
%TD*%
M02*
