M48
; DRILL file {KiCad (6.0.8)} date Tue 18 Oct 2022 12:17:10 PM EDT
; FORMAT={-:-/ absolute / inch / decimal}
; #@! TF.CreationDate,2022-10-18T12:17:10-04:00
; #@! TF.GenerationSoftware,Kicad,Pcbnew,(6.0.8)
; #@! TF.FileFunction,Plated,1,2,PTH
FMAT,2
INCH
; #@! TA.AperFunction,Plated,PTH,ViaDrill
T1C0.0157
; #@! TA.AperFunction,Plated,PTH,ComponentDrill
T2C0.0276
; #@! TA.AperFunction,Plated,PTH,ComponentDrill
T3C0.0295
; #@! TA.AperFunction,Plated,PTH,ComponentDrill
T4C0.0394
%
G90
G05
T1
X3.8976Y-4.0217
X3.8976Y-5.3017
X3.8976Y-5.7017
X3.8976Y-5.9767
X3.9276Y-4.0517
X3.9276Y-4.9017
X3.9276Y-5.0017
X3.9276Y-5.5017
X3.9276Y-5.6017
X3.9276Y-6.0067
X3.9576Y-4.0817
X3.9576Y-4.8017
X3.9576Y-5.1017
X3.9576Y-5.4017
X3.9576Y-6.3017
X3.9876Y-4.1117
X3.9876Y-4.7017
X3.9876Y-5.5517
X3.9876Y-5.8517
X4.3776Y-4.0517
X4.3776Y-6.0067
X4.4776Y-4.1117
X4.4882Y-6.3973
X4.5276Y-4.5257
X4.5669Y-6.4673
X4.5776Y-4.0817
X4.6457Y-6.4335
X4.6776Y-4.0217
X4.6776Y-5.9767
X4.9576Y-4.4917
X4.9676Y-6.1567
X5.0073Y-4.3269
X5.0676Y-5.1017
X5.0976Y-5.0017
X5.0976Y-6.4667
X5.1076Y-4.4367
X5.1276Y-4.3267
X5.1276Y-4.9017
X5.1276Y-6.4317
X5.1576Y-4.4917
X5.1576Y-4.7017
X5.1576Y-6.3967
T2
X4.0526Y-6.3267
X4.0526Y-6.6267
X4.1526Y-6.3267
X4.1526Y-6.6267
X4.8276Y-4.1417
X5.1276Y-4.1417
T3
X4.4094Y-6.5788
X4.4882Y-6.5788
X4.5669Y-6.5788
X4.6457Y-6.5788
T4
X4.0776Y-4.2017
X4.0776Y-4.3017
X4.0776Y-4.4017
X4.0776Y-4.5017
X4.0776Y-4.6017
X4.0776Y-4.7017
X4.0776Y-4.8017
X4.0776Y-4.9017
X4.0776Y-5.0017
X4.0776Y-5.1017
X4.0776Y-5.2017
X4.0776Y-5.3017
X4.0776Y-5.4017
X4.0776Y-5.5017
X4.0776Y-5.6017
X4.0776Y-5.7017
X4.0776Y-5.8017
X4.0776Y-5.9017
X4.1752Y-4.7017
X4.1752Y-4.8017
X4.1752Y-4.9045
X4.1759Y-5.1017
X4.1759Y-5.2017
X4.1759Y-5.3017
X4.1759Y-5.4031
X4.1759Y-5.5034
X4.1759Y-5.6017
X4.1759Y-5.7017
X4.1759Y-5.802
X4.1776Y-4.6017
X4.1776Y-5.0017
X4.1776Y-5.9017
X4.2752Y-4.7017
X4.2752Y-4.8017
X4.2752Y-4.9045
X4.2759Y-5.1017
X4.2759Y-5.2017
X4.2759Y-5.3017
X4.2759Y-5.4031
X4.2759Y-5.5034
X4.2759Y-5.6017
X4.2759Y-5.7017
X4.2759Y-5.802
X4.2776Y-4.4017
X4.2776Y-4.6017
X4.2776Y-5.0017
X4.2776Y-5.9017
X4.2776Y-6.3017
X4.3752Y-4.7017
X4.3752Y-4.8017
X4.3752Y-4.9045
X4.3759Y-5.1017
X4.3759Y-5.2017
X4.3759Y-5.3017
X4.3759Y-5.4031
X4.3759Y-5.5034
X4.3759Y-5.6017
X4.3759Y-5.7017
X4.3759Y-5.802
X4.3776Y-4.4017
X4.3776Y-4.6017
X4.3776Y-5.0017
X4.3776Y-5.9017
X4.3776Y-6.3017
X4.4752Y-4.7017
X4.4752Y-4.8017
X4.4752Y-4.9045
X4.4759Y-5.1017
X4.4759Y-5.2017
X4.4759Y-5.3017
X4.4759Y-5.4031
X4.4759Y-5.5034
X4.4759Y-5.6017
X4.4759Y-5.7017
X4.4759Y-5.802
X4.4776Y-4.4017
X4.4776Y-4.6017
X4.4776Y-5.0017
X4.4776Y-5.9017
X4.4776Y-6.3017
X4.5752Y-4.7017
X4.5752Y-4.8017
X4.5752Y-4.9045
X4.5759Y-5.1017
X4.5759Y-5.2017
X4.5759Y-5.3017
X4.5759Y-5.4031
X4.5759Y-5.5034
X4.5759Y-5.6017
X4.5759Y-5.7017
X4.5759Y-5.802
X4.5776Y-4.4017
X4.5776Y-4.6017
X4.5776Y-5.0017
X4.5776Y-5.9017
X4.5776Y-6.3017
X4.6752Y-4.7017
X4.6752Y-4.8017
X4.6752Y-4.9045
X4.6759Y-5.1017
X4.6759Y-5.2017
X4.6759Y-5.3017
X4.6759Y-5.4031
X4.6759Y-5.5034
X4.6759Y-5.6017
X4.6759Y-5.7017
X4.6759Y-5.802
X4.6776Y-4.4017
X4.6776Y-4.6017
X4.6776Y-5.0017
X4.6776Y-5.9017
X4.6776Y-6.3017
X4.7752Y-4.7017
X4.7752Y-4.8017
X4.7752Y-4.9045
X4.7759Y-5.1017
X4.7759Y-5.2017
X4.7759Y-5.3017
X4.7759Y-5.4031
X4.7759Y-5.5034
X4.7759Y-5.6017
X4.7759Y-5.7017
X4.7759Y-5.802
X4.7776Y-4.4017
X4.7776Y-4.6017
X4.7776Y-5.0017
X4.7776Y-5.9017
X4.7776Y-6.3017
X4.8752Y-4.7017
X4.8752Y-4.8017
X4.8752Y-4.9045
X4.8759Y-5.1017
X4.8759Y-5.2017
X4.8759Y-5.3017
X4.8759Y-5.4031
X4.8759Y-5.5034
X4.8759Y-5.6017
X4.8759Y-5.7017
X4.8759Y-5.802
X4.8776Y-4.6017
X4.8776Y-5.0017
X4.8776Y-5.9017
X4.9776Y-4.6017
X4.9776Y-4.7017
X4.9776Y-4.8017
X4.9776Y-4.9017
X4.9776Y-5.0017
X4.9776Y-5.1017
X4.9776Y-5.2017
X4.9776Y-5.3017
X4.9776Y-5.4017
X4.9776Y-5.5017
X4.9776Y-5.6017
X4.9776Y-5.7017
X4.9776Y-5.8017
X4.9776Y-5.9017
T0
M30
